<svg width="1180" height="206" viewBox="0 0 1180 206" fill="none" xmlns="http://www.w3.org/2000/svg">
<path d="M1024.79 186.044C1018.89 186.044 1013.14 185.422 1007.54 184.179C1002.11 183.092 996.979 181.538 992.163 179.518C987.502 177.343 983.463 174.78 980.045 171.828L986.104 158.545C989.833 161.496 993.872 163.982 998.222 166.002C1002.57 167.866 1007 169.265 1011.51 170.197C1016.01 171.129 1020.59 171.595 1025.26 171.595C1034.11 171.595 1040.79 169.964 1045.3 166.701C1049.8 163.438 1052.06 159.011 1052.06 153.418C1052.06 149.067 1050.58 145.649 1047.63 143.164C1044.68 140.523 1040.01 138.503 1033.64 137.105L1012.44 132.444C1002.65 130.424 995.348 126.928 990.532 121.957C985.871 116.985 983.541 110.538 983.541 102.614C983.541 95.6229 985.327 89.6414 988.901 84.6698C992.629 79.5429 997.834 75.5811 1004.51 72.7846C1011.2 69.9881 1018.96 68.5898 1027.82 68.5898C1033.1 68.5898 1038.15 69.1336 1042.97 70.2211C1047.78 71.3087 1052.29 72.94 1056.48 75.1151C1060.83 77.1348 1064.56 79.6982 1067.67 82.8055L1061.38 96.089C1058.43 93.2924 1055.08 90.962 1051.36 89.0977C1047.63 87.0779 1043.74 85.602 1039.7 84.6698C1035.82 83.5823 1031.86 83.0385 1027.82 83.0385C1019.12 83.0385 1012.52 84.7475 1008.01 88.1655C1003.5 91.5835 1001.25 96.089 1001.25 101.682C1001.25 106.032 1002.65 109.605 1005.45 112.402C1008.24 115.199 1012.59 117.218 1018.5 118.461L1039.7 122.889C1049.8 125.064 1057.34 128.56 1062.31 133.376C1067.44 138.037 1070 144.407 1070 152.485C1070 159.321 1068.14 165.303 1064.41 170.43C1060.68 175.401 1055.4 179.285 1048.56 182.082C1041.88 184.723 1033.96 186.044 1024.79 186.044Z" fill="#7D7D7D"/>
<path d="M908.847 183.946V70.6873H927.257V97.4873H924.927C927.568 88.3209 932.151 81.4073 938.676 76.7464C945.201 71.9302 953.824 69.1337 964.544 68.3568L971.302 67.6577L972.701 83.9707L960.815 85.369C950.251 86.3012 942.094 89.7191 936.346 95.6229C930.753 101.371 927.956 109.295 927.956 119.393V183.946H908.847Z" fill="#7D7D7D"/>
<path d="M831.089 186.044C820.059 186.044 810.504 183.636 802.425 178.819C794.346 174.003 788.054 167.245 783.549 158.545C779.199 149.689 777.023 139.28 777.023 127.317C777.023 115.354 779.199 105.022 783.549 96.322C788.054 87.4664 794.346 80.6304 802.425 75.8142C810.504 70.998 820.059 68.5898 831.089 68.5898C842.12 68.5898 851.675 70.998 859.754 75.8142C867.833 80.6304 874.047 87.4664 878.397 96.322C882.903 105.022 885.156 115.354 885.156 127.317C885.156 139.28 882.903 149.689 878.397 158.545C874.047 167.245 867.833 174.003 859.754 178.819C851.675 183.636 842.12 186.044 831.089 186.044ZM831.089 170.896C841.809 170.896 850.277 167.167 856.491 159.71C862.861 152.097 866.046 141.222 866.046 127.084C866.046 113.101 862.861 102.381 856.491 94.9237C850.277 87.4664 841.809 83.7377 831.089 83.7377C820.525 83.7377 812.058 87.4664 805.688 94.9237C799.318 102.381 796.133 113.101 796.133 127.084C796.133 141.222 799.318 152.097 805.688 159.71C812.058 167.167 820.525 170.896 831.089 170.896Z" fill="#7D7D7D"/>
<path d="M706.256 186.044C695.226 186.044 685.671 183.636 677.592 178.819C669.513 174.003 663.221 167.245 658.716 158.545C654.365 149.689 652.19 139.28 652.19 127.317C652.19 115.354 654.365 105.022 658.716 96.322C663.221 87.4664 669.513 80.6304 677.592 75.8142C685.671 70.998 695.226 68.5898 706.256 68.5898C717.287 68.5898 726.842 70.998 734.921 75.8142C743 80.6304 749.214 87.4664 753.564 96.322C758.07 105.022 760.323 115.354 760.323 127.317C760.323 139.28 758.07 149.689 753.564 158.545C749.214 167.245 743 174.003 734.921 178.819C726.842 183.636 717.287 186.044 706.256 186.044ZM706.256 170.896C716.976 170.896 725.444 167.167 731.658 159.71C738.028 152.097 741.213 141.222 741.213 127.084C741.213 113.101 738.028 102.381 731.658 94.9237C725.444 87.4664 716.976 83.7377 706.256 83.7377C695.692 83.7377 687.225 87.4664 680.855 94.9237C674.485 102.381 671.3 113.101 671.3 127.084C671.3 141.222 674.485 152.097 680.855 159.71C687.225 167.167 695.692 170.896 706.256 170.896Z" fill="#7D7D7D"/>
<path d="M571.089 186.044C560.99 186.044 552.134 183.636 544.522 178.819C537.064 174.003 531.238 167.245 527.043 158.545C523.004 149.689 520.984 139.28 520.984 127.317C520.984 115.199 523.004 104.789 527.043 96.0891C531.238 87.2334 537.064 80.4752 544.522 75.8143C552.134 70.9981 560.99 68.59 571.089 68.59C581.343 68.59 590.121 71.1535 597.423 76.2804C604.725 81.4074 609.618 88.321 612.104 97.0213H609.541V19.6509H628.417V183.946H610.007V156.913H612.337C609.852 165.769 604.88 172.838 597.423 178.12C590.121 183.403 581.343 186.044 571.089 186.044ZM575.05 170.896C585.77 170.896 594.238 167.167 600.452 159.71C606.822 152.097 610.007 141.299 610.007 127.317C610.007 113.179 606.822 102.381 600.452 94.9239C594.238 87.4665 585.77 83.7378 575.05 83.7378C564.486 83.7378 556.019 87.4665 549.649 94.9239C543.279 102.381 540.094 113.179 540.094 127.317C540.094 141.299 543.279 152.097 549.649 159.71C556.019 167.167 564.486 170.896 575.05 170.896Z" fill="#7D7D7D"/>
<path d="M364.676 183.946V171.362L432.957 80.4748V85.3687H364.676V70.687H450.436V83.2714L381.455 174.624V169.264H452.999V183.946H364.676Z" fill="#7D7D7D"/>
<path d="M317.736 42.4892V21.2822H341.041V42.4892H317.736ZM320.067 183.946V70.6874H338.943V183.946H320.067Z" fill="#7D7D7D"/>
<path d="M241.205 183.946V70.6873H259.616V97.4873H257.285C259.926 88.3209 264.509 81.4073 271.035 76.7464C277.56 71.9302 286.182 69.1337 296.902 68.3568L303.661 67.6577L305.059 83.9707L293.174 85.369C282.609 86.3012 274.453 89.7191 268.704 95.6229C263.111 101.371 260.315 109.295 260.315 119.393V183.946H241.205Z" fill="#7D7D7D"/>
<path d="M167.329 186.044C157.075 186.044 148.219 183.403 140.762 178.12C133.46 172.838 128.566 165.769 126.08 156.913H128.41V183.946H110V19.6509H128.877V97.0213H126.08C128.721 88.321 133.693 81.4074 140.995 76.2804C148.297 71.1535 157.075 68.59 167.329 68.59C177.583 68.59 186.438 70.9981 193.896 75.8143C201.353 80.4752 207.101 87.2334 211.141 96.0891C215.336 104.789 217.433 115.199 217.433 127.317C217.433 139.28 215.336 149.689 211.141 158.545C207.101 167.245 201.275 174.003 193.663 178.819C186.205 183.636 177.427 186.044 167.329 186.044ZM163.367 170.896C174.087 170.896 182.554 167.167 188.769 159.71C195.138 152.097 198.323 141.299 198.323 127.317C198.323 113.179 195.138 102.381 188.769 94.9239C182.554 87.4665 174.087 83.7378 163.367 83.7378C152.802 83.7378 144.335 87.4665 137.965 94.9239C131.595 102.381 128.41 113.179 128.41 127.317C128.41 141.299 131.595 152.097 137.965 159.71C144.335 167.167 152.802 170.896 163.367 170.896Z" fill="#7D7D7D"/>
</svg>
