<svg width="1500" height="261" viewBox="0 0 1500 261" fill="none" xmlns="http://www.w3.org/2000/svg">
<path d="M1329.72 241.508C1321.85 241.508 1314.18 240.679 1306.73 239.022C1299.48 237.572 1292.64 235.501 1286.22 232.808C1280 229.908 1274.62 226.49 1270.06 222.554L1278.14 204.842C1283.11 208.778 1288.5 212.093 1294.3 214.786C1300.1 217.271 1306 219.136 1312.01 220.379C1318.02 221.622 1324.13 222.243 1330.34 222.243C1342.15 222.243 1351.06 220.068 1357.06 215.718C1363.07 211.368 1366.07 205.464 1366.07 198.007C1366.07 192.206 1364.11 187.649 1360.17 184.335C1356.23 180.813 1350.02 178.12 1341.53 176.256L1313.25 170.041C1300.2 167.348 1290.46 162.688 1284.04 156.059C1277.83 149.43 1274.72 140.833 1274.72 130.269C1274.72 120.947 1277.1 112.972 1281.87 106.343C1286.84 99.5069 1293.78 94.2246 1302.69 90.4959C1311.59 86.7672 1321.95 84.9028 1333.76 84.9028C1340.8 84.9028 1347.53 85.6279 1353.96 87.0779C1360.38 88.5279 1366.39 90.703 1371.98 93.6031C1377.78 96.2961 1382.75 99.714 1386.89 103.857L1378.5 121.568C1374.57 117.84 1370.11 114.732 1365.14 112.247C1360.17 109.554 1354.99 107.586 1349.61 106.343C1344.43 104.893 1339.15 104.168 1333.76 104.168C1322.16 104.168 1313.35 106.446 1307.35 111.004C1301.34 115.561 1298.34 121.568 1298.34 129.026C1298.34 134.826 1300.2 139.59 1303.93 143.319C1307.66 147.048 1313.46 149.741 1321.33 151.398L1349.61 157.302C1363.07 160.202 1373.12 164.863 1379.75 171.284C1386.58 177.499 1390 185.992 1390 196.764C1390 205.878 1387.51 213.853 1382.54 220.689C1377.57 227.318 1370.53 232.497 1361.41 236.226C1352.51 239.747 1341.94 241.508 1329.72 241.508Z" fill="#7D7D7D"/>
<path d="M1175.13 238.712V87.6996H1199.68V123.433H1196.57C1200.09 111.211 1206.2 101.993 1214.9 95.7784C1223.6 89.3568 1235.1 85.6281 1249.39 84.5923L1258.4 83.6602L1260.27 105.411L1244.42 107.275C1230.33 108.518 1219.46 113.075 1211.79 120.947C1204.34 128.612 1200.61 139.176 1200.61 152.641V238.712H1175.13Z" fill="#7D7D7D"/>
<path d="M1071.45 241.508C1056.74 241.508 1044 238.297 1033.23 231.875C1022.46 225.454 1014.07 216.443 1008.06 204.842C1002.26 193.035 999.364 179.156 999.364 163.205C999.364 147.255 1002.26 133.479 1008.06 121.879C1014.07 110.072 1022.46 100.957 1033.23 94.5353C1044 88.1136 1056.74 84.9028 1071.45 84.9028C1086.16 84.9028 1098.9 88.1136 1109.67 94.5353C1120.44 100.957 1128.73 110.072 1134.53 121.879C1140.54 133.479 1143.54 147.255 1143.54 163.205C1143.54 179.156 1140.54 193.035 1134.53 204.842C1128.73 216.443 1120.44 225.454 1109.67 231.875C1098.9 238.297 1086.16 241.508 1071.45 241.508ZM1071.45 221.311C1085.75 221.311 1097.04 216.339 1105.32 206.396C1113.81 196.246 1118.06 181.745 1118.06 162.895C1118.06 144.251 1113.81 129.958 1105.32 120.015C1097.04 110.072 1085.75 105.1 1071.45 105.1C1057.37 105.1 1046.08 110.072 1037.58 120.015C1029.09 129.958 1024.84 144.251 1024.84 162.895C1024.84 181.745 1029.09 196.246 1037.58 206.396C1046.08 216.339 1057.37 221.311 1071.45 221.311Z" fill="#7D7D7D"/>
<path d="M905.008 241.508C890.3 241.508 877.561 238.297 866.789 231.875C856.017 225.454 847.628 216.443 841.62 204.842C835.82 193.035 832.92 179.156 832.92 163.205C832.92 147.255 835.82 133.479 841.62 121.879C847.628 110.072 856.017 100.957 866.789 94.5353C877.561 88.1136 890.3 84.9028 905.008 84.9028C919.716 84.9028 932.455 88.1136 943.227 94.5353C953.999 100.957 962.285 110.072 968.085 121.879C974.092 133.479 977.096 147.255 977.096 163.205C977.096 179.156 974.092 193.035 968.085 204.842C962.285 216.443 953.999 225.454 943.227 231.875C932.455 238.297 919.716 241.508 905.008 241.508ZM905.008 221.311C919.301 221.311 930.591 216.339 938.877 206.396C947.37 196.246 951.617 181.745 951.617 162.895C951.617 144.251 947.37 129.958 938.877 120.015C930.591 110.072 919.301 105.1 905.008 105.1C890.922 105.1 879.632 110.072 871.139 120.015C862.646 129.958 858.399 144.251 858.399 162.895C858.399 181.745 862.646 196.246 871.139 206.396C879.632 216.339 890.922 221.311 905.008 221.311Z" fill="#7D7D7D"/>
<path d="M724.785 241.508C711.32 241.508 699.513 238.297 689.363 231.876C679.419 225.454 671.651 216.443 666.058 204.843C660.672 193.035 657.979 179.156 657.979 163.206C657.979 147.048 660.672 133.169 666.058 121.568C671.651 109.761 679.419 100.75 689.363 94.5355C699.513 88.1138 711.32 84.903 724.785 84.903C738.457 84.903 750.161 88.321 759.897 95.1569C769.633 101.993 776.158 111.211 779.473 122.811H776.055V19.6509H801.223V238.712H776.676V202.668H779.783C776.469 214.475 769.84 223.9 759.897 230.943C750.161 237.987 738.457 241.508 724.785 241.508ZM730.068 221.311C744.361 221.311 755.651 216.339 763.937 206.396C772.43 196.246 776.676 181.849 776.676 163.206C776.676 144.355 772.43 129.958 763.937 120.015C755.651 110.072 744.361 105.1 730.068 105.1C715.981 105.1 704.692 110.072 696.199 120.015C687.705 129.958 683.459 144.355 683.459 163.206C683.459 181.849 687.705 196.246 696.199 206.396C704.692 216.339 715.981 221.311 730.068 221.311Z" fill="#7D7D7D"/>
<path d="M449.568 238.711V221.932L540.611 100.75V107.275H449.568V87.6992H563.915V104.478L471.941 226.282V219.136H567.333V238.711H449.568Z" fill="#7D7D7D"/>
<path d="M386.981 50.1021V21.8262H418.054V50.1021H386.981ZM390.089 238.712V87.6998H415.257V238.712H390.089Z" fill="#7D7D7D"/>
<path d="M284.94 238.712V87.6996H309.488V123.433H306.38C309.902 111.211 316.013 101.993 324.713 95.7784C333.413 89.3568 344.91 85.6281 359.204 84.5923L368.215 83.6602L370.079 105.411L354.232 107.275C340.146 108.518 329.27 113.075 321.606 120.947C314.149 128.612 310.42 139.176 310.42 152.641V238.712H284.94Z" fill="#7D7D7D"/>
<path d="M186.438 241.508C172.766 241.508 160.959 237.987 151.016 230.943C141.28 223.9 134.754 214.475 131.44 202.668H134.547V238.712H110V19.6509H135.169V122.811H131.44C134.962 111.211 141.59 101.993 151.326 95.1569C161.062 88.321 172.766 84.903 186.438 84.903C200.11 84.903 211.918 88.1138 221.861 94.5355C231.804 100.75 239.469 109.761 244.854 121.568C250.447 133.169 253.244 147.048 253.244 163.206C253.244 179.156 250.447 193.035 244.854 204.843C239.469 216.443 231.7 225.454 221.55 231.876C211.607 238.297 199.903 241.508 186.438 241.508ZM181.156 221.311C195.449 221.311 206.739 216.339 215.025 206.396C223.518 196.246 227.765 181.849 227.765 163.206C227.765 144.355 223.518 129.958 215.025 120.015C206.739 110.072 195.449 105.1 181.156 105.1C167.07 105.1 155.78 110.072 147.287 120.015C138.794 129.958 134.547 144.355 134.547 163.206C134.547 181.849 138.794 196.246 147.287 206.396C155.78 216.339 167.07 221.311 181.156 221.311Z" fill="#7D7D7D"/>
</svg>
