<svg width="940" height="164" viewBox="0 0 940 164" fill="none" xmlns="http://www.w3.org/2000/svg">
<path d="M796.092 144.445C791.665 144.445 787.353 143.979 783.159 143.047C779.08 142.231 775.235 141.066 771.623 139.551C768.127 137.92 765.098 135.998 762.534 133.784L767.079 123.821C769.875 126.035 772.905 127.899 776.167 129.414C779.43 130.812 782.751 131.861 786.13 132.56C789.509 133.259 792.946 133.609 796.442 133.609C803.084 133.609 808.094 132.385 811.473 129.938C814.852 127.491 816.542 124.171 816.542 119.976C816.542 116.713 815.435 114.15 813.221 112.285C811.007 110.305 807.512 108.79 802.734 107.741L786.829 104.245C779.488 102.731 774.012 100.109 770.399 96.3802C766.904 92.6515 765.156 87.8158 765.156 81.8732C765.156 76.6298 766.496 72.1437 769.176 68.415C771.972 64.5698 775.876 61.5985 780.886 59.5011C785.897 57.4037 791.723 56.355 798.365 56.355C802.326 56.355 806.113 56.7628 809.725 57.5785C813.338 58.3941 816.717 59.6176 819.863 61.2489C823.125 62.7637 825.922 64.6863 828.252 67.0167L823.533 76.9793C821.319 74.8819 818.814 73.1341 816.018 71.7358C813.221 70.2211 810.308 69.1141 807.279 68.415C804.365 67.5993 801.394 67.1915 798.365 67.1915C791.839 67.1915 786.887 68.4732 783.508 71.0367C780.129 73.6002 778.439 76.9793 778.439 81.1741C778.439 84.4367 779.488 87.1167 781.585 89.2141C783.683 91.3115 786.945 92.8263 791.373 93.7584L807.279 97.0793C814.852 98.7106 820.504 101.332 824.232 104.945C828.078 108.44 830 113.218 830 119.277C830 124.404 828.602 128.89 825.805 132.735C823.009 136.464 819.047 139.377 813.92 141.474C808.91 143.455 802.967 144.445 796.092 144.445Z" fill="#7D7D7D"/>
<path d="M709.135 142.873V57.9284H722.943V78.0284H721.195C723.176 71.1536 726.613 65.9684 731.507 62.4728C736.401 58.8606 742.868 56.7632 750.908 56.1806L755.976 55.6562L757.025 67.891L748.111 68.9397C740.188 69.6388 734.07 72.2023 729.759 76.6301C725.564 80.9414 723.467 86.8841 723.467 94.458V142.873H709.135Z" fill="#7D7D7D"/>
<path d="M650.816 144.445C642.543 144.445 635.377 142.639 629.318 139.027C623.259 135.415 618.54 130.346 615.161 123.821C611.898 117.179 610.267 109.372 610.267 100.4C610.267 91.428 611.898 83.6793 615.161 77.1541C618.54 70.5124 623.259 65.3854 629.318 61.7732C635.377 58.1611 642.543 56.355 650.816 56.355C659.089 56.355 666.255 58.1611 672.314 61.7732C678.373 65.3854 683.034 70.5124 686.297 77.1541C689.676 83.6793 691.366 91.428 691.366 100.4C691.366 109.372 689.676 117.179 686.297 123.821C683.034 130.346 678.373 135.415 672.314 139.027C666.255 142.639 659.089 144.445 650.816 144.445ZM650.816 133.084C658.856 133.084 665.207 130.288 669.867 124.695C674.645 118.985 677.033 110.829 677.033 100.225C677.033 89.7384 674.645 81.6984 669.867 76.1054C665.207 70.5124 658.856 67.7158 650.816 67.7158C642.893 67.7158 636.542 70.5124 631.765 76.1054C626.987 81.6984 624.599 89.7384 624.599 100.225C624.599 110.829 626.987 118.985 631.765 124.695C636.542 130.288 642.893 133.084 650.816 133.084Z" fill="#7D7D7D"/>
<path d="M557.192 144.445C548.919 144.445 541.753 142.639 535.694 139.027C529.635 135.415 524.916 130.346 521.536 123.821C518.274 117.179 516.643 109.372 516.643 100.4C516.643 91.428 518.274 83.6793 521.536 77.1541C524.916 70.5124 529.635 65.3854 535.694 61.7732C541.753 58.1611 548.919 56.355 557.192 56.355C565.465 56.355 572.631 58.1611 578.69 61.7732C584.749 65.3854 589.41 70.5124 592.673 77.1541C596.052 83.6793 597.742 91.428 597.742 100.4C597.742 109.372 596.052 117.179 592.673 123.821C589.41 130.346 584.749 135.415 578.69 139.027C572.631 142.639 565.465 144.445 557.192 144.445ZM557.192 133.084C565.232 133.084 571.583 130.288 576.243 124.695C581.021 118.985 583.409 110.829 583.409 100.225C583.409 89.7384 581.021 81.6984 576.243 76.1054C571.583 70.5124 565.232 67.7158 557.192 67.7158C549.269 67.7158 542.918 70.5124 538.141 76.1054C533.363 81.6984 530.975 89.7384 530.975 100.225C530.975 110.829 533.363 118.985 538.141 124.695C542.918 130.288 549.269 133.084 557.192 133.084Z" fill="#7D7D7D"/>
<path d="M455.816 144.446C448.243 144.446 441.601 142.639 435.891 139.027C430.298 135.415 425.929 130.346 422.783 123.821C419.753 117.18 418.238 109.373 418.238 100.4C418.238 91.3117 419.753 83.5047 422.783 76.9795C425.929 70.3378 430.298 65.2691 435.891 61.7735C441.601 58.1613 448.243 56.3552 455.816 56.3552C463.507 56.3552 470.09 58.2778 475.567 62.123C481.043 65.9682 484.714 71.1535 486.578 77.6787H484.656V19.6509H498.813V142.873H485.005V122.598H486.753C484.889 129.24 481.16 134.541 475.567 138.503C470.09 142.465 463.507 144.446 455.816 144.446ZM458.788 133.085C466.828 133.085 473.178 130.288 477.839 124.695C482.616 118.986 485.005 110.887 485.005 100.4C485.005 89.7969 482.616 81.6987 477.839 76.1056C473.178 70.5126 466.828 67.7161 458.788 67.7161C450.864 67.7161 444.514 70.5126 439.737 76.1056C434.959 81.6987 432.57 89.7969 432.57 100.4C432.57 110.887 434.959 118.986 439.737 124.695C444.514 130.288 450.864 133.085 458.788 133.085Z" fill="#7D7D7D"/>
<path d="M301.007 142.873V133.434L352.218 65.2691V68.9395H301.007V57.9282H365.327V67.3665L313.591 135.881V131.861H367.249V142.873H301.007Z" fill="#7D7D7D"/>
<path d="M265.802 36.7797V20.8745H283.28V36.7797H265.802ZM267.55 142.873V57.9284H281.707V142.873H267.55Z" fill="#7D7D7D"/>
<path d="M208.404 142.873V57.9284H222.212V78.0284H220.464C222.445 71.1536 225.883 65.9684 230.776 62.4728C235.67 58.8606 242.137 56.7632 250.177 56.1806L255.246 55.6562L256.295 67.891L247.381 68.9397C239.457 69.6388 233.34 72.2023 229.029 76.6301C224.834 80.9414 222.736 86.8841 222.736 94.458V142.873H208.404Z" fill="#7D7D7D"/>
<path d="M152.996 144.446C145.306 144.446 138.664 142.465 133.071 138.503C127.595 134.541 123.924 129.24 122.06 122.598H123.808V142.873H110V19.6509H124.157V77.6787H122.06C124.041 71.1535 127.77 65.9682 133.246 62.123C138.723 58.2778 145.306 56.3552 152.996 56.3552C160.687 56.3552 167.329 58.1613 172.922 61.7735C178.515 65.2691 182.826 70.3378 185.856 76.9795C189.002 83.5047 190.575 91.3117 190.575 100.4C190.575 109.373 189.002 117.18 185.856 123.821C182.826 130.346 178.456 135.415 172.747 139.027C167.154 142.639 160.57 144.446 152.996 144.446ZM150.025 133.085C158.065 133.085 164.416 130.288 169.076 124.695C173.854 118.986 176.243 110.887 176.243 100.4C176.243 89.7969 173.854 81.6987 169.076 76.1056C164.416 70.5126 158.065 67.7161 150.025 67.7161C142.102 67.7161 135.751 70.5126 130.974 76.1056C126.197 81.6987 123.808 89.7969 123.808 100.4C123.808 110.887 126.197 118.986 130.974 124.695C135.751 130.288 142.102 133.085 150.025 133.085Z" fill="#7D7D7D"/>
</svg>
