<svg width="1500" height="261" viewBox="0 0 1500 261" fill="none" xmlns="http://www.w3.org/2000/svg">
<path d="M1329.72 241.424C1321.85 241.424 1314.18 240.596 1306.73 238.939C1299.48 237.489 1292.64 235.417 1286.22 232.724C1280 229.824 1274.62 226.406 1270.06 222.47L1278.14 204.759C1283.11 208.695 1288.5 212.009 1294.3 214.702C1300.1 217.188 1306 219.052 1312.01 220.295C1318.02 221.538 1324.13 222.16 1330.34 222.16C1342.15 222.16 1351.06 219.984 1357.06 215.634C1363.07 211.284 1366.07 205.38 1366.07 197.923C1366.07 192.123 1364.11 187.566 1360.17 184.251C1356.23 180.73 1350.02 178.037 1341.53 176.172L1313.25 169.958C1300.2 167.265 1290.46 162.604 1284.04 155.975C1277.83 149.346 1274.72 140.75 1274.72 130.185C1274.72 120.863 1277.1 112.888 1281.87 106.259C1286.84 99.4234 1293.78 94.1411 1302.69 90.4124C1311.59 86.6837 1321.95 84.8193 1333.76 84.8193C1340.8 84.8193 1347.53 85.5444 1353.96 86.9944C1360.38 88.4445 1366.39 90.6195 1371.98 93.5196C1377.78 96.2126 1382.75 99.6305 1386.89 103.774L1378.5 121.485C1374.57 117.756 1370.11 114.649 1365.14 112.163C1360.17 109.47 1354.99 107.502 1349.61 106.259C1344.43 104.809 1339.15 104.084 1333.76 104.084C1322.16 104.084 1313.35 106.363 1307.35 110.92C1301.34 115.477 1298.34 121.485 1298.34 128.942C1298.34 134.742 1300.2 139.507 1303.93 143.236C1307.66 146.964 1313.46 149.657 1321.33 151.314L1349.61 157.218C1363.07 160.118 1373.12 164.779 1379.75 171.201C1386.58 177.415 1390 185.908 1390 196.68C1390 205.795 1387.51 213.77 1382.54 220.606C1377.57 227.235 1370.53 232.413 1361.41 236.142C1352.51 239.664 1341.94 241.424 1329.72 241.424Z" fill="#F9F9F9"/>
<path d="M1175.13 238.628V87.6161H1199.68V123.349H1196.57C1200.09 111.128 1206.2 101.909 1214.9 95.6949C1223.6 89.2733 1235.1 85.5446 1249.39 84.5088L1258.4 83.5767L1260.27 105.327L1244.42 107.192C1230.33 108.435 1219.46 112.992 1211.79 120.864C1204.34 128.528 1200.61 139.093 1200.61 152.557V238.628H1175.13Z" fill="#F9F9F9"/>
<path d="M1071.45 241.424C1056.74 241.424 1044 238.214 1033.23 231.792C1022.46 225.37 1014.07 216.359 1008.06 204.759C1002.26 192.951 999.364 179.072 999.364 163.122C999.364 147.171 1002.26 133.396 1008.06 121.796C1014.07 109.988 1022.46 100.873 1033.23 94.4518C1044 88.0302 1056.74 84.8193 1071.45 84.8193C1086.16 84.8193 1098.9 88.0302 1109.67 94.4518C1120.44 100.873 1128.73 109.988 1134.53 121.796C1140.54 133.396 1143.54 147.171 1143.54 163.122C1143.54 179.072 1140.54 192.951 1134.53 204.759C1128.73 216.359 1120.44 225.37 1109.67 231.792C1098.9 238.214 1086.16 241.424 1071.45 241.424ZM1071.45 221.227C1085.75 221.227 1097.04 216.256 1105.32 206.313C1113.81 196.162 1118.06 181.662 1118.06 162.811C1118.06 144.168 1113.81 129.874 1105.32 119.931C1097.04 109.988 1085.75 105.016 1071.45 105.016C1057.37 105.016 1046.08 109.988 1037.58 119.931C1029.09 129.874 1024.84 144.168 1024.84 162.811C1024.84 181.662 1029.09 196.162 1037.58 206.313C1046.08 216.256 1057.37 221.227 1071.45 221.227Z" fill="#F9F9F9"/>
<path d="M905.008 241.424C890.3 241.424 877.561 238.214 866.789 231.792C856.017 225.37 847.628 216.359 841.62 204.759C835.82 192.951 832.92 179.072 832.92 163.122C832.92 147.171 835.82 133.396 841.62 121.796C847.628 109.988 856.017 100.873 866.789 94.4518C877.561 88.0302 890.3 84.8193 905.008 84.8193C919.716 84.8193 932.455 88.0302 943.227 94.4518C953.999 100.873 962.285 109.988 968.085 121.796C974.092 133.396 977.096 147.171 977.096 163.122C977.096 179.072 974.092 192.951 968.085 204.759C962.285 216.359 953.999 225.37 943.227 231.792C932.455 238.214 919.716 241.424 905.008 241.424ZM905.008 221.227C919.301 221.227 930.591 216.256 938.877 206.313C947.37 196.162 951.617 181.662 951.617 162.811C951.617 144.168 947.37 129.874 938.877 119.931C930.591 109.988 919.301 105.016 905.008 105.016C890.922 105.016 879.632 109.988 871.139 119.931C862.646 129.874 858.399 144.168 858.399 162.811C858.399 181.662 862.646 196.162 871.139 206.313C879.632 216.256 890.922 221.227 905.008 221.227Z" fill="#F9F9F9"/>
<path d="M724.785 241.425C711.32 241.425 699.513 238.214 689.363 231.792C679.419 225.371 671.651 216.36 666.058 204.759C660.672 192.952 657.979 179.073 657.979 163.122C657.979 146.964 660.672 133.085 666.058 121.485C671.651 109.677 679.419 100.666 689.363 94.452C699.513 88.0303 711.32 84.8195 724.785 84.8195C738.457 84.8195 750.161 88.2375 759.897 95.0734C769.633 101.909 776.158 111.128 779.473 122.728H776.055V19.5674H801.223V238.628H776.676V202.584H779.783C776.469 214.392 769.84 223.817 759.897 230.86C750.161 237.903 738.457 241.425 724.785 241.425ZM730.068 221.228C744.361 221.228 755.651 216.256 763.937 206.313C772.43 196.162 776.676 181.766 776.676 163.122C776.676 144.271 772.43 129.875 763.937 119.931C755.651 109.988 744.361 105.017 730.068 105.017C715.981 105.017 704.692 109.988 696.199 119.931C687.705 129.875 683.459 144.271 683.459 163.122C683.459 181.766 687.705 196.162 696.199 206.313C704.692 216.256 715.981 221.228 730.068 221.228Z" fill="#F9F9F9"/>
<path d="M449.568 238.628V221.849L540.611 100.666V107.191H449.568V87.6157H563.915V104.395L471.941 226.199V219.052H567.333V238.628H449.568Z" fill="#F9F9F9"/>
<path d="M386.981 50.0186V21.7427H418.054V50.0186H386.981ZM390.089 238.628V87.6163H415.257V238.628H390.089Z" fill="#F9F9F9"/>
<path d="M284.94 238.628V87.6161H309.488V123.349H306.38C309.902 111.128 316.013 101.909 324.713 95.6949C333.413 89.2733 344.91 85.5446 359.204 84.5088L368.215 83.5767L370.079 105.327L354.232 107.192C340.146 108.435 329.27 112.992 321.606 120.864C314.149 128.528 310.42 139.093 310.42 152.557V238.628H284.94Z" fill="#F9F9F9"/>
<path d="M186.438 241.425C172.766 241.425 160.959 237.903 151.016 230.86C141.28 223.817 134.754 214.392 131.44 202.584H134.547V238.628H110V19.5674H135.169V122.728H131.44C134.962 111.128 141.59 101.909 151.326 95.0734C161.062 88.2375 172.766 84.8195 186.438 84.8195C200.11 84.8195 211.918 88.0303 221.861 94.452C231.804 100.666 239.469 109.677 244.854 121.485C250.447 133.085 253.244 146.964 253.244 163.122C253.244 179.073 250.447 192.952 244.854 204.759C239.469 216.36 231.7 225.371 221.55 231.792C211.607 238.214 199.903 241.425 186.438 241.425ZM181.156 221.228C195.449 221.228 206.739 216.256 215.025 206.313C223.518 196.162 227.765 181.766 227.765 163.122C227.765 144.271 223.518 129.875 215.025 119.931C206.739 109.988 195.449 105.017 181.156 105.017C167.07 105.017 155.78 109.988 147.287 119.931C138.794 129.875 134.547 144.271 134.547 163.122C134.547 181.766 138.794 196.162 147.287 206.313C155.78 216.256 167.07 221.228 181.156 221.228Z" fill="#F9F9F9"/>
</svg>
