<svg width="940" height="164" viewBox="0 0 940 164" fill="none" xmlns="http://www.w3.org/2000/svg">
<path d="M796.092 144.362C791.665 144.362 787.353 143.896 783.159 142.964C779.08 142.148 775.235 140.983 771.623 139.468C768.127 137.837 765.098 135.914 762.534 133.7L767.079 123.738C769.875 125.951 772.905 127.816 776.167 129.331C779.43 130.729 782.751 131.778 786.13 132.477C789.509 133.176 792.946 133.525 796.442 133.525C803.084 133.525 808.094 132.302 811.473 129.855C814.852 127.408 816.542 124.087 816.542 119.892C816.542 116.63 815.435 114.066 813.221 112.202C811.007 110.221 807.512 108.706 802.734 107.658L786.829 104.162C779.488 102.647 774.012 100.025 770.399 96.2967C766.904 92.568 765.156 87.7323 765.156 81.7897C765.156 76.5463 766.496 72.0602 769.176 68.3315C771.972 64.4863 775.876 61.515 780.886 59.4176C785.897 57.3202 791.723 56.2715 798.365 56.2715C802.326 56.2715 806.113 56.6793 809.725 57.495C813.338 58.3106 816.717 59.5341 819.863 61.1654C823.125 62.6802 825.922 64.6028 828.252 66.9332L823.533 76.8958C821.319 74.7984 818.814 73.0506 816.018 71.6523C813.221 70.1376 810.308 69.0306 807.279 68.3315C804.365 67.5158 801.394 67.108 798.365 67.108C791.839 67.108 786.887 68.3897 783.508 70.9532C780.129 73.5167 778.439 76.8958 778.439 81.0906C778.439 84.3532 779.488 87.0332 781.585 89.1306C783.683 91.228 786.945 92.7428 791.373 93.6749L807.279 96.9958C814.852 98.6271 820.504 101.249 824.232 104.861C828.078 108.357 830 113.134 830 119.193C830 124.32 828.602 128.806 825.805 132.651C823.009 136.38 819.047 139.293 813.92 141.391C808.91 143.371 802.967 144.362 796.092 144.362Z" fill="#F9F9F9"/>
<path d="M709.135 142.789V57.8449H722.943V77.9449H721.195C723.176 71.0701 726.613 65.8849 731.507 62.3893C736.401 58.7771 742.868 56.6797 750.908 56.0971L755.976 55.5728L757.025 67.8075L748.111 68.8562C740.188 69.5554 734.07 72.1188 729.759 76.5467C725.564 80.858 723.467 86.8006 723.467 94.3745V142.789H709.135Z" fill="#F9F9F9"/>
<path d="M650.816 144.362C642.543 144.362 635.377 142.556 629.318 138.944C623.259 135.331 618.54 130.263 615.161 123.738C611.898 117.096 610.267 109.289 610.267 100.317C610.267 91.3445 611.898 83.5958 615.161 77.0706C618.54 70.4289 623.259 65.3019 629.318 61.6897C635.377 58.0776 642.543 56.2715 650.816 56.2715C659.089 56.2715 666.255 58.0776 672.314 61.6897C678.373 65.3019 683.034 70.4289 686.297 77.0706C689.676 83.5958 691.366 91.3445 691.366 100.317C691.366 109.289 689.676 117.096 686.297 123.738C683.034 130.263 678.373 135.331 672.314 138.944C666.255 142.556 659.089 144.362 650.816 144.362ZM650.816 133.001C658.856 133.001 665.207 130.204 669.867 124.611C674.645 118.902 677.033 110.745 677.033 100.142C677.033 89.6549 674.645 81.6149 669.867 76.0219C665.207 70.4289 658.856 67.6324 650.816 67.6324C642.893 67.6324 636.542 70.4289 631.765 76.0219C626.987 81.6149 624.599 89.6549 624.599 100.142C624.599 110.745 626.987 118.902 631.765 124.611C636.542 130.204 642.893 133.001 650.816 133.001Z" fill="#F9F9F9"/>
<path d="M557.192 144.362C548.919 144.362 541.753 142.556 535.694 138.944C529.635 135.331 524.916 130.263 521.536 123.738C518.274 117.096 516.643 109.289 516.643 100.317C516.643 91.3445 518.274 83.5958 521.536 77.0706C524.916 70.4289 529.635 65.3019 535.694 61.6897C541.753 58.0776 548.919 56.2715 557.192 56.2715C565.465 56.2715 572.631 58.0776 578.69 61.6897C584.749 65.3019 589.41 70.4289 592.673 77.0706C596.052 83.5958 597.742 91.3445 597.742 100.317C597.742 109.289 596.052 117.096 592.673 123.738C589.41 130.263 584.749 135.331 578.69 138.944C572.631 142.556 565.465 144.362 557.192 144.362ZM557.192 133.001C565.232 133.001 571.583 130.204 576.243 124.611C581.021 118.902 583.409 110.745 583.409 100.142C583.409 89.6549 581.021 81.6149 576.243 76.0219C571.583 70.4289 565.232 67.6324 557.192 67.6324C549.269 67.6324 542.918 70.4289 538.141 76.0219C533.363 81.6149 530.975 89.6549 530.975 100.142C530.975 110.745 533.363 118.902 538.141 124.611C542.918 130.204 549.269 133.001 557.192 133.001Z" fill="#F9F9F9"/>
<path d="M455.816 144.362C448.243 144.362 441.601 142.556 435.891 138.944C430.298 135.332 425.929 130.263 422.783 123.738C419.753 117.096 418.238 109.289 418.238 100.317C418.238 91.2282 419.753 83.4213 422.783 76.896C425.929 70.2543 430.298 65.1856 435.891 61.69C441.601 58.0778 448.243 56.2717 455.816 56.2717C463.507 56.2717 470.09 58.1943 475.567 62.0395C481.043 65.8847 484.714 71.07 486.578 77.5952H484.656V19.5674H498.813V142.789H485.005V122.514H486.753C484.889 129.156 481.16 134.458 475.567 138.419C470.09 142.381 463.507 144.362 455.816 144.362ZM458.788 133.001C466.828 133.001 473.178 130.205 477.839 124.612C482.616 118.902 485.005 110.804 485.005 100.317C485.005 89.7134 482.616 81.6152 477.839 76.0221C473.178 70.4291 466.828 67.6326 458.788 67.6326C450.864 67.6326 444.514 70.4291 439.737 76.0221C434.959 81.6152 432.57 89.7134 432.57 100.317C432.57 110.804 434.959 118.902 439.737 124.612C444.514 130.205 450.864 133.001 458.788 133.001Z" fill="#F9F9F9"/>
<path d="M301.007 142.789V133.351L352.218 65.1856V68.856H301.007V57.8447H365.327V67.283L313.591 135.798V131.778H367.249V142.789H301.007Z" fill="#F9F9F9"/>
<path d="M265.802 36.6962V20.791H283.28V36.6962H265.802ZM267.55 142.789V57.8449H281.707V142.789H267.55Z" fill="#F9F9F9"/>
<path d="M208.404 142.789V57.8449H222.212V77.9449H220.464C222.445 71.0701 225.883 65.8849 230.776 62.3893C235.67 58.7771 242.137 56.6797 250.177 56.0971L255.246 55.5728L256.295 67.8075L247.381 68.8562C239.457 69.5554 233.34 72.1188 229.029 76.5467C224.834 80.858 222.736 86.8006 222.736 94.3745V142.789H208.404Z" fill="#F9F9F9"/>
<path d="M152.996 144.362C145.306 144.362 138.664 142.381 133.071 138.419C127.595 134.458 123.924 129.156 122.06 122.514H123.808V142.789H110V19.5674H124.157V77.5952H122.06C124.041 71.07 127.77 65.8847 133.246 62.0395C138.723 58.1943 145.306 56.2717 152.996 56.2717C160.687 56.2717 167.329 58.0778 172.922 61.69C178.515 65.1856 182.826 70.2543 185.856 76.896C189.002 83.4213 190.575 91.2282 190.575 100.317C190.575 109.289 189.002 117.096 185.856 123.738C182.826 130.263 178.456 135.332 172.747 138.944C167.154 142.556 160.57 144.362 152.996 144.362ZM150.025 133.001C158.065 133.001 164.416 130.205 169.076 124.612C173.854 118.902 176.243 110.804 176.243 100.317C176.243 89.7134 173.854 81.6152 169.076 76.0221C164.416 70.4291 158.065 67.6326 150.025 67.6326C142.102 67.6326 135.751 70.4291 130.974 76.0221C126.197 81.6152 123.808 89.7134 123.808 100.317C123.808 110.804 126.197 118.902 130.974 124.612C135.751 130.205 142.102 133.001 150.025 133.001Z" fill="#F9F9F9"/>
</svg>
