<svg width="1820" height="316" viewBox="0 0 1820 316" fill="none" xmlns="http://www.w3.org/2000/svg">
<path d="M1634.65 296.889C1624.81 296.889 1615.23 295.853 1605.91 293.781C1596.84 291.969 1588.3 289.38 1580.27 286.013C1572.5 282.388 1565.77 278.116 1560.08 273.196L1570.17 251.057C1576.39 255.977 1583.12 260.12 1590.37 263.486C1597.62 266.593 1605 268.924 1612.51 270.477C1620.02 272.031 1627.66 272.808 1635.43 272.808C1650.19 272.808 1661.32 270.089 1668.83 264.651C1676.34 259.213 1680.09 251.834 1680.09 242.512C1680.09 235.262 1677.63 229.565 1672.71 225.422C1667.79 221.02 1660.02 217.654 1649.41 215.324L1614.06 207.555C1597.75 204.189 1585.58 198.363 1577.55 190.077C1569.79 181.791 1565.9 171.045 1565.9 157.84C1565.9 146.187 1568.88 136.218 1574.83 127.932C1581.05 119.387 1589.72 112.784 1600.86 108.124C1611.99 103.463 1624.94 101.132 1639.7 101.132C1648.5 101.132 1656.92 102.039 1664.94 103.851C1672.97 105.664 1680.48 108.383 1687.47 112.008C1694.72 115.374 1700.94 119.646 1706.12 124.825L1695.63 146.964C1690.71 142.303 1685.14 138.419 1678.93 135.312C1672.71 131.946 1666.24 129.486 1659.51 127.932C1653.03 126.12 1646.43 125.213 1639.7 125.213C1625.2 125.213 1614.19 128.062 1606.68 133.758C1599.17 139.455 1595.42 146.964 1595.42 156.286C1595.42 163.536 1597.75 169.492 1602.41 174.153C1607.07 178.813 1614.32 182.18 1624.16 184.251L1659.51 191.631C1676.34 195.256 1688.9 201.082 1697.18 209.109C1705.73 216.877 1710 227.494 1710 240.958C1710 252.352 1706.89 262.321 1700.68 270.866C1694.46 279.152 1685.66 285.625 1674.27 290.286C1663.13 294.688 1649.93 296.889 1634.65 296.889Z" fill="#F9F9F9"/>
<path d="M1441.41 293.393V104.628H1472.1V149.295H1468.21C1472.61 134.018 1480.25 122.495 1491.13 114.727C1502 106.7 1516.37 102.039 1534.24 100.744L1545.5 99.5791L1547.84 126.767L1528.03 129.098C1510.42 130.652 1496.82 136.348 1487.24 146.188C1477.92 155.768 1473.26 168.974 1473.26 185.805V293.393H1441.41Z" fill="#F9F9F9"/>
<path d="M1311.82 296.889C1293.43 296.889 1277.51 292.875 1264.04 284.848C1250.58 276.821 1240.09 265.557 1232.58 251.057C1225.33 236.297 1221.71 218.949 1221.71 199.011C1221.71 179.072 1225.33 161.853 1232.58 147.353C1240.09 132.593 1250.58 121.2 1264.04 113.173C1277.51 105.146 1293.43 101.132 1311.82 101.132C1330.2 101.132 1346.12 105.146 1359.59 113.173C1373.05 121.2 1383.41 132.593 1390.66 147.353C1398.17 161.853 1401.93 179.072 1401.93 199.011C1401.93 218.949 1398.17 236.297 1390.66 251.057C1383.41 265.557 1373.05 276.821 1359.59 284.848C1346.12 292.875 1330.2 296.889 1311.82 296.889ZM1311.82 271.642C1329.68 271.642 1343.79 265.428 1354.15 252.999C1364.77 240.311 1370.08 222.185 1370.08 198.622C1370.08 175.318 1364.77 157.451 1354.15 145.022C1343.79 132.593 1329.68 126.379 1311.82 126.379C1294.21 126.379 1280.1 132.593 1269.48 145.022C1258.86 157.451 1253.55 175.318 1253.55 198.622C1253.55 222.185 1258.86 240.311 1269.48 252.999C1280.1 265.428 1294.21 271.642 1311.82 271.642Z" fill="#F9F9F9"/>
<path d="M1103.76 296.889C1085.38 296.889 1069.45 292.875 1055.99 284.848C1042.52 276.821 1032.03 265.557 1024.53 251.057C1017.28 236.297 1013.65 218.949 1013.65 199.011C1013.65 179.072 1017.28 161.853 1024.53 147.353C1032.03 132.593 1042.52 121.2 1055.99 113.173C1069.45 105.146 1085.38 101.132 1103.76 101.132C1122.14 101.132 1138.07 105.146 1151.53 113.173C1165 121.2 1175.36 132.593 1182.61 147.353C1190.12 161.853 1193.87 179.072 1193.87 199.011C1193.87 218.949 1190.12 236.297 1182.61 251.057C1175.36 265.557 1165 276.821 1151.53 284.848C1138.07 292.875 1122.14 296.889 1103.76 296.889ZM1103.76 271.642C1121.63 271.642 1135.74 265.428 1146.1 252.999C1156.71 240.311 1162.02 222.185 1162.02 198.622C1162.02 175.318 1156.71 157.451 1146.1 145.022C1135.74 132.593 1121.63 126.379 1103.76 126.379C1086.15 126.379 1072.04 132.593 1061.42 145.022C1050.81 157.451 1045.5 175.318 1045.5 198.622C1045.5 222.185 1050.81 240.311 1061.42 252.999C1072.04 265.428 1086.15 271.642 1103.76 271.642Z" fill="#F9F9F9"/>
<path d="M878.482 296.889C861.651 296.889 846.891 292.875 834.204 284.848C821.775 276.821 812.064 265.558 805.073 251.057C798.341 236.298 794.975 218.949 794.975 199.011C794.975 178.814 798.341 161.465 805.073 146.964C812.064 132.205 821.775 120.941 834.204 113.173C846.891 105.146 861.651 101.133 878.482 101.133C895.572 101.133 910.202 105.405 922.372 113.95C934.542 122.495 942.698 134.018 946.841 148.518H942.569V19.5674H974.03V293.393H943.345V248.338H947.23C943.087 263.098 934.801 274.879 922.372 283.683C910.202 292.487 895.572 296.889 878.482 296.889ZM885.085 271.643C902.951 271.643 917.063 265.428 927.421 252.999C938.037 240.311 943.345 222.315 943.345 199.011C943.345 175.447 938.037 157.451 927.421 145.022C917.063 132.593 902.951 126.379 885.085 126.379C867.477 126.379 853.365 132.593 842.749 145.022C832.132 157.451 826.824 175.447 826.824 199.011C826.824 222.315 832.132 240.311 842.749 252.999C853.365 265.428 867.477 271.643 885.085 271.643Z" fill="#F9F9F9"/>
<path d="M534.46 293.393V272.419L648.263 120.941V129.097H534.46V104.628H677.393V125.602L562.425 277.857V268.923H681.666V293.393H534.46Z" fill="#F9F9F9"/>
<path d="M456.227 57.6315V22.2866H495.067V57.6315H456.227ZM460.111 293.394V104.629H491.571V293.394H460.111Z" fill="#F9F9F9"/>
<path d="M328.676 293.393V104.628H359.36V149.295H355.476C359.878 134.018 367.516 122.495 378.392 114.727C389.267 106.7 403.638 102.039 421.505 100.744L432.768 99.5791L435.099 126.767L415.29 129.098C397.682 130.652 384.088 136.348 374.508 146.188C365.186 155.768 360.525 168.974 360.525 185.805V293.393H328.676Z" fill="#F9F9F9"/>
<path d="M205.548 296.889C188.458 296.889 173.699 292.487 161.27 283.683C149.099 274.879 140.943 263.098 136.8 248.338H140.684V293.393H110V19.5674H141.461V148.518H136.8C141.202 134.018 149.488 122.495 161.658 113.95C173.828 105.405 188.458 101.133 205.548 101.133C222.638 101.133 237.397 105.146 249.826 113.173C262.255 120.941 271.836 132.205 278.568 146.964C285.559 161.465 289.055 178.814 289.055 199.011C289.055 218.949 285.559 236.298 278.568 251.057C271.836 265.558 262.126 276.821 249.438 284.848C237.009 292.875 222.379 296.889 205.548 296.889ZM198.945 271.643C216.812 271.643 230.924 265.428 241.281 252.999C251.897 240.311 257.206 222.315 257.206 199.011C257.206 175.447 251.897 157.451 241.281 145.022C230.924 132.593 216.812 126.379 198.945 126.379C181.337 126.379 167.225 132.593 156.609 145.022C145.992 157.451 140.684 175.447 140.684 199.011C140.684 222.315 145.992 240.311 156.609 252.999C167.225 265.428 181.337 271.643 198.945 271.643Z" fill="#F9F9F9"/>
</svg>
