<svg width="228" height="157" viewBox="0 0 228 157" fill="none" xmlns="http://www.w3.org/2000/svg">
<path d="M115.653 70.5432C116.831 70.2927 117.787 71.0662 117.787 72.2707V83.0664C117.787 84.2709 116.831 85.4504 115.653 85.7008L112.133 86.449C110.955 86.6994 110 85.926 110 84.7215V73.9258C110 72.7213 110.955 71.5418 112.133 71.2914L115.653 70.5432ZM115.867 73.7692C115.867 73.0466 115.293 72.5825 114.587 72.7328L113.2 73.0275C112.493 73.1778 111.92 73.8854 111.92 74.6081V83.2229C111.92 83.9456 112.493 84.4097 113.2 84.2594L114.587 83.9647C115.293 83.8144 115.867 83.1067 115.867 82.384V73.7692Z" fill="#7D7D7D"/>
</svg>
