<svg width="267" height="237" viewBox="0 0 267 237" fill="none" xmlns="http://www.w3.org/2000/svg">
<path d="M143.919 70.7786C150.989 69.276 156.719 73.9166 156.719 81.1437V145.918C156.719 153.145 150.988 160.222 143.919 161.724L122.8 166.214C115.731 167.716 110 163.076 110 155.848V91.0741C110 83.8471 115.731 76.7703 122.8 75.2677L143.919 70.7786ZM145.199 90.135C145.199 85.7988 141.761 83.0146 137.519 83.9161L129.2 85.6846C124.958 86.5861 121.52 90.8321 121.52 95.1684V146.857C121.52 151.193 124.958 153.978 129.2 153.076L137.519 151.308C141.761 150.406 145.199 146.16 145.199 141.824V90.135Z" fill="#7D7D7D"/>
</svg>
