<svg width="1180" height="347" viewBox="0 0 1180 347" fill="none" xmlns="http://www.w3.org/2000/svg">
<path d="M1034.77 235.096C1030.17 235.096 1025.69 234.612 1021.33 233.644C1017.09 232.796 1013.1 231.585 1009.35 230.012C1005.71 228.317 1002.57 226.319 999.902 224.019L1004.62 213.667C1007.53 215.968 1010.68 217.905 1014.07 219.479C1017.46 220.932 1020.91 222.021 1024.42 222.748C1027.93 223.474 1031.5 223.837 1035.13 223.837C1042.03 223.837 1047.24 222.566 1050.75 220.024C1054.26 217.481 1056.02 214.031 1056.02 209.672C1056.02 206.282 1054.87 203.619 1052.57 201.682C1050.27 199.624 1046.63 198.05 1041.67 196.96L1025.14 193.328C1017.52 191.754 1011.83 189.03 1008.07 185.156C1004.44 181.282 1002.63 176.258 1002.63 170.083C1002.63 164.635 1004.02 159.974 1006.8 156.1C1009.71 152.105 1013.76 149.017 1018.97 146.838C1024.18 144.659 1030.23 143.569 1037.13 143.569C1041.25 143.569 1045.18 143.993 1048.93 144.841C1052.69 145.688 1056.2 146.959 1059.47 148.654C1062.86 150.228 1065.76 152.226 1068.18 154.647L1063.28 164.998C1060.98 162.819 1058.38 161.003 1055.47 159.55C1052.57 157.976 1049.54 156.826 1046.39 156.1C1043.37 155.252 1040.28 154.829 1037.13 154.829C1030.35 154.829 1025.21 156.16 1021.69 158.824C1018.18 161.487 1016.43 164.998 1016.43 169.357C1016.43 172.747 1017.52 175.531 1019.7 177.71C1021.88 179.89 1025.27 181.463 1029.87 182.432L1046.39 185.882C1054.26 187.577 1060.13 190.301 1064.01 194.055C1068 197.687 1070 202.65 1070 208.946C1070 214.273 1068.55 218.934 1065.64 222.929C1062.74 226.803 1058.62 229.83 1053.29 232.009C1048.09 234.067 1041.91 235.096 1034.77 235.096Z" fill="#F9F9F9"/>
<path d="M944.42 233.462V145.204H958.766V166.088H956.95C959.009 158.945 962.58 153.557 967.665 149.925C972.75 146.172 979.469 143.993 987.823 143.388L993.089 142.843L994.179 155.555L984.917 156.644C976.684 157.371 970.328 160.034 965.849 164.635C961.49 169.114 959.311 175.289 959.311 183.158V233.462H944.42Z" fill="#F9F9F9"/>
<path d="M883.826 235.096C875.23 235.096 867.784 233.22 861.489 229.467C855.193 225.714 850.29 220.447 846.779 213.667C843.389 206.767 841.694 198.655 841.694 189.333C841.694 180.011 843.389 171.96 846.779 165.18C850.29 158.279 855.193 152.952 861.489 149.199C867.784 145.446 875.23 143.569 883.826 143.569C892.422 143.569 899.867 145.446 906.163 149.199C912.458 152.952 917.301 158.279 920.691 165.18C924.202 171.96 925.957 180.011 925.957 189.333C925.957 198.655 924.202 206.767 920.691 213.667C917.301 220.447 912.458 225.714 906.163 229.467C899.867 233.22 892.422 235.096 883.826 235.096ZM883.826 223.292C892.179 223.292 898.778 220.387 903.62 214.575C908.584 208.643 911.066 200.168 911.066 189.151C911.066 178.255 908.584 169.902 903.62 164.09C898.778 158.279 892.179 155.373 883.826 155.373C875.593 155.373 868.995 158.279 864.031 164.09C859.068 169.902 856.586 178.255 856.586 189.151C856.586 200.168 859.068 208.643 864.031 214.575C868.995 220.387 875.593 223.292 883.826 223.292Z" fill="#F9F9F9"/>
<path d="M786.548 235.096C777.953 235.096 770.507 233.22 764.212 229.467C757.916 225.714 753.013 220.447 749.502 213.667C746.112 206.767 744.417 198.655 744.417 189.333C744.417 180.011 746.112 171.96 749.502 165.18C753.013 158.279 757.916 152.952 764.212 149.199C770.507 145.446 777.953 143.569 786.548 143.569C795.144 143.569 802.59 145.446 808.885 149.199C815.181 152.952 820.024 158.279 823.414 165.18C826.925 171.96 828.68 180.011 828.68 189.333C828.68 198.655 826.925 206.767 823.414 213.667C820.024 220.447 815.181 225.714 808.885 229.467C802.59 233.22 795.144 235.096 786.548 235.096ZM786.548 223.292C794.902 223.292 801.5 220.387 806.343 214.575C811.307 208.643 813.789 200.168 813.789 189.151C813.789 178.255 811.307 169.902 806.343 164.09C801.5 158.279 794.902 155.373 786.548 155.373C778.316 155.373 771.718 158.279 766.754 164.09C761.79 169.902 759.308 178.255 759.308 189.151C759.308 200.168 761.79 208.643 766.754 214.575C771.718 220.387 778.316 223.292 786.548 223.292Z" fill="#F9F9F9"/>
<path d="M681.218 235.096C673.349 235.096 666.448 233.22 660.516 229.467C654.704 225.714 650.164 220.447 646.895 213.668C643.748 206.767 642.174 198.655 642.174 189.333C642.174 179.89 643.748 171.778 646.895 164.998C650.164 158.098 654.704 152.831 660.516 149.199C666.448 145.446 673.349 143.569 681.218 143.569C689.209 143.569 696.049 145.567 701.739 149.562C707.429 153.557 711.243 158.945 713.18 165.725H711.182V105.433H725.892V233.462H711.546V212.396H713.362C711.424 219.297 707.55 224.806 701.739 228.922C696.049 233.038 689.209 235.096 681.218 235.096ZM684.305 223.292C692.659 223.292 699.257 220.387 704.1 214.576C709.064 208.643 711.546 200.229 711.546 189.333C711.546 178.316 709.064 169.902 704.1 164.09C699.257 158.279 692.659 155.373 684.305 155.373C676.073 155.373 669.475 158.279 664.511 164.09C659.547 169.902 657.065 178.316 657.065 189.333C657.065 200.229 659.547 208.643 664.511 214.576C669.475 220.387 676.073 223.292 684.305 223.292Z" fill="#F9F9F9"/>
<path d="M520.369 233.462V223.655L573.578 152.831V156.645H520.369V145.204H587.198V155.01L533.444 226.198V222.021H589.196V233.462H520.369Z" fill="#F9F9F9"/>
<path d="M483.79 123.23V106.704H501.95V123.23H483.79ZM485.606 233.462V145.204H500.316V233.462H485.606Z" fill="#F9F9F9"/>
<path d="M424.153 233.462V145.204H438.5V166.088H436.684C438.742 158.945 442.313 153.557 447.398 149.925C452.483 146.172 459.202 143.993 467.556 143.388L472.822 142.843L473.912 155.555L464.65 156.644C456.418 157.371 450.062 160.034 445.582 164.635C441.224 169.114 439.045 175.289 439.045 183.158V233.462H424.153Z" fill="#F9F9F9"/>
<path d="M366.584 235.096C358.594 235.096 351.693 233.038 345.882 228.922C340.191 224.806 336.378 219.297 334.441 212.396H336.257V233.462H321.91V105.433H336.62V165.725H334.441C336.499 158.945 340.373 153.557 346.063 149.562C351.753 145.567 358.594 143.569 366.584 143.569C374.575 143.569 381.475 145.446 387.287 149.199C393.098 152.831 397.577 158.098 400.725 164.998C403.994 171.778 405.628 179.89 405.628 189.333C405.628 198.655 403.994 206.767 400.725 213.668C397.577 220.447 393.037 225.714 387.105 229.467C381.294 233.22 374.453 235.096 366.584 235.096ZM363.497 223.292C371.851 223.292 378.449 220.387 383.291 214.576C388.255 208.643 390.737 200.229 390.737 189.333C390.737 178.316 388.255 169.902 383.291 164.09C378.449 158.279 371.851 155.373 363.497 155.373C355.264 155.373 348.666 158.279 343.702 164.09C338.739 169.902 336.257 178.316 336.257 189.333C336.257 200.229 338.739 208.643 343.702 214.576C348.666 220.387 355.264 223.292 363.497 223.292Z" fill="#F9F9F9"/>
<path d="M182.559 71.5228C197.681 68.3085 209.94 78.2356 209.94 93.6954V232.258C209.94 247.718 197.681 262.856 182.559 266.071L137.381 275.674C122.259 278.888 110 268.961 110 253.501V114.938C110 99.4784 122.259 84.34 137.381 81.1258L182.559 71.5228ZM188.035 109.367C188.035 100.091 180.68 94.1345 171.607 96.0631L148.333 101.01C139.26 102.939 131.905 112.022 131.905 121.298V237.467C131.905 246.742 139.26 252.699 148.333 250.77L171.607 245.823C180.68 243.894 188.035 234.811 188.035 225.536V109.367Z" fill="#F9F9F9"/>
</svg>
