<svg width="1500" height="415" viewBox="0 0 1500 415" fill="none" xmlns="http://www.w3.org/2000/svg">
<path d="M1343.03 289.822C1336.89 289.822 1330.92 289.177 1325.11 287.885C1319.46 286.755 1314.13 285.141 1309.13 283.043C1304.28 280.783 1300.09 278.119 1296.54 275.052L1302.83 261.25C1306.71 264.317 1310.9 266.9 1315.42 268.999C1319.94 270.936 1324.54 272.389 1329.22 273.357C1333.91 274.326 1338.67 274.81 1343.51 274.81C1352.71 274.81 1359.65 273.115 1364.33 269.725C1369.02 266.335 1371.36 261.735 1371.36 255.923C1371.36 251.403 1369.82 247.852 1366.76 245.269C1363.69 242.525 1358.85 240.427 1352.23 238.974L1330.19 234.131C1320.02 232.033 1312.44 228.401 1307.43 223.235C1302.59 218.07 1300.17 211.37 1300.17 203.138C1300.17 195.874 1302.02 189.659 1305.74 184.493C1309.61 179.166 1315.02 175.05 1321.96 172.145C1328.9 169.239 1336.97 167.786 1346.17 167.786C1351.66 167.786 1356.91 168.351 1361.91 169.481C1366.92 170.611 1371.6 172.306 1375.96 174.566C1380.48 176.664 1384.35 179.328 1387.58 182.556L1381.04 196.358C1377.97 193.452 1374.5 191.031 1370.63 189.094C1366.76 186.996 1362.72 185.462 1358.52 184.493C1354.49 183.364 1350.37 182.799 1346.17 182.799C1337.13 182.799 1330.27 184.574 1325.59 188.125C1320.91 191.677 1318.57 196.358 1318.57 202.169C1318.57 206.689 1320.02 210.402 1322.93 213.308C1325.83 216.213 1330.35 218.312 1336.49 219.603L1358.52 224.204C1369.02 226.464 1376.84 230.096 1382.01 235.1C1387.34 239.942 1390 246.561 1390 254.955C1390 262.057 1388.06 268.272 1384.19 273.599C1380.31 278.765 1374.83 282.8 1367.72 285.706C1360.78 288.45 1352.55 289.822 1343.03 289.822Z" fill="#F9F9F9"/>
<path d="M1222.56 287.643V169.966H1241.69V197.811H1239.27C1242.01 188.287 1246.77 181.104 1253.55 176.261C1260.33 171.257 1269.29 168.351 1280.43 167.544L1287.45 166.818L1288.9 183.767L1276.56 185.22C1265.58 186.189 1257.1 189.74 1251.13 195.874C1245.32 201.847 1242.41 210.079 1242.41 220.572V287.643H1222.56Z" fill="#F9F9F9"/>
<path d="M1141.77 289.822C1130.31 289.822 1120.38 287.32 1111.99 282.316C1103.59 277.312 1097.05 270.29 1092.37 261.25C1087.85 252.049 1085.59 241.234 1085.59 228.804C1085.59 216.375 1087.85 205.64 1092.37 196.6C1097.05 187.399 1103.59 180.296 1111.99 175.292C1120.38 170.288 1130.31 167.786 1141.77 167.786C1153.23 167.786 1163.16 170.288 1171.55 175.292C1179.94 180.296 1186.4 187.399 1190.92 196.6C1195.6 205.64 1197.94 216.375 1197.94 228.804C1197.94 241.234 1195.6 252.049 1190.92 261.25C1186.4 270.29 1179.94 277.312 1171.55 282.316C1163.16 287.32 1153.23 289.822 1141.77 289.822ZM1141.77 274.084C1152.91 274.084 1161.7 270.209 1168.16 262.461C1174.78 254.551 1178.09 243.252 1178.09 228.562C1178.09 214.034 1174.78 202.896 1168.16 195.147C1161.7 187.399 1152.91 183.525 1141.77 183.525C1130.79 183.525 1121.99 187.399 1115.38 195.147C1108.76 202.896 1105.45 214.034 1105.45 228.562C1105.45 243.252 1108.76 254.551 1115.38 262.461C1121.99 270.209 1130.79 274.084 1141.77 274.084Z" fill="#F9F9F9"/>
<path d="M1012.07 289.822C1000.6 289.822 990.676 287.32 982.282 282.316C973.888 277.312 967.351 270.29 962.669 261.25C958.15 252.049 955.89 241.234 955.89 228.804C955.89 216.375 958.15 205.64 962.669 196.6C967.351 187.399 973.888 180.296 982.282 175.292C990.676 170.288 1000.6 167.786 1012.07 167.786C1023.53 167.786 1033.45 170.288 1041.85 175.292C1050.24 180.296 1056.7 187.399 1061.22 196.6C1065.9 205.64 1068.24 216.375 1068.24 228.804C1068.24 241.234 1065.9 252.049 1061.22 261.25C1056.7 270.29 1050.24 277.312 1041.85 282.316C1033.45 287.32 1023.53 289.822 1012.07 289.822ZM1012.07 274.084C1023.2 274.084 1032 270.209 1038.46 262.461C1045.08 254.551 1048.39 243.252 1048.39 228.562C1048.39 214.034 1045.08 202.896 1038.46 195.147C1032 187.399 1023.2 183.525 1012.07 183.525C1001.09 183.525 992.291 187.399 985.672 195.147C979.054 202.896 975.745 214.034 975.745 228.562C975.745 243.252 979.054 254.551 985.672 262.461C992.291 270.209 1001.09 274.084 1012.07 274.084Z" fill="#F9F9F9"/>
<path d="M871.624 289.823C861.132 289.823 851.931 287.32 844.021 282.316C836.273 277.312 830.219 270.29 825.861 261.251C821.664 252.049 819.565 241.234 819.565 228.804C819.565 216.213 821.664 205.398 825.861 196.358C830.219 187.157 836.273 180.135 844.021 175.293C851.931 170.288 861.132 167.786 871.624 167.786C882.278 167.786 891.399 170.45 898.986 175.777C906.573 181.104 911.658 188.287 914.24 197.327H911.577V116.938H931.19V287.643H912.061V259.556H914.482C911.9 268.757 906.734 276.102 898.986 281.59C891.399 287.078 882.278 289.823 871.624 289.823ZM875.741 274.084C886.879 274.084 895.677 270.21 902.134 262.461C908.752 254.552 912.061 243.333 912.061 228.804C912.061 214.115 908.752 202.896 902.134 195.148C895.677 187.399 886.879 183.525 875.741 183.525C864.764 183.525 855.966 187.399 849.348 195.148C842.73 202.896 839.421 214.115 839.421 228.804C839.421 243.333 842.73 254.552 849.348 262.461C855.966 270.21 864.764 274.084 875.741 274.084Z" fill="#F9F9F9"/>
<path d="M657.159 287.643V274.568L728.105 180.135V185.22H657.159V169.965H746.265V183.041L674.593 277.958V272.389H748.928V287.643H657.159Z" fill="#F9F9F9"/>
<path d="M608.388 140.667V118.633H632.601V140.667H608.388ZM610.809 287.643V169.965H630.422V287.643H610.809Z" fill="#F9F9F9"/>
<path d="M528.871 287.643V169.966H548V197.811H545.578C548.323 188.287 553.085 181.104 559.864 176.261C566.644 171.257 575.603 168.351 586.741 167.544L593.763 166.818L595.216 183.767L582.867 185.22C571.89 186.189 563.416 189.74 557.443 195.874C551.632 201.847 548.726 210.079 548.726 220.572V287.643H528.871Z" fill="#F9F9F9"/>
<path d="M452.112 289.823C441.458 289.823 432.257 287.078 424.509 281.59C416.922 276.102 411.837 268.757 409.254 259.556H411.676V287.643H392.547V116.938H412.16V197.327H409.254C411.998 188.287 417.164 181.104 424.751 175.777C432.338 170.45 441.458 167.786 452.112 167.786C462.766 167.786 471.967 170.288 479.716 175.293C487.464 180.135 493.437 187.157 497.634 196.358C501.992 205.398 504.171 216.213 504.171 228.804C504.171 241.234 501.992 252.049 497.634 261.251C493.437 270.29 487.383 277.312 479.473 282.316C471.725 287.32 462.605 289.823 452.112 289.823ZM447.996 274.084C459.134 274.084 467.932 270.21 474.389 262.461C481.007 254.552 484.316 243.333 484.316 228.804C484.316 214.115 481.007 202.896 474.389 195.148C467.932 187.399 459.134 183.525 447.996 183.525C437.019 183.525 428.221 187.399 421.603 195.148C414.985 202.896 411.676 214.115 411.676 228.804C411.676 243.333 414.985 254.552 421.603 262.461C428.221 270.21 437.019 274.084 447.996 274.084Z" fill="#F9F9F9"/>
<path d="M206.745 71.7243C226.908 67.4386 243.253 80.6746 243.253 101.288V286.038C243.253 306.651 226.908 326.836 206.745 331.122L146.508 343.925C126.345 348.211 110 334.975 110 314.362V129.611C110 108.998 126.345 88.8139 146.508 84.5282L206.745 71.7243ZM214.047 122.183C214.047 109.815 204.24 101.873 192.142 104.445L161.111 111.041C149.013 113.612 139.206 125.723 139.206 138.091V292.983C139.206 305.35 149.013 313.292 161.111 310.721L192.142 304.125C204.24 301.553 214.047 289.443 214.047 277.075V122.183Z" fill="#F9F9F9"/>
</svg>
