<svg width="1821" height="483" viewBox="0 0 1821 483" fill="none" xmlns="http://www.w3.org/2000/svg">
<path d="M1651.67 349.385C1644 349.385 1636.53 348.577 1629.27 346.963C1622.21 345.551 1615.55 343.533 1609.29 340.91C1603.24 338.085 1597.99 334.756 1593.55 330.922L1601.42 313.67C1606.26 317.503 1611.51 320.732 1617.16 323.355C1622.81 325.776 1628.56 327.592 1634.41 328.803C1640.26 330.014 1646.22 330.619 1652.27 330.619C1663.77 330.619 1672.45 328.5 1678.3 324.263C1684.15 320.026 1687.08 314.275 1687.08 307.011C1687.08 301.361 1685.16 296.922 1681.33 293.693C1677.49 290.263 1671.44 287.64 1663.17 285.824L1635.62 279.771C1622.91 277.148 1613.43 272.608 1607.17 266.151C1601.12 259.694 1598.09 251.32 1598.09 241.029C1598.09 231.949 1600.41 224.18 1605.05 217.724C1609.9 211.065 1616.66 205.919 1625.33 202.287C1634.01 198.655 1644.1 196.839 1655.6 196.839C1662.46 196.839 1669.02 197.546 1675.27 198.958C1681.53 200.37 1687.38 202.489 1692.83 205.314C1698.48 207.937 1703.32 211.267 1707.36 215.302L1699.18 232.554C1695.35 228.922 1691.01 225.896 1686.17 223.474C1681.33 220.851 1676.28 218.934 1671.04 217.724C1665.99 216.311 1660.85 215.605 1655.6 215.605C1644.3 215.605 1635.72 217.824 1629.87 222.264C1624.02 226.703 1621.1 232.554 1621.1 239.818C1621.1 245.468 1622.91 250.109 1626.54 253.741C1630.18 257.373 1635.83 259.996 1643.49 261.611L1671.04 267.361C1684.15 270.186 1693.94 274.726 1700.39 280.981C1707.05 287.035 1710.38 295.308 1710.38 305.8C1710.38 314.679 1707.96 322.447 1703.12 329.106C1698.28 335.563 1691.42 340.607 1682.54 344.239C1673.86 347.669 1663.57 349.385 1651.67 349.385Z" fill="#7D7D7D"/>
<path d="M1501.08 346.661V199.564H1524.99V234.371H1521.97C1525.4 222.466 1531.35 213.486 1539.82 207.433C1548.3 201.178 1559.5 197.546 1573.42 196.537L1582.2 195.629L1584.01 216.816L1568.58 218.632C1554.86 219.842 1544.26 224.282 1536.8 231.949C1529.53 239.415 1525.9 249.706 1525.9 262.821V346.661H1501.08Z" fill="#7D7D7D"/>
<path d="M1400.09 349.385C1385.77 349.385 1373.36 346.257 1362.86 340.002C1352.37 333.747 1344.2 324.969 1338.35 313.67C1332.7 302.168 1329.87 288.649 1329.87 273.112C1329.87 257.575 1332.7 244.157 1338.35 232.857C1344.2 221.356 1352.37 212.477 1362.86 206.222C1373.36 199.967 1385.77 196.839 1400.09 196.839C1414.42 196.839 1426.83 199.967 1437.32 206.222C1447.81 212.477 1455.89 221.356 1461.54 232.857C1467.39 244.157 1470.31 257.575 1470.31 273.112C1470.31 288.649 1467.39 302.168 1461.54 313.67C1455.89 324.969 1447.81 333.747 1437.32 340.002C1426.83 346.257 1414.42 349.385 1400.09 349.385ZM1400.09 329.711C1414.02 329.711 1425.01 324.868 1433.08 315.183C1441.36 305.296 1445.49 291.171 1445.49 272.809C1445.49 254.649 1441.36 240.726 1433.08 231.041C1425.01 221.356 1414.02 216.513 1400.09 216.513C1386.37 216.513 1375.38 221.356 1367.1 231.041C1358.83 240.726 1354.69 254.649 1354.69 272.809C1354.69 291.171 1358.83 305.296 1367.1 315.183C1375.38 324.868 1386.37 329.711 1400.09 329.711Z" fill="#7D7D7D"/>
<path d="M1237.96 349.385C1223.64 349.385 1211.23 346.257 1200.74 340.002C1190.24 333.747 1182.07 324.969 1176.22 313.67C1170.57 302.168 1167.75 288.649 1167.75 273.112C1167.75 257.575 1170.57 244.157 1176.22 232.857C1182.07 221.356 1190.24 212.477 1200.74 206.222C1211.23 199.967 1223.64 196.839 1237.96 196.839C1252.29 196.839 1264.7 199.967 1275.19 206.222C1285.69 212.477 1293.76 221.356 1299.41 232.857C1305.26 244.157 1308.18 257.575 1308.18 273.112C1308.18 288.649 1305.26 302.168 1299.41 313.67C1293.76 324.969 1285.69 333.747 1275.19 340.002C1264.7 346.257 1252.29 349.385 1237.96 349.385ZM1237.96 329.711C1251.89 329.711 1262.88 324.868 1270.96 315.183C1279.23 305.296 1283.36 291.171 1283.36 272.809C1283.36 254.649 1279.23 240.726 1270.96 231.041C1262.88 221.356 1251.89 216.513 1237.96 216.513C1224.24 216.513 1213.25 221.356 1204.97 231.041C1196.7 240.726 1192.56 254.649 1192.56 272.809C1192.56 291.171 1196.7 305.296 1204.97 315.183C1213.25 324.868 1224.24 329.711 1237.96 329.711Z" fill="#7D7D7D"/>
<path d="M1062.41 349.385C1049.3 349.385 1037.8 346.257 1027.91 340.002C1018.22 333.747 1010.66 324.97 1005.21 313.67C999.963 302.169 997.34 288.649 997.34 273.112C997.34 257.374 999.963 243.854 1005.21 232.555C1010.66 221.053 1018.22 212.276 1027.91 206.223C1037.8 199.967 1049.3 196.84 1062.41 196.84C1075.73 196.84 1087.13 200.169 1096.62 206.828C1106.1 213.487 1112.45 222.466 1115.68 233.765H1112.35V133.279H1136.87V346.661H1112.96V311.551H1115.99C1112.76 323.053 1106.3 332.234 1096.62 339.094C1087.13 345.955 1075.73 349.385 1062.41 349.385ZM1067.56 329.712C1081.48 329.712 1092.48 324.869 1100.55 315.183C1108.82 305.296 1112.96 291.273 1112.96 273.112C1112.96 254.75 1108.82 240.727 1100.55 231.041C1092.48 221.356 1081.48 216.513 1067.56 216.513C1053.84 216.513 1042.84 221.356 1034.57 231.041C1026.3 240.727 1022.16 254.75 1022.16 273.112C1022.16 291.273 1026.3 305.296 1034.57 315.183C1042.84 324.869 1053.84 329.712 1067.56 329.712Z" fill="#7D7D7D"/>
<path d="M794.331 346.661V330.316L883.013 212.276V218.632H794.331V199.563H905.713V215.908L816.123 334.554V327.592H909.043V346.661H794.331Z" fill="#7D7D7D"/>
<path d="M733.367 162.941V135.398H763.634V162.941H733.367ZM736.394 346.661V199.564H760.91V346.661H736.394Z" fill="#7D7D7D"/>
<path d="M633.972 346.661V199.564H657.883V234.371H654.856C658.286 222.466 664.239 213.486 672.713 207.433C681.188 201.178 692.387 197.546 706.31 196.537L715.087 195.629L716.903 216.816L701.467 218.632C687.746 219.842 677.152 224.282 669.687 231.949C662.423 239.415 658.791 249.706 658.791 262.821V346.661H633.972Z" fill="#7D7D7D"/>
<path d="M538.023 349.385C524.706 349.385 513.204 345.955 503.519 339.094C494.035 332.234 487.679 323.053 484.451 311.551H487.477V346.661H463.566V133.279H488.083V233.765H484.451C487.881 222.466 494.338 213.487 503.821 206.828C513.305 200.169 524.706 196.84 538.023 196.84C551.34 196.84 562.842 199.967 572.527 206.223C582.213 212.276 589.679 221.053 594.925 232.555C600.373 243.854 603.097 257.374 603.097 273.112C603.097 288.649 600.373 302.169 594.925 313.67C589.679 324.97 582.112 333.747 572.225 340.002C562.539 346.257 551.139 349.385 538.023 349.385ZM532.878 329.712C546.8 329.712 557.797 324.869 565.869 315.183C574.142 305.296 578.278 291.273 578.278 273.112C578.278 254.75 574.142 240.727 565.869 231.041C557.797 221.356 546.8 216.513 532.878 216.513C519.157 216.513 508.16 221.356 499.887 231.041C491.614 240.727 487.477 254.75 487.477 273.112C487.477 291.273 491.614 305.296 499.887 315.183C508.16 324.869 519.157 329.712 532.878 329.712Z" fill="#7D7D7D"/>
<path d="M230.932 71.2065C256.135 65.8493 276.567 82.3944 276.567 108.161V339.099C276.566 364.865 256.135 390.096 230.932 395.453L155.635 411.458C130.431 416.815 110 400.27 110 374.504V143.565C110 117.799 130.431 92.5685 155.635 87.2114L230.932 71.2065ZM235.495 140.218C235.495 124.758 223.236 114.831 208.114 118.045L178.452 124.35C163.33 127.565 151.071 142.703 151.071 158.163V342.447C151.071 357.906 163.33 367.834 178.452 364.619L208.114 358.314C223.236 355.1 235.495 339.962 235.495 324.502V140.218Z" fill="#7D7D7D"/>
</svg>
