<svg width="320" height="133" viewBox="0 0 320 133" fill="none" xmlns="http://www.w3.org/2000/svg">
<g clip-path="url(#clip0_52_971)">
<path d="M308.255 87.8704C306.722 87.8704 305.229 87.7089 303.776 87.3861C302.363 87.1036 301.032 86.7 299.781 86.1754C298.57 85.6104 297.521 84.9446 296.633 84.1778L298.207 80.7274C299.175 81.4941 300.224 82.1398 301.354 82.6645C302.484 83.1487 303.635 83.5119 304.805 83.7541C305.975 83.9962 307.166 84.1173 308.376 84.1173C310.677 84.1173 312.412 83.6935 313.582 82.8461C314.753 81.9986 315.338 80.8484 315.338 79.3956C315.338 78.2657 314.954 77.3778 314.188 76.7321C313.421 76.0461 312.21 75.5215 310.556 75.1583L305.047 73.9476C302.505 73.423 300.608 72.515 299.357 71.2236C298.146 69.9322 297.541 68.2574 297.541 66.1993C297.541 64.3833 298.005 62.8295 298.933 61.5382C299.902 60.2064 301.254 59.1773 302.989 58.4509C304.724 57.7245 306.742 57.3613 309.042 57.3613C310.414 57.3613 311.726 57.5026 312.977 57.7851C314.228 58.0676 315.398 58.4913 316.488 59.0563C317.618 59.5809 318.586 60.2468 319.394 61.0539L317.759 64.5043C316.992 63.7779 316.125 63.1726 315.156 62.6883C314.188 62.1637 313.179 61.7803 312.129 61.5382C311.121 61.2557 310.092 61.1144 309.042 61.1144C306.782 61.1144 305.067 61.5583 303.897 62.4462C302.727 63.334 302.141 64.5043 302.141 65.9571C302.141 67.0871 302.505 68.0153 303.231 68.7417C303.957 69.4681 305.087 69.9927 306.621 70.3156L312.129 71.4657C314.753 72.0307 316.71 72.9387 318.001 74.1897C319.333 75.4004 319.999 77.055 319.999 79.1535C319.999 80.9292 319.515 82.4829 318.546 83.8146C317.578 85.106 316.205 86.1149 314.43 86.8413C312.694 87.5273 310.636 87.8704 308.255 87.8704Z" fill="#7D7D7D"/>
<path d="M278.139 87.3255V57.9061H282.921V64.8675H282.316C283.002 62.4865 284.192 60.6906 285.887 59.48C287.582 58.2289 289.822 57.5025 292.606 57.3007L294.362 57.1191L294.725 61.3565L291.638 61.7197C288.894 61.9618 286.775 62.8497 285.282 64.3832C283.829 65.8764 283.102 67.9345 283.102 70.5576V87.3255H278.139Z" fill="#7D7D7D"/>
<path d="M257.94 87.8704C255.075 87.8704 252.593 87.2449 250.495 85.9938C248.396 84.7428 246.762 82.9873 245.591 80.7274C244.461 78.4271 243.896 75.7233 243.896 72.6158C243.896 69.5084 244.461 66.8248 245.591 64.5649C246.762 62.2646 248.396 60.4889 250.495 59.2379C252.593 57.9868 255.075 57.3613 257.94 57.3613C260.806 57.3613 263.287 57.9868 265.386 59.2379C267.484 60.4889 269.099 62.2646 270.229 64.5649C271.399 66.8248 271.984 69.5084 271.984 72.6158C271.984 75.7233 271.399 78.4271 270.229 80.7274C269.099 82.9873 267.484 84.7428 265.386 85.9938C263.287 87.2449 260.806 87.8704 257.94 87.8704ZM257.94 83.9357C260.725 83.9357 262.924 82.9671 264.539 81.03C266.193 79.0526 267.02 76.2277 267.02 72.5553C267.02 68.9233 266.193 66.1387 264.539 64.2016C262.924 62.2646 260.725 61.296 257.94 61.296C255.196 61.296 252.997 62.2646 251.342 64.2016C249.688 66.1387 248.86 68.9233 248.86 72.5553C248.86 76.2277 249.688 79.0526 251.342 81.03C252.997 82.9671 255.196 83.9357 257.94 83.9357Z" fill="#7D7D7D"/>
<path d="M225.515 87.8704C222.649 87.8704 220.167 87.2449 218.069 85.9938C215.97 84.7428 214.336 82.9873 213.166 80.7274C212.036 78.4271 211.471 75.7233 211.471 72.6158C211.471 69.5084 212.036 66.8248 213.166 64.5649C214.336 62.2646 215.97 60.4889 218.069 59.2379C220.167 57.9868 222.649 57.3613 225.515 57.3613C228.38 57.3613 230.862 57.9868 232.96 59.2379C235.059 60.4889 236.673 62.2646 237.803 64.5649C238.973 66.8248 239.558 69.5084 239.558 72.6158C239.558 75.7233 238.973 78.4271 237.803 80.7274C236.673 82.9873 235.059 84.7428 232.96 85.9938C230.862 87.2449 228.38 87.8704 225.515 87.8704ZM225.515 83.9357C228.299 83.9357 230.498 82.9671 232.113 81.03C233.767 79.0526 234.595 76.2277 234.595 72.5553C234.595 68.9233 233.767 66.1387 232.113 64.2016C230.498 62.2646 228.299 61.296 225.515 61.296C222.77 61.296 220.571 62.2646 218.916 64.2016C217.262 66.1387 216.434 68.9233 216.434 72.5553C216.434 76.2277 217.262 79.0526 218.916 81.03C220.571 82.9671 222.77 83.9357 225.515 83.9357Z" fill="#7D7D7D"/>
<path d="M190.403 87.8706C187.78 87.8706 185.48 87.245 183.503 85.994C181.565 84.743 180.052 82.9875 178.963 80.7276C177.913 78.4273 177.389 75.7234 177.389 72.616C177.389 69.4683 177.913 66.7644 178.963 64.5045C180.052 62.2042 181.565 60.4487 183.503 59.2381C185.48 57.987 187.78 57.3615 190.403 57.3615C193.067 57.3615 195.347 58.0274 197.244 59.3591C199.14 60.6909 200.412 62.4867 201.057 64.7466H200.392V44.6494H205.295V87.3257H200.513V80.3038H201.118C200.472 82.6041 199.181 84.4403 197.244 85.8124C195.347 87.1845 193.067 87.8706 190.403 87.8706ZM191.433 83.9359C194.217 83.9359 196.416 82.9673 198.031 81.0302C199.685 79.0528 200.513 76.2481 200.513 72.616C200.513 68.9436 199.685 66.1389 198.031 64.2018C196.416 62.2648 194.217 61.2962 191.433 61.2962C188.688 61.2962 186.489 62.2648 184.834 64.2018C183.18 66.1389 182.352 68.9436 182.352 72.616C182.352 76.2481 183.18 79.0528 184.834 81.0302C186.489 82.9673 188.688 83.9359 191.433 83.9359Z" fill="#7D7D7D"/>
<path d="M136.787 87.3257V84.0569L154.524 60.4487V61.7199H136.787V57.9062H159.064V61.1751L141.146 84.9043V83.5121H159.729V87.3257H136.787Z" fill="#7D7D7D"/>
<path d="M124.596 50.5813V45.0728H130.649V50.5813H124.596ZM125.201 87.3253V57.9059H130.104V87.3253H125.201Z" fill="#7D7D7D"/>
<path d="M104.715 87.3255V57.9061H109.497V64.8675H108.892C109.578 62.4865 110.768 60.6906 112.463 59.48C114.158 58.2289 116.398 57.5025 119.182 57.3007L120.938 57.1191L121.301 61.3565L118.214 61.7197C115.47 61.9618 113.351 62.8497 111.858 64.3832C110.405 65.8764 109.679 67.9345 109.679 70.5576V87.3255H104.715Z" fill="#7D7D7D"/>
<path d="M85.5261 87.8706C82.8626 87.8706 80.5623 87.1845 78.6252 85.8124C76.7285 84.4403 75.4573 82.6041 74.8116 80.3038H75.4169V87.3257H70.6348V44.6494H75.538V64.7466H74.8116C75.4976 62.4867 76.789 60.6909 78.6858 59.3591C80.5825 58.0274 82.8626 57.3615 85.5261 57.3615C88.1896 57.3615 90.4898 57.987 92.4269 59.2381C94.364 60.4487 95.8572 62.2042 96.9064 64.5045C97.996 66.7644 98.5408 69.4683 98.5408 72.616C98.5408 75.7234 97.996 78.4273 96.9064 80.7276C95.8572 82.9875 94.3438 84.743 92.3664 85.994C90.4293 87.245 88.1492 87.8706 85.5261 87.8706ZM84.497 83.9359C87.2816 83.9359 89.481 82.9673 91.0952 81.0302C92.7498 79.0528 93.5771 76.2481 93.5771 72.616C93.5771 68.9436 92.7498 66.1389 91.0952 64.2018C89.481 62.2648 87.2816 61.2962 84.497 61.2962C81.7528 61.2962 79.5534 62.2648 77.8988 64.2018C76.2442 66.1389 75.4169 68.9436 75.4169 72.616C75.4169 76.2481 76.2442 79.0528 77.8988 81.0302C79.5534 82.9673 81.7528 83.9359 84.497 83.9359Z" fill="#7D7D7D"/>
<path d="M24.1844 32.1741C29.2251 31.1027 33.3114 34.4117 33.3114 39.565V85.7526C33.3113 90.9059 29.2251 95.952 24.1844 97.0234L9.125 100.224C4.08433 101.296 -0.00194707 97.9868 -0.00195312 92.8336V46.6459C-0.00195312 41.4926 4.08433 36.4465 9.125 35.3751L24.1844 32.1741ZM25.0971 45.9764C25.0971 42.8844 22.6453 40.899 19.6209 41.5419L13.6885 42.8029C10.6641 43.4457 8.21231 46.4734 8.2123 49.5653V86.4221C8.2123 89.5141 10.6641 91.4995 13.6885 90.8567L19.6209 89.5957C22.6453 88.9528 25.0971 85.9252 25.0971 82.8332V45.9764Z" fill="#7D7D7D"/>
</g>
<defs>
<clipPath id="clip0_52_971">
<rect width="320" height="132" fill="white" transform="translate(0 0.199219)"/>
</clipPath>
</defs>
</svg>
