<svg width="267" height="237" viewBox="0 0 267 237" fill="none" xmlns="http://www.w3.org/2000/svg">
<path d="M143.919 71.0169C150.989 69.5143 156.719 74.1549 156.719 81.382V146.156C156.719 153.383 150.988 160.46 143.919 161.963L122.8 166.452C115.731 167.954 110 163.314 110 156.087V91.3124C110 84.0854 115.731 77.0086 122.8 75.506L143.919 71.0169ZM145.199 90.3733C145.199 86.0371 141.761 83.2528 137.519 84.1544L129.2 85.9228C124.958 86.8244 121.52 91.0704 121.52 95.4066V147.095C121.52 151.432 124.958 154.216 129.2 153.314L137.519 151.546C141.761 150.644 145.199 146.398 145.199 142.062V90.3733Z" fill="#1D1D1F"/>
</svg>
