<svg width="47" height="97" viewBox="0 0 47 97" fill="none" xmlns="http://www.w3.org/2000/svg">
<path d="M33.9194 0.778614C40.9885 -0.723974 46.7192 3.91664 46.7192 11.1437V75.9181C46.7192 83.1451 40.9885 90.2219 33.9194 91.7244L12.7998 96.2136C5.73068 97.7162 8.49592e-06 93.0755 0 85.8485V21.0741C0 13.8471 5.73068 6.77032 12.7998 5.26773L33.9194 0.778614ZM35.1994 20.135C35.1993 15.7988 31.7609 13.0146 27.5195 13.9161L19.1997 15.6846C14.9582 16.5861 11.5198 20.8321 11.5198 25.1684V76.857C11.5198 81.1932 14.9582 83.9776 19.1997 83.0761L27.5195 81.3076C31.761 80.4061 35.1994 76.1599 35.1994 71.8237V20.135Z" fill="#7D7D7D"/>
</svg>
