<svg width="32" height="65" viewBox="0 0 32 65" fill="none" xmlns="http://www.w3.org/2000/svg">
<path d="M22.6129 0.684441C27.3257 -0.317285 31.1461 2.77646 31.1461 7.59449V50.7774C31.1461 55.5954 27.3257 60.3133 22.6129 61.315L8.5332 64.3077C3.82046 65.3095 5.66395e-06 62.2157 0 57.3977V14.2148C0 9.39674 3.82045 4.67891 8.5332 3.67718L22.6129 0.684441ZM23.4662 13.5887C23.4662 10.6979 21.174 8.84173 18.3463 9.44277L12.7998 10.6217C9.97215 11.2228 7.67988 14.0535 7.67988 16.9443V51.4034C7.67989 54.2942 9.97216 56.1505 12.7998 55.5494L18.3463 54.3704C21.174 53.7694 23.4662 50.9386 23.4662 48.0478V13.5887Z" fill="#7D7D7D"/>
</svg>
