<svg width="1217" height="2189" viewBox="0 0 1217 2189" fill="none" xmlns="http://www.w3.org/2000/svg">
<path d="M833.614 76.5232C984.422 44.468 1106.68 143.468 1106.68 297.645V1679.5C1106.68 1833.67 984.421 1984.65 833.614 2016.7L383.062 2112.47C232.255 2144.52 110 2045.52 110 1891.35V509.494C110 355.317 232.254 204.346 383.062 172.291L833.614 76.5232ZM860.92 489.46C860.919 396.955 787.567 337.557 697.083 356.79L519.594 394.517C429.109 413.75 355.756 504.332 355.756 596.838V1699.53C355.756 1792.03 429.109 1851.44 519.594 1832.2L697.083 1794.48C787.567 1775.24 860.92 1684.66 860.92 1592.15V489.46Z" fill="#7D7D7D"/>
</svg>
