<svg width="345" height="397" viewBox="0 0 345 397" fill="none" xmlns="http://www.w3.org/2000/svg">
<path d="M200.452 71.2495C219.303 67.2426 234.585 79.6175 234.585 98.8897V271.621C234.584 290.893 219.303 309.765 200.452 313.772L144.133 325.743C125.282 329.75 110 317.375 110 298.102V125.371C110 106.099 125.282 87.2274 144.133 83.2205L200.452 71.2495ZM203.865 122.867C203.865 111.303 194.696 103.879 183.385 106.283L161.199 110.999C149.889 113.403 140.72 124.726 140.72 136.289V274.125C140.72 285.688 149.889 293.114 161.199 290.709L183.385 285.994C194.696 283.589 203.865 272.266 203.865 260.703V122.867Z" fill="#7D7D7D"/>
</svg>
