<svg width="2167" height="4141" viewBox="0 0 2167 4141" fill="none" xmlns="http://www.w3.org/2000/svg">
<path d="M1523.31 82.2678C1817.85 19.6599 2056.63 213.019 2056.63 514.146V3213.08C2056.63 3514.2 1817.85 3809.07 1523.31 3871.68L643.325 4058.72C348.779 4121.33 110 3927.97 110 3626.85V927.914C110 626.787 348.778 331.922 643.325 269.314L1523.31 82.2678ZM1576.64 888.785C1576.64 708.11 1433.37 592.099 1256.65 629.663L909.988 703.349C733.26 740.914 589.993 917.831 589.993 1098.51V3252.2C589.993 3432.88 733.26 3548.89 909.988 3511.33L1256.65 3437.64C1433.37 3400.08 1576.64 3223.15 1576.64 3042.48V888.785Z" fill="#7D7D7D"/>
</svg>
