<svg width="470" height="653" viewBox="0 0 470 653" fill="none" xmlns="http://www.w3.org/2000/svg">
<path d="M290.903 72.0029C328.605 63.9891 359.169 88.739 359.169 127.283V472.747C359.169 511.291 328.605 549.034 290.903 557.047L178.266 580.989C140.564 589.003 110 564.253 110 525.709V180.246C110 141.701 140.564 103.959 178.266 95.9448L290.903 72.0029ZM297.73 175.237C297.73 152.111 279.392 137.261 256.771 142.069L212.398 151.501C189.777 156.31 171.439 178.955 171.439 202.082V477.754C171.439 500.881 189.777 515.731 212.398 510.923L256.771 501.491C279.392 496.683 297.73 474.036 297.73 450.91V175.237Z" fill="#7D7D7D"/>
</svg>
