<svg width="252" height="205" viewBox="0 0 252 205" fill="none" xmlns="http://www.w3.org/2000/svg">
<path d="M132.613 70.6844C137.326 69.6827 141.146 72.7765 141.146 77.5945V120.777C141.146 125.595 137.326 130.313 132.613 131.315L118.533 134.308C113.82 135.309 110 132.216 110 127.398V84.2148C110 79.3967 113.82 74.6789 118.533 73.6772L132.613 70.6844ZM133.466 83.5887C133.466 80.6979 131.174 78.8417 128.346 79.4428L122.8 80.6217C119.972 81.2228 117.68 84.0535 117.68 86.9443V121.403C117.68 124.294 119.972 126.15 122.8 125.549L128.346 124.37C131.174 123.769 133.466 120.939 133.466 118.048V83.5887Z" fill="#7D7D7D"/>
</svg>
