<svg width="719" height="1165" viewBox="0 0 719 1165" fill="none" xmlns="http://www.w3.org/2000/svg">
<path d="M471.807 73.5096C547.211 57.482 608.338 106.982 608.338 184.07V874.997C608.338 952.085 547.211 1027.57 471.807 1043.6L246.531 1091.48C171.127 1107.51 110 1058.01 110 980.922V289.995C110 212.906 171.127 137.421 246.531 121.394L471.807 73.5096ZM485.46 279.978C485.46 233.725 448.783 204.026 403.541 213.643L314.797 232.506C269.554 242.123 232.878 287.414 232.878 333.667V885.012C232.878 931.266 269.554 960.966 314.797 951.349L403.541 932.486C448.784 922.869 485.46 877.577 485.46 831.324V279.978Z" fill="#7D7D7D"/>
</svg>
