<svg width="236" height="173" viewBox="0 0 236 173" fill="none" xmlns="http://www.w3.org/2000/svg">
<path d="M121.306 70.5903C123.663 70.0894 125.573 71.6363 125.573 74.0453V95.6368C125.573 98.0458 123.663 100.405 121.306 100.906L114.267 102.402C111.91 102.903 110 101.356 110 98.9469V77.3554C110 74.9464 111.91 72.5875 114.267 72.0866L121.306 70.5903ZM121.733 77.0424C121.733 75.597 120.587 74.6689 119.173 74.9694L116.4 75.5589C114.986 75.8594 113.84 77.2748 113.84 78.7202V95.9497C113.84 97.3951 114.986 98.3233 116.4 98.0228L119.173 97.4333C120.587 97.1328 121.733 95.7174 121.733 94.272V77.0424Z" fill="#7D7D7D"/>
</svg>
