<svg width="321" height="133" viewBox="0 0 321 133" fill="none" xmlns="http://www.w3.org/2000/svg">
<g clip-path="url(#clip0_2020_39)">
<path d="M174.71 0.886513C184.43 -1.17955 192.31 5.2013 192.31 15.1385V104.203C192.31 114.14 184.43 123.871 174.71 125.937L145.671 132.11C135.951 134.176 128.071 127.795 128.071 117.858V28.7928C128.071 18.8556 135.951 9.12511 145.671 7.05905L174.71 0.886513ZM176.47 27.5016C176.47 21.5393 171.743 17.7109 165.911 18.9506L154.471 21.3822C148.639 22.6218 143.911 28.4601 143.911 34.4224V105.494C143.911 111.457 148.639 115.285 154.471 114.046L165.911 111.614C171.743 110.374 176.47 104.536 176.47 98.5735V27.5016Z" fill="#7D7D7D"/>
</g>
<defs>
<clipPath id="clip0_2020_39">
<rect width="320" height="132" fill="white" transform="translate(0.19043 0.498047)"/>
</clipPath>
</defs>
</svg>
