<svg width="283" height="269" viewBox="0 0 283 269" fill="none" xmlns="http://www.w3.org/2000/svg">
<path d="M155.226 70.8728C164.651 68.8693 172.292 75.0568 172.292 84.6929V171.059C172.292 180.695 164.651 190.13 155.226 192.134L127.066 198.119C117.641 200.123 110 193.935 110 184.299V97.9335C110 88.2974 117.641 78.8617 127.066 76.8583L155.226 70.8728ZM156.932 96.6813C156.932 90.8997 152.348 87.1874 146.693 88.3894L135.6 90.7474C129.944 91.9495 125.36 97.6108 125.36 103.392V172.311C125.36 178.092 129.944 181.805 135.6 180.603L146.693 178.245C152.348 177.043 156.932 171.381 156.932 165.6V96.6813Z" fill="#7D7D7D"/>
</svg>
