<svg width="9210" height="3061" viewBox="0 0 9210 3061" fill="none" xmlns="http://www.w3.org/2000/svg">
<path d="M1616.03 509.594C1767.34 477.432 1890 576.762 1890 731.453V2117.91C1890 2272.61 1767.34 2424.08 1616.03 2456.24L1163.97 2552.33C1012.66 2584.49 890 2485.16 890 2330.47V944.009C890 789.318 1012.66 637.843 1163.97 605.681L1616.03 509.594ZM1643.42 923.908C1643.42 831.094 1569.83 771.498 1479.04 790.795L1300.96 828.648C1210.17 847.945 1136.58 938.829 1136.58 1031.64V2138.01C1136.58 2230.83 1210.17 2290.43 1300.96 2271.13L1479.04 2233.28C1569.83 2213.98 1643.42 2123.09 1643.42 2030.28V923.908Z" fill="#7D7D7D"/>
<path d="M3238.75 933.211L3236.5 906.961L3254.25 905.961C3259.25 905.628 3263.33 904.544 3266.5 902.711C3269.83 900.711 3272.33 897.961 3274 894.461C3275.67 890.794 3276.5 886.461 3276.5 881.461V754.711H3308.5V881.211C3308.5 891.711 3306.67 900.628 3303 907.961C3299.33 915.294 3293.83 920.961 3286.5 924.961C3279.17 928.961 3270.08 931.378 3259.25 932.211L3238.75 933.211ZM3384.37 933.461C3375.53 933.461 3367.62 931.794 3360.62 928.461C3353.78 924.961 3348.37 920.294 3344.37 914.461C3340.53 908.628 3338.62 902.044 3338.62 894.711C3338.62 885.711 3340.95 878.628 3345.62 873.461C3350.28 868.128 3357.87 864.294 3368.37 861.961C3378.87 859.628 3392.95 858.461 3410.62 858.461H3423.12V876.461H3410.87C3403.03 876.461 3396.45 876.794 3391.12 877.461C3385.78 877.961 3381.45 878.878 3378.12 880.211C3374.95 881.378 3372.62 883.044 3371.12 885.211C3369.78 887.378 3369.12 890.044 3369.12 893.211C3369.12 898.711 3371.03 903.211 3374.87 906.711C3378.7 910.211 3384.03 911.961 3390.87 911.961C3396.37 911.961 3401.2 910.711 3405.37 908.211C3409.7 905.544 3413.12 901.961 3415.62 897.461C3418.12 892.961 3419.37 887.794 3419.37 881.961V853.211C3419.37 844.878 3417.53 838.878 3413.87 835.211C3410.2 831.544 3404.03 829.711 3395.37 829.711C3388.53 829.711 3381.53 830.794 3374.37 832.961C3367.2 834.961 3359.95 838.128 3352.62 842.461L3343.62 821.211C3347.95 818.211 3353.03 815.628 3358.87 813.461C3364.87 811.128 3371.12 809.378 3377.62 808.211C3384.28 806.878 3390.53 806.211 3396.37 806.211C3408.37 806.211 3418.2 808.044 3425.87 811.711C3433.7 815.378 3439.53 820.961 3443.37 828.461C3447.2 835.794 3449.12 845.294 3449.12 856.961V930.961H3419.87V904.961H3421.87C3420.7 910.794 3418.37 915.878 3414.87 920.211C3411.53 924.378 3407.28 927.628 3402.12 929.961C3396.95 932.294 3391.03 933.461 3384.37 933.461ZM3480.84 930.961V808.711H3511.34V838.211H3508.84C3511.17 828.211 3515.75 820.628 3522.59 815.461C3529.42 810.128 3538.5 807.044 3549.84 806.211L3559.34 805.461L3561.34 831.961L3543.34 833.711C3533.17 834.711 3525.5 837.878 3520.34 843.211C3515.17 848.378 3512.59 855.711 3512.59 865.211V930.961H3480.84ZM3578.74 930.961V808.711H3609.24V838.211H3606.74C3609.07 828.211 3613.65 820.628 3620.49 815.461C3627.32 810.128 3636.4 807.044 3647.74 806.211L3657.24 805.461L3659.24 831.961L3641.24 833.711C3631.07 834.711 3623.4 837.878 3618.24 843.211C3613.07 848.378 3610.49 855.711 3610.49 865.211V930.961H3578.74ZM3730.43 933.461C3717.77 933.461 3706.77 930.878 3697.43 925.711C3688.1 920.544 3680.85 913.211 3675.68 903.711C3670.52 894.044 3667.93 882.711 3667.93 869.711C3667.93 856.711 3670.52 845.461 3675.68 835.961C3680.85 826.461 3688.1 819.128 3697.43 813.961C3706.77 808.794 3717.77 806.211 3730.43 806.211C3743.1 806.211 3754.1 808.794 3763.43 813.961C3772.77 819.128 3780.02 826.461 3785.18 835.961C3790.35 845.461 3792.93 856.711 3792.93 869.711C3792.93 882.711 3790.35 894.044 3785.18 903.711C3780.02 913.211 3772.77 920.544 3763.43 925.711C3754.1 930.878 3743.1 933.461 3730.43 933.461ZM3730.43 909.711C3739.77 909.711 3747.27 906.378 3752.93 899.711C3758.6 892.878 3761.43 882.878 3761.43 869.711C3761.43 856.378 3758.6 846.461 3752.93 839.961C3747.27 833.294 3739.77 829.961 3730.43 829.961C3721.1 829.961 3713.6 833.294 3707.93 839.961C3702.27 846.461 3699.43 856.378 3699.43 869.711C3699.43 882.878 3702.27 892.878 3707.93 899.711C3713.6 906.378 3721.1 909.711 3730.43 909.711ZM3865.73 933.461C3855.06 933.461 3845.64 930.878 3837.48 925.711C3829.48 920.544 3823.23 913.211 3818.73 903.711C3814.23 894.044 3811.98 882.711 3811.98 869.711C3811.98 856.544 3814.23 845.294 3818.73 835.961C3823.23 826.461 3829.48 819.128 3837.48 813.961C3845.64 808.794 3855.06 806.211 3865.73 806.211C3875.89 806.211 3884.73 808.711 3892.23 813.711C3899.89 818.711 3905.06 825.294 3907.73 833.461H3904.98V754.711H3936.23V930.961H3905.73V904.961H3907.98C3905.48 913.628 3900.39 920.544 3892.73 925.711C3885.06 930.878 3876.06 933.461 3865.73 933.461ZM3874.48 909.711C3883.81 909.711 3891.31 906.378 3896.98 899.711C3902.64 892.878 3905.48 882.878 3905.48 869.711C3905.48 856.378 3902.64 846.461 3896.98 839.961C3891.31 833.294 3883.81 829.961 3874.48 829.961C3865.14 829.961 3857.64 833.294 3851.98 839.961C3846.31 846.461 3843.48 856.378 3843.48 869.711C3843.48 882.878 3846.31 892.878 3851.98 899.711C3857.64 906.378 3865.14 909.711 3874.48 909.711ZM4039.01 930.961V754.711H4116.01C4134.51 754.711 4148.85 758.794 4159.01 766.961C4169.18 774.961 4174.26 786.128 4174.26 800.461C4174.26 811.128 4171.18 820.128 4165.01 827.461C4158.85 834.794 4150.43 839.711 4139.76 842.211V838.461C4147.93 839.628 4154.93 842.128 4160.76 845.961C4166.6 849.794 4171.01 854.711 4174.01 860.711C4177.18 866.711 4178.76 873.711 4178.76 881.711C4178.76 892.044 4176.35 900.961 4171.51 908.461C4166.85 915.794 4160.01 921.378 4151.01 925.211C4142.01 929.044 4131.26 930.961 4118.76 930.961H4039.01ZM4069.76 906.711H4114.76C4119.26 906.711 4123.26 906.378 4126.76 905.711C4130.43 905.044 4133.51 904.044 4136.01 902.711C4138.68 901.211 4140.85 899.378 4142.51 897.211C4144.35 895.044 4145.68 892.544 4146.51 889.711C4147.35 886.878 4147.76 883.711 4147.76 880.211C4147.76 876.544 4147.35 873.294 4146.51 870.461C4145.68 867.628 4144.35 865.211 4142.51 863.211C4140.85 861.044 4138.68 859.294 4136.01 857.961C4133.51 856.461 4130.43 855.378 4126.76 854.711C4123.26 854.044 4119.26 853.711 4114.76 853.711H4069.76V906.711ZM4069.76 829.461H4110.51C4121.51 829.461 4129.68 827.378 4135.01 823.211C4140.51 818.878 4143.26 812.544 4143.26 804.211C4143.26 795.878 4140.51 789.628 4135.01 785.461C4129.68 781.128 4121.51 778.961 4110.51 778.961H4069.76V829.461ZM4208.13 930.961V808.711H4238.63V838.211H4236.13C4238.46 828.211 4243.05 820.628 4249.88 815.461C4256.71 810.128 4265.8 807.044 4277.13 806.211L4286.63 805.461L4288.63 831.961L4270.63 833.711C4260.46 834.711 4252.8 837.878 4247.63 843.211C4242.46 848.378 4239.88 855.711 4239.88 865.211V930.961H4208.13ZM4345.06 933.461C4336.23 933.461 4328.31 931.794 4321.31 928.461C4314.48 924.961 4309.06 920.294 4305.06 914.461C4301.23 908.628 4299.31 902.044 4299.31 894.711C4299.31 885.711 4301.64 878.628 4306.31 873.461C4310.98 868.128 4318.56 864.294 4329.06 861.961C4339.56 859.628 4353.64 858.461 4371.31 858.461H4383.81V876.461H4371.56C4363.73 876.461 4357.14 876.794 4351.81 877.461C4346.48 877.961 4342.14 878.878 4338.81 880.211C4335.64 881.378 4333.31 883.044 4331.81 885.211C4330.48 887.378 4329.81 890.044 4329.81 893.211C4329.81 898.711 4331.73 903.211 4335.56 906.711C4339.39 910.211 4344.73 911.961 4351.56 911.961C4357.06 911.961 4361.89 910.711 4366.06 908.211C4370.39 905.544 4373.81 901.961 4376.31 897.461C4378.81 892.961 4380.06 887.794 4380.06 881.961V853.211C4380.06 844.878 4378.23 838.878 4374.56 835.211C4370.89 831.544 4364.73 829.711 4356.06 829.711C4349.23 829.711 4342.23 830.794 4335.06 832.961C4327.89 834.961 4320.64 838.128 4313.31 842.461L4304.31 821.211C4308.64 818.211 4313.73 815.628 4319.56 813.461C4325.56 811.128 4331.81 809.378 4338.31 808.211C4344.98 806.878 4351.23 806.211 4357.06 806.211C4369.06 806.211 4378.89 808.044 4386.56 811.711C4394.39 815.378 4400.23 820.961 4404.06 828.461C4407.89 835.794 4409.81 845.294 4409.81 856.961V930.961H4380.56V904.961H4382.56C4381.39 910.794 4379.06 915.878 4375.56 920.211C4372.23 924.378 4367.98 927.628 4362.81 929.961C4357.64 932.294 4351.73 933.461 4345.06 933.461ZM4488.53 933.461C4477.86 933.461 4468.45 930.878 4460.28 925.711C4452.28 920.544 4446.03 913.211 4441.53 903.711C4437.03 894.044 4434.78 882.711 4434.78 869.711C4434.78 856.544 4437.03 845.294 4441.53 835.961C4446.03 826.461 4452.28 819.128 4460.28 813.961C4468.45 808.794 4477.86 806.211 4488.53 806.211C4498.7 806.211 4507.53 808.711 4515.03 813.711C4522.7 818.711 4527.86 825.294 4530.53 833.461H4527.78V754.711H4559.03V930.961H4528.53V904.961H4530.78C4528.28 913.628 4523.2 920.544 4515.53 925.711C4507.86 930.878 4498.86 933.461 4488.53 933.461ZM4497.28 909.711C4506.61 909.711 4514.11 906.378 4519.78 899.711C4525.45 892.878 4528.28 882.878 4528.28 869.711C4528.28 856.378 4525.45 846.461 4519.78 839.961C4514.11 833.294 4506.61 829.961 4497.28 829.961C4487.95 829.961 4480.45 833.294 4474.78 839.961C4469.11 846.461 4466.28 856.378 4466.28 869.711C4466.28 882.878 4469.11 892.878 4474.78 899.711C4480.45 906.378 4487.95 909.711 4497.28 909.711ZM4636.18 933.461C4629.35 933.461 4622.68 932.878 4616.18 931.711C4609.85 930.544 4604.01 928.961 4598.68 926.961C4593.35 924.794 4588.68 922.128 4584.68 918.961L4592.68 898.461C4596.85 901.128 4601.35 903.461 4606.18 905.461C4611.01 907.461 4616.01 908.961 4621.18 909.961C4626.35 910.961 4631.43 911.461 4636.43 911.461C4644.43 911.461 4650.35 910.128 4654.18 907.461C4658.18 904.628 4660.18 900.961 4660.18 896.461C4660.18 892.628 4658.85 889.711 4656.18 887.711C4653.68 885.544 4649.85 883.961 4644.68 882.961L4619.68 878.211C4609.35 876.211 4601.43 872.461 4595.93 866.961C4590.6 861.294 4587.93 854.044 4587.93 845.211C4587.93 837.211 4590.1 830.294 4594.43 824.461C4598.93 818.628 4605.1 814.128 4612.93 810.961C4620.76 807.794 4629.76 806.211 4639.93 806.211C4645.76 806.211 4651.43 806.794 4656.93 807.961C4662.43 808.961 4667.6 810.544 4672.43 812.711C4677.43 814.711 4681.76 817.378 4685.43 820.711L4676.93 841.211C4673.76 838.544 4670.1 836.294 4665.93 834.461C4661.76 832.461 4657.43 830.961 4652.93 829.961C4648.6 828.794 4644.35 828.211 4640.18 828.211C4632.01 828.211 4625.93 829.628 4621.93 832.461C4618.1 835.294 4616.18 839.044 4616.18 843.711C4616.18 847.211 4617.35 850.128 4619.68 852.461C4622.01 854.794 4625.6 856.378 4630.43 857.211L4655.43 861.961C4666.26 863.961 4674.43 867.628 4679.93 872.961C4685.6 878.294 4688.43 885.461 4688.43 894.461C4688.43 902.628 4686.26 909.628 4681.93 915.461C4677.6 921.294 4671.51 925.794 4663.68 928.961C4655.85 931.961 4646.68 933.461 4636.18 933.461ZM4713.5 930.961V754.711H4744.75V833.211H4741.25C4744.92 824.378 4750.59 817.711 4758.25 813.211C4766.09 808.544 4774.92 806.211 4784.75 806.211C4794.59 806.211 4802.67 808.044 4809 811.711C4815.34 815.378 4820.09 820.961 4823.25 828.461C4826.42 835.794 4828 845.128 4828 856.461V930.961H4796.75V857.961C4796.75 851.628 4795.92 846.461 4794.25 842.461C4792.75 838.461 4790.34 835.544 4787 833.711C4783.84 831.711 4779.75 830.711 4774.75 830.711C4768.75 830.711 4763.5 832.044 4759 834.711C4754.5 837.211 4751 840.878 4748.5 845.711C4746 850.378 4744.75 855.878 4744.75 862.211V930.961H4713.5ZM4899.99 933.461C4891.16 933.461 4883.24 931.794 4876.24 928.461C4869.41 924.961 4863.99 920.294 4859.99 914.461C4856.16 908.628 4854.24 902.044 4854.24 894.711C4854.24 885.711 4856.58 878.628 4861.24 873.461C4865.91 868.128 4873.49 864.294 4883.99 861.961C4894.49 859.628 4908.58 858.461 4926.24 858.461H4938.74V876.461H4926.49C4918.66 876.461 4912.08 876.794 4906.74 877.461C4901.41 877.961 4897.08 878.878 4893.74 880.211C4890.58 881.378 4888.24 883.044 4886.74 885.211C4885.41 887.378 4884.74 890.044 4884.74 893.211C4884.74 898.711 4886.66 903.211 4890.49 906.711C4894.33 910.211 4899.66 911.961 4906.49 911.961C4911.99 911.961 4916.83 910.711 4920.99 908.211C4925.33 905.544 4928.74 901.961 4931.24 897.461C4933.74 892.961 4934.99 887.794 4934.99 881.961V853.211C4934.99 844.878 4933.16 838.878 4929.49 835.211C4925.83 831.544 4919.66 829.711 4910.99 829.711C4904.16 829.711 4897.16 830.794 4889.99 832.961C4882.83 834.961 4875.58 838.128 4868.24 842.461L4859.24 821.211C4863.58 818.211 4868.66 815.628 4874.49 813.461C4880.49 811.128 4886.74 809.378 4893.24 808.211C4899.91 806.878 4906.16 806.211 4911.99 806.211C4923.99 806.211 4933.83 808.044 4941.49 811.711C4949.33 815.378 4955.16 820.961 4958.99 828.461C4962.83 835.794 4964.74 845.294 4964.74 856.961V930.961H4935.49V904.961H4937.49C4936.33 910.794 4933.99 915.878 4930.49 920.211C4927.16 924.378 4922.91 927.628 4917.74 929.961C4912.58 932.294 4906.66 933.461 4899.99 933.461ZM5028.99 930.961L4980.74 808.711H5012.74L5046.74 902.461H5040.99L5075.49 808.711H5097.49L5131.49 902.461H5126.24L5160.24 808.711H5190.49L5142.49 930.961H5115.24L5078.24 833.211H5092.49L5056.24 930.961H5028.99ZM3304 1271.96V1113.46H3240V1095.71H3388.75V1113.46H3324.75V1271.96H3304ZM3444.1 1274.21C3431.26 1274.21 3420.18 1271.71 3410.85 1266.71C3401.68 1261.54 3394.51 1254.29 3389.35 1244.96C3384.35 1235.63 3381.85 1224.46 3381.85 1211.46C3381.85 1198.79 3384.35 1187.79 3389.35 1178.46C3394.35 1168.96 3401.18 1161.54 3409.85 1156.21C3418.68 1150.88 3428.85 1148.21 3440.35 1148.21C3451.35 1148.21 3460.76 1150.63 3468.6 1155.46C3476.43 1160.29 3482.43 1167.13 3486.6 1175.96C3490.93 1184.79 3493.1 1195.38 3493.1 1207.71V1215.46H3397.35V1202.21H3479.6L3475.6 1205.46C3475.6 1192.13 3472.6 1181.79 3466.6 1174.46C3460.76 1166.96 3452.18 1163.21 3440.85 1163.21C3432.35 1163.21 3425.1 1165.21 3419.1 1169.21C3413.26 1173.04 3408.85 1178.46 3405.85 1185.46C3402.85 1192.29 3401.35 1200.29 3401.35 1209.46V1210.96C3401.35 1221.13 3402.93 1229.71 3406.1 1236.71C3409.43 1243.71 3414.35 1249.04 3420.85 1252.71C3427.35 1256.21 3435.1 1257.96 3444.1 1257.96C3451.26 1257.96 3458.18 1256.88 3464.85 1254.71C3471.68 1252.38 3478.1 1248.63 3484.1 1243.46L3491.1 1257.71C3485.6 1262.71 3478.6 1266.71 3470.1 1269.71C3461.6 1272.71 3452.93 1274.21 3444.1 1274.21ZM3573.9 1274.21C3561.74 1274.21 3551.24 1271.54 3542.4 1266.21C3533.57 1260.88 3526.74 1253.46 3521.9 1243.96C3517.24 1234.29 3514.9 1223.13 3514.9 1210.46C3514.9 1197.63 3517.24 1186.54 3521.9 1177.21C3526.74 1167.88 3533.57 1160.71 3542.4 1155.71C3551.24 1150.71 3561.74 1148.21 3573.9 1148.21C3581.4 1148.21 3588.82 1149.54 3596.15 1152.21C3603.49 1154.88 3609.57 1158.63 3614.4 1163.46L3607.4 1178.21C3602.57 1173.54 3597.24 1170.13 3591.4 1167.96C3585.74 1165.79 3580.32 1164.71 3575.15 1164.71C3562.49 1164.71 3552.74 1168.71 3545.9 1176.71C3539.07 1184.54 3535.65 1195.88 3535.65 1210.71C3535.65 1225.21 3539.07 1236.71 3545.9 1245.21C3552.74 1253.54 3562.49 1257.71 3575.15 1257.71C3580.32 1257.71 3585.74 1256.63 3591.4 1254.46C3597.24 1252.29 3602.57 1248.79 3607.4 1243.96L3614.4 1258.71C3609.57 1263.54 3603.4 1267.38 3595.9 1270.21C3588.57 1272.88 3581.24 1274.21 3573.9 1274.21ZM3638.13 1271.96V1095.71H3658.38V1177.46H3655.13C3658.63 1167.79 3664.29 1160.54 3672.13 1155.71C3680.13 1150.71 3689.29 1148.21 3699.63 1148.21C3709.29 1148.21 3717.29 1149.96 3723.63 1153.46C3730.13 1156.96 3734.96 1162.29 3738.13 1169.46C3741.29 1176.46 3742.88 1185.38 3742.88 1196.21V1271.96H3722.63V1197.46C3722.63 1189.96 3721.63 1183.79 3719.63 1178.96C3717.79 1174.13 3714.79 1170.54 3710.63 1168.21C3706.63 1165.88 3701.38 1164.71 3694.88 1164.71C3687.54 1164.71 3681.13 1166.29 3675.63 1169.46C3670.13 1172.63 3665.88 1177.04 3662.88 1182.71C3659.88 1188.38 3658.38 1195.04 3658.38 1202.71V1271.96H3638.13ZM3780.22 1271.96V1150.46H3799.97V1177.46H3797.22C3800.72 1167.79 3806.38 1160.54 3814.22 1155.71C3822.22 1150.71 3831.38 1148.21 3841.72 1148.21C3851.38 1148.21 3859.38 1149.96 3865.72 1153.46C3872.22 1156.79 3877.05 1162.04 3880.22 1169.21C3883.38 1176.38 3884.97 1185.38 3884.97 1196.21V1271.96H3864.72V1197.46C3864.72 1189.96 3863.72 1183.79 3861.72 1178.96C3859.88 1174.13 3856.88 1170.54 3852.72 1168.21C3848.72 1165.88 3843.47 1164.71 3836.97 1164.71C3829.63 1164.71 3823.22 1166.29 3817.72 1169.46C3812.22 1172.63 3807.97 1177.04 3804.97 1182.71C3801.97 1188.38 3800.47 1195.04 3800.47 1202.71V1271.96H3780.22ZM3972.81 1274.21C3960.97 1274.21 3950.72 1271.63 3942.06 1266.46C3933.39 1261.29 3926.64 1254.04 3921.81 1244.71C3917.14 1235.21 3914.81 1224.04 3914.81 1211.21C3914.81 1198.38 3917.14 1187.29 3921.81 1177.96C3926.64 1168.46 3933.39 1161.13 3942.06 1155.96C3950.72 1150.79 3960.97 1148.21 3972.81 1148.21C3984.64 1148.21 3994.89 1150.79 4003.56 1155.96C4012.22 1161.13 4018.89 1168.46 4023.56 1177.96C4028.39 1187.29 4030.81 1198.38 4030.81 1211.21C4030.81 1224.04 4028.39 1235.21 4023.56 1244.71C4018.89 1254.04 4012.22 1261.29 4003.56 1266.46C3994.89 1271.63 3984.64 1274.21 3972.81 1274.21ZM3972.81 1257.96C3984.31 1257.96 3993.39 1253.96 4000.06 1245.96C4006.89 1237.79 4010.31 1226.13 4010.31 1210.96C4010.31 1195.96 4006.89 1184.46 4000.06 1176.46C3993.39 1168.46 3984.31 1164.46 3972.81 1164.46C3961.47 1164.46 3952.39 1168.46 3945.56 1176.46C3938.72 1184.46 3935.31 1195.96 3935.31 1210.96C3935.31 1226.13 3938.72 1237.79 3945.56 1245.96C3952.39 1253.96 3961.47 1257.96 3972.81 1257.96ZM4098.47 1274.21C4086.14 1274.21 4076.81 1270.54 4070.47 1263.21C4064.31 1255.88 4061.22 1245.38 4061.22 1231.71V1095.71H4081.47V1230.21C4081.47 1236.04 4082.22 1240.96 4083.72 1244.96C4085.39 1248.96 4087.81 1251.96 4090.97 1253.96C4094.14 1255.96 4098.06 1256.96 4102.72 1256.96C4104.72 1256.96 4106.64 1256.88 4108.47 1256.71C4110.47 1256.38 4112.31 1255.96 4113.97 1255.46L4113.47 1272.46C4110.81 1272.96 4108.22 1273.38 4105.72 1273.71C4103.39 1274.04 4100.97 1274.21 4098.47 1274.21ZM4184.48 1274.21C4172.64 1274.21 4162.39 1271.63 4153.73 1266.46C4145.06 1261.29 4138.31 1254.04 4133.48 1244.71C4128.81 1235.21 4126.48 1224.04 4126.48 1211.21C4126.48 1198.38 4128.81 1187.29 4133.48 1177.96C4138.31 1168.46 4145.06 1161.13 4153.73 1155.96C4162.39 1150.79 4172.64 1148.21 4184.48 1148.21C4196.31 1148.21 4206.56 1150.79 4215.23 1155.96C4223.89 1161.13 4230.56 1168.46 4235.23 1177.96C4240.06 1187.29 4242.48 1198.38 4242.48 1211.21C4242.48 1224.04 4240.06 1235.21 4235.23 1244.71C4230.56 1254.04 4223.89 1261.29 4215.23 1266.46C4206.56 1271.63 4196.31 1274.21 4184.48 1274.21ZM4184.48 1257.96C4195.98 1257.96 4205.06 1253.96 4211.73 1245.96C4218.56 1237.79 4221.98 1226.13 4221.98 1210.96C4221.98 1195.96 4218.56 1184.46 4211.73 1176.46C4205.06 1168.46 4195.98 1164.46 4184.48 1164.46C4173.14 1164.46 4164.06 1168.46 4157.23 1176.46C4150.39 1184.46 4146.98 1195.96 4146.98 1210.96C4146.98 1226.13 4150.39 1237.79 4157.23 1245.96C4164.06 1253.96 4173.14 1257.96 4184.48 1257.96ZM4326.64 1319.21C4316.14 1319.21 4306.23 1317.79 4296.89 1314.96C4287.73 1312.29 4279.56 1308.21 4272.39 1302.71L4279.14 1287.96C4284.14 1291.46 4289.06 1294.29 4293.89 1296.46C4298.89 1298.79 4303.98 1300.46 4309.14 1301.46C4314.48 1302.46 4319.98 1302.96 4325.64 1302.96C4337.48 1302.96 4346.39 1299.79 4352.39 1293.46C4358.56 1287.13 4361.64 1277.96 4361.64 1265.96V1237.71H4364.14C4361.64 1247.38 4356.31 1255.04 4348.14 1260.71C4340.14 1266.38 4330.73 1269.21 4319.89 1269.21C4308.73 1269.21 4299.06 1266.71 4290.89 1261.71C4282.73 1256.54 4276.39 1249.38 4271.89 1240.21C4267.56 1231.04 4265.39 1220.46 4265.39 1208.46C4265.39 1196.46 4267.56 1185.96 4271.89 1176.96C4276.39 1167.79 4282.73 1160.71 4290.89 1155.71C4299.06 1150.71 4308.73 1148.21 4319.89 1148.21C4330.89 1148.21 4340.39 1151.04 4348.39 1156.71C4356.39 1162.21 4361.56 1169.71 4363.89 1179.21H4361.64V1150.46H4381.39V1263.21C4381.39 1275.54 4379.31 1285.88 4375.14 1294.21C4371.14 1302.54 4365.06 1308.79 4356.89 1312.96C4348.73 1317.13 4338.64 1319.21 4326.64 1319.21ZM4323.64 1252.71C4335.31 1252.71 4344.56 1248.71 4351.39 1240.71C4358.23 1232.71 4361.64 1221.96 4361.64 1208.46C4361.64 1194.96 4358.23 1184.29 4351.39 1176.46C4344.56 1168.46 4335.31 1164.46 4323.64 1164.46C4312.14 1164.46 4302.98 1168.46 4296.14 1176.46C4289.31 1184.29 4285.89 1194.96 4285.89 1208.46C4285.89 1221.96 4289.31 1232.71 4296.14 1240.71C4302.98 1248.71 4312.14 1252.71 4323.64 1252.71ZM4433.38 1316.96L4456.13 1265.71V1274.46L4402.88 1150.46H4424.88L4468.38 1256.96H4461.63L4505.63 1150.46H4526.88L4454.63 1316.96H4433.38ZM4664.75 1274.21C4653.09 1274.21 4643 1272.38 4634.5 1268.71C4626 1264.88 4619.5 1259.63 4615 1252.96C4610.67 1246.29 4608.5 1238.54 4608.5 1229.71C4608.5 1222.21 4609.84 1215.46 4612.5 1209.46C4615.34 1203.29 4619.5 1197.54 4625 1192.21C4630.5 1186.71 4637.34 1181.29 4645.5 1175.96L4653.5 1170.71L4650.75 1174.96C4642.75 1166.29 4637.09 1158.79 4633.75 1152.46C4630.59 1145.96 4629 1139.29 4629 1132.46C4629 1124.79 4630.75 1118.04 4634.25 1112.21C4637.75 1106.21 4642.75 1101.63 4649.25 1098.46C4655.92 1095.13 4663.59 1093.46 4672.25 1093.46C4680.09 1093.46 4686.92 1094.96 4692.75 1097.96C4698.59 1100.79 4703.17 1104.88 4706.5 1110.21C4710 1115.54 4711.75 1121.88 4711.75 1129.21C4711.75 1135.21 4710.59 1140.88 4708.25 1146.21C4705.92 1151.38 4702 1156.63 4696.5 1161.96C4691 1167.13 4683.34 1172.63 4673.5 1178.46L4674 1173.21L4720.75 1225.71H4716.25C4720.25 1218.88 4723.42 1210.46 4725.75 1200.46C4728.25 1190.29 4729.67 1179.71 4730 1168.71H4747.5C4747.17 1182.54 4745.25 1195.46 4741.75 1207.46C4738.42 1219.29 4733.84 1229.79 4728 1238.96L4727.75 1232.96L4764 1271.96H4739.25L4716.75 1246.71H4722C4715 1255.38 4706.59 1262.13 4696.75 1266.96C4686.92 1271.79 4676.25 1274.21 4664.75 1274.21ZM4665.75 1257.46C4675.25 1257.46 4683.67 1255.46 4691 1251.46C4698.5 1247.46 4705 1241.63 4710.5 1233.96L4710.25 1240.21L4657.25 1182.21L4665.25 1182.96L4657.5 1187.96C4650.34 1192.63 4644.59 1197.04 4640.25 1201.21C4636.09 1205.21 4633.09 1209.38 4631.25 1213.71C4629.42 1218.04 4628.5 1222.88 4628.5 1228.21C4628.5 1237.38 4631.67 1244.54 4638 1249.71C4644.34 1254.88 4653.59 1257.46 4665.75 1257.46ZM4672.25 1109.21C4665.09 1109.21 4659.25 1111.29 4654.75 1115.46C4650.25 1119.63 4648 1125.13 4648 1131.96C4648 1135.63 4648.5 1139.04 4649.5 1142.21C4650.67 1145.21 4652.67 1148.63 4655.5 1152.46C4658.34 1156.13 4662.25 1160.88 4667.25 1166.71L4662 1166.96C4670 1161.79 4676.34 1157.29 4681 1153.46C4685.67 1149.46 4689 1145.63 4691 1141.96C4693 1138.29 4694 1134.38 4694 1130.21C4694 1123.71 4692 1118.63 4688 1114.96C4684 1111.13 4678.75 1109.21 4672.25 1109.21ZM4909.3 1274.21C4900.14 1274.21 4891.47 1273.38 4883.3 1271.71C4875.3 1270.04 4867.89 1267.71 4861.05 1264.71C4854.39 1261.54 4848.3 1257.71 4842.8 1253.21L4850.05 1236.71C4855.72 1240.88 4861.47 1244.46 4867.3 1247.46C4873.3 1250.29 4879.72 1252.46 4886.55 1253.96C4893.55 1255.29 4901.14 1255.96 4909.3 1255.96C4924.3 1255.96 4935.39 1253.21 4942.55 1247.71C4949.89 1242.04 4953.55 1234.63 4953.55 1225.46C4953.55 1220.63 4952.39 1216.46 4950.05 1212.96C4947.89 1209.46 4944.22 1206.46 4939.05 1203.96C4934.05 1201.46 4927.47 1199.38 4919.3 1197.71L4893.3 1192.46C4877.64 1189.13 4865.89 1183.71 4858.05 1176.21C4850.39 1168.54 4846.55 1158.38 4846.55 1145.71C4846.55 1135.21 4849.22 1126.04 4854.55 1118.21C4860.05 1110.38 4867.64 1104.29 4877.3 1099.96C4887.14 1095.63 4898.3 1093.46 4910.8 1093.46C4918.8 1093.46 4926.39 1094.29 4933.55 1095.96C4940.72 1097.63 4947.3 1100.13 4953.3 1103.46C4959.47 1106.63 4964.89 1110.54 4969.55 1115.21L4962.3 1131.21C4954.8 1124.38 4946.89 1119.46 4938.55 1116.46C4930.22 1113.29 4920.89 1111.71 4910.55 1111.71C4901.72 1111.71 4894.05 1113.04 4887.55 1115.71C4881.22 1118.38 4876.22 1122.29 4872.55 1127.46C4869.05 1132.46 4867.3 1138.29 4867.3 1144.96C4867.3 1152.96 4869.72 1159.29 4874.55 1163.96C4879.55 1168.63 4887.64 1172.04 4898.8 1174.21L4924.8 1179.71C4941.64 1183.21 4954.05 1188.54 4962.05 1195.71C4970.22 1202.71 4974.3 1212.29 4974.3 1224.46C4974.3 1234.13 4971.64 1242.79 4966.3 1250.46C4961.14 1257.96 4953.64 1263.79 4943.8 1267.96C4934.14 1272.13 4922.64 1274.21 4909.3 1274.21ZM5015.9 1316.96L5038.65 1265.71V1274.46L4985.4 1150.46H5007.4L5050.9 1256.96H5044.15L5088.15 1150.46H5109.4L5037.15 1316.96H5015.9ZM5168.87 1274.21C5162.54 1274.21 5156.37 1273.54 5150.37 1272.21C5144.54 1271.04 5139.04 1269.38 5133.87 1267.21C5128.87 1264.88 5124.54 1262.13 5120.87 1258.96L5127.37 1244.71C5131.37 1247.88 5135.71 1250.54 5140.37 1252.71C5145.04 1254.71 5149.79 1256.21 5154.62 1257.21C5159.46 1258.21 5164.37 1258.71 5169.37 1258.71C5178.87 1258.71 5186.04 1256.96 5190.87 1253.46C5195.71 1249.96 5198.12 1245.21 5198.12 1239.21C5198.12 1234.54 5196.54 1230.88 5193.37 1228.21C5190.21 1225.38 5185.21 1223.21 5178.37 1221.71L5155.62 1216.71C5145.12 1214.54 5137.29 1210.79 5132.12 1205.46C5127.12 1200.13 5124.62 1193.21 5124.62 1184.71C5124.62 1177.21 5126.54 1170.79 5130.37 1165.46C5134.37 1159.96 5139.96 1155.71 5147.12 1152.71C5154.29 1149.71 5162.62 1148.21 5172.12 1148.21C5177.79 1148.21 5183.21 1148.79 5188.37 1149.96C5193.54 1151.13 5198.37 1152.88 5202.87 1155.21C5207.54 1157.38 5211.54 1160.13 5214.87 1163.46L5208.12 1177.71C5204.96 1174.71 5201.37 1172.21 5197.37 1170.21C5193.37 1168.04 5189.21 1166.46 5184.87 1165.46C5180.71 1164.29 5176.46 1163.71 5172.12 1163.71C5162.79 1163.71 5155.71 1165.54 5150.87 1169.21C5146.04 1172.88 5143.62 1177.71 5143.62 1183.71C5143.62 1188.38 5145.12 1192.21 5148.12 1195.21C5151.12 1198.21 5155.79 1200.38 5162.12 1201.71L5184.87 1206.46C5195.71 1208.79 5203.79 1212.54 5209.12 1217.71C5214.62 1222.71 5217.37 1229.54 5217.37 1238.21C5217.37 1245.54 5215.37 1251.96 5211.37 1257.46C5207.37 1262.79 5201.71 1266.96 5194.37 1269.96C5187.21 1272.79 5178.71 1274.21 5168.87 1274.21ZM5295.76 1274.21C5281.43 1274.21 5270.68 1270.38 5263.51 1262.71C5256.35 1255.04 5252.76 1244.13 5252.76 1229.96V1166.21H5229.01V1150.46H5252.76V1113.21H5273.01V1150.46H5311.51V1166.21H5273.01V1227.96C5273.01 1237.46 5275.01 1244.71 5279.01 1249.71C5283.01 1254.54 5289.51 1256.96 5298.51 1256.96C5301.18 1256.96 5303.85 1256.63 5306.51 1255.96C5309.18 1255.29 5311.6 1254.63 5313.76 1253.96L5317.26 1269.46C5315.1 1270.63 5311.93 1271.71 5307.76 1272.71C5303.6 1273.71 5299.6 1274.21 5295.76 1274.21ZM5387.95 1274.21C5375.11 1274.21 5364.03 1271.71 5354.7 1266.71C5345.53 1261.54 5338.36 1254.29 5333.2 1244.96C5328.2 1235.63 5325.7 1224.46 5325.7 1211.46C5325.7 1198.79 5328.2 1187.79 5333.2 1178.46C5338.2 1168.96 5345.03 1161.54 5353.7 1156.21C5362.53 1150.88 5372.7 1148.21 5384.2 1148.21C5395.2 1148.21 5404.61 1150.63 5412.45 1155.46C5420.28 1160.29 5426.28 1167.13 5430.45 1175.96C5434.78 1184.79 5436.95 1195.38 5436.95 1207.71V1215.46H5341.2V1202.21H5423.45L5419.45 1205.46C5419.45 1192.13 5416.45 1181.79 5410.45 1174.46C5404.61 1166.96 5396.03 1163.21 5384.7 1163.21C5376.2 1163.21 5368.95 1165.21 5362.95 1169.21C5357.11 1173.04 5352.7 1178.46 5349.7 1185.46C5346.7 1192.29 5345.2 1200.29 5345.2 1209.46V1210.96C5345.2 1221.13 5346.78 1229.71 5349.95 1236.71C5353.28 1243.71 5358.2 1249.04 5364.7 1252.71C5371.2 1256.21 5378.95 1257.96 5387.95 1257.96C5395.11 1257.96 5402.03 1256.88 5408.7 1254.71C5415.53 1252.38 5421.95 1248.63 5427.95 1243.46L5434.95 1257.71C5429.45 1262.71 5422.45 1266.71 5413.95 1269.71C5405.45 1272.71 5396.78 1274.21 5387.95 1274.21ZM5466.75 1271.96V1150.46H5486.5V1177.46H5483.75C5485.75 1171.29 5488.67 1166.04 5492.5 1161.71C5496.5 1157.21 5501.17 1153.88 5506.5 1151.71C5512 1149.38 5518 1148.21 5524.5 1148.21C5534.84 1148.21 5543.17 1150.71 5549.5 1155.71C5556 1160.54 5560.34 1168.13 5562.5 1178.46H5558.75C5561.75 1169.13 5567.09 1161.79 5574.75 1156.46C5582.59 1150.96 5591.67 1148.21 5602 1148.21C5611.17 1148.21 5618.67 1149.96 5624.5 1153.46C5630.5 1156.96 5635 1162.29 5638 1169.46C5641 1176.46 5642.5 1185.38 5642.5 1196.21V1271.96H5622.25V1197.21C5622.25 1186.04 5620.34 1177.88 5616.5 1172.71C5612.67 1167.38 5606.17 1164.71 5597 1164.71C5590.5 1164.71 5584.75 1166.29 5579.75 1169.46C5574.92 1172.63 5571.17 1177.13 5568.5 1182.96C5566 1188.63 5564.75 1195.38 5564.75 1203.21V1271.96H5544.5V1197.21C5544.5 1186.04 5542.5 1177.88 5538.5 1172.71C5534.67 1167.38 5528.25 1164.71 5519.25 1164.71C5512.59 1164.71 5506.84 1166.29 5502 1169.46C5497.17 1172.63 5493.42 1177.13 5490.75 1182.96C5488.25 1188.63 5487 1195.38 5487 1203.21V1271.96H5466.75ZM5721.36 1274.21C5715.03 1274.21 5708.86 1273.54 5702.86 1272.21C5697.03 1271.04 5691.53 1269.38 5686.36 1267.21C5681.36 1264.88 5677.03 1262.13 5673.36 1258.96L5679.86 1244.71C5683.86 1247.88 5688.2 1250.54 5692.86 1252.71C5697.53 1254.71 5702.28 1256.21 5707.11 1257.21C5711.95 1258.21 5716.86 1258.71 5721.86 1258.71C5731.36 1258.71 5738.53 1256.96 5743.36 1253.46C5748.2 1249.96 5750.61 1245.21 5750.61 1239.21C5750.61 1234.54 5749.03 1230.88 5745.86 1228.21C5742.7 1225.38 5737.7 1223.21 5730.86 1221.71L5708.11 1216.71C5697.61 1214.54 5689.78 1210.79 5684.61 1205.46C5679.61 1200.13 5677.11 1193.21 5677.11 1184.71C5677.11 1177.21 5679.03 1170.79 5682.86 1165.46C5686.86 1159.96 5692.45 1155.71 5699.61 1152.71C5706.78 1149.71 5715.11 1148.21 5724.61 1148.21C5730.28 1148.21 5735.7 1148.79 5740.86 1149.96C5746.03 1151.13 5750.86 1152.88 5755.36 1155.21C5760.03 1157.38 5764.03 1160.13 5767.36 1163.46L5760.61 1177.71C5757.45 1174.71 5753.86 1172.21 5749.86 1170.21C5745.86 1168.04 5741.7 1166.46 5737.36 1165.46C5733.2 1164.29 5728.95 1163.71 5724.61 1163.71C5715.28 1163.71 5708.2 1165.54 5703.36 1169.21C5698.53 1172.88 5696.11 1177.71 5696.11 1183.71C5696.11 1188.38 5697.61 1192.21 5700.61 1195.21C5703.61 1198.21 5708.28 1200.38 5714.61 1201.71L5737.36 1206.46C5748.2 1208.79 5756.28 1212.54 5761.61 1217.71C5767.11 1222.71 5769.86 1229.54 5769.86 1238.21C5769.86 1245.54 5767.86 1251.96 5763.86 1257.46C5759.86 1262.79 5754.2 1266.96 5746.86 1269.96C5739.7 1272.79 5731.2 1274.21 5721.36 1274.21ZM5867.68 1271.96V1095.71H5927.18C5946.35 1095.71 5962.52 1099.13 5975.68 1105.96C5989.02 1112.63 5999.1 1122.54 6005.93 1135.71C6012.93 1148.71 6016.43 1164.71 6016.43 1183.71C6016.43 1202.71 6012.93 1218.79 6005.93 1231.96C5999.1 1245.13 5989.02 1255.13 5975.68 1261.96C5962.52 1268.63 5946.35 1271.96 5927.18 1271.96H5867.68ZM5888.18 1254.46H5925.68C5948.85 1254.46 5966.1 1248.54 5977.43 1236.71C5988.93 1224.88 5994.68 1207.21 5994.68 1183.71C5994.68 1160.21 5988.93 1142.63 5977.43 1130.96C5965.93 1119.13 5948.68 1113.21 5925.68 1113.21H5888.18V1254.46ZM6047.98 1120.21V1097.46H6072.98V1120.21H6047.98ZM6050.48 1271.96V1150.46H6070.73V1271.96H6050.48ZM6108.59 1271.96V1150.46H6128.34V1179.21H6125.84C6128.67 1169.38 6133.59 1161.96 6140.59 1156.96C6147.59 1151.79 6156.84 1148.79 6168.34 1147.96L6175.59 1147.21L6177.09 1164.71L6164.34 1166.21C6153 1167.21 6144.25 1170.88 6138.09 1177.21C6132.09 1183.38 6129.09 1191.88 6129.09 1202.71V1271.96H6108.59ZM6251.47 1274.21C6238.64 1274.21 6227.55 1271.71 6218.22 1266.71C6209.05 1261.54 6201.89 1254.29 6196.72 1244.96C6191.72 1235.63 6189.22 1224.46 6189.22 1211.46C6189.22 1198.79 6191.72 1187.79 6196.72 1178.46C6201.72 1168.96 6208.55 1161.54 6217.22 1156.21C6226.05 1150.88 6236.22 1148.21 6247.72 1148.21C6258.72 1148.21 6268.14 1150.63 6275.97 1155.46C6283.8 1160.29 6289.8 1167.13 6293.97 1175.96C6298.3 1184.79 6300.47 1195.38 6300.47 1207.71V1215.46H6204.72V1202.21H6286.97L6282.97 1205.46C6282.97 1192.13 6279.97 1181.79 6273.97 1174.46C6268.14 1166.96 6259.55 1163.21 6248.22 1163.21C6239.72 1163.21 6232.47 1165.21 6226.47 1169.21C6220.64 1173.04 6216.22 1178.46 6213.22 1185.46C6210.22 1192.29 6208.72 1200.29 6208.72 1209.46V1210.96C6208.72 1221.13 6210.3 1229.71 6213.47 1236.71C6216.8 1243.71 6221.72 1249.04 6228.22 1252.71C6234.72 1256.21 6242.47 1257.96 6251.47 1257.96C6258.64 1257.96 6265.55 1256.88 6272.22 1254.71C6279.05 1252.38 6285.47 1248.63 6291.47 1243.46L6298.47 1257.71C6292.97 1262.71 6285.97 1266.71 6277.47 1269.71C6268.97 1272.71 6260.3 1274.21 6251.47 1274.21ZM6381.28 1274.21C6369.11 1274.21 6358.61 1271.54 6349.78 1266.21C6340.94 1260.88 6334.11 1253.46 6329.28 1243.96C6324.61 1234.29 6322.28 1223.13 6322.28 1210.46C6322.28 1197.63 6324.61 1186.54 6329.28 1177.21C6334.11 1167.88 6340.94 1160.71 6349.78 1155.71C6358.61 1150.71 6369.11 1148.21 6381.28 1148.21C6388.78 1148.21 6396.19 1149.54 6403.53 1152.21C6410.86 1154.88 6416.94 1158.63 6421.78 1163.46L6414.78 1178.21C6409.94 1173.54 6404.61 1170.13 6398.78 1167.96C6393.11 1165.79 6387.69 1164.71 6382.53 1164.71C6369.86 1164.71 6360.11 1168.71 6353.28 1176.71C6346.44 1184.54 6343.03 1195.88 6343.03 1210.71C6343.03 1225.21 6346.44 1236.71 6353.28 1245.21C6360.11 1253.54 6369.86 1257.71 6382.53 1257.71C6387.69 1257.71 6393.11 1256.63 6398.78 1254.46C6404.61 1252.29 6409.94 1248.79 6414.78 1243.96L6421.78 1258.71C6416.94 1263.54 6410.78 1267.38 6403.28 1270.21C6395.94 1272.88 6388.61 1274.21 6381.28 1274.21ZM6494.25 1274.21C6479.92 1274.21 6469.17 1270.38 6462 1262.71C6454.83 1255.04 6451.25 1244.13 6451.25 1229.96V1166.21H6427.5V1150.46H6451.25V1113.21H6471.5V1150.46H6510V1166.21H6471.5V1227.96C6471.5 1237.46 6473.5 1244.71 6477.5 1249.71C6481.5 1254.54 6488 1256.96 6497 1256.96C6499.67 1256.96 6502.33 1256.63 6505 1255.96C6507.67 1255.29 6510.08 1254.63 6512.25 1253.96L6515.75 1269.46C6513.58 1270.63 6510.42 1271.71 6506.25 1272.71C6502.08 1273.71 6498.08 1274.21 6494.25 1274.21ZM6582.18 1274.21C6570.35 1274.21 6560.1 1271.63 6551.43 1266.46C6542.76 1261.29 6536.01 1254.04 6531.18 1244.71C6526.51 1235.21 6524.18 1224.04 6524.18 1211.21C6524.18 1198.38 6526.51 1187.29 6531.18 1177.96C6536.01 1168.46 6542.76 1161.13 6551.43 1155.96C6560.1 1150.79 6570.35 1148.21 6582.18 1148.21C6594.01 1148.21 6604.26 1150.79 6612.93 1155.96C6621.6 1161.13 6628.26 1168.46 6632.93 1177.96C6637.76 1187.29 6640.18 1198.38 6640.18 1211.21C6640.18 1224.04 6637.76 1235.21 6632.93 1244.71C6628.26 1254.04 6621.6 1261.29 6612.93 1266.46C6604.26 1271.63 6594.01 1274.21 6582.18 1274.21ZM6582.18 1257.96C6593.68 1257.96 6602.76 1253.96 6609.43 1245.96C6616.26 1237.79 6619.68 1226.13 6619.68 1210.96C6619.68 1195.96 6616.26 1184.46 6609.43 1176.46C6602.76 1168.46 6593.68 1164.46 6582.18 1164.46C6570.85 1164.46 6561.76 1168.46 6554.93 1176.46C6548.1 1184.46 6544.68 1195.96 6544.68 1210.96C6544.68 1226.13 6548.1 1237.79 6554.93 1245.96C6561.76 1253.96 6570.85 1257.96 6582.18 1257.96ZM6670.6 1271.96V1150.46H6690.35V1179.21H6687.85C6690.68 1169.38 6695.6 1161.96 6702.6 1156.96C6709.6 1151.79 6718.85 1148.79 6730.35 1147.96L6737.6 1147.21L6739.1 1164.71L6726.35 1166.21C6715.01 1167.21 6706.26 1170.88 6700.1 1177.21C6694.1 1183.38 6691.1 1191.88 6691.1 1202.71V1271.96H6670.6ZM3256.25 1802.21V1779.46H3281.25V1802.21H3256.25ZM3226.5 2002.21L3225 1986.46L3235.75 1985.46C3243.42 1984.79 3249.17 1982.13 3253 1977.46C3256.83 1972.79 3258.75 1966.21 3258.75 1957.71V1832.46H3279V1955.71C3279 1963.04 3278.17 1969.38 3276.5 1974.71C3274.83 1980.21 3272.25 1984.88 3268.75 1988.71C3265.25 1992.54 3260.92 1995.46 3255.75 1997.46C3250.58 1999.63 3244.42 2000.96 3237.25 2001.46L3226.5 2002.21ZM3355.33 1956.21C3347 1956.21 3339.5 1954.63 3332.83 1951.46C3326.33 1948.13 3321.17 1943.63 3317.33 1937.96C3313.5 1932.29 3311.58 1925.96 3311.58 1918.96C3311.58 1909.96 3313.83 1902.88 3318.33 1897.71C3323 1892.54 3330.58 1888.88 3341.08 1886.71C3351.75 1884.54 3366.25 1883.46 3384.58 1883.46H3395.83V1896.71H3384.83C3374.67 1896.71 3366.17 1897.04 3359.33 1897.71C3352.5 1898.38 3347.08 1899.54 3343.08 1901.21C3339.08 1902.88 3336.25 1905.04 3334.58 1907.71C3332.92 1910.38 3332.08 1913.71 3332.08 1917.71C3332.08 1924.54 3334.42 1930.13 3339.08 1934.46C3343.92 1938.79 3350.42 1940.96 3358.58 1940.96C3365.25 1940.96 3371.08 1939.38 3376.08 1936.21C3381.25 1933.04 3385.25 1928.71 3388.08 1923.21C3391.08 1917.71 3392.58 1911.38 3392.58 1904.21V1875.71C3392.58 1865.38 3390.5 1857.96 3386.33 1853.46C3382.17 1848.79 3375.33 1846.46 3365.83 1846.46C3358.5 1846.46 3351.42 1847.54 3344.58 1849.71C3337.75 1851.71 3330.75 1855.04 3323.58 1859.71L3316.58 1844.96C3320.92 1841.96 3325.83 1839.38 3331.33 1837.21C3336.83 1834.88 3342.58 1833.13 3348.58 1831.96C3354.58 1830.79 3360.33 1830.21 3365.83 1830.21C3376.33 1830.21 3385 1831.96 3391.83 1835.46C3398.67 1838.79 3403.75 1843.96 3407.08 1850.96C3410.42 1857.79 3412.08 1866.63 3412.08 1877.46V1953.96H3393.08V1925.71H3395.33C3394 1932.04 3391.42 1937.46 3387.58 1941.96C3383.92 1946.46 3379.33 1949.96 3373.83 1952.46C3368.33 1954.96 3362.17 1956.21 3355.33 1956.21ZM3449.65 1953.96V1832.46H3469.4V1861.21H3466.9C3469.73 1851.38 3474.65 1843.96 3481.65 1838.96C3488.65 1833.79 3497.9 1830.79 3509.4 1829.96L3516.65 1829.21L3518.15 1846.71L3505.4 1848.21C3494.07 1849.21 3485.32 1852.88 3479.15 1859.21C3473.15 1865.38 3470.15 1873.88 3470.15 1884.71V1953.96H3449.65ZM3539.25 1953.96V1832.46H3559V1861.21H3556.5C3559.33 1851.38 3564.25 1843.96 3571.25 1838.96C3578.25 1833.79 3587.5 1830.79 3599 1829.96L3606.25 1829.21L3607.75 1846.71L3595 1848.21C3583.67 1849.21 3574.92 1852.88 3568.75 1859.21C3562.75 1865.38 3559.75 1873.88 3559.75 1884.71V1953.96H3539.25ZM3677.88 1956.21C3666.05 1956.21 3655.8 1953.63 3647.13 1948.46C3638.47 1943.29 3631.72 1936.04 3626.88 1926.71C3622.22 1917.21 3619.88 1906.04 3619.88 1893.21C3619.88 1880.38 3622.22 1869.29 3626.88 1859.96C3631.72 1850.46 3638.47 1843.13 3647.13 1837.96C3655.8 1832.79 3666.05 1830.21 3677.88 1830.21C3689.72 1830.21 3699.97 1832.79 3708.63 1837.96C3717.3 1843.13 3723.97 1850.46 3728.63 1859.96C3733.47 1869.29 3735.88 1880.38 3735.88 1893.21C3735.88 1906.04 3733.47 1917.21 3728.63 1926.71C3723.97 1936.04 3717.3 1943.29 3708.63 1948.46C3699.97 1953.63 3689.72 1956.21 3677.88 1956.21ZM3677.88 1939.96C3689.38 1939.96 3698.47 1935.96 3705.13 1927.96C3711.97 1919.79 3715.38 1908.13 3715.38 1892.96C3715.38 1877.96 3711.97 1866.46 3705.13 1858.46C3698.47 1850.46 3689.38 1846.46 3677.88 1846.46C3666.55 1846.46 3657.47 1850.46 3650.63 1858.46C3643.8 1866.46 3640.38 1877.96 3640.38 1892.96C3640.38 1908.13 3643.8 1919.79 3650.63 1927.96C3657.47 1935.96 3666.55 1939.96 3677.88 1939.96ZM3812.55 1956.21C3801.72 1956.21 3792.22 1953.63 3784.05 1948.46C3776.05 1943.29 3769.8 1936.04 3765.3 1926.71C3760.97 1917.21 3758.8 1906.04 3758.8 1893.21C3758.8 1880.21 3760.97 1869.04 3765.3 1859.71C3769.8 1850.21 3776.05 1842.96 3784.05 1837.96C3792.22 1832.79 3801.72 1830.21 3812.55 1830.21C3823.55 1830.21 3832.97 1832.96 3840.8 1838.46C3848.63 1843.96 3853.88 1851.38 3856.55 1860.71H3853.8V1777.71H3874.05V1953.96H3854.3V1924.96H3856.8C3854.13 1934.46 3848.8 1942.04 3840.8 1947.71C3832.97 1953.38 3823.55 1956.21 3812.55 1956.21ZM3816.8 1939.96C3828.3 1939.96 3837.38 1935.96 3844.05 1927.96C3850.88 1919.79 3854.3 1908.21 3854.3 1893.21C3854.3 1878.04 3850.88 1866.46 3844.05 1858.46C3837.38 1850.46 3828.3 1846.46 3816.8 1846.46C3805.47 1846.46 3796.38 1850.46 3789.55 1858.46C3782.72 1866.46 3779.3 1878.04 3779.3 1893.21C3779.3 1908.21 3782.72 1919.79 3789.55 1927.96C3796.38 1935.96 3805.47 1939.96 3816.8 1939.96ZM4014.3 1994.71C3998.3 1994.71 3983.8 1992.13 3970.8 1986.96C3957.8 1981.96 3946.64 1974.71 3937.3 1965.21C3927.97 1955.71 3920.8 1944.29 3915.8 1930.96C3910.8 1917.46 3908.3 1902.38 3908.3 1885.71C3908.3 1869.38 3910.89 1854.46 3916.05 1840.96C3921.39 1827.46 3928.89 1815.88 3938.55 1806.21C3948.39 1796.38 3959.97 1788.79 3973.3 1783.46C3986.64 1778.13 4001.39 1775.46 4017.55 1775.46C4036.89 1775.46 4053.8 1779.38 4068.3 1787.21C4082.8 1794.88 4094.05 1805.63 4102.05 1819.46C4110.22 1833.29 4114.3 1849.46 4114.3 1867.96C4114.3 1882.46 4112.3 1895.04 4108.3 1905.71C4104.3 1916.38 4098.72 1924.63 4091.55 1930.46C4084.55 1936.29 4076.3 1939.21 4066.8 1939.21C4056.8 1939.21 4049.22 1936.38 4044.05 1930.71C4039.05 1924.88 4036.89 1917.04 4037.55 1907.21L4042.3 1908.46C4038.14 1918.46 4032.22 1926.13 4024.55 1931.46C4016.89 1936.63 4008.8 1939.21 4000.3 1939.21C3987.47 1939.21 3977.47 1935.21 3970.3 1927.21C3963.3 1919.04 3959.8 1907.88 3959.8 1893.71C3959.8 1881.54 3962.14 1870.71 3966.8 1861.21C3971.47 1851.54 3977.89 1843.96 3986.05 1838.46C3994.22 1832.96 4003.47 1830.21 4013.8 1830.21C4022.8 1830.21 4030.22 1832.46 4036.05 1836.96C4041.89 1841.46 4045.64 1847.79 4047.3 1855.96H4044.55L4048.55 1832.46H4065.05L4053.8 1897.21C4053.47 1899.38 4053.22 1901.46 4053.05 1903.46C4052.89 1905.46 4052.8 1907.29 4052.8 1908.96C4052.8 1914.46 4054.05 1918.63 4056.55 1921.46C4059.05 1924.29 4062.8 1925.71 4067.8 1925.71C4074.3 1925.71 4079.89 1923.29 4084.55 1918.46C4089.39 1913.63 4093.14 1906.88 4095.8 1898.21C4098.64 1889.54 4100.05 1879.46 4100.05 1867.96C4100.05 1852.13 4096.55 1838.38 4089.55 1826.71C4082.72 1815.04 4073.14 1805.96 4060.8 1799.46C4048.47 1792.96 4033.97 1789.71 4017.3 1789.71C3998.8 1789.71 3982.55 1793.71 3968.55 1801.71C3954.55 1809.71 3943.64 1820.96 3935.8 1835.46C3927.97 1849.79 3924.05 1866.54 3924.05 1885.71C3924.05 1905.54 3927.72 1922.54 3935.05 1936.71C3942.55 1950.88 3953.05 1961.71 3966.55 1969.21C3980.05 1976.88 3995.97 1980.71 4014.3 1980.71C4027.8 1980.71 4039.97 1978.54 4050.8 1974.21C4061.8 1970.04 4070.89 1964.13 4078.05 1956.46L4086.3 1968.46C4080.97 1974.13 4074.55 1978.88 4067.05 1982.71C4059.72 1986.71 4051.55 1989.71 4042.55 1991.71C4033.72 1993.71 4024.3 1994.71 4014.3 1994.71ZM4002.55 1924.71C4010.05 1924.71 4016.64 1922.46 4022.3 1917.96C4028.14 1913.46 4032.72 1907.29 4036.05 1899.46C4039.39 1891.63 4041.05 1882.71 4041.05 1872.71C4041.05 1863.38 4038.97 1856.38 4034.8 1851.71C4030.64 1847.04 4024.22 1844.71 4015.55 1844.71C4008.22 1844.71 4001.64 1846.79 3995.8 1850.96C3989.97 1855.13 3985.3 1860.88 3981.8 1868.21C3978.47 1875.54 3976.8 1884.04 3976.8 1893.71C3976.8 1903.71 3979.05 1911.38 3983.55 1916.71C3988.05 1922.04 3994.39 1924.71 4002.55 1924.71ZM4210.13 1956.21C4199.13 1956.21 4189.63 1953.38 4181.63 1947.71C4173.79 1942.04 4168.54 1934.46 4165.88 1924.96H4168.38V1953.96H4148.63V1777.71H4168.88V1860.71H4165.88C4168.71 1851.38 4174.04 1843.96 4181.88 1838.46C4189.71 1832.96 4199.13 1830.21 4210.13 1830.21C4221.13 1830.21 4230.63 1832.79 4238.63 1837.96C4246.63 1842.96 4252.79 1850.21 4257.13 1859.71C4261.63 1869.04 4263.88 1880.21 4263.88 1893.21C4263.88 1906.04 4261.63 1917.21 4257.13 1926.71C4252.79 1936.04 4246.54 1943.29 4238.38 1948.46C4230.38 1953.63 4220.96 1956.21 4210.13 1956.21ZM4205.88 1939.96C4217.38 1939.96 4226.46 1935.96 4233.13 1927.96C4239.96 1919.79 4243.38 1908.21 4243.38 1893.21C4243.38 1878.04 4239.96 1866.46 4233.13 1858.46C4226.46 1850.46 4217.38 1846.46 4205.88 1846.46C4194.54 1846.46 4185.46 1850.46 4178.63 1858.46C4171.79 1866.46 4168.38 1878.04 4168.38 1893.21C4168.38 1908.21 4171.79 1919.79 4178.63 1927.96C4185.46 1935.96 4194.54 1939.96 4205.88 1939.96ZM4294.38 1953.96V1832.46H4314.13V1861.21H4311.63C4314.46 1851.38 4319.38 1843.96 4326.38 1838.96C4333.38 1833.79 4342.63 1830.79 4354.13 1829.96L4361.38 1829.21L4362.88 1846.71L4350.13 1848.21C4338.79 1849.21 4330.04 1852.88 4323.88 1859.21C4317.88 1865.38 4314.88 1873.88 4314.88 1884.71V1953.96H4294.38ZM4381.48 1802.21V1779.46H4406.48V1802.21H4381.48ZM4383.98 1953.96V1832.46H4404.23V1953.96H4383.98ZM4436.83 1953.96V1940.46L4510.08 1842.96V1848.21H4436.83V1832.46H4528.83V1845.96L4454.83 1943.96V1938.21H4531.58V1953.96H4436.83ZM4601.61 1956.21C4590.78 1956.21 4581.28 1953.63 4573.11 1948.46C4565.11 1943.29 4558.86 1936.04 4554.36 1926.71C4550.03 1917.21 4547.86 1906.04 4547.86 1893.21C4547.86 1880.21 4550.03 1869.04 4554.36 1859.71C4558.86 1850.21 4565.11 1842.96 4573.11 1837.96C4581.28 1832.79 4590.78 1830.21 4601.61 1830.21C4612.61 1830.21 4622.03 1832.96 4629.86 1838.46C4637.7 1843.96 4642.95 1851.38 4645.61 1860.71H4642.86V1777.71H4663.11V1953.96H4643.36V1924.96H4645.86C4643.2 1934.46 4637.86 1942.04 4629.86 1947.71C4622.03 1953.38 4612.61 1956.21 4601.61 1956.21ZM4605.86 1939.96C4617.36 1939.96 4626.45 1935.96 4633.11 1927.96C4639.95 1919.79 4643.36 1908.21 4643.36 1893.21C4643.36 1878.04 4639.95 1866.46 4633.11 1858.46C4626.45 1850.46 4617.36 1846.46 4605.86 1846.46C4594.53 1846.46 4585.45 1850.46 4578.61 1858.46C4571.78 1866.46 4568.36 1878.04 4568.36 1893.21C4568.36 1908.21 4571.78 1919.79 4578.61 1927.96C4585.45 1935.96 4594.53 1939.96 4605.86 1939.96ZM4751.62 1956.21C4739.78 1956.21 4729.53 1953.63 4720.87 1948.46C4712.2 1943.29 4705.45 1936.04 4700.62 1926.71C4695.95 1917.21 4693.62 1906.04 4693.62 1893.21C4693.62 1880.38 4695.95 1869.29 4700.62 1859.96C4705.45 1850.46 4712.2 1843.13 4720.87 1837.96C4729.53 1832.79 4739.78 1830.21 4751.62 1830.21C4763.45 1830.21 4773.7 1832.79 4782.37 1837.96C4791.03 1843.13 4797.7 1850.46 4802.37 1859.96C4807.2 1869.29 4809.62 1880.38 4809.62 1893.21C4809.62 1906.04 4807.2 1917.21 4802.37 1926.71C4797.7 1936.04 4791.03 1943.29 4782.37 1948.46C4773.7 1953.63 4763.45 1956.21 4751.62 1956.21ZM4751.62 1939.96C4763.12 1939.96 4772.2 1935.96 4778.87 1927.96C4785.7 1919.79 4789.12 1908.13 4789.12 1892.96C4789.12 1877.96 4785.7 1866.46 4778.87 1858.46C4772.2 1850.46 4763.12 1846.46 4751.62 1846.46C4740.28 1846.46 4731.2 1850.46 4724.37 1858.46C4717.53 1866.46 4714.12 1877.96 4714.12 1892.96C4714.12 1908.13 4717.53 1919.79 4724.37 1927.96C4731.2 1935.96 4740.28 1939.96 4751.62 1939.96ZM4890.53 1956.21C4878.7 1956.21 4868.45 1953.63 4859.78 1948.46C4851.11 1943.29 4844.36 1936.04 4839.53 1926.71C4834.86 1917.21 4832.53 1906.04 4832.53 1893.21C4832.53 1880.38 4834.86 1869.29 4839.53 1859.96C4844.36 1850.46 4851.11 1843.13 4859.78 1837.96C4868.45 1832.79 4878.7 1830.21 4890.53 1830.21C4902.36 1830.21 4912.61 1832.79 4921.28 1837.96C4929.95 1843.13 4936.61 1850.46 4941.28 1859.96C4946.11 1869.29 4948.53 1880.38 4948.53 1893.21C4948.53 1906.04 4946.11 1917.21 4941.28 1926.71C4936.61 1936.04 4929.95 1943.29 4921.28 1948.46C4912.61 1953.63 4902.36 1956.21 4890.53 1956.21ZM4890.53 1939.96C4902.03 1939.96 4911.11 1935.96 4917.78 1927.96C4924.61 1919.79 4928.03 1908.13 4928.03 1892.96C4928.03 1877.96 4924.61 1866.46 4917.78 1858.46C4911.11 1850.46 4902.03 1846.46 4890.53 1846.46C4879.2 1846.46 4870.11 1850.46 4863.28 1858.46C4856.45 1866.46 4853.03 1877.96 4853.03 1892.96C4853.03 1908.13 4856.45 1919.79 4863.28 1927.96C4870.11 1935.96 4879.2 1939.96 4890.53 1939.96ZM4978.95 1953.96V1832.46H4998.7V1861.21H4996.2C4999.03 1851.38 5003.95 1843.96 5010.95 1838.96C5017.95 1833.79 5027.2 1830.79 5038.7 1829.96L5045.95 1829.21L5047.45 1846.71L5034.7 1848.21C5023.36 1849.21 5014.61 1852.88 5008.45 1859.21C5002.45 1865.38 4999.45 1873.88 4999.45 1884.71V1953.96H4978.95ZM5108.33 1956.21C5101.99 1956.21 5095.83 1955.54 5089.83 1954.21C5083.99 1953.04 5078.49 1951.38 5073.33 1949.21C5068.33 1946.88 5063.99 1944.13 5060.33 1940.96L5066.83 1926.71C5070.83 1929.88 5075.16 1932.54 5079.83 1934.71C5084.49 1936.71 5089.24 1938.21 5094.08 1939.21C5098.91 1940.21 5103.83 1940.71 5108.83 1940.71C5118.33 1940.71 5125.49 1938.96 5130.33 1935.46C5135.16 1931.96 5137.58 1927.21 5137.58 1921.21C5137.58 1916.54 5135.99 1912.88 5132.83 1910.21C5129.66 1907.38 5124.66 1905.21 5117.83 1903.71L5095.08 1898.71C5084.58 1896.54 5076.74 1892.79 5071.58 1887.46C5066.58 1882.13 5064.08 1875.21 5064.08 1866.71C5064.08 1859.21 5065.99 1852.79 5069.83 1847.46C5073.83 1841.96 5079.41 1837.71 5086.58 1834.71C5093.74 1831.71 5102.08 1830.21 5111.58 1830.21C5117.24 1830.21 5122.66 1830.79 5127.83 1831.96C5132.99 1833.13 5137.83 1834.88 5142.33 1837.21C5146.99 1839.38 5150.99 1842.13 5154.33 1845.46L5147.58 1859.71C5144.41 1856.71 5140.83 1854.21 5136.83 1852.21C5132.83 1850.04 5128.66 1848.46 5124.33 1847.46C5120.16 1846.29 5115.91 1845.71 5111.58 1845.71C5102.24 1845.71 5095.16 1847.54 5090.33 1851.21C5085.49 1854.88 5083.08 1859.71 5083.08 1865.71C5083.08 1870.38 5084.58 1874.21 5087.58 1877.21C5090.58 1880.21 5095.24 1882.38 5101.58 1883.71L5124.33 1888.46C5135.16 1890.79 5143.24 1894.54 5148.58 1899.71C5154.08 1904.71 5156.83 1911.54 5156.83 1920.21C5156.83 1927.54 5154.83 1933.96 5150.83 1939.46C5146.83 1944.79 5141.16 1948.96 5133.83 1951.96C5126.66 1954.79 5118.16 1956.21 5108.33 1956.21ZM5183.22 1953.96V1928.46H5208.72V1953.96H5183.22ZM5289.24 1956.21C5277.07 1956.21 5266.57 1953.54 5257.74 1948.21C5248.9 1942.88 5242.07 1935.46 5237.24 1925.96C5232.57 1916.29 5230.24 1905.13 5230.24 1892.46C5230.24 1879.63 5232.57 1868.54 5237.24 1859.21C5242.07 1849.88 5248.9 1842.71 5257.74 1837.71C5266.57 1832.71 5277.07 1830.21 5289.24 1830.21C5296.74 1830.21 5304.15 1831.54 5311.49 1834.21C5318.82 1836.88 5324.9 1840.63 5329.74 1845.46L5322.74 1860.21C5317.9 1855.54 5312.57 1852.13 5306.74 1849.96C5301.07 1847.79 5295.65 1846.71 5290.49 1846.71C5277.82 1846.71 5268.07 1850.71 5261.24 1858.71C5254.4 1866.54 5250.99 1877.88 5250.99 1892.71C5250.99 1907.21 5254.4 1918.71 5261.24 1927.21C5268.07 1935.54 5277.82 1939.71 5290.49 1939.71C5295.65 1939.71 5301.07 1938.63 5306.74 1936.46C5312.57 1934.29 5317.9 1930.79 5322.74 1925.96L5329.74 1940.71C5324.9 1945.54 5318.74 1949.38 5311.24 1952.21C5303.9 1954.88 5296.57 1956.21 5289.24 1956.21ZM5401.52 1956.21C5389.68 1956.21 5379.43 1953.63 5370.77 1948.46C5362.1 1943.29 5355.35 1936.04 5350.52 1926.71C5345.85 1917.21 5343.52 1906.04 5343.52 1893.21C5343.52 1880.38 5345.85 1869.29 5350.52 1859.96C5355.35 1850.46 5362.1 1843.13 5370.77 1837.96C5379.43 1832.79 5389.68 1830.21 5401.52 1830.21C5413.35 1830.21 5423.6 1832.79 5432.27 1837.96C5440.93 1843.13 5447.6 1850.46 5452.27 1859.96C5457.1 1869.29 5459.52 1880.38 5459.52 1893.21C5459.52 1906.04 5457.1 1917.21 5452.27 1926.71C5447.6 1936.04 5440.93 1943.29 5432.27 1948.46C5423.6 1953.63 5413.35 1956.21 5401.52 1956.21ZM5401.52 1939.96C5413.02 1939.96 5422.1 1935.96 5428.77 1927.96C5435.6 1919.79 5439.02 1908.13 5439.02 1892.96C5439.02 1877.96 5435.6 1866.46 5428.77 1858.46C5422.1 1850.46 5413.02 1846.46 5401.52 1846.46C5390.18 1846.46 5381.1 1850.46 5374.27 1858.46C5367.43 1866.46 5364.02 1877.96 5364.02 1892.96C5364.02 1908.13 5367.43 1919.79 5374.27 1927.96C5381.1 1935.96 5390.18 1939.96 5401.52 1939.96ZM5490.43 1953.96V1832.46H5510.18V1859.46H5507.43C5509.43 1853.29 5512.35 1848.04 5516.18 1843.71C5520.18 1839.21 5524.85 1835.88 5530.18 1833.71C5535.68 1831.38 5541.68 1830.21 5548.18 1830.21C5558.52 1830.21 5566.85 1832.71 5573.18 1837.71C5579.68 1842.54 5584.02 1850.13 5586.18 1860.46H5582.43C5585.43 1851.13 5590.77 1843.79 5598.43 1838.46C5606.27 1832.96 5615.35 1830.21 5625.68 1830.21C5634.85 1830.21 5642.35 1831.96 5648.18 1835.46C5654.18 1838.96 5658.68 1844.29 5661.68 1851.46C5664.68 1858.46 5666.18 1867.38 5666.18 1878.21V1953.96H5645.93V1879.21C5645.93 1868.04 5644.02 1859.88 5640.18 1854.71C5636.35 1849.38 5629.85 1846.71 5620.68 1846.71C5614.18 1846.71 5608.43 1848.29 5603.43 1851.46C5598.6 1854.63 5594.85 1859.13 5592.18 1864.96C5589.68 1870.63 5588.43 1877.38 5588.43 1885.21V1953.96H5568.18V1879.21C5568.18 1868.04 5566.18 1859.88 5562.18 1854.71C5558.35 1849.38 5551.93 1846.71 5542.93 1846.71C5536.27 1846.71 5530.52 1848.29 5525.68 1851.46C5520.85 1854.63 5517.1 1859.13 5514.43 1864.96C5511.93 1870.63 5510.68 1877.38 5510.68 1885.21V1953.96H5490.43ZM5700.79 1953.96V1928.46H5726.29V1953.96H5700.79ZM5798.2 1956.21C5789.87 1956.21 5782.37 1954.63 5775.7 1951.46C5769.2 1948.13 5764.04 1943.63 5760.2 1937.96C5756.37 1932.29 5754.45 1925.96 5754.45 1918.96C5754.45 1909.96 5756.7 1902.88 5761.2 1897.71C5765.87 1892.54 5773.45 1888.88 5783.95 1886.71C5794.62 1884.54 5809.12 1883.46 5827.45 1883.46H5838.7V1896.71H5827.7C5817.54 1896.71 5809.04 1897.04 5802.2 1897.71C5795.37 1898.38 5789.95 1899.54 5785.95 1901.21C5781.95 1902.88 5779.12 1905.04 5777.45 1907.71C5775.79 1910.38 5774.95 1913.71 5774.95 1917.71C5774.95 1924.54 5777.29 1930.13 5781.95 1934.46C5786.79 1938.79 5793.29 1940.96 5801.45 1940.96C5808.12 1940.96 5813.95 1939.38 5818.95 1936.21C5824.12 1933.04 5828.12 1928.71 5830.95 1923.21C5833.95 1917.71 5835.45 1911.38 5835.45 1904.21V1875.71C5835.45 1865.38 5833.37 1857.96 5829.2 1853.46C5825.04 1848.79 5818.2 1846.46 5808.7 1846.46C5801.37 1846.46 5794.29 1847.54 5787.45 1849.71C5780.62 1851.71 5773.62 1855.04 5766.45 1859.71L5759.45 1844.96C5763.79 1841.96 5768.7 1839.38 5774.2 1837.21C5779.7 1834.88 5785.45 1833.13 5791.45 1831.96C5797.45 1830.79 5803.2 1830.21 5808.7 1830.21C5819.2 1830.21 5827.87 1831.96 5834.7 1835.46C5841.54 1838.79 5846.62 1843.96 5849.95 1850.96C5853.29 1857.79 5854.95 1866.63 5854.95 1877.46V1953.96H5835.95V1925.71H5838.2C5836.87 1932.04 5834.29 1937.46 5830.45 1941.96C5826.79 1946.46 5822.2 1949.96 5816.7 1952.46C5811.2 1954.96 5805.04 1956.21 5798.2 1956.21ZM5935.52 1956.21C5925.69 1956.21 5917.52 1954.46 5911.02 1950.96C5904.69 1947.29 5899.85 1941.88 5896.52 1934.71C5893.35 1927.54 5891.77 1918.63 5891.77 1907.96V1832.46H5912.02V1907.71C5912.02 1914.88 5912.94 1920.88 5914.77 1925.71C5916.77 1930.38 5919.85 1933.88 5924.02 1936.21C5928.19 1938.38 5933.35 1939.46 5939.52 1939.46C5946.52 1939.46 5952.6 1937.88 5957.77 1934.71C5962.94 1931.54 5967.02 1927.13 5970.02 1921.46C5973.02 1915.79 5974.52 1909.13 5974.52 1901.46V1832.46H5994.77V1953.96H5975.02V1925.96H5978.27C5974.94 1935.79 5969.44 1943.29 5961.77 1948.46C5954.27 1953.63 5945.52 1956.21 5935.52 1956.21ZM3319.5 2297.21C3308.5 2297.21 3299 2294.38 3291 2288.71C3283.17 2283.04 3277.92 2275.46 3275.25 2265.96H3277.75V2294.96H3258V2118.71H3278.25V2201.71H3275.25C3278.08 2192.38 3283.42 2184.96 3291.25 2179.46C3299.08 2173.96 3308.5 2171.21 3319.5 2171.21C3330.5 2171.21 3340 2173.79 3348 2178.96C3356 2183.96 3362.17 2191.21 3366.5 2200.71C3371 2210.04 3373.25 2221.21 3373.25 2234.21C3373.25 2247.04 3371 2258.21 3366.5 2267.71C3362.17 2277.04 3355.92 2284.29 3347.75 2289.46C3339.75 2294.63 3330.33 2297.21 3319.5 2297.21ZM3315.25 2280.96C3326.75 2280.96 3335.83 2276.96 3342.5 2268.96C3349.33 2260.79 3352.75 2249.21 3352.75 2234.21C3352.75 2219.04 3349.33 2207.46 3342.5 2199.46C3335.83 2191.46 3326.75 2187.46 3315.25 2187.46C3303.92 2187.46 3294.83 2191.46 3288 2199.46C3281.17 2207.46 3277.75 2219.04 3277.75 2234.21C3277.75 2249.21 3281.17 2260.79 3288 2268.96C3294.83 2276.96 3303.92 2280.96 3315.25 2280.96ZM3403.75 2294.96V2173.46H3423.5V2202.21H3421C3423.84 2192.38 3428.75 2184.96 3435.75 2179.96C3442.75 2174.79 3452 2171.79 3463.5 2170.96L3470.75 2170.21L3472.25 2187.71L3459.5 2189.21C3448.17 2190.21 3439.42 2193.88 3433.25 2200.21C3427.25 2206.38 3424.25 2214.88 3424.25 2225.71V2294.96H3403.75ZM3490.85 2143.21V2120.46H3515.85V2143.21H3490.85ZM3493.35 2294.96V2173.46H3513.6V2294.96H3493.35ZM3546.21 2294.96V2281.46L3619.46 2183.96V2189.21H3546.21V2173.46H3638.21V2186.96L3564.21 2284.96V2279.21H3640.96V2294.96H3546.21ZM3710.99 2297.21C3700.15 2297.21 3690.65 2294.63 3682.49 2289.46C3674.49 2284.29 3668.24 2277.04 3663.74 2267.71C3659.4 2258.21 3657.24 2247.04 3657.24 2234.21C3657.24 2221.21 3659.4 2210.04 3663.74 2200.71C3668.24 2191.21 3674.49 2183.96 3682.49 2178.96C3690.65 2173.79 3700.15 2171.21 3710.99 2171.21C3721.99 2171.21 3731.4 2173.96 3739.24 2179.46C3747.07 2184.96 3752.32 2192.38 3754.99 2201.71H3752.24V2118.71H3772.49V2294.96H3752.74V2265.96H3755.24C3752.57 2275.46 3747.24 2283.04 3739.24 2288.71C3731.4 2294.38 3721.99 2297.21 3710.99 2297.21ZM3715.24 2280.96C3726.74 2280.96 3735.82 2276.96 3742.49 2268.96C3749.32 2260.79 3752.74 2249.21 3752.74 2234.21C3752.74 2219.04 3749.32 2207.46 3742.49 2199.46C3735.82 2191.46 3726.74 2187.46 3715.24 2187.46C3703.9 2187.46 3694.82 2191.46 3687.99 2199.46C3681.15 2207.46 3677.74 2219.04 3677.74 2234.21C3677.74 2249.21 3681.15 2260.79 3687.99 2268.96C3694.82 2276.96 3703.9 2280.96 3715.24 2280.96ZM3860.99 2297.21C3849.16 2297.21 3838.91 2294.63 3830.24 2289.46C3821.57 2284.29 3814.82 2277.04 3809.99 2267.71C3805.32 2258.21 3802.99 2247.04 3802.99 2234.21C3802.99 2221.38 3805.32 2210.29 3809.99 2200.96C3814.82 2191.46 3821.57 2184.13 3830.24 2178.96C3838.91 2173.79 3849.16 2171.21 3860.99 2171.21C3872.82 2171.21 3883.07 2173.79 3891.74 2178.96C3900.41 2184.13 3907.07 2191.46 3911.74 2200.96C3916.57 2210.29 3918.99 2221.38 3918.99 2234.21C3918.99 2247.04 3916.57 2258.21 3911.74 2267.71C3907.07 2277.04 3900.41 2284.29 3891.74 2289.46C3883.07 2294.63 3872.82 2297.21 3860.99 2297.21ZM3860.99 2280.96C3872.49 2280.96 3881.57 2276.96 3888.24 2268.96C3895.07 2260.79 3898.49 2249.13 3898.49 2233.96C3898.49 2218.96 3895.07 2207.46 3888.24 2199.46C3881.57 2191.46 3872.49 2187.46 3860.99 2187.46C3849.66 2187.46 3840.57 2191.46 3833.74 2199.46C3826.91 2207.46 3823.49 2218.96 3823.49 2233.96C3823.49 2249.13 3826.91 2260.79 3833.74 2268.96C3840.57 2276.96 3849.66 2280.96 3860.99 2280.96ZM3999.91 2297.21C3988.07 2297.21 3977.82 2294.63 3969.16 2289.46C3960.49 2284.29 3953.74 2277.04 3948.91 2267.71C3944.24 2258.21 3941.91 2247.04 3941.91 2234.21C3941.91 2221.38 3944.24 2210.29 3948.91 2200.96C3953.74 2191.46 3960.49 2184.13 3969.16 2178.96C3977.82 2173.79 3988.07 2171.21 3999.91 2171.21C4011.74 2171.21 4021.99 2173.79 4030.66 2178.96C4039.32 2184.13 4045.99 2191.46 4050.66 2200.96C4055.49 2210.29 4057.91 2221.38 4057.91 2234.21C4057.91 2247.04 4055.49 2258.21 4050.66 2267.71C4045.99 2277.04 4039.32 2284.29 4030.66 2289.46C4021.99 2294.63 4011.74 2297.21 3999.91 2297.21ZM3999.91 2280.96C4011.41 2280.96 4020.49 2276.96 4027.16 2268.96C4033.99 2260.79 4037.41 2249.13 4037.41 2233.96C4037.41 2218.96 4033.99 2207.46 4027.16 2199.46C4020.49 2191.46 4011.41 2187.46 3999.91 2187.46C3988.57 2187.46 3979.49 2191.46 3972.66 2199.46C3965.82 2207.46 3962.41 2218.96 3962.41 2233.96C3962.41 2249.13 3965.82 2260.79 3972.66 2268.96C3979.49 2276.96 3988.57 2280.96 3999.91 2280.96ZM4088.32 2294.96V2173.46H4108.07V2202.21H4105.57C4108.41 2192.38 4113.32 2184.96 4120.32 2179.96C4127.32 2174.79 4136.57 2171.79 4148.07 2170.96L4155.32 2170.21L4156.82 2187.71L4144.07 2189.21C4132.74 2190.21 4123.99 2193.88 4117.82 2200.21C4111.82 2206.38 4108.82 2214.88 4108.82 2225.71V2294.96H4088.32ZM4217.7 2297.21C4211.37 2297.21 4205.2 2296.54 4199.2 2295.21C4193.37 2294.04 4187.87 2292.38 4182.7 2290.21C4177.7 2287.88 4173.37 2285.13 4169.7 2281.96L4176.2 2267.71C4180.2 2270.88 4184.53 2273.54 4189.2 2275.71C4193.87 2277.71 4198.62 2279.21 4203.45 2280.21C4208.28 2281.21 4213.2 2281.71 4218.2 2281.71C4227.7 2281.71 4234.87 2279.96 4239.7 2276.46C4244.53 2272.96 4246.95 2268.21 4246.95 2262.21C4246.95 2257.54 4245.37 2253.88 4242.2 2251.21C4239.03 2248.38 4234.03 2246.21 4227.2 2244.71L4204.45 2239.71C4193.95 2237.54 4186.12 2233.79 4180.95 2228.46C4175.95 2223.13 4173.45 2216.21 4173.45 2207.71C4173.45 2200.21 4175.37 2193.79 4179.2 2188.46C4183.2 2182.96 4188.78 2178.71 4195.95 2175.71C4203.12 2172.71 4211.45 2171.21 4220.95 2171.21C4226.62 2171.21 4232.03 2171.79 4237.2 2172.96C4242.37 2174.13 4247.2 2175.88 4251.7 2178.21C4256.37 2180.38 4260.37 2183.13 4263.7 2186.46L4256.95 2200.71C4253.78 2197.71 4250.2 2195.21 4246.2 2193.21C4242.2 2191.04 4238.03 2189.46 4233.7 2188.46C4229.53 2187.29 4225.28 2186.71 4220.95 2186.71C4211.62 2186.71 4204.53 2188.54 4199.7 2192.21C4194.87 2195.88 4192.45 2200.71 4192.45 2206.71C4192.45 2211.38 4193.95 2215.21 4196.95 2218.21C4199.95 2221.21 4204.62 2223.38 4210.95 2224.71L4233.7 2229.46C4244.53 2231.79 4252.62 2235.54 4257.95 2240.71C4263.45 2245.71 4266.2 2252.54 4266.2 2261.21C4266.2 2268.54 4264.2 2274.96 4260.2 2280.46C4256.2 2285.79 4250.53 2289.96 4243.2 2292.96C4236.03 2295.79 4227.53 2297.21 4217.7 2297.21ZM4292.59 2294.96V2269.46H4318.09V2294.96H4292.59ZM4398.61 2297.21C4386.44 2297.21 4375.94 2294.54 4367.11 2289.21C4358.28 2283.88 4351.44 2276.46 4346.61 2266.96C4341.94 2257.29 4339.61 2246.13 4339.61 2233.46C4339.61 2220.63 4341.94 2209.54 4346.61 2200.21C4351.44 2190.88 4358.28 2183.71 4367.11 2178.71C4375.94 2173.71 4386.44 2171.21 4398.61 2171.21C4406.11 2171.21 4413.53 2172.54 4420.86 2175.21C4428.19 2177.88 4434.28 2181.63 4439.11 2186.46L4432.11 2201.21C4427.28 2196.54 4421.94 2193.13 4416.11 2190.96C4410.44 2188.79 4405.03 2187.71 4399.86 2187.71C4387.19 2187.71 4377.44 2191.71 4370.61 2199.71C4363.78 2207.54 4360.36 2218.88 4360.36 2233.71C4360.36 2248.21 4363.78 2259.71 4370.61 2268.21C4377.44 2276.54 4387.19 2280.71 4399.86 2280.71C4405.03 2280.71 4410.44 2279.63 4416.11 2277.46C4421.94 2275.29 4427.28 2271.79 4432.11 2266.96L4439.11 2281.71C4434.28 2286.54 4428.11 2290.38 4420.61 2293.21C4413.28 2295.88 4405.94 2297.21 4398.61 2297.21ZM4510.89 2297.21C4499.06 2297.21 4488.81 2294.63 4480.14 2289.46C4471.48 2284.29 4464.73 2277.04 4459.89 2267.71C4455.23 2258.21 4452.89 2247.04 4452.89 2234.21C4452.89 2221.38 4455.23 2210.29 4459.89 2200.96C4464.73 2191.46 4471.48 2184.13 4480.14 2178.96C4488.81 2173.79 4499.06 2171.21 4510.89 2171.21C4522.73 2171.21 4532.98 2173.79 4541.64 2178.96C4550.31 2184.13 4556.98 2191.46 4561.64 2200.96C4566.48 2210.29 4568.89 2221.38 4568.89 2234.21C4568.89 2247.04 4566.48 2258.21 4561.64 2267.71C4556.98 2277.04 4550.31 2284.29 4541.64 2289.46C4532.98 2294.63 4522.73 2297.21 4510.89 2297.21ZM4510.89 2280.96C4522.39 2280.96 4531.48 2276.96 4538.14 2268.96C4544.98 2260.79 4548.39 2249.13 4548.39 2233.96C4548.39 2218.96 4544.98 2207.46 4538.14 2199.46C4531.48 2191.46 4522.39 2187.46 4510.89 2187.46C4499.56 2187.46 4490.48 2191.46 4483.64 2199.46C4476.81 2207.46 4473.39 2218.96 4473.39 2233.96C4473.39 2249.13 4476.81 2260.79 4483.64 2268.96C4490.48 2276.96 4499.56 2280.96 4510.89 2280.96ZM4599.81 2294.96V2173.46H4619.56V2200.46H4616.81C4618.81 2194.29 4621.73 2189.04 4625.56 2184.71C4629.56 2180.21 4634.23 2176.88 4639.56 2174.71C4645.06 2172.38 4651.06 2171.21 4657.56 2171.21C4667.89 2171.21 4676.23 2173.71 4682.56 2178.71C4689.06 2183.54 4693.39 2191.13 4695.56 2201.46H4691.81C4694.81 2192.13 4700.14 2184.79 4707.81 2179.46C4715.64 2173.96 4724.73 2171.21 4735.06 2171.21C4744.23 2171.21 4751.73 2172.96 4757.56 2176.46C4763.56 2179.96 4768.06 2185.29 4771.06 2192.46C4774.06 2199.46 4775.56 2208.38 4775.56 2219.21V2294.96H4755.31V2220.21C4755.31 2209.04 4753.39 2200.88 4749.56 2195.71C4745.73 2190.38 4739.23 2187.71 4730.06 2187.71C4723.56 2187.71 4717.81 2189.29 4712.81 2192.46C4707.98 2195.63 4704.23 2200.13 4701.56 2205.96C4699.06 2211.63 4697.81 2218.38 4697.81 2226.21V2294.96H4677.56V2220.21C4677.56 2209.04 4675.56 2200.88 4671.56 2195.71C4667.73 2190.38 4661.31 2187.71 4652.31 2187.71C4645.64 2187.71 4639.89 2189.29 4635.06 2192.46C4630.23 2195.63 4626.48 2200.13 4623.81 2205.96C4621.31 2211.63 4620.06 2218.38 4620.06 2226.21V2294.96H4599.81ZM4810.17 2294.96V2269.46H4835.67V2294.96H4810.17ZM4907.58 2297.21C4899.24 2297.21 4891.74 2295.63 4885.08 2292.46C4878.58 2289.13 4873.41 2284.63 4869.58 2278.96C4865.74 2273.29 4863.83 2266.96 4863.83 2259.96C4863.83 2250.96 4866.08 2243.88 4870.58 2238.71C4875.24 2233.54 4882.83 2229.88 4893.33 2227.71C4903.99 2225.54 4918.49 2224.46 4936.83 2224.46H4948.08V2237.71H4937.08C4926.91 2237.71 4918.41 2238.04 4911.58 2238.71C4904.74 2239.38 4899.33 2240.54 4895.33 2242.21C4891.33 2243.88 4888.49 2246.04 4886.83 2248.71C4885.16 2251.38 4884.33 2254.71 4884.33 2258.71C4884.33 2265.54 4886.66 2271.13 4891.33 2275.46C4896.16 2279.79 4902.66 2281.96 4910.83 2281.96C4917.49 2281.96 4923.33 2280.38 4928.33 2277.21C4933.49 2274.04 4937.49 2269.71 4940.33 2264.21C4943.33 2258.71 4944.83 2252.38 4944.83 2245.21V2216.71C4944.83 2206.38 4942.74 2198.96 4938.58 2194.46C4934.41 2189.79 4927.58 2187.46 4918.08 2187.46C4910.74 2187.46 4903.66 2188.54 4896.83 2190.71C4889.99 2192.71 4882.99 2196.04 4875.83 2200.71L4868.83 2185.96C4873.16 2182.96 4878.08 2180.38 4883.58 2178.21C4889.08 2175.88 4894.83 2174.13 4900.83 2172.96C4906.83 2171.79 4912.58 2171.21 4918.08 2171.21C4928.58 2171.21 4937.24 2172.96 4944.08 2176.46C4950.91 2179.79 4955.99 2184.96 4959.33 2191.96C4962.66 2198.79 4964.33 2207.63 4964.33 2218.46V2294.96H4945.33V2266.71H4947.58C4946.24 2273.04 4943.66 2278.46 4939.83 2282.96C4936.16 2287.46 4931.58 2290.96 4926.08 2293.46C4920.58 2295.96 4914.41 2297.21 4907.58 2297.21ZM5044.9 2297.21C5035.06 2297.21 5026.9 2295.46 5020.4 2291.96C5014.06 2288.29 5009.23 2282.88 5005.9 2275.71C5002.73 2268.54 5001.15 2259.63 5001.15 2248.96V2173.46H5021.4V2248.71C5021.4 2255.88 5022.31 2261.88 5024.15 2266.71C5026.15 2271.38 5029.23 2274.88 5033.4 2277.21C5037.56 2279.38 5042.73 2280.46 5048.9 2280.46C5055.9 2280.46 5061.98 2278.88 5067.15 2275.71C5072.31 2272.54 5076.4 2268.13 5079.4 2262.46C5082.4 2256.79 5083.9 2250.13 5083.9 2242.46V2173.46H5104.15V2294.96H5084.4V2266.96H5087.65C5084.31 2276.79 5078.81 2284.29 5071.15 2289.46C5063.65 2294.63 5054.9 2297.21 5044.9 2297.21Z" fill="#7D7D7D"/>
<line x1="2570.86" y1="2558.38" x2="2570.86" y2="503.53" stroke="#7D7D7D" stroke-width="10"/>
</svg>
