<svg width="9210" height="3061" viewBox="0 0 9210 3061" fill="none" xmlns="http://www.w3.org/2000/svg">
<path d="M1616.03 509.594C1767.34 477.432 1890 576.762 1890 731.453V2117.91C1890 2272.61 1767.34 2424.08 1616.03 2456.24L1163.97 2552.33C1012.66 2584.49 890 2485.16 890 2330.47V944.009C890 789.318 1012.66 637.843 1163.97 605.681L1616.03 509.594ZM1643.42 923.908C1643.42 831.094 1569.83 771.498 1479.04 790.795L1300.96 828.648C1210.17 847.945 1136.58 938.829 1136.58 1031.64V2138.01C1136.58 2230.83 1210.17 2290.43 1300.96 2271.13L1479.04 2233.28C1569.83 2213.98 1643.42 2123.09 1643.42 2030.28V923.908Z" fill="#7D7D7D"/>
<path d="M3319.1 933.461C3309.93 933.461 3301.1 932.628 3292.6 930.961C3284.27 929.461 3276.52 927.211 3269.35 924.211C3262.35 921.211 3256.1 917.628 3250.6 913.461L3260.35 888.211C3265.85 892.044 3271.6 895.378 3277.6 898.211C3283.77 900.878 3290.27 902.961 3297.1 904.461C3304.1 905.794 3311.43 906.461 3319.1 906.461C3332.27 906.461 3341.85 904.294 3347.85 899.961C3353.85 895.461 3356.85 889.711 3356.85 882.711C3356.85 878.878 3355.93 875.628 3354.1 872.961C3352.27 870.128 3349.27 867.711 3345.1 865.711C3340.93 863.711 3335.43 862.044 3328.6 860.711L3301.1 854.961C3285.27 851.628 3273.43 846.044 3265.6 838.211C3257.93 830.211 3254.1 819.711 3254.1 806.711C3254.1 795.711 3257.02 786.128 3262.85 777.961C3268.68 769.794 3276.77 763.461 3287.1 758.961C3297.43 754.461 3309.35 752.211 3322.85 752.211C3330.85 752.211 3338.52 753.044 3345.85 754.711C3353.35 756.211 3360.18 758.544 3366.35 761.711C3372.68 764.711 3378.18 768.378 3382.85 772.711L3373.1 796.711C3366.1 790.878 3358.43 786.544 3350.1 783.711C3341.77 780.711 3332.6 779.211 3322.6 779.211C3314.93 779.211 3308.35 780.294 3302.85 782.461C3297.35 784.628 3293.1 787.711 3290.1 791.711C3287.27 795.544 3285.85 800.128 3285.85 805.461C3285.85 811.461 3287.85 816.294 3291.85 819.961C3295.85 823.461 3302.68 826.211 3312.35 828.211L3339.6 833.961C3356.1 837.461 3368.35 842.961 3376.35 850.461C3384.52 857.961 3388.6 867.961 3388.6 880.461C3388.6 890.961 3385.77 900.211 3380.1 908.211C3374.43 916.211 3366.35 922.461 3355.85 926.961C3345.52 931.294 3333.27 933.461 3319.1 933.461ZM3413.07 930.961V754.711H3444.32V833.211H3440.82C3444.48 824.378 3450.15 817.711 3457.82 813.211C3465.65 808.544 3474.48 806.211 3484.32 806.211C3494.15 806.211 3502.23 808.044 3508.57 811.711C3514.9 815.378 3519.65 820.961 3522.82 828.461C3525.98 835.794 3527.57 845.128 3527.57 856.461V930.961H3496.32V857.961C3496.32 851.628 3495.48 846.461 3493.82 842.461C3492.32 838.461 3489.9 835.544 3486.57 833.711C3483.4 831.711 3479.32 830.711 3474.32 830.711C3468.32 830.711 3463.07 832.044 3458.57 834.711C3454.07 837.211 3450.57 840.878 3448.07 845.711C3445.57 850.378 3444.32 855.878 3444.32 862.211V930.961H3413.07ZM3599.56 933.461C3590.72 933.461 3582.81 931.794 3575.81 928.461C3568.97 924.961 3563.56 920.294 3559.56 914.461C3555.72 908.628 3553.81 902.044 3553.81 894.711C3553.81 885.711 3556.14 878.628 3560.81 873.461C3565.47 868.128 3573.06 864.294 3583.56 861.961C3594.06 859.628 3608.14 858.461 3625.81 858.461H3638.31V876.461H3626.06C3618.22 876.461 3611.64 876.794 3606.31 877.461C3600.97 877.961 3596.64 878.878 3593.31 880.211C3590.14 881.378 3587.81 883.044 3586.31 885.211C3584.97 887.378 3584.31 890.044 3584.31 893.211C3584.31 898.711 3586.22 903.211 3590.06 906.711C3593.89 910.211 3599.22 911.961 3606.06 911.961C3611.56 911.961 3616.39 910.711 3620.56 908.211C3624.89 905.544 3628.31 901.961 3630.81 897.461C3633.31 892.961 3634.56 887.794 3634.56 881.961V853.211C3634.56 844.878 3632.72 838.878 3629.06 835.211C3625.39 831.544 3619.22 829.711 3610.56 829.711C3603.72 829.711 3596.72 830.794 3589.56 832.961C3582.39 834.961 3575.14 838.128 3567.81 842.461L3558.81 821.211C3563.14 818.211 3568.22 815.628 3574.06 813.461C3580.06 811.128 3586.31 809.378 3592.81 808.211C3599.47 806.878 3605.72 806.211 3611.56 806.211C3623.56 806.211 3633.39 808.044 3641.06 811.711C3648.89 815.378 3654.72 820.961 3658.56 828.461C3662.39 835.794 3664.31 845.294 3664.31 856.961V930.961H3635.06V904.961H3637.06C3635.89 910.794 3633.56 915.878 3630.06 920.211C3626.72 924.378 3622.47 927.628 3617.31 929.961C3612.14 932.294 3606.22 933.461 3599.56 933.461ZM3740.28 933.461C3730.11 933.461 3721.69 931.628 3715.03 927.961C3708.36 924.128 3703.36 918.461 3700.03 910.961C3696.86 903.461 3695.28 894.128 3695.28 882.961V808.711H3726.53V883.461C3726.53 889.128 3727.28 893.878 3728.78 897.711C3730.44 901.544 3732.86 904.378 3736.03 906.211C3739.36 908.044 3743.53 908.961 3748.53 908.961C3754.19 908.961 3759.11 907.711 3763.28 905.211C3767.61 902.544 3770.94 898.878 3773.28 894.211C3775.78 889.378 3777.03 883.794 3777.03 877.461V808.711H3808.28V930.961H3777.78V905.461H3781.28C3777.78 914.461 3772.44 921.378 3765.28 926.211C3758.28 931.044 3749.94 933.461 3740.28 933.461ZM3840.8 930.961V808.711H3871.3V833.211H3868.55C3872.22 824.378 3877.88 817.711 3885.55 813.211C3893.38 808.544 3902.22 806.211 3912.05 806.211C3921.88 806.211 3929.97 808.044 3936.3 811.711C3942.63 815.378 3947.38 820.961 3950.55 828.461C3953.72 835.794 3955.3 845.128 3955.3 856.461V930.961H3924.05V857.961C3924.05 851.628 3923.22 846.461 3921.55 842.461C3920.05 838.461 3917.63 835.544 3914.3 833.711C3911.13 831.711 3907.05 830.711 3902.05 830.711C3896.05 830.711 3890.8 832.044 3886.3 834.711C3881.8 837.211 3878.3 840.878 3875.8 845.711C3873.3 850.378 3872.05 855.878 3872.05 862.211V930.961H3840.8ZM4057.42 930.961V754.711H4134.42C4152.92 754.711 4167.26 758.794 4177.42 766.961C4187.59 774.961 4192.67 786.128 4192.67 800.461C4192.67 811.128 4189.59 820.128 4183.42 827.461C4177.26 834.794 4168.84 839.711 4158.17 842.211V838.461C4166.34 839.628 4173.34 842.128 4179.17 845.961C4185.01 849.794 4189.42 854.711 4192.42 860.711C4195.59 866.711 4197.17 873.711 4197.17 881.711C4197.17 892.044 4194.76 900.961 4189.92 908.461C4185.26 915.794 4178.42 921.378 4169.42 925.211C4160.42 929.044 4149.67 930.961 4137.17 930.961H4057.42ZM4088.17 906.711H4133.17C4137.67 906.711 4141.67 906.378 4145.17 905.711C4148.84 905.044 4151.92 904.044 4154.42 902.711C4157.09 901.211 4159.26 899.378 4160.92 897.211C4162.76 895.044 4164.09 892.544 4164.92 889.711C4165.76 886.878 4166.17 883.711 4166.17 880.211C4166.17 876.544 4165.76 873.294 4164.92 870.461C4164.09 867.628 4162.76 865.211 4160.92 863.211C4159.26 861.044 4157.09 859.294 4154.42 857.961C4151.92 856.461 4148.84 855.378 4145.17 854.711C4141.67 854.044 4137.67 853.711 4133.17 853.711H4088.17V906.711ZM4088.17 829.461H4128.92C4139.92 829.461 4148.09 827.378 4153.42 823.211C4158.92 818.878 4161.67 812.544 4161.67 804.211C4161.67 795.878 4158.92 789.628 4153.42 785.461C4148.09 781.128 4139.92 778.961 4128.92 778.961H4088.17V829.461ZM4269.04 933.461C4254.54 933.461 4243.79 929.544 4236.79 921.711C4229.96 913.711 4226.54 902.044 4226.54 886.711V754.711H4257.79V885.211C4257.79 890.044 4258.46 894.211 4259.79 897.711C4261.29 901.044 4263.46 903.544 4266.29 905.211C4269.13 906.878 4272.63 907.711 4276.79 907.711C4278.63 907.711 4280.46 907.628 4282.29 907.461C4284.13 907.294 4285.88 906.961 4287.54 906.461L4287.04 931.211C4284.04 931.878 4281.04 932.378 4278.04 932.711C4275.21 933.211 4272.21 933.461 4269.04 933.461ZM4346.63 933.461C4337.79 933.461 4329.88 931.794 4322.88 928.461C4316.04 924.961 4310.63 920.294 4306.63 914.461C4302.79 908.628 4300.88 902.044 4300.88 894.711C4300.88 885.711 4303.21 878.628 4307.88 873.461C4312.54 868.128 4320.13 864.294 4330.63 861.961C4341.13 859.628 4355.21 858.461 4372.88 858.461H4385.38V876.461H4373.13C4365.29 876.461 4358.71 876.794 4353.38 877.461C4348.04 877.961 4343.71 878.878 4340.38 880.211C4337.21 881.378 4334.88 883.044 4333.38 885.211C4332.04 887.378 4331.38 890.044 4331.38 893.211C4331.38 898.711 4333.29 903.211 4337.13 906.711C4340.96 910.211 4346.29 911.961 4353.13 911.961C4358.63 911.961 4363.46 910.711 4367.63 908.211C4371.96 905.544 4375.38 901.961 4377.88 897.461C4380.38 892.961 4381.63 887.794 4381.63 881.961V853.211C4381.63 844.878 4379.79 838.878 4376.13 835.211C4372.46 831.544 4366.29 829.711 4357.63 829.711C4350.79 829.711 4343.79 830.794 4336.63 832.961C4329.46 834.961 4322.21 838.128 4314.88 842.461L4305.88 821.211C4310.21 818.211 4315.29 815.628 4321.13 813.461C4327.13 811.128 4333.38 809.378 4339.88 808.211C4346.54 806.878 4352.79 806.211 4358.63 806.211C4370.63 806.211 4380.46 808.044 4388.13 811.711C4395.96 815.378 4401.79 820.961 4405.63 828.461C4409.46 835.794 4411.38 845.294 4411.38 856.961V930.961H4382.13V904.961H4384.13C4382.96 910.794 4380.63 915.878 4377.13 920.211C4373.79 924.378 4369.54 927.628 4364.38 929.961C4359.21 932.294 4353.29 933.461 4346.63 933.461ZM4499.6 933.461C4486.76 933.461 4475.6 930.878 4466.1 925.711C4456.6 920.378 4449.26 912.878 4444.1 903.211C4438.93 893.544 4436.35 882.211 4436.35 869.211C4436.35 856.211 4438.93 845.044 4444.1 835.711C4449.26 826.211 4456.6 818.961 4466.1 813.961C4475.6 808.794 4486.76 806.211 4499.6 806.211C4507.43 806.211 4515.18 807.461 4522.85 809.961C4530.51 812.461 4536.85 815.961 4541.85 820.461L4532.6 842.211C4528.26 838.378 4523.35 835.461 4517.85 833.461C4512.51 831.461 4507.35 830.461 4502.35 830.461C4491.51 830.461 4483.1 833.878 4477.1 840.711C4471.26 847.378 4468.35 856.961 4468.35 869.461C4468.35 881.794 4471.26 891.544 4477.1 898.711C4483.1 905.711 4491.51 909.211 4502.35 909.211C4507.18 909.211 4512.35 908.211 4517.85 906.211C4523.35 904.211 4528.26 901.211 4532.6 897.211L4541.85 919.211C4536.85 923.544 4530.43 927.044 4522.6 929.711C4514.93 932.211 4507.26 933.461 4499.6 933.461ZM4561.02 930.961V754.711H4592.27V860.711H4592.77L4642.02 808.711H4679.77L4618.27 873.711V860.711L4683.27 930.961H4645.02L4592.77 876.461H4592.27V930.961H4561.02ZM4695.55 930.961V808.711H4726.05V833.211H4723.3C4725.47 827.544 4728.47 822.711 4732.3 818.711C4736.13 814.711 4740.72 811.628 4746.05 809.461C4751.38 807.294 4757.3 806.211 4763.8 806.211C4773.63 806.211 4781.72 808.544 4788.05 813.211C4794.38 817.878 4798.8 825.044 4801.3 834.711H4797.8C4801.13 825.878 4806.63 818.961 4814.3 813.961C4821.97 808.794 4830.8 806.211 4840.8 806.211C4850.13 806.211 4857.8 808.044 4863.8 811.711C4869.97 815.378 4874.55 820.961 4877.55 828.461C4880.55 835.794 4882.05 845.128 4882.05 856.461V930.961H4850.8V857.711C4850.8 848.378 4849.22 841.544 4846.05 837.211C4843.05 832.878 4837.88 830.711 4830.55 830.711C4825.22 830.711 4820.55 832.044 4816.55 834.711C4812.55 837.211 4809.47 840.878 4807.3 845.711C4805.3 850.544 4804.3 856.378 4804.3 863.211V930.961H4773.05V857.711C4773.05 848.378 4771.47 841.544 4768.3 837.211C4765.3 832.878 4760.22 830.711 4753.05 830.711C4747.55 830.711 4742.8 832.044 4738.8 834.711C4734.97 837.211 4731.97 840.878 4729.8 845.711C4727.8 850.544 4726.8 856.378 4726.8 863.211V930.961H4695.55ZM4970.04 933.461C4957.37 933.461 4946.37 930.878 4937.04 925.711C4927.7 920.544 4920.45 913.211 4915.29 903.711C4910.12 894.044 4907.54 882.711 4907.54 869.711C4907.54 856.711 4910.12 845.461 4915.29 835.961C4920.45 826.461 4927.7 819.128 4937.04 813.961C4946.37 808.794 4957.37 806.211 4970.04 806.211C4982.7 806.211 4993.7 808.794 5003.04 813.961C5012.37 819.128 5019.62 826.461 5024.79 835.961C5029.95 845.461 5032.54 856.711 5032.54 869.711C5032.54 882.711 5029.95 894.044 5024.79 903.711C5019.62 913.211 5012.37 920.544 5003.04 925.711C4993.7 930.878 4982.7 933.461 4970.04 933.461ZM4970.04 909.711C4979.37 909.711 4986.87 906.378 4992.54 899.711C4998.2 892.878 5001.04 882.878 5001.04 869.711C5001.04 856.378 4998.2 846.461 4992.54 839.961C4986.87 833.294 4979.37 829.961 4970.04 829.961C4960.7 829.961 4953.2 833.294 4947.54 839.961C4941.87 846.461 4939.04 856.378 4939.04 869.711C4939.04 882.878 4941.87 892.878 4947.54 899.711C4953.2 906.378 4960.7 909.711 4970.04 909.711ZM5058.33 930.961V808.711H5088.83V838.211H5086.33C5088.66 828.211 5093.25 820.628 5100.08 815.461C5106.91 810.128 5116 807.044 5127.33 806.211L5136.83 805.461L5138.83 831.961L5120.83 833.711C5110.66 834.711 5103 837.878 5097.83 843.211C5092.66 848.378 5090.08 855.711 5090.08 865.211V930.961H5058.33ZM5214.53 933.461C5200.69 933.461 5188.78 930.878 5178.78 925.711C5168.78 920.544 5161.03 913.211 5155.53 903.711C5150.19 894.211 5147.53 882.961 5147.53 869.961C5147.53 857.294 5150.11 846.211 5155.28 836.711C5160.61 827.211 5167.86 819.794 5177.03 814.461C5186.36 808.961 5196.94 806.211 5208.78 806.211C5220.44 806.211 5230.44 808.711 5238.78 813.711C5247.11 818.711 5253.53 825.794 5258.03 834.961C5262.69 844.128 5265.03 855.044 5265.03 867.711V876.961H5172.78V858.961H5243.03L5239.03 862.711C5239.03 851.378 5236.53 842.711 5231.53 836.711C5226.53 830.544 5219.36 827.461 5210.03 827.461C5203.03 827.461 5197.03 829.128 5192.03 832.461C5187.19 835.628 5183.44 840.211 5180.78 846.211C5178.28 852.044 5177.03 859.044 5177.03 867.211V868.961C5177.03 878.128 5178.44 885.711 5181.28 891.711C5184.11 897.711 5188.36 902.211 5194.03 905.211C5199.69 908.211 5206.69 909.711 5215.03 909.711C5221.86 909.711 5228.69 908.711 5235.53 906.711C5242.36 904.544 5248.61 901.211 5254.28 896.711L5263.03 917.711C5257.19 922.544 5249.86 926.378 5241.03 929.211C5232.19 932.044 5223.36 933.461 5214.53 933.461ZM3260.85 1271.96V1095.71H3369.85V1112.96H3281.35V1174.46H3364.85V1191.71H3281.35V1271.96H3260.85ZM3392.56 1120.21V1097.46H3417.56V1120.21H3392.56ZM3395.06 1271.96V1150.46H3415.31V1271.96H3395.06ZM3453.17 1271.96V1150.46H3472.92V1177.46H3470.17C3473.67 1167.79 3479.34 1160.54 3487.17 1155.71C3495.17 1150.71 3504.34 1148.21 3514.67 1148.21C3524.34 1148.21 3532.34 1149.96 3538.67 1153.46C3545.17 1156.79 3550 1162.04 3553.17 1169.21C3556.34 1176.38 3557.92 1185.38 3557.92 1196.21V1271.96H3537.67V1197.46C3537.67 1189.96 3536.67 1183.79 3534.67 1178.96C3532.84 1174.13 3529.84 1170.54 3525.67 1168.21C3521.67 1165.88 3516.42 1164.71 3509.92 1164.71C3502.59 1164.71 3496.17 1166.29 3490.67 1169.46C3485.17 1172.63 3480.92 1177.04 3477.92 1182.71C3474.92 1188.38 3473.42 1195.04 3473.42 1202.71V1271.96H3453.17ZM3633.51 1274.21C3625.18 1274.21 3617.68 1272.63 3611.01 1269.46C3604.51 1266.13 3599.34 1261.63 3595.51 1255.96C3591.68 1250.29 3589.76 1243.96 3589.76 1236.96C3589.76 1227.96 3592.01 1220.88 3596.51 1215.71C3601.18 1210.54 3608.76 1206.88 3619.26 1204.71C3629.93 1202.54 3644.43 1201.46 3662.76 1201.46H3674.01V1214.71H3663.01C3652.84 1214.71 3644.34 1215.04 3637.51 1215.71C3630.68 1216.38 3625.26 1217.54 3621.26 1219.21C3617.26 1220.88 3614.43 1223.04 3612.76 1225.71C3611.09 1228.38 3610.26 1231.71 3610.26 1235.71C3610.26 1242.54 3612.59 1248.13 3617.26 1252.46C3622.09 1256.79 3628.59 1258.96 3636.76 1258.96C3643.43 1258.96 3649.26 1257.38 3654.26 1254.21C3659.43 1251.04 3663.43 1246.71 3666.26 1241.21C3669.26 1235.71 3670.76 1229.38 3670.76 1222.21V1193.71C3670.76 1183.38 3668.68 1175.96 3664.51 1171.46C3660.34 1166.79 3653.51 1164.46 3644.01 1164.46C3636.68 1164.46 3629.59 1165.54 3622.76 1167.71C3615.93 1169.71 3608.93 1173.04 3601.76 1177.71L3594.76 1162.96C3599.09 1159.96 3604.01 1157.38 3609.51 1155.21C3615.01 1152.88 3620.76 1151.13 3626.76 1149.96C3632.76 1148.79 3638.51 1148.21 3644.01 1148.21C3654.51 1148.21 3663.18 1149.96 3670.01 1153.46C3676.84 1156.79 3681.93 1161.96 3685.26 1168.96C3688.59 1175.79 3690.26 1184.63 3690.26 1195.46V1271.96H3671.26V1243.71H3673.51C3672.18 1250.04 3669.59 1255.46 3665.76 1259.96C3662.09 1264.46 3657.51 1267.96 3652.01 1270.46C3646.51 1272.96 3640.34 1274.21 3633.51 1274.21ZM3727.83 1271.96V1150.46H3747.58V1177.46H3744.83C3748.33 1167.79 3753.99 1160.54 3761.83 1155.71C3769.83 1150.71 3778.99 1148.21 3789.33 1148.21C3798.99 1148.21 3806.99 1149.96 3813.33 1153.46C3819.83 1156.79 3824.66 1162.04 3827.83 1169.21C3830.99 1176.38 3832.58 1185.38 3832.58 1196.21V1271.96H3812.33V1197.46C3812.33 1189.96 3811.33 1183.79 3809.33 1178.96C3807.49 1174.13 3804.49 1170.54 3800.33 1168.21C3796.33 1165.88 3791.08 1164.71 3784.58 1164.71C3777.24 1164.71 3770.83 1166.29 3765.33 1169.46C3759.83 1172.63 3755.58 1177.04 3752.58 1182.71C3749.58 1188.38 3748.08 1195.04 3748.08 1202.71V1271.96H3727.83ZM3921.42 1274.21C3909.25 1274.21 3898.75 1271.54 3889.92 1266.21C3881.08 1260.88 3874.25 1253.46 3869.42 1243.96C3864.75 1234.29 3862.42 1223.13 3862.42 1210.46C3862.42 1197.63 3864.75 1186.54 3869.42 1177.21C3874.25 1167.88 3881.08 1160.71 3889.92 1155.71C3898.75 1150.71 3909.25 1148.21 3921.42 1148.21C3928.92 1148.21 3936.33 1149.54 3943.67 1152.21C3951 1154.88 3957.08 1158.63 3961.92 1163.46L3954.92 1178.21C3950.08 1173.54 3944.75 1170.13 3938.92 1167.96C3933.25 1165.79 3927.83 1164.71 3922.67 1164.71C3910 1164.71 3900.25 1168.71 3893.42 1176.71C3886.58 1184.54 3883.17 1195.88 3883.17 1210.71C3883.17 1225.21 3886.58 1236.71 3893.42 1245.21C3900.25 1253.54 3910 1257.71 3922.67 1257.71C3927.83 1257.71 3933.25 1256.63 3938.92 1254.46C3944.75 1252.29 3950.08 1248.79 3954.92 1243.96L3961.92 1258.71C3957.08 1263.54 3950.92 1267.38 3943.42 1270.21C3936.08 1272.88 3928.75 1274.21 3921.42 1274.21ZM4037.95 1274.21C4025.12 1274.21 4014.03 1271.71 4004.7 1266.71C3995.53 1261.54 3988.37 1254.29 3983.2 1244.96C3978.2 1235.63 3975.7 1224.46 3975.7 1211.46C3975.7 1198.79 3978.2 1187.79 3983.2 1178.46C3988.2 1168.96 3995.03 1161.54 4003.7 1156.21C4012.53 1150.88 4022.7 1148.21 4034.2 1148.21C4045.2 1148.21 4054.62 1150.63 4062.45 1155.46C4070.28 1160.29 4076.28 1167.13 4080.45 1175.96C4084.78 1184.79 4086.95 1195.38 4086.95 1207.71V1215.46H3991.2V1202.21H4073.45L4069.45 1205.46C4069.45 1192.13 4066.45 1181.79 4060.45 1174.46C4054.62 1166.96 4046.03 1163.21 4034.7 1163.21C4026.2 1163.21 4018.95 1165.21 4012.95 1169.21C4007.12 1173.04 4002.7 1178.46 3999.7 1185.46C3996.7 1192.29 3995.2 1200.29 3995.2 1209.46V1210.96C3995.2 1221.13 3996.78 1229.71 3999.95 1236.71C4003.28 1243.71 4008.2 1249.04 4014.7 1252.71C4021.2 1256.21 4028.95 1257.96 4037.95 1257.96C4045.12 1257.96 4052.03 1256.88 4058.7 1254.71C4065.53 1252.38 4071.95 1248.63 4077.95 1243.46L4084.95 1257.71C4079.45 1262.71 4072.45 1266.71 4063.95 1269.71C4055.45 1272.71 4046.78 1274.21 4037.95 1274.21ZM4233.21 1274.21C4221.55 1274.21 4211.46 1272.38 4202.96 1268.71C4194.46 1264.88 4187.96 1259.63 4183.46 1252.96C4179.13 1246.29 4176.96 1238.54 4176.96 1229.71C4176.96 1222.21 4178.3 1215.46 4180.96 1209.46C4183.8 1203.29 4187.96 1197.54 4193.46 1192.21C4198.96 1186.71 4205.8 1181.29 4213.96 1175.96L4221.96 1170.71L4219.21 1174.96C4211.21 1166.29 4205.55 1158.79 4202.21 1152.46C4199.05 1145.96 4197.46 1139.29 4197.46 1132.46C4197.46 1124.79 4199.21 1118.04 4202.71 1112.21C4206.21 1106.21 4211.21 1101.63 4217.71 1098.46C4224.38 1095.13 4232.05 1093.46 4240.71 1093.46C4248.55 1093.46 4255.38 1094.96 4261.21 1097.96C4267.05 1100.79 4271.63 1104.88 4274.96 1110.21C4278.46 1115.54 4280.21 1121.88 4280.21 1129.21C4280.21 1135.21 4279.05 1140.88 4276.71 1146.21C4274.38 1151.38 4270.46 1156.63 4264.96 1161.96C4259.46 1167.13 4251.8 1172.63 4241.96 1178.46L4242.46 1173.21L4289.21 1225.71H4284.71C4288.71 1218.88 4291.88 1210.46 4294.21 1200.46C4296.71 1190.29 4298.13 1179.71 4298.46 1168.71H4315.96C4315.63 1182.54 4313.71 1195.46 4310.21 1207.46C4306.88 1219.29 4302.3 1229.79 4296.46 1238.96L4296.21 1232.96L4332.46 1271.96H4307.71L4285.21 1246.71H4290.46C4283.46 1255.38 4275.05 1262.13 4265.21 1266.96C4255.38 1271.79 4244.71 1274.21 4233.21 1274.21ZM4234.21 1257.46C4243.71 1257.46 4252.13 1255.46 4259.46 1251.46C4266.96 1247.46 4273.46 1241.63 4278.96 1233.96L4278.71 1240.21L4225.71 1182.21L4233.71 1182.96L4225.96 1187.96C4218.8 1192.63 4213.05 1197.04 4208.71 1201.21C4204.55 1205.21 4201.55 1209.38 4199.71 1213.71C4197.88 1218.04 4196.96 1222.88 4196.96 1228.21C4196.96 1237.38 4200.13 1244.54 4206.46 1249.71C4212.8 1254.88 4222.05 1257.46 4234.21 1257.46ZM4240.71 1109.21C4233.55 1109.21 4227.71 1111.29 4223.21 1115.46C4218.71 1119.63 4216.46 1125.13 4216.46 1131.96C4216.46 1135.63 4216.96 1139.04 4217.96 1142.21C4219.13 1145.21 4221.13 1148.63 4223.96 1152.46C4226.8 1156.13 4230.71 1160.88 4235.71 1166.71L4230.46 1166.96C4238.46 1161.79 4244.8 1157.29 4249.46 1153.46C4254.13 1149.46 4257.46 1145.63 4259.46 1141.96C4261.46 1138.29 4262.46 1134.38 4262.46 1130.21C4262.46 1123.71 4260.46 1118.63 4256.46 1114.96C4252.46 1111.13 4247.21 1109.21 4240.71 1109.21ZM4497.01 1274.21C4479.68 1274.21 4464.85 1270.54 4452.51 1263.21C4440.18 1255.88 4430.68 1245.46 4424.01 1231.96C4417.51 1218.46 4414.26 1202.38 4414.26 1183.71C4414.26 1165.04 4417.51 1149.04 4424.01 1135.71C4430.68 1122.21 4440.18 1111.79 4452.51 1104.46C4464.85 1097.13 4479.68 1093.46 4497.01 1093.46C4509.18 1093.46 4520.43 1095.38 4530.76 1099.21C4541.1 1103.04 4549.76 1108.63 4556.76 1115.96L4548.76 1132.71C4541.1 1125.54 4533.1 1120.38 4524.76 1117.21C4516.6 1113.88 4507.51 1112.21 4497.51 1112.21C4477.68 1112.21 4462.51 1118.46 4452.01 1130.96C4441.51 1143.46 4436.26 1161.04 4436.26 1183.71C4436.26 1206.38 4441.51 1224.04 4452.01 1236.71C4462.51 1249.21 4477.68 1255.46 4497.51 1255.46C4507.51 1255.46 4516.6 1253.88 4524.76 1250.71C4533.1 1247.38 4541.1 1242.13 4548.76 1234.96L4556.76 1251.71C4549.76 1258.88 4541.1 1264.46 4530.76 1268.46C4520.43 1272.29 4509.18 1274.21 4497.01 1274.21ZM4627.94 1274.21C4616.1 1274.21 4605.85 1271.63 4597.19 1266.46C4588.52 1261.29 4581.77 1254.04 4576.94 1244.71C4572.27 1235.21 4569.94 1224.04 4569.94 1211.21C4569.94 1198.38 4572.27 1187.29 4576.94 1177.96C4581.77 1168.46 4588.52 1161.13 4597.19 1155.96C4605.85 1150.79 4616.1 1148.21 4627.94 1148.21C4639.77 1148.21 4650.02 1150.79 4658.69 1155.96C4667.35 1161.13 4674.02 1168.46 4678.69 1177.96C4683.52 1187.29 4685.94 1198.38 4685.94 1211.21C4685.94 1224.04 4683.52 1235.21 4678.69 1244.71C4674.02 1254.04 4667.35 1261.29 4658.69 1266.46C4650.02 1271.63 4639.77 1274.21 4627.94 1274.21ZM4627.94 1257.96C4639.44 1257.96 4648.52 1253.96 4655.19 1245.96C4662.02 1237.79 4665.44 1226.13 4665.44 1210.96C4665.44 1195.96 4662.02 1184.46 4655.19 1176.46C4648.52 1168.46 4639.44 1164.46 4627.94 1164.46C4616.6 1164.46 4607.52 1168.46 4600.69 1176.46C4593.85 1184.46 4590.44 1195.96 4590.44 1210.96C4590.44 1226.13 4593.85 1237.79 4600.69 1245.96C4607.52 1253.96 4616.6 1257.96 4627.94 1257.96ZM4716.85 1271.96V1150.46H4736.6V1177.46H4733.85C4735.85 1171.29 4738.77 1166.04 4742.6 1161.71C4746.6 1157.21 4751.27 1153.88 4756.6 1151.71C4762.1 1149.38 4768.1 1148.21 4774.6 1148.21C4784.94 1148.21 4793.27 1150.71 4799.6 1155.71C4806.1 1160.54 4810.44 1168.13 4812.6 1178.46H4808.85C4811.85 1169.13 4817.19 1161.79 4824.85 1156.46C4832.69 1150.96 4841.77 1148.21 4852.1 1148.21C4861.27 1148.21 4868.77 1149.96 4874.6 1153.46C4880.6 1156.96 4885.1 1162.29 4888.1 1169.46C4891.1 1176.46 4892.6 1185.38 4892.6 1196.21V1271.96H4872.35V1197.21C4872.35 1186.04 4870.44 1177.88 4866.6 1172.71C4862.77 1167.38 4856.27 1164.71 4847.1 1164.71C4840.6 1164.71 4834.85 1166.29 4829.85 1169.46C4825.02 1172.63 4821.27 1177.13 4818.6 1182.96C4816.1 1188.63 4814.85 1195.38 4814.85 1203.21V1271.96H4794.6V1197.21C4794.6 1186.04 4792.6 1177.88 4788.6 1172.71C4784.77 1167.38 4778.35 1164.71 4769.35 1164.71C4762.69 1164.71 4756.94 1166.29 4752.1 1169.46C4747.27 1172.63 4743.52 1177.13 4740.85 1182.96C4738.35 1188.63 4737.1 1195.38 4737.1 1203.21V1271.96H4716.85ZM4930.96 1271.96V1150.46H4950.71V1177.46H4947.96C4949.96 1171.29 4952.88 1166.04 4956.71 1161.71C4960.71 1157.21 4965.38 1153.88 4970.71 1151.71C4976.21 1149.38 4982.21 1148.21 4988.71 1148.21C4999.05 1148.21 5007.38 1150.71 5013.71 1155.71C5020.21 1160.54 5024.55 1168.13 5026.71 1178.46H5022.96C5025.96 1169.13 5031.3 1161.79 5038.96 1156.46C5046.8 1150.96 5055.88 1148.21 5066.21 1148.21C5075.38 1148.21 5082.88 1149.96 5088.71 1153.46C5094.71 1156.96 5099.21 1162.29 5102.21 1169.46C5105.21 1176.46 5106.71 1185.38 5106.71 1196.21V1271.96H5086.46V1197.21C5086.46 1186.04 5084.55 1177.88 5080.71 1172.71C5076.88 1167.38 5070.38 1164.71 5061.21 1164.71C5054.71 1164.71 5048.96 1166.29 5043.96 1169.46C5039.13 1172.63 5035.38 1177.13 5032.71 1182.96C5030.21 1188.63 5028.96 1195.38 5028.96 1203.21V1271.96H5008.71V1197.21C5008.71 1186.04 5006.71 1177.88 5002.71 1172.71C4998.88 1167.38 4992.46 1164.71 4983.46 1164.71C4976.8 1164.71 4971.05 1166.29 4966.21 1169.46C4961.38 1172.63 4957.63 1177.13 4954.96 1182.96C4952.46 1188.63 4951.21 1195.38 4951.21 1203.21V1271.96H4930.96ZM5199.33 1274.21C5186.49 1274.21 5175.41 1271.71 5166.08 1266.71C5156.91 1261.54 5149.74 1254.29 5144.58 1244.96C5139.58 1235.63 5137.08 1224.46 5137.08 1211.46C5137.08 1198.79 5139.58 1187.79 5144.58 1178.46C5149.58 1168.96 5156.41 1161.54 5165.08 1156.21C5173.91 1150.88 5184.08 1148.21 5195.58 1148.21C5206.58 1148.21 5215.99 1150.63 5223.83 1155.46C5231.66 1160.29 5237.66 1167.13 5241.83 1175.96C5246.16 1184.79 5248.33 1195.38 5248.33 1207.71V1215.46H5152.58V1202.21H5234.83L5230.83 1205.46C5230.83 1192.13 5227.83 1181.79 5221.83 1174.46C5215.99 1166.96 5207.41 1163.21 5196.08 1163.21C5187.58 1163.21 5180.33 1165.21 5174.33 1169.21C5168.49 1173.04 5164.08 1178.46 5161.08 1185.46C5158.08 1192.29 5156.58 1200.29 5156.58 1209.46V1210.96C5156.58 1221.13 5158.16 1229.71 5161.33 1236.71C5164.66 1243.71 5169.58 1249.04 5176.08 1252.71C5182.58 1256.21 5190.33 1257.96 5199.33 1257.96C5206.49 1257.96 5213.41 1256.88 5220.08 1254.71C5226.91 1252.38 5233.33 1248.63 5239.33 1243.46L5246.33 1257.71C5240.83 1262.71 5233.83 1266.71 5225.33 1269.71C5216.83 1272.71 5208.16 1274.21 5199.33 1274.21ZM5277.63 1271.96V1150.46H5297.38V1179.21H5294.88C5297.72 1169.38 5302.63 1161.96 5309.63 1156.96C5316.63 1151.79 5325.88 1148.79 5337.38 1147.96L5344.63 1147.21L5346.13 1164.71L5333.38 1166.21C5322.05 1167.21 5313.3 1170.88 5307.13 1177.21C5301.13 1183.38 5298.13 1191.88 5298.13 1202.71V1271.96H5277.63ZM5417.27 1274.21C5405.1 1274.21 5394.6 1271.54 5385.77 1266.21C5376.93 1260.88 5370.1 1253.46 5365.27 1243.96C5360.6 1234.29 5358.27 1223.13 5358.27 1210.46C5358.27 1197.63 5360.6 1186.54 5365.27 1177.21C5370.1 1167.88 5376.93 1160.71 5385.77 1155.71C5394.6 1150.71 5405.1 1148.21 5417.27 1148.21C5424.77 1148.21 5432.18 1149.54 5439.52 1152.21C5446.85 1154.88 5452.93 1158.63 5457.77 1163.46L5450.77 1178.21C5445.93 1173.54 5440.6 1170.13 5434.77 1167.96C5429.1 1165.79 5423.68 1164.71 5418.52 1164.71C5405.85 1164.71 5396.1 1168.71 5389.27 1176.71C5382.43 1184.54 5379.02 1195.88 5379.02 1210.71C5379.02 1225.21 5382.43 1236.71 5389.27 1245.21C5396.1 1253.54 5405.85 1257.71 5418.52 1257.71C5423.68 1257.71 5429.1 1256.63 5434.77 1254.46C5440.6 1252.29 5445.93 1248.79 5450.77 1243.96L5457.77 1258.71C5452.93 1263.54 5446.77 1267.38 5439.27 1270.21C5431.93 1272.88 5424.6 1274.21 5417.27 1274.21ZM5478.99 1120.21V1097.46H5503.99V1120.21H5478.99ZM5481.49 1271.96V1150.46H5501.74V1271.96H5481.49ZM5577.85 1274.21C5569.51 1274.21 5562.01 1272.63 5555.35 1269.46C5548.85 1266.13 5543.68 1261.63 5539.85 1255.96C5536.01 1250.29 5534.1 1243.96 5534.1 1236.96C5534.1 1227.96 5536.35 1220.88 5540.85 1215.71C5545.51 1210.54 5553.1 1206.88 5563.6 1204.71C5574.26 1202.54 5588.76 1201.46 5607.1 1201.46H5618.35V1214.71H5607.35C5597.18 1214.71 5588.68 1215.04 5581.85 1215.71C5575.01 1216.38 5569.6 1217.54 5565.6 1219.21C5561.6 1220.88 5558.76 1223.04 5557.1 1225.71C5555.43 1228.38 5554.6 1231.71 5554.6 1235.71C5554.6 1242.54 5556.93 1248.13 5561.6 1252.46C5566.43 1256.79 5572.93 1258.96 5581.1 1258.96C5587.76 1258.96 5593.6 1257.38 5598.6 1254.21C5603.76 1251.04 5607.76 1246.71 5610.6 1241.21C5613.6 1235.71 5615.1 1229.38 5615.1 1222.21V1193.71C5615.1 1183.38 5613.01 1175.96 5608.85 1171.46C5604.68 1166.79 5597.85 1164.46 5588.35 1164.46C5581.01 1164.46 5573.93 1165.54 5567.1 1167.71C5560.26 1169.71 5553.26 1173.04 5546.1 1177.71L5539.1 1162.96C5543.43 1159.96 5548.35 1157.38 5553.85 1155.21C5559.35 1152.88 5565.1 1151.13 5571.1 1149.96C5577.1 1148.79 5582.85 1148.21 5588.35 1148.21C5598.85 1148.21 5607.51 1149.96 5614.35 1153.46C5621.18 1156.79 5626.26 1161.96 5629.6 1168.96C5632.93 1175.79 5634.6 1184.63 5634.6 1195.46V1271.96H5615.6V1243.71H5617.85C5616.51 1250.04 5613.93 1255.46 5610.1 1259.96C5606.43 1264.46 5601.85 1267.96 5596.35 1270.46C5590.85 1272.96 5584.68 1274.21 5577.85 1274.21ZM5709.41 1274.21C5697.08 1274.21 5687.75 1270.54 5681.41 1263.21C5675.25 1255.88 5672.16 1245.38 5672.16 1231.71V1095.71H5692.41V1230.21C5692.41 1236.04 5693.16 1240.96 5694.66 1244.96C5696.33 1248.96 5698.75 1251.96 5701.91 1253.96C5705.08 1255.96 5709 1256.96 5713.66 1256.96C5715.66 1256.96 5717.58 1256.88 5719.41 1256.71C5721.41 1256.38 5723.25 1255.96 5724.91 1255.46L5724.41 1272.46C5721.75 1272.96 5719.16 1273.38 5716.66 1273.71C5714.33 1274.04 5711.91 1274.21 5709.41 1274.21ZM5813.1 1271.96V1095.71H5872.6C5891.76 1095.71 5907.93 1099.13 5921.1 1105.96C5934.43 1112.63 5944.51 1122.54 5951.35 1135.71C5958.35 1148.71 5961.85 1164.71 5961.85 1183.71C5961.85 1202.71 5958.35 1218.79 5951.35 1231.96C5944.51 1245.13 5934.43 1255.13 5921.1 1261.96C5907.93 1268.63 5891.76 1271.96 5872.6 1271.96H5813.1ZM5833.6 1254.46H5871.1C5894.26 1254.46 5911.51 1248.54 5922.85 1236.71C5934.35 1224.88 5940.1 1207.21 5940.1 1183.71C5940.1 1160.21 5934.35 1142.63 5922.85 1130.96C5911.35 1119.13 5894.1 1113.21 5871.1 1113.21H5833.6V1254.46ZM5993.39 1120.21V1097.46H6018.39V1120.21H5993.39ZM5995.89 1271.96V1150.46H6016.14V1271.96H5995.89ZM6054 1271.96V1150.46H6073.75V1179.21H6071.25C6074.08 1169.38 6079 1161.96 6086 1156.96C6093 1151.79 6102.25 1148.79 6113.75 1147.96L6121 1147.21L6122.5 1164.71L6109.75 1166.21C6098.42 1167.21 6089.67 1170.88 6083.5 1177.21C6077.5 1183.38 6074.5 1191.88 6074.5 1202.71V1271.96H6054ZM6196.88 1274.21C6184.05 1274.21 6172.97 1271.71 6163.63 1266.71C6154.47 1261.54 6147.3 1254.29 6142.13 1244.96C6137.13 1235.63 6134.63 1224.46 6134.63 1211.46C6134.63 1198.79 6137.13 1187.79 6142.13 1178.46C6147.13 1168.96 6153.97 1161.54 6162.63 1156.21C6171.47 1150.88 6181.63 1148.21 6193.13 1148.21C6204.13 1148.21 6213.55 1150.63 6221.38 1155.46C6229.22 1160.29 6235.22 1167.13 6239.38 1175.96C6243.72 1184.79 6245.88 1195.38 6245.88 1207.71V1215.46H6150.13V1202.21H6232.38L6228.38 1205.46C6228.38 1192.13 6225.38 1181.79 6219.38 1174.46C6213.55 1166.96 6204.97 1163.21 6193.63 1163.21C6185.13 1163.21 6177.88 1165.21 6171.88 1169.21C6166.05 1173.04 6161.63 1178.46 6158.63 1185.46C6155.63 1192.29 6154.13 1200.29 6154.13 1209.46V1210.96C6154.13 1221.13 6155.72 1229.71 6158.88 1236.71C6162.22 1243.71 6167.13 1249.04 6173.63 1252.71C6180.13 1256.21 6187.88 1257.96 6196.88 1257.96C6204.05 1257.96 6210.97 1256.88 6217.63 1254.71C6224.47 1252.38 6230.88 1248.63 6236.88 1243.46L6243.88 1257.71C6238.38 1262.71 6231.38 1266.71 6222.88 1269.71C6214.38 1272.71 6205.72 1274.21 6196.88 1274.21ZM6326.69 1274.21C6314.52 1274.21 6304.02 1271.54 6295.19 1266.21C6286.36 1260.88 6279.52 1253.46 6274.69 1243.96C6270.02 1234.29 6267.69 1223.13 6267.69 1210.46C6267.69 1197.63 6270.02 1186.54 6274.69 1177.21C6279.52 1167.88 6286.36 1160.71 6295.19 1155.71C6304.02 1150.71 6314.52 1148.21 6326.69 1148.21C6334.19 1148.21 6341.61 1149.54 6348.94 1152.21C6356.27 1154.88 6362.36 1158.63 6367.19 1163.46L6360.19 1178.21C6355.36 1173.54 6350.02 1170.13 6344.19 1167.96C6338.52 1165.79 6333.11 1164.71 6327.94 1164.71C6315.27 1164.71 6305.52 1168.71 6298.69 1176.71C6291.86 1184.54 6288.44 1195.88 6288.44 1210.71C6288.44 1225.21 6291.86 1236.71 6298.69 1245.21C6305.52 1253.54 6315.27 1257.71 6327.94 1257.71C6333.11 1257.71 6338.52 1256.63 6344.19 1254.46C6350.02 1252.29 6355.36 1248.79 6360.19 1243.96L6367.19 1258.71C6362.36 1263.54 6356.19 1267.38 6348.69 1270.21C6341.36 1272.88 6334.02 1274.21 6326.69 1274.21ZM6439.66 1274.21C6425.33 1274.21 6414.58 1270.38 6407.41 1262.71C6400.25 1255.04 6396.66 1244.13 6396.66 1229.96V1166.21H6372.91V1150.46H6396.66V1113.21H6416.91V1150.46H6455.41V1166.21H6416.91V1227.96C6416.91 1237.46 6418.91 1244.71 6422.91 1249.71C6426.91 1254.54 6433.41 1256.96 6442.41 1256.96C6445.08 1256.96 6447.75 1256.63 6450.41 1255.96C6453.08 1255.29 6455.5 1254.63 6457.66 1253.96L6461.16 1269.46C6459 1270.63 6455.83 1271.71 6451.66 1272.71C6447.5 1273.71 6443.5 1274.21 6439.66 1274.21ZM6527.6 1274.21C6515.76 1274.21 6505.51 1271.63 6496.85 1266.46C6488.18 1261.29 6481.43 1254.04 6476.6 1244.71C6471.93 1235.21 6469.6 1224.04 6469.6 1211.21C6469.6 1198.38 6471.93 1187.29 6476.6 1177.96C6481.43 1168.46 6488.18 1161.13 6496.85 1155.96C6505.51 1150.79 6515.76 1148.21 6527.6 1148.21C6539.43 1148.21 6549.68 1150.79 6558.35 1155.96C6567.01 1161.13 6573.68 1168.46 6578.35 1177.96C6583.18 1187.29 6585.6 1198.38 6585.6 1211.21C6585.6 1224.04 6583.18 1235.21 6578.35 1244.71C6573.68 1254.04 6567.01 1261.29 6558.35 1266.46C6549.68 1271.63 6539.43 1274.21 6527.6 1274.21ZM6527.6 1257.96C6539.1 1257.96 6548.18 1253.96 6554.85 1245.96C6561.68 1237.79 6565.1 1226.13 6565.1 1210.96C6565.1 1195.96 6561.68 1184.46 6554.85 1176.46C6548.18 1168.46 6539.1 1164.46 6527.6 1164.46C6516.26 1164.46 6507.18 1168.46 6500.35 1176.46C6493.51 1184.46 6490.1 1195.96 6490.1 1210.96C6490.1 1226.13 6493.51 1237.79 6500.35 1245.96C6507.18 1253.96 6516.26 1257.96 6527.6 1257.96ZM6616.01 1271.96V1150.46H6635.76V1179.21H6633.26C6636.1 1169.38 6641.01 1161.96 6648.01 1156.96C6655.01 1151.79 6664.26 1148.79 6675.76 1147.96L6683.01 1147.21L6684.51 1164.71L6671.76 1166.21C6660.43 1167.21 6651.68 1170.88 6645.51 1177.21C6639.51 1183.38 6636.51 1191.88 6636.51 1202.71V1271.96H6616.01ZM3299.1 1956.21C3292.77 1956.21 3286.6 1955.54 3280.6 1954.21C3274.77 1953.04 3269.27 1951.38 3264.1 1949.21C3259.1 1946.88 3254.77 1944.13 3251.1 1940.96L3257.6 1926.71C3261.6 1929.88 3265.93 1932.54 3270.6 1934.71C3275.27 1936.71 3280.02 1938.21 3284.85 1939.21C3289.68 1940.21 3294.6 1940.71 3299.6 1940.71C3309.1 1940.71 3316.27 1938.96 3321.1 1935.46C3325.93 1931.96 3328.35 1927.21 3328.35 1921.21C3328.35 1916.54 3326.77 1912.88 3323.6 1910.21C3320.43 1907.38 3315.43 1905.21 3308.6 1903.71L3285.85 1898.71C3275.35 1896.54 3267.52 1892.79 3262.35 1887.46C3257.35 1882.13 3254.85 1875.21 3254.85 1866.71C3254.85 1859.21 3256.77 1852.79 3260.6 1847.46C3264.6 1841.96 3270.18 1837.71 3277.35 1834.71C3284.52 1831.71 3292.85 1830.21 3302.35 1830.21C3308.02 1830.21 3313.43 1830.79 3318.6 1831.96C3323.77 1833.13 3328.6 1834.88 3333.1 1837.21C3337.77 1839.38 3341.77 1842.13 3345.1 1845.46L3338.35 1859.71C3335.18 1856.71 3331.6 1854.21 3327.6 1852.21C3323.6 1850.04 3319.43 1848.46 3315.1 1847.46C3310.93 1846.29 3306.68 1845.71 3302.35 1845.71C3293.02 1845.71 3285.93 1847.54 3281.1 1851.21C3276.27 1854.88 3273.85 1859.71 3273.85 1865.71C3273.85 1870.38 3275.35 1874.21 3278.35 1877.21C3281.35 1880.21 3286.02 1882.38 3292.35 1883.71L3315.1 1888.46C3325.93 1890.79 3334.02 1894.54 3339.35 1899.71C3344.85 1904.71 3347.6 1911.54 3347.6 1920.21C3347.6 1927.54 3345.6 1933.96 3341.6 1939.46C3337.6 1944.79 3331.93 1948.96 3324.6 1951.96C3317.43 1954.79 3308.93 1956.21 3299.1 1956.21ZM3378.46 1953.96V1777.71H3398.71V1859.46H3395.46C3398.96 1849.79 3404.63 1842.54 3412.46 1837.71C3420.46 1832.71 3429.63 1830.21 3439.96 1830.21C3449.63 1830.21 3457.63 1831.96 3463.96 1835.46C3470.46 1838.96 3475.3 1844.29 3478.46 1851.46C3481.63 1858.46 3483.21 1867.38 3483.21 1878.21V1953.96H3462.96V1879.46C3462.96 1871.96 3461.96 1865.79 3459.96 1860.96C3458.13 1856.13 3455.13 1852.54 3450.96 1850.21C3446.96 1847.88 3441.71 1846.71 3435.21 1846.71C3427.88 1846.71 3421.46 1848.29 3415.96 1851.46C3410.46 1854.63 3406.21 1859.04 3403.21 1864.71C3400.21 1870.38 3398.71 1877.04 3398.71 1884.71V1953.96H3378.46ZM3558.8 1956.21C3550.47 1956.21 3542.97 1954.63 3536.3 1951.46C3529.8 1948.13 3524.64 1943.63 3520.8 1937.96C3516.97 1932.29 3515.05 1925.96 3515.05 1918.96C3515.05 1909.96 3517.3 1902.88 3521.8 1897.71C3526.47 1892.54 3534.05 1888.88 3544.55 1886.71C3555.22 1884.54 3569.72 1883.46 3588.05 1883.46H3599.3V1896.71H3588.3C3578.14 1896.71 3569.64 1897.04 3562.8 1897.71C3555.97 1898.38 3550.55 1899.54 3546.55 1901.21C3542.55 1902.88 3539.72 1905.04 3538.05 1907.71C3536.39 1910.38 3535.55 1913.71 3535.55 1917.71C3535.55 1924.54 3537.89 1930.13 3542.55 1934.46C3547.39 1938.79 3553.89 1940.96 3562.05 1940.96C3568.72 1940.96 3574.55 1939.38 3579.55 1936.21C3584.72 1933.04 3588.72 1928.71 3591.55 1923.21C3594.55 1917.71 3596.05 1911.38 3596.05 1904.21V1875.71C3596.05 1865.38 3593.97 1857.96 3589.8 1853.46C3585.64 1848.79 3578.8 1846.46 3569.3 1846.46C3561.97 1846.46 3554.89 1847.54 3548.05 1849.71C3541.22 1851.71 3534.22 1855.04 3527.05 1859.71L3520.05 1844.96C3524.39 1841.96 3529.3 1839.38 3534.8 1837.21C3540.3 1834.88 3546.05 1833.13 3552.05 1831.96C3558.05 1830.79 3563.8 1830.21 3569.3 1830.21C3579.8 1830.21 3588.47 1831.96 3595.3 1835.46C3602.14 1838.79 3607.22 1843.96 3610.55 1850.96C3613.89 1857.79 3615.55 1866.63 3615.55 1877.46V1953.96H3596.55V1925.71H3598.8C3597.47 1932.04 3594.89 1937.46 3591.05 1941.96C3587.39 1946.46 3582.8 1949.96 3577.3 1952.46C3571.8 1954.96 3565.64 1956.21 3558.8 1956.21ZM3696.12 1956.21C3686.29 1956.21 3678.12 1954.46 3671.62 1950.96C3665.29 1947.29 3660.45 1941.88 3657.12 1934.71C3653.95 1927.54 3652.37 1918.63 3652.37 1907.96V1832.46H3672.62V1907.71C3672.62 1914.88 3673.54 1920.88 3675.37 1925.71C3677.37 1930.38 3680.45 1933.88 3684.62 1936.21C3688.79 1938.38 3693.95 1939.46 3700.12 1939.46C3707.12 1939.46 3713.2 1937.88 3718.37 1934.71C3723.54 1931.54 3727.62 1927.13 3730.62 1921.46C3733.62 1915.79 3735.12 1909.13 3735.12 1901.46V1832.46H3755.37V1953.96H3735.62V1925.96H3738.87C3735.54 1935.79 3730.04 1943.29 3722.37 1948.46C3714.87 1953.63 3706.12 1956.21 3696.12 1956.21ZM3793.26 1953.96V1832.46H3813.01V1859.46H3810.26C3813.76 1849.79 3819.42 1842.54 3827.26 1837.71C3835.26 1832.71 3844.42 1830.21 3854.76 1830.21C3864.42 1830.21 3872.42 1831.96 3878.76 1835.46C3885.26 1838.79 3890.09 1844.04 3893.26 1851.21C3896.42 1858.38 3898.01 1867.38 3898.01 1878.21V1953.96H3877.76V1879.46C3877.76 1871.96 3876.76 1865.79 3874.76 1860.96C3872.92 1856.13 3869.92 1852.54 3865.76 1850.21C3861.76 1847.88 3856.51 1846.71 3850.01 1846.71C3842.67 1846.71 3836.26 1848.29 3830.76 1851.46C3825.26 1854.63 3821.01 1859.04 3818.01 1864.71C3815.01 1870.38 3813.51 1877.04 3813.51 1884.71V1953.96H3793.26ZM4037.6 1994.71C4021.6 1994.71 4007.1 1992.13 3994.1 1986.96C3981.1 1981.96 3969.93 1974.71 3960.6 1965.21C3951.26 1955.71 3944.1 1944.29 3939.1 1930.96C3934.1 1917.46 3931.6 1902.38 3931.6 1885.71C3931.6 1869.38 3934.18 1854.46 3939.35 1840.96C3944.68 1827.46 3952.18 1815.88 3961.85 1806.21C3971.68 1796.38 3983.26 1788.79 3996.6 1783.46C4009.93 1778.13 4024.68 1775.46 4040.85 1775.46C4060.18 1775.46 4077.1 1779.38 4091.6 1787.21C4106.1 1794.88 4117.35 1805.63 4125.35 1819.46C4133.51 1833.29 4137.6 1849.46 4137.6 1867.96C4137.6 1882.46 4135.6 1895.04 4131.6 1905.71C4127.6 1916.38 4122.01 1924.63 4114.85 1930.46C4107.85 1936.29 4099.6 1939.21 4090.1 1939.21C4080.1 1939.21 4072.51 1936.38 4067.35 1930.71C4062.35 1924.88 4060.18 1917.04 4060.85 1907.21L4065.6 1908.46C4061.43 1918.46 4055.51 1926.13 4047.85 1931.46C4040.18 1936.63 4032.1 1939.21 4023.6 1939.21C4010.76 1939.21 4000.76 1935.21 3993.6 1927.21C3986.6 1919.04 3983.1 1907.88 3983.1 1893.71C3983.1 1881.54 3985.43 1870.71 3990.1 1861.21C3994.76 1851.54 4001.18 1843.96 4009.35 1838.46C4017.51 1832.96 4026.76 1830.21 4037.1 1830.21C4046.1 1830.21 4053.51 1832.46 4059.35 1836.96C4065.18 1841.46 4068.93 1847.79 4070.6 1855.96H4067.85L4071.85 1832.46H4088.35L4077.1 1897.21C4076.76 1899.38 4076.51 1901.46 4076.35 1903.46C4076.18 1905.46 4076.1 1907.29 4076.1 1908.96C4076.1 1914.46 4077.35 1918.63 4079.85 1921.46C4082.35 1924.29 4086.1 1925.71 4091.1 1925.71C4097.6 1925.71 4103.18 1923.29 4107.85 1918.46C4112.68 1913.63 4116.43 1906.88 4119.1 1898.21C4121.93 1889.54 4123.35 1879.46 4123.35 1867.96C4123.35 1852.13 4119.85 1838.38 4112.85 1826.71C4106.01 1815.04 4096.43 1805.96 4084.1 1799.46C4071.76 1792.96 4057.26 1789.71 4040.6 1789.71C4022.1 1789.71 4005.85 1793.71 3991.85 1801.71C3977.85 1809.71 3966.93 1820.96 3959.1 1835.46C3951.26 1849.79 3947.35 1866.54 3947.35 1885.71C3947.35 1905.54 3951.01 1922.54 3958.35 1936.71C3965.85 1950.88 3976.35 1961.71 3989.85 1969.21C4003.35 1976.88 4019.26 1980.71 4037.6 1980.71C4051.1 1980.71 4063.26 1978.54 4074.1 1974.21C4085.1 1970.04 4094.18 1964.13 4101.35 1956.46L4109.6 1968.46C4104.26 1974.13 4097.85 1978.88 4090.35 1982.71C4083.01 1986.71 4074.85 1989.71 4065.85 1991.71C4057.01 1993.71 4047.6 1994.71 4037.6 1994.71ZM4025.85 1924.71C4033.35 1924.71 4039.93 1922.46 4045.6 1917.96C4051.43 1913.46 4056.01 1907.29 4059.35 1899.46C4062.68 1891.63 4064.35 1882.71 4064.35 1872.71C4064.35 1863.38 4062.26 1856.38 4058.1 1851.71C4053.93 1847.04 4047.51 1844.71 4038.85 1844.71C4031.51 1844.71 4024.93 1846.79 4019.1 1850.96C4013.26 1855.13 4008.6 1860.88 4005.1 1868.21C4001.76 1875.54 4000.1 1884.04 4000.1 1893.71C4000.1 1903.71 4002.35 1911.38 4006.85 1916.71C4011.35 1922.04 4017.68 1924.71 4025.85 1924.71ZM4233.42 1956.21C4222.42 1956.21 4212.92 1953.38 4204.92 1947.71C4197.09 1942.04 4191.84 1934.46 4189.17 1924.96H4191.67V1953.96H4171.92V1777.71H4192.17V1860.71H4189.17C4192 1851.38 4197.34 1843.96 4205.17 1838.46C4213 1832.96 4222.42 1830.21 4233.42 1830.21C4244.42 1830.21 4253.92 1832.79 4261.92 1837.96C4269.92 1842.96 4276.09 1850.21 4280.42 1859.71C4284.92 1869.04 4287.17 1880.21 4287.17 1893.21C4287.17 1906.04 4284.92 1917.21 4280.42 1926.71C4276.09 1936.04 4269.84 1943.29 4261.67 1948.46C4253.67 1953.63 4244.25 1956.21 4233.42 1956.21ZM4229.17 1939.96C4240.67 1939.96 4249.75 1935.96 4256.42 1927.96C4263.25 1919.79 4266.67 1908.21 4266.67 1893.21C4266.67 1878.04 4263.25 1866.46 4256.42 1858.46C4249.75 1850.46 4240.67 1846.46 4229.17 1846.46C4217.84 1846.46 4208.75 1850.46 4201.92 1858.46C4195.09 1866.46 4191.67 1878.04 4191.67 1893.21C4191.67 1908.21 4195.09 1919.79 4201.92 1927.96C4208.75 1935.96 4217.84 1939.96 4229.17 1939.96ZM4317.67 1953.96V1832.46H4337.42V1861.21H4334.92C4337.76 1851.38 4342.67 1843.96 4349.67 1838.96C4356.67 1833.79 4365.92 1830.79 4377.42 1829.96L4384.67 1829.21L4386.17 1846.71L4373.42 1848.21C4362.09 1849.21 4353.34 1852.88 4347.17 1859.21C4341.17 1865.38 4338.17 1873.88 4338.17 1884.71V1953.96H4317.67ZM4404.77 1802.21V1779.46H4429.77V1802.21H4404.77ZM4407.27 1953.96V1832.46H4427.52V1953.96H4407.27ZM4460.13 1953.96V1940.46L4533.38 1842.96V1848.21H4460.13V1832.46H4552.13V1845.96L4478.13 1943.96V1938.21H4554.88V1953.96H4460.13ZM4624.91 1956.21C4614.07 1956.21 4604.57 1953.63 4596.41 1948.46C4588.41 1943.29 4582.16 1936.04 4577.66 1926.71C4573.32 1917.21 4571.16 1906.04 4571.16 1893.21C4571.16 1880.21 4573.32 1869.04 4577.66 1859.71C4582.16 1850.21 4588.41 1842.96 4596.41 1837.96C4604.57 1832.79 4614.07 1830.21 4624.91 1830.21C4635.91 1830.21 4645.32 1832.96 4653.16 1838.46C4660.99 1843.96 4666.24 1851.38 4668.91 1860.71H4666.16V1777.71H4686.41V1953.96H4666.66V1924.96H4669.16C4666.49 1934.46 4661.16 1942.04 4653.16 1947.71C4645.32 1953.38 4635.91 1956.21 4624.91 1956.21ZM4629.16 1939.96C4640.66 1939.96 4649.74 1935.96 4656.41 1927.96C4663.24 1919.79 4666.66 1908.21 4666.66 1893.21C4666.66 1878.04 4663.24 1866.46 4656.41 1858.46C4649.74 1850.46 4640.66 1846.46 4629.16 1846.46C4617.82 1846.46 4608.74 1850.46 4601.91 1858.46C4595.07 1866.46 4591.66 1878.04 4591.66 1893.21C4591.66 1908.21 4595.07 1919.79 4601.91 1927.96C4608.74 1935.96 4617.82 1939.96 4629.16 1939.96ZM4774.91 1956.21C4763.08 1956.21 4752.83 1953.63 4744.16 1948.46C4735.49 1943.29 4728.74 1936.04 4723.91 1926.71C4719.24 1917.21 4716.91 1906.04 4716.91 1893.21C4716.91 1880.38 4719.24 1869.29 4723.91 1859.96C4728.74 1850.46 4735.49 1843.13 4744.16 1837.96C4752.83 1832.79 4763.08 1830.21 4774.91 1830.21C4786.74 1830.21 4796.99 1832.79 4805.66 1837.96C4814.33 1843.13 4820.99 1850.46 4825.66 1859.96C4830.49 1869.29 4832.91 1880.38 4832.91 1893.21C4832.91 1906.04 4830.49 1917.21 4825.66 1926.71C4820.99 1936.04 4814.33 1943.29 4805.66 1948.46C4796.99 1953.63 4786.74 1956.21 4774.91 1956.21ZM4774.91 1939.96C4786.41 1939.96 4795.49 1935.96 4802.16 1927.96C4808.99 1919.79 4812.41 1908.13 4812.41 1892.96C4812.41 1877.96 4808.99 1866.46 4802.16 1858.46C4795.49 1850.46 4786.41 1846.46 4774.91 1846.46C4763.58 1846.46 4754.49 1850.46 4747.66 1858.46C4740.83 1866.46 4737.41 1877.96 4737.41 1892.96C4737.41 1908.13 4740.83 1919.79 4747.66 1927.96C4754.49 1935.96 4763.58 1939.96 4774.91 1939.96ZM4913.83 1956.21C4901.99 1956.21 4891.74 1953.63 4883.08 1948.46C4874.41 1943.29 4867.66 1936.04 4862.83 1926.71C4858.16 1917.21 4855.83 1906.04 4855.83 1893.21C4855.83 1880.38 4858.16 1869.29 4862.83 1859.96C4867.66 1850.46 4874.41 1843.13 4883.08 1837.96C4891.74 1832.79 4901.99 1830.21 4913.83 1830.21C4925.66 1830.21 4935.91 1832.79 4944.58 1837.96C4953.24 1843.13 4959.91 1850.46 4964.58 1859.96C4969.41 1869.29 4971.83 1880.38 4971.83 1893.21C4971.83 1906.04 4969.41 1917.21 4964.58 1926.71C4959.91 1936.04 4953.24 1943.29 4944.58 1948.46C4935.91 1953.63 4925.66 1956.21 4913.83 1956.21ZM4913.83 1939.96C4925.33 1939.96 4934.41 1935.96 4941.08 1927.96C4947.91 1919.79 4951.33 1908.13 4951.33 1892.96C4951.33 1877.96 4947.91 1866.46 4941.08 1858.46C4934.41 1850.46 4925.33 1846.46 4913.83 1846.46C4902.49 1846.46 4893.41 1850.46 4886.58 1858.46C4879.74 1866.46 4876.33 1877.96 4876.33 1892.96C4876.33 1908.13 4879.74 1919.79 4886.58 1927.96C4893.41 1935.96 4902.49 1939.96 4913.83 1939.96ZM5002.24 1953.96V1832.46H5021.99V1861.21H5019.49C5022.33 1851.38 5027.24 1843.96 5034.24 1838.96C5041.24 1833.79 5050.49 1830.79 5061.99 1829.96L5069.24 1829.21L5070.74 1846.71L5057.99 1848.21C5046.66 1849.21 5037.91 1852.88 5031.74 1859.21C5025.74 1865.38 5022.74 1873.88 5022.74 1884.71V1953.96H5002.24ZM5131.62 1956.21C5125.29 1956.21 5119.12 1955.54 5113.12 1954.21C5107.29 1953.04 5101.79 1951.38 5096.62 1949.21C5091.62 1946.88 5087.29 1944.13 5083.62 1940.96L5090.12 1926.71C5094.12 1929.88 5098.45 1932.54 5103.12 1934.71C5107.79 1936.71 5112.54 1938.21 5117.37 1939.21C5122.2 1940.21 5127.12 1940.71 5132.12 1940.71C5141.62 1940.71 5148.79 1938.96 5153.62 1935.46C5158.45 1931.96 5160.87 1927.21 5160.87 1921.21C5160.87 1916.54 5159.29 1912.88 5156.12 1910.21C5152.95 1907.38 5147.95 1905.21 5141.12 1903.71L5118.37 1898.71C5107.87 1896.54 5100.04 1892.79 5094.87 1887.46C5089.87 1882.13 5087.37 1875.21 5087.37 1866.71C5087.37 1859.21 5089.29 1852.79 5093.12 1847.46C5097.12 1841.96 5102.7 1837.71 5109.87 1834.71C5117.04 1831.71 5125.37 1830.21 5134.87 1830.21C5140.54 1830.21 5145.95 1830.79 5151.12 1831.96C5156.29 1833.13 5161.12 1834.88 5165.62 1837.21C5170.29 1839.38 5174.29 1842.13 5177.62 1845.46L5170.87 1859.71C5167.7 1856.71 5164.12 1854.21 5160.12 1852.21C5156.12 1850.04 5151.95 1848.46 5147.62 1847.46C5143.45 1846.29 5139.2 1845.71 5134.87 1845.71C5125.54 1845.71 5118.45 1847.54 5113.62 1851.21C5108.79 1854.88 5106.37 1859.71 5106.37 1865.71C5106.37 1870.38 5107.87 1874.21 5110.87 1877.21C5113.87 1880.21 5118.54 1882.38 5124.87 1883.71L5147.62 1888.46C5158.45 1890.79 5166.54 1894.54 5171.87 1899.71C5177.37 1904.71 5180.12 1911.54 5180.12 1920.21C5180.12 1927.54 5178.12 1933.96 5174.12 1939.46C5170.12 1944.79 5164.45 1948.96 5157.12 1951.96C5149.95 1954.79 5141.45 1956.21 5131.62 1956.21ZM5206.51 1953.96V1928.46H5232.01V1953.96H5206.51ZM5312.53 1956.21C5300.36 1956.21 5289.86 1953.54 5281.03 1948.21C5272.2 1942.88 5265.36 1935.46 5260.53 1925.96C5255.86 1916.29 5253.53 1905.13 5253.53 1892.46C5253.53 1879.63 5255.86 1868.54 5260.53 1859.21C5265.36 1849.88 5272.2 1842.71 5281.03 1837.71C5289.86 1832.71 5300.36 1830.21 5312.53 1830.21C5320.03 1830.21 5327.45 1831.54 5334.78 1834.21C5342.11 1836.88 5348.2 1840.63 5353.03 1845.46L5346.03 1860.21C5341.2 1855.54 5335.86 1852.13 5330.03 1849.96C5324.36 1847.79 5318.95 1846.71 5313.78 1846.71C5301.11 1846.71 5291.36 1850.71 5284.53 1858.71C5277.7 1866.54 5274.28 1877.88 5274.28 1892.71C5274.28 1907.21 5277.7 1918.71 5284.53 1927.21C5291.36 1935.54 5301.11 1939.71 5313.78 1939.71C5318.95 1939.71 5324.36 1938.63 5330.03 1936.46C5335.86 1934.29 5341.2 1930.79 5346.03 1925.96L5353.03 1940.71C5348.2 1945.54 5342.03 1949.38 5334.53 1952.21C5327.2 1954.88 5319.86 1956.21 5312.53 1956.21ZM5424.81 1956.21C5412.98 1956.21 5402.73 1953.63 5394.06 1948.46C5385.4 1943.29 5378.65 1936.04 5373.81 1926.71C5369.15 1917.21 5366.81 1906.04 5366.81 1893.21C5366.81 1880.38 5369.15 1869.29 5373.81 1859.96C5378.65 1850.46 5385.4 1843.13 5394.06 1837.96C5402.73 1832.79 5412.98 1830.21 5424.81 1830.21C5436.65 1830.21 5446.9 1832.79 5455.56 1837.96C5464.23 1843.13 5470.9 1850.46 5475.56 1859.96C5480.4 1869.29 5482.81 1880.38 5482.81 1893.21C5482.81 1906.04 5480.4 1917.21 5475.56 1926.71C5470.9 1936.04 5464.23 1943.29 5455.56 1948.46C5446.9 1953.63 5436.65 1956.21 5424.81 1956.21ZM5424.81 1939.96C5436.31 1939.96 5445.4 1935.96 5452.06 1927.96C5458.9 1919.79 5462.31 1908.13 5462.31 1892.96C5462.31 1877.96 5458.9 1866.46 5452.06 1858.46C5445.4 1850.46 5436.31 1846.46 5424.81 1846.46C5413.48 1846.46 5404.4 1850.46 5397.56 1858.46C5390.73 1866.46 5387.31 1877.96 5387.31 1892.96C5387.31 1908.13 5390.73 1919.79 5397.56 1927.96C5404.4 1935.96 5413.48 1939.96 5424.81 1939.96ZM5513.73 1953.96V1832.46H5533.48V1859.46H5530.73C5532.73 1853.29 5535.65 1848.04 5539.48 1843.71C5543.48 1839.21 5548.15 1835.88 5553.48 1833.71C5558.98 1831.38 5564.98 1830.21 5571.48 1830.21C5581.81 1830.21 5590.15 1832.71 5596.48 1837.71C5602.98 1842.54 5607.31 1850.13 5609.48 1860.46H5605.73C5608.73 1851.13 5614.06 1843.79 5621.73 1838.46C5629.56 1832.96 5638.65 1830.21 5648.98 1830.21C5658.15 1830.21 5665.65 1831.96 5671.48 1835.46C5677.48 1838.96 5681.98 1844.29 5684.98 1851.46C5687.98 1858.46 5689.48 1867.38 5689.48 1878.21V1953.96H5669.23V1879.21C5669.23 1868.04 5667.31 1859.88 5663.48 1854.71C5659.65 1849.38 5653.15 1846.71 5643.98 1846.71C5637.48 1846.71 5631.73 1848.29 5626.73 1851.46C5621.9 1854.63 5618.15 1859.13 5615.48 1864.96C5612.98 1870.63 5611.73 1877.38 5611.73 1885.21V1953.96H5591.48V1879.21C5591.48 1868.04 5589.48 1859.88 5585.48 1854.71C5581.65 1849.38 5575.23 1846.71 5566.23 1846.71C5559.56 1846.71 5553.81 1848.29 5548.98 1851.46C5544.15 1854.63 5540.4 1859.13 5537.73 1864.96C5535.23 1870.63 5533.98 1877.38 5533.98 1885.21V1953.96H5513.73ZM5724.09 1953.96V1928.46H5749.59V1953.96H5724.09ZM5821.5 1956.21C5813.16 1956.21 5805.66 1954.63 5799 1951.46C5792.5 1948.13 5787.33 1943.63 5783.5 1937.96C5779.66 1932.29 5777.75 1925.96 5777.75 1918.96C5777.75 1909.96 5780 1902.88 5784.5 1897.71C5789.16 1892.54 5796.75 1888.88 5807.25 1886.71C5817.91 1884.54 5832.41 1883.46 5850.75 1883.46H5862V1896.71H5851C5840.83 1896.71 5832.33 1897.04 5825.5 1897.71C5818.66 1898.38 5813.25 1899.54 5809.25 1901.21C5805.25 1902.88 5802.41 1905.04 5800.75 1907.71C5799.08 1910.38 5798.25 1913.71 5798.25 1917.71C5798.25 1924.54 5800.58 1930.13 5805.25 1934.46C5810.08 1938.79 5816.58 1940.96 5824.75 1940.96C5831.41 1940.96 5837.25 1939.38 5842.25 1936.21C5847.41 1933.04 5851.41 1928.71 5854.25 1923.21C5857.25 1917.71 5858.75 1911.38 5858.75 1904.21V1875.71C5858.75 1865.38 5856.66 1857.96 5852.5 1853.46C5848.33 1848.79 5841.5 1846.46 5832 1846.46C5824.66 1846.46 5817.58 1847.54 5810.75 1849.71C5803.91 1851.71 5796.91 1855.04 5789.75 1859.71L5782.75 1844.96C5787.08 1841.96 5792 1839.38 5797.5 1837.21C5803 1834.88 5808.75 1833.13 5814.75 1831.96C5820.75 1830.79 5826.5 1830.21 5832 1830.21C5842.5 1830.21 5851.16 1831.96 5858 1835.46C5864.83 1838.79 5869.91 1843.96 5873.25 1850.96C5876.58 1857.79 5878.25 1866.63 5878.25 1877.46V1953.96H5859.25V1925.71H5861.5C5860.16 1932.04 5857.58 1937.46 5853.75 1941.96C5850.08 1946.46 5845.5 1949.96 5840 1952.46C5834.5 1954.96 5828.33 1956.21 5821.5 1956.21ZM5958.82 1956.21C5948.98 1956.21 5940.82 1954.46 5934.32 1950.96C5927.98 1947.29 5923.15 1941.88 5919.82 1934.71C5916.65 1927.54 5915.07 1918.63 5915.07 1907.96V1832.46H5935.32V1907.71C5935.32 1914.88 5936.23 1920.88 5938.07 1925.71C5940.07 1930.38 5943.15 1933.88 5947.32 1936.21C5951.48 1938.38 5956.65 1939.46 5962.82 1939.46C5969.82 1939.46 5975.9 1937.88 5981.07 1934.71C5986.23 1931.54 5990.32 1927.13 5993.32 1921.46C5996.32 1915.79 5997.82 1909.13 5997.82 1901.46V1832.46H6018.07V1953.96H5998.32V1925.96H6001.57C5998.23 1935.79 5992.73 1943.29 5985.07 1948.46C5977.57 1953.63 5968.82 1956.21 5958.82 1956.21ZM3319.6 2297.21C3308.6 2297.21 3299.1 2294.38 3291.1 2288.71C3283.27 2283.04 3278.02 2275.46 3275.35 2265.96H3277.85V2294.96H3258.1V2118.71H3278.35V2201.71H3275.35C3278.18 2192.38 3283.52 2184.96 3291.35 2179.46C3299.18 2173.96 3308.6 2171.21 3319.6 2171.21C3330.6 2171.21 3340.1 2173.79 3348.1 2178.96C3356.1 2183.96 3362.27 2191.21 3366.6 2200.71C3371.1 2210.04 3373.35 2221.21 3373.35 2234.21C3373.35 2247.04 3371.1 2258.21 3366.6 2267.71C3362.27 2277.04 3356.02 2284.29 3347.85 2289.46C3339.85 2294.63 3330.43 2297.21 3319.6 2297.21ZM3315.35 2280.96C3326.85 2280.96 3335.93 2276.96 3342.6 2268.96C3349.43 2260.79 3352.85 2249.21 3352.85 2234.21C3352.85 2219.04 3349.43 2207.46 3342.6 2199.46C3335.93 2191.46 3326.85 2187.46 3315.35 2187.46C3304.02 2187.46 3294.93 2191.46 3288.1 2199.46C3281.27 2207.46 3277.85 2219.04 3277.85 2234.21C3277.85 2249.21 3281.27 2260.79 3288.1 2268.96C3294.93 2276.96 3304.02 2280.96 3315.35 2280.96ZM3403.85 2294.96V2173.46H3423.6V2202.21H3421.1C3423.94 2192.38 3428.85 2184.96 3435.85 2179.96C3442.85 2174.79 3452.1 2171.79 3463.6 2170.96L3470.85 2170.21L3472.35 2187.71L3459.6 2189.21C3448.27 2190.21 3439.52 2193.88 3433.35 2200.21C3427.35 2206.38 3424.35 2214.88 3424.35 2225.71V2294.96H3403.85ZM3490.95 2143.21V2120.46H3515.95V2143.21H3490.95ZM3493.45 2294.96V2173.46H3513.7V2294.96H3493.45ZM3546.31 2294.96V2281.46L3619.56 2183.96V2189.21H3546.31V2173.46H3638.31V2186.96L3564.31 2284.96V2279.21H3641.06V2294.96H3546.31ZM3711.09 2297.21C3700.26 2297.21 3690.76 2294.63 3682.59 2289.46C3674.59 2284.29 3668.34 2277.04 3663.84 2267.71C3659.51 2258.21 3657.34 2247.04 3657.34 2234.21C3657.34 2221.21 3659.51 2210.04 3663.84 2200.71C3668.34 2191.21 3674.59 2183.96 3682.59 2178.96C3690.76 2173.79 3700.26 2171.21 3711.09 2171.21C3722.09 2171.21 3731.51 2173.96 3739.34 2179.46C3747.17 2184.96 3752.42 2192.38 3755.09 2201.71H3752.34V2118.71H3772.59V2294.96H3752.84V2265.96H3755.34C3752.67 2275.46 3747.34 2283.04 3739.34 2288.71C3731.51 2294.38 3722.09 2297.21 3711.09 2297.21ZM3715.34 2280.96C3726.84 2280.96 3735.92 2276.96 3742.59 2268.96C3749.42 2260.79 3752.84 2249.21 3752.84 2234.21C3752.84 2219.04 3749.42 2207.46 3742.59 2199.46C3735.92 2191.46 3726.84 2187.46 3715.34 2187.46C3704.01 2187.46 3694.92 2191.46 3688.09 2199.46C3681.26 2207.46 3677.84 2219.04 3677.84 2234.21C3677.84 2249.21 3681.26 2260.79 3688.09 2268.96C3694.92 2276.96 3704.01 2280.96 3715.34 2280.96ZM3861.09 2297.21C3849.26 2297.21 3839.01 2294.63 3830.34 2289.46C3821.68 2284.29 3814.93 2277.04 3810.09 2267.71C3805.43 2258.21 3803.09 2247.04 3803.09 2234.21C3803.09 2221.38 3805.43 2210.29 3810.09 2200.96C3814.93 2191.46 3821.68 2184.13 3830.34 2178.96C3839.01 2173.79 3849.26 2171.21 3861.09 2171.21C3872.93 2171.21 3883.18 2173.79 3891.84 2178.96C3900.51 2184.13 3907.18 2191.46 3911.84 2200.96C3916.68 2210.29 3919.09 2221.38 3919.09 2234.21C3919.09 2247.04 3916.68 2258.21 3911.84 2267.71C3907.18 2277.04 3900.51 2284.29 3891.84 2289.46C3883.18 2294.63 3872.93 2297.21 3861.09 2297.21ZM3861.09 2280.96C3872.59 2280.96 3881.68 2276.96 3888.34 2268.96C3895.18 2260.79 3898.59 2249.13 3898.59 2233.96C3898.59 2218.96 3895.18 2207.46 3888.34 2199.46C3881.68 2191.46 3872.59 2187.46 3861.09 2187.46C3849.76 2187.46 3840.68 2191.46 3833.84 2199.46C3827.01 2207.46 3823.59 2218.96 3823.59 2233.96C3823.59 2249.13 3827.01 2260.79 3833.84 2268.96C3840.68 2276.96 3849.76 2280.96 3861.09 2280.96ZM4000.01 2297.21C3988.17 2297.21 3977.92 2294.63 3969.26 2289.46C3960.59 2284.29 3953.84 2277.04 3949.01 2267.71C3944.34 2258.21 3942.01 2247.04 3942.01 2234.21C3942.01 2221.38 3944.34 2210.29 3949.01 2200.96C3953.84 2191.46 3960.59 2184.13 3969.26 2178.96C3977.92 2173.79 3988.17 2171.21 4000.01 2171.21C4011.84 2171.21 4022.09 2173.79 4030.76 2178.96C4039.42 2184.13 4046.09 2191.46 4050.76 2200.96C4055.59 2210.29 4058.01 2221.38 4058.01 2234.21C4058.01 2247.04 4055.59 2258.21 4050.76 2267.71C4046.09 2277.04 4039.42 2284.29 4030.76 2289.46C4022.09 2294.63 4011.84 2297.21 4000.01 2297.21ZM4000.01 2280.96C4011.51 2280.96 4020.59 2276.96 4027.26 2268.96C4034.09 2260.79 4037.51 2249.13 4037.51 2233.96C4037.51 2218.96 4034.09 2207.46 4027.26 2199.46C4020.59 2191.46 4011.51 2187.46 4000.01 2187.46C3988.67 2187.46 3979.59 2191.46 3972.76 2199.46C3965.92 2207.46 3962.51 2218.96 3962.51 2233.96C3962.51 2249.13 3965.92 2260.79 3972.76 2268.96C3979.59 2276.96 3988.67 2280.96 4000.01 2280.96ZM4088.42 2294.96V2173.46H4108.17V2202.21H4105.67C4108.51 2192.38 4113.42 2184.96 4120.42 2179.96C4127.42 2174.79 4136.67 2171.79 4148.17 2170.96L4155.42 2170.21L4156.92 2187.71L4144.17 2189.21C4132.84 2190.21 4124.09 2193.88 4117.92 2200.21C4111.92 2206.38 4108.92 2214.88 4108.92 2225.71V2294.96H4088.42ZM4217.8 2297.21C4211.47 2297.21 4205.3 2296.54 4199.3 2295.21C4193.47 2294.04 4187.97 2292.38 4182.8 2290.21C4177.8 2287.88 4173.47 2285.13 4169.8 2281.96L4176.3 2267.71C4180.3 2270.88 4184.64 2273.54 4189.3 2275.71C4193.97 2277.71 4198.72 2279.21 4203.55 2280.21C4208.39 2281.21 4213.3 2281.71 4218.3 2281.71C4227.8 2281.71 4234.97 2279.96 4239.8 2276.46C4244.64 2272.96 4247.05 2268.21 4247.05 2262.21C4247.05 2257.54 4245.47 2253.88 4242.3 2251.21C4239.14 2248.38 4234.14 2246.21 4227.3 2244.71L4204.55 2239.71C4194.05 2237.54 4186.22 2233.79 4181.05 2228.46C4176.05 2223.13 4173.55 2216.21 4173.55 2207.71C4173.55 2200.21 4175.47 2193.79 4179.3 2188.46C4183.3 2182.96 4188.89 2178.71 4196.05 2175.71C4203.22 2172.71 4211.55 2171.21 4221.05 2171.21C4226.72 2171.21 4232.14 2171.79 4237.3 2172.96C4242.47 2174.13 4247.3 2175.88 4251.8 2178.21C4256.47 2180.38 4260.47 2183.13 4263.8 2186.46L4257.05 2200.71C4253.89 2197.71 4250.3 2195.21 4246.3 2193.21C4242.3 2191.04 4238.14 2189.46 4233.8 2188.46C4229.64 2187.29 4225.39 2186.71 4221.05 2186.71C4211.72 2186.71 4204.64 2188.54 4199.8 2192.21C4194.97 2195.88 4192.55 2200.71 4192.55 2206.71C4192.55 2211.38 4194.05 2215.21 4197.05 2218.21C4200.05 2221.21 4204.72 2223.38 4211.05 2224.71L4233.8 2229.46C4244.64 2231.79 4252.72 2235.54 4258.05 2240.71C4263.55 2245.71 4266.3 2252.54 4266.3 2261.21C4266.3 2268.54 4264.3 2274.96 4260.3 2280.46C4256.3 2285.79 4250.64 2289.96 4243.3 2292.96C4236.14 2295.79 4227.64 2297.21 4217.8 2297.21ZM4292.69 2294.96V2269.46H4318.19V2294.96H4292.69ZM4398.71 2297.21C4386.55 2297.21 4376.05 2294.54 4367.21 2289.21C4358.38 2283.88 4351.55 2276.46 4346.71 2266.96C4342.05 2257.29 4339.71 2246.13 4339.71 2233.46C4339.71 2220.63 4342.05 2209.54 4346.71 2200.21C4351.55 2190.88 4358.38 2183.71 4367.21 2178.71C4376.05 2173.71 4386.55 2171.21 4398.71 2171.21C4406.21 2171.21 4413.63 2172.54 4420.96 2175.21C4428.3 2177.88 4434.38 2181.63 4439.21 2186.46L4432.21 2201.21C4427.38 2196.54 4422.05 2193.13 4416.21 2190.96C4410.55 2188.79 4405.13 2187.71 4399.96 2187.71C4387.3 2187.71 4377.55 2191.71 4370.71 2199.71C4363.88 2207.54 4360.46 2218.88 4360.46 2233.71C4360.46 2248.21 4363.88 2259.71 4370.71 2268.21C4377.55 2276.54 4387.3 2280.71 4399.96 2280.71C4405.13 2280.71 4410.55 2279.63 4416.21 2277.46C4422.05 2275.29 4427.38 2271.79 4432.21 2266.96L4439.21 2281.71C4434.38 2286.54 4428.21 2290.38 4420.71 2293.21C4413.38 2295.88 4406.05 2297.21 4398.71 2297.21ZM4510.99 2297.21C4499.16 2297.21 4488.91 2294.63 4480.24 2289.46C4471.58 2284.29 4464.83 2277.04 4459.99 2267.71C4455.33 2258.21 4452.99 2247.04 4452.99 2234.21C4452.99 2221.38 4455.33 2210.29 4459.99 2200.96C4464.83 2191.46 4471.58 2184.13 4480.24 2178.96C4488.91 2173.79 4499.16 2171.21 4510.99 2171.21C4522.83 2171.21 4533.08 2173.79 4541.74 2178.96C4550.41 2184.13 4557.08 2191.46 4561.74 2200.96C4566.58 2210.29 4568.99 2221.38 4568.99 2234.21C4568.99 2247.04 4566.58 2258.21 4561.74 2267.71C4557.08 2277.04 4550.41 2284.29 4541.74 2289.46C4533.08 2294.63 4522.83 2297.21 4510.99 2297.21ZM4510.99 2280.96C4522.49 2280.96 4531.58 2276.96 4538.24 2268.96C4545.08 2260.79 4548.49 2249.13 4548.49 2233.96C4548.49 2218.96 4545.08 2207.46 4538.24 2199.46C4531.58 2191.46 4522.49 2187.46 4510.99 2187.46C4499.66 2187.46 4490.58 2191.46 4483.74 2199.46C4476.91 2207.46 4473.49 2218.96 4473.49 2233.96C4473.49 2249.13 4476.91 2260.79 4483.74 2268.96C4490.58 2276.96 4499.66 2280.96 4510.99 2280.96ZM4599.91 2294.96V2173.46H4619.66V2200.46H4616.91C4618.91 2194.29 4621.83 2189.04 4625.66 2184.71C4629.66 2180.21 4634.33 2176.88 4639.66 2174.71C4645.16 2172.38 4651.16 2171.21 4657.66 2171.21C4667.99 2171.21 4676.33 2173.71 4682.66 2178.71C4689.16 2183.54 4693.49 2191.13 4695.66 2201.46H4691.91C4694.91 2192.13 4700.24 2184.79 4707.91 2179.46C4715.74 2173.96 4724.83 2171.21 4735.16 2171.21C4744.33 2171.21 4751.83 2172.96 4757.66 2176.46C4763.66 2179.96 4768.16 2185.29 4771.16 2192.46C4774.16 2199.46 4775.66 2208.38 4775.66 2219.21V2294.96H4755.41V2220.21C4755.41 2209.04 4753.49 2200.88 4749.66 2195.71C4745.83 2190.38 4739.33 2187.71 4730.16 2187.71C4723.66 2187.71 4717.91 2189.29 4712.91 2192.46C4708.08 2195.63 4704.33 2200.13 4701.66 2205.96C4699.16 2211.63 4697.91 2218.38 4697.91 2226.21V2294.96H4677.66V2220.21C4677.66 2209.04 4675.66 2200.88 4671.66 2195.71C4667.83 2190.38 4661.41 2187.71 4652.41 2187.71C4645.74 2187.71 4639.99 2189.29 4635.16 2192.46C4630.33 2195.63 4626.58 2200.13 4623.91 2205.96C4621.41 2211.63 4620.16 2218.38 4620.16 2226.21V2294.96H4599.91ZM4810.27 2294.96V2269.46H4835.77V2294.96H4810.27ZM4907.68 2297.21C4899.35 2297.21 4891.85 2295.63 4885.18 2292.46C4878.68 2289.13 4873.51 2284.63 4869.68 2278.96C4865.85 2273.29 4863.93 2266.96 4863.93 2259.96C4863.93 2250.96 4866.18 2243.88 4870.68 2238.71C4875.35 2233.54 4882.93 2229.88 4893.43 2227.71C4904.1 2225.54 4918.6 2224.46 4936.93 2224.46H4948.18V2237.71H4937.18C4927.01 2237.71 4918.51 2238.04 4911.68 2238.71C4904.85 2239.38 4899.43 2240.54 4895.43 2242.21C4891.43 2243.88 4888.6 2246.04 4886.93 2248.71C4885.26 2251.38 4884.43 2254.71 4884.43 2258.71C4884.43 2265.54 4886.76 2271.13 4891.43 2275.46C4896.26 2279.79 4902.76 2281.96 4910.93 2281.96C4917.6 2281.96 4923.43 2280.38 4928.43 2277.21C4933.6 2274.04 4937.6 2269.71 4940.43 2264.21C4943.43 2258.71 4944.93 2252.38 4944.93 2245.21V2216.71C4944.93 2206.38 4942.85 2198.96 4938.68 2194.46C4934.51 2189.79 4927.68 2187.46 4918.18 2187.46C4910.85 2187.46 4903.76 2188.54 4896.93 2190.71C4890.1 2192.71 4883.1 2196.04 4875.93 2200.71L4868.93 2185.96C4873.26 2182.96 4878.18 2180.38 4883.68 2178.21C4889.18 2175.88 4894.93 2174.13 4900.93 2172.96C4906.93 2171.79 4912.68 2171.21 4918.18 2171.21C4928.68 2171.21 4937.35 2172.96 4944.18 2176.46C4951.01 2179.79 4956.1 2184.96 4959.43 2191.96C4962.76 2198.79 4964.43 2207.63 4964.43 2218.46V2294.96H4945.43V2266.71H4947.68C4946.35 2273.04 4943.76 2278.46 4939.93 2282.96C4936.26 2287.46 4931.68 2290.96 4926.18 2293.46C4920.68 2295.96 4914.51 2297.21 4907.68 2297.21ZM5045 2297.21C5035.16 2297.21 5027 2295.46 5020.5 2291.96C5014.16 2288.29 5009.33 2282.88 5006 2275.71C5002.83 2268.54 5001.25 2259.63 5001.25 2248.96V2173.46H5021.5V2248.71C5021.5 2255.88 5022.41 2261.88 5024.25 2266.71C5026.25 2271.38 5029.33 2274.88 5033.5 2277.21C5037.66 2279.38 5042.83 2280.46 5049 2280.46C5056 2280.46 5062.08 2278.88 5067.25 2275.71C5072.41 2272.54 5076.5 2268.13 5079.5 2262.46C5082.5 2256.79 5084 2250.13 5084 2242.46V2173.46H5104.25V2294.96H5084.5V2266.96H5087.75C5084.41 2276.79 5078.91 2284.29 5071.25 2289.46C5063.75 2294.63 5055 2297.21 5045 2297.21Z" fill="#7D7D7D"/>
<line x1="2570.86" y1="2558.38" x2="2570.86" y2="503.53" stroke="#7D7D7D" stroke-width="10"/>
</svg>
