<svg width="1500" height="415" viewBox="0 0 1500 415" fill="none" xmlns="http://www.w3.org/2000/svg">
<path d="M1343.03 293.79C1336.89 293.79 1330.92 293.144 1325.11 291.852C1319.46 290.723 1314.13 289.108 1309.13 287.01C1304.28 284.75 1300.09 282.086 1296.54 279.019L1302.83 265.218C1306.71 268.285 1310.9 270.867 1315.42 272.966C1319.94 274.903 1324.54 276.356 1329.22 277.324C1333.91 278.293 1338.67 278.777 1343.51 278.777C1352.71 278.777 1359.65 277.082 1364.33 273.692C1369.02 270.302 1371.36 265.702 1371.36 259.891C1371.36 255.371 1369.82 251.819 1366.76 249.237C1363.69 246.492 1358.85 244.394 1352.23 242.941L1330.19 238.098C1320.02 236 1312.44 232.368 1307.43 227.202C1302.59 222.037 1300.17 215.338 1300.17 207.105C1300.17 199.841 1302.02 193.626 1305.74 188.461C1309.61 183.134 1315.02 179.017 1321.96 176.112C1328.9 173.206 1336.97 171.753 1346.17 171.753C1351.66 171.753 1356.91 172.318 1361.91 173.448C1366.92 174.578 1371.6 176.273 1375.96 178.533C1380.48 180.632 1384.35 183.295 1387.58 186.524L1381.04 200.325C1377.97 197.42 1374.5 194.998 1370.63 193.061C1366.76 190.963 1362.72 189.429 1358.52 188.461C1354.49 187.331 1350.37 186.766 1346.17 186.766C1337.13 186.766 1330.27 188.541 1325.59 192.093C1320.91 195.644 1318.57 200.325 1318.57 206.137C1318.57 210.656 1320.02 214.369 1322.93 217.275C1325.83 220.18 1330.35 222.279 1336.49 223.57L1358.52 228.171C1369.02 230.431 1376.84 234.063 1382.01 239.067C1387.34 243.91 1390 250.528 1390 258.922C1390 266.025 1388.06 272.24 1384.19 277.567C1380.31 282.732 1374.83 286.768 1367.72 289.673C1360.78 292.417 1352.55 293.79 1343.03 293.79Z" fill="#7D7D7D"/>
<path d="M1222.56 291.611V173.933H1241.69V201.778H1239.27C1242.01 192.254 1246.77 185.071 1253.55 180.228C1260.33 175.224 1269.29 172.319 1280.43 171.512L1287.45 170.785L1288.9 187.735L1276.56 189.187C1265.58 190.156 1257.1 193.707 1251.13 199.841C1245.32 205.814 1242.41 214.047 1242.41 224.539V291.611H1222.56Z" fill="#7D7D7D"/>
<path d="M1141.77 293.79C1130.31 293.79 1120.38 291.288 1111.99 286.283C1103.59 281.279 1097.05 274.257 1092.37 265.218C1087.85 256.016 1085.59 245.201 1085.59 232.771C1085.59 220.342 1087.85 209.607 1092.37 200.568C1097.05 191.366 1103.59 184.264 1111.99 179.26C1120.38 174.255 1130.31 171.753 1141.77 171.753C1153.23 171.753 1163.16 174.255 1171.55 179.26C1179.94 184.264 1186.4 191.366 1190.92 200.568C1195.6 209.607 1197.94 220.342 1197.94 232.771C1197.94 245.201 1195.6 256.016 1190.92 265.218C1186.4 274.257 1179.94 281.279 1171.55 286.283C1163.16 291.288 1153.23 293.79 1141.77 293.79ZM1141.77 278.051C1152.91 278.051 1161.7 274.177 1168.16 266.428C1174.78 258.519 1178.09 247.219 1178.09 232.529C1178.09 218.001 1174.78 206.863 1168.16 199.115C1161.7 191.366 1152.91 187.492 1141.77 187.492C1130.79 187.492 1121.99 191.366 1115.38 199.115C1108.76 206.863 1105.45 218.001 1105.45 232.529C1105.45 247.219 1108.76 258.519 1115.38 266.428C1121.99 274.177 1130.79 278.051 1141.77 278.051Z" fill="#7D7D7D"/>
<path d="M1012.07 293.79C1000.6 293.79 990.676 291.288 982.282 286.283C973.888 281.279 967.351 274.257 962.669 265.218C958.15 256.016 955.89 245.201 955.89 232.771C955.89 220.342 958.15 209.607 962.669 200.568C967.351 191.366 973.888 184.264 982.282 179.26C990.676 174.255 1000.6 171.753 1012.07 171.753C1023.53 171.753 1033.45 174.255 1041.85 179.26C1050.24 184.264 1056.7 191.366 1061.22 200.568C1065.9 209.607 1068.24 220.342 1068.24 232.771C1068.24 245.201 1065.9 256.016 1061.22 265.218C1056.7 274.257 1050.24 281.279 1041.85 286.283C1033.45 291.288 1023.53 293.79 1012.07 293.79ZM1012.07 278.051C1023.2 278.051 1032 274.177 1038.46 266.428C1045.08 258.519 1048.39 247.219 1048.39 232.529C1048.39 218.001 1045.08 206.863 1038.46 199.115C1032 191.366 1023.2 187.492 1012.07 187.492C1001.09 187.492 992.291 191.366 985.672 199.115C979.054 206.863 975.745 218.001 975.745 232.529C975.745 247.219 979.054 258.519 985.672 266.428C992.291 274.177 1001.09 278.051 1012.07 278.051Z" fill="#7D7D7D"/>
<path d="M871.624 293.79C861.132 293.79 851.931 291.288 844.021 286.284C836.273 281.28 830.219 274.258 825.861 265.218C821.664 256.017 819.565 245.201 819.565 232.772C819.565 220.181 821.664 209.365 825.861 200.326C830.219 191.124 836.273 184.103 844.021 179.26C851.931 174.256 861.132 171.754 871.624 171.754C882.278 171.754 891.399 174.417 898.986 179.744C906.573 185.071 911.658 192.254 914.24 201.294H911.577V120.905H931.19V291.611H912.061V263.523H914.482C911.9 272.724 906.734 280.069 898.986 285.557C891.399 291.046 882.278 293.79 871.624 293.79ZM875.741 278.051C886.879 278.051 895.677 274.177 902.134 266.429C908.752 258.519 912.061 247.3 912.061 232.772C912.061 218.082 908.752 206.863 902.134 199.115C895.677 191.367 886.879 187.492 875.741 187.492C864.764 187.492 855.966 191.367 849.348 199.115C842.73 206.863 839.421 218.082 839.421 232.772C839.421 247.3 842.73 258.519 849.348 266.429C855.966 274.177 864.764 278.051 875.741 278.051Z" fill="#7D7D7D"/>
<path d="M657.159 291.61V278.535L728.105 184.102V189.187H657.159V173.933H746.265V187.008L674.593 281.925V276.356H748.928V291.61H657.159Z" fill="#7D7D7D"/>
<path d="M608.388 144.635V122.601H632.601V144.635H608.388ZM610.809 291.611V173.933H630.422V291.611H610.809Z" fill="#7D7D7D"/>
<path d="M528.871 291.611V173.933H548V201.778H545.578C548.323 192.254 553.085 185.071 559.864 180.228C566.644 175.224 575.603 172.319 586.741 171.512L593.763 170.785L595.216 187.735L582.867 189.187C571.89 190.156 563.416 193.707 557.443 199.841C551.632 205.814 548.726 214.047 548.726 224.539V291.611H528.871Z" fill="#7D7D7D"/>
<path d="M452.112 293.79C441.458 293.79 432.257 291.046 424.509 285.557C416.922 280.069 411.837 272.724 409.254 263.523H411.676V291.611H392.547V120.905H412.16V201.294H409.254C411.998 192.254 417.164 185.071 424.751 179.744C432.338 174.417 441.458 171.754 452.112 171.754C462.766 171.754 471.967 174.256 479.716 179.26C487.464 184.103 493.437 191.124 497.634 200.326C501.992 209.365 504.171 220.181 504.171 232.772C504.171 245.201 501.992 256.017 497.634 265.218C493.437 274.258 487.383 281.28 479.473 286.284C471.725 291.288 462.605 293.79 452.112 293.79ZM447.996 278.051C459.134 278.051 467.932 274.177 474.389 266.429C481.007 258.519 484.316 247.3 484.316 232.772C484.316 218.082 481.007 206.863 474.389 199.115C467.932 191.367 459.134 187.492 447.996 187.492C437.019 187.492 428.221 191.367 421.603 199.115C414.985 206.863 411.676 218.082 411.676 232.772C411.676 247.3 414.985 258.519 421.603 266.429C428.221 274.177 437.019 278.051 447.996 278.051Z" fill="#7D7D7D"/>
<path d="M206.745 71.005C226.908 66.7193 243.253 79.9554 243.253 100.568V285.319C243.253 305.932 226.908 326.117 206.745 330.402L146.508 343.206C126.345 347.492 110 334.256 110 313.643V128.892C110 108.279 126.345 88.0947 146.508 83.809L206.745 71.005ZM210.396 126.214C210.396 113.846 200.589 105.905 188.492 108.476L164.762 113.52C152.664 116.091 142.857 128.202 142.857 140.57V287.997C142.857 300.365 152.664 308.307 164.762 305.735L188.492 300.691C200.589 298.12 210.396 286.009 210.396 273.641V126.214Z" fill="#7D7D7D"/>
</svg>
