<svg width="1180" height="346" viewBox="0 0 1180 346" fill="none" xmlns="http://www.w3.org/2000/svg">
<path d="M1034.77 237.892C1030.17 237.892 1025.69 237.408 1021.33 236.44C1017.09 235.592 1013.1 234.381 1009.35 232.807C1005.71 231.113 1002.57 229.115 999.902 226.815L1004.62 216.463C1007.53 218.764 1010.68 220.701 1014.07 222.275C1017.46 223.727 1020.91 224.817 1024.42 225.543C1027.93 226.27 1031.5 226.633 1035.13 226.633C1042.03 226.633 1047.24 225.362 1050.75 222.819C1054.26 220.277 1056.02 216.827 1056.02 212.468C1056.02 209.078 1054.87 206.415 1052.57 204.478C1050.27 202.42 1046.63 200.846 1041.67 199.756L1025.14 196.124C1017.52 194.55 1011.83 191.826 1008.07 187.952C1004.44 184.078 1002.63 179.053 1002.63 172.879C1002.63 167.431 1004.02 162.77 1006.8 158.896C1009.71 154.901 1013.76 151.813 1018.97 149.634C1024.18 147.455 1030.23 146.365 1037.13 146.365C1041.25 146.365 1045.18 146.789 1048.93 147.636C1052.69 148.484 1056.2 149.755 1059.47 151.45C1062.86 153.024 1065.76 155.022 1068.18 157.443L1063.28 167.794C1060.98 165.615 1058.38 163.799 1055.47 162.346C1052.57 160.772 1049.54 159.622 1046.39 158.896C1043.37 158.048 1040.28 157.625 1037.13 157.625C1030.35 157.625 1025.21 158.956 1021.69 161.62C1018.18 164.283 1016.43 167.794 1016.43 172.153C1016.43 175.543 1017.52 178.327 1019.7 180.506C1021.88 182.686 1025.27 184.259 1029.87 185.228L1046.39 188.678C1054.26 190.373 1060.13 193.097 1064.01 196.85C1068 200.482 1070 205.446 1070 211.742C1070 217.069 1068.55 221.73 1065.64 225.725C1062.74 229.599 1058.62 232.626 1053.29 234.805C1048.09 236.863 1041.91 237.892 1034.77 237.892Z" fill="#7D7D7D"/>
<path d="M944.42 236.258V147.999H958.766V168.884H956.95C959.009 161.741 962.58 156.353 967.665 152.721C972.75 148.968 979.469 146.789 987.823 146.183L993.089 145.639L994.179 158.351L984.917 159.44C976.684 160.167 970.328 162.83 965.849 167.431C961.49 171.91 959.311 178.085 959.311 185.954V236.258H944.42Z" fill="#7D7D7D"/>
<path d="M883.826 237.892C875.23 237.892 867.784 236.016 861.489 232.263C855.193 228.51 850.29 223.243 846.779 216.463C843.389 209.563 841.694 201.451 841.694 192.129C841.694 182.807 843.389 174.756 846.779 167.976C850.29 161.075 855.193 155.748 861.489 151.995C867.784 148.242 875.23 146.365 883.826 146.365C892.422 146.365 899.867 148.242 906.163 151.995C912.458 155.748 917.301 161.075 920.691 167.976C924.202 174.756 925.957 182.807 925.957 192.129C925.957 201.451 924.202 209.563 920.691 216.463C917.301 223.243 912.458 228.51 906.163 232.263C899.867 236.016 892.422 237.892 883.826 237.892ZM883.826 226.088C892.179 226.088 898.778 223.183 903.62 217.371C908.584 211.439 911.066 202.964 911.066 191.947C911.066 181.051 908.584 172.697 903.62 166.886C898.778 161.075 892.179 158.169 883.826 158.169C875.593 158.169 868.995 161.075 864.031 166.886C859.068 172.697 856.586 181.051 856.586 191.947C856.586 202.964 859.068 211.439 864.031 217.371C868.995 223.183 875.593 226.088 883.826 226.088Z" fill="#7D7D7D"/>
<path d="M786.548 237.892C777.953 237.892 770.507 236.016 764.212 232.263C757.916 228.51 753.013 223.243 749.502 216.463C746.112 209.563 744.417 201.451 744.417 192.129C744.417 182.807 746.112 174.756 749.502 167.976C753.013 161.075 757.916 155.748 764.212 151.995C770.507 148.242 777.953 146.365 786.548 146.365C795.144 146.365 802.59 148.242 808.885 151.995C815.181 155.748 820.024 161.075 823.414 167.976C826.925 174.756 828.68 182.807 828.68 192.129C828.68 201.451 826.925 209.563 823.414 216.463C820.024 223.243 815.181 228.51 808.885 232.263C802.59 236.016 795.144 237.892 786.548 237.892ZM786.548 226.088C794.902 226.088 801.5 223.183 806.343 217.371C811.307 211.439 813.789 202.964 813.789 191.947C813.789 181.051 811.307 172.697 806.343 166.886C801.5 161.075 794.902 158.169 786.548 158.169C778.316 158.169 771.718 161.075 766.754 166.886C761.79 172.697 759.308 181.051 759.308 191.947C759.308 202.964 761.79 211.439 766.754 217.371C771.718 223.183 778.316 226.088 786.548 226.088Z" fill="#7D7D7D"/>
<path d="M681.218 237.892C673.349 237.892 666.448 236.016 660.516 232.263C654.704 228.51 650.164 223.243 646.895 216.463C643.748 209.563 642.174 201.451 642.174 192.129C642.174 182.686 643.748 174.574 646.895 167.794C650.164 160.893 654.704 155.627 660.516 151.995C666.448 148.242 673.349 146.365 681.218 146.365C689.209 146.365 696.049 148.363 701.739 152.358C707.429 156.353 711.243 161.741 713.18 168.521H711.182V108.229H725.892V236.258H711.546V215.192H713.362C711.424 222.093 707.55 227.602 701.739 231.718C696.049 235.834 689.209 237.892 681.218 237.892ZM684.305 226.088C692.659 226.088 699.257 223.183 704.1 217.371C709.064 211.439 711.546 203.025 711.546 192.129C711.546 181.112 709.064 172.697 704.1 166.886C699.257 161.075 692.659 158.169 684.305 158.169C676.073 158.169 669.475 161.075 664.511 166.886C659.547 172.697 657.065 181.112 657.065 192.129C657.065 203.025 659.547 211.439 664.511 217.371C669.475 223.183 676.073 226.088 684.305 226.088Z" fill="#7D7D7D"/>
<path d="M520.369 236.258V226.451L573.578 155.627V159.44H520.369V148H587.198V157.806L533.444 228.994V224.817H589.196V236.258H520.369Z" fill="#7D7D7D"/>
<path d="M483.79 126.026V109.5H501.95V126.026H483.79ZM485.606 236.258V147.999H500.316V236.258H485.606Z" fill="#7D7D7D"/>
<path d="M424.153 236.258V147.999H438.5V168.884H436.684C438.742 161.741 442.313 156.353 447.398 152.721C452.483 148.968 459.202 146.789 467.556 146.183L472.822 145.639L473.912 158.351L464.65 159.44C456.418 160.167 450.062 162.83 445.582 167.431C441.224 171.91 439.045 178.085 439.045 185.954V236.258H424.153Z" fill="#7D7D7D"/>
<path d="M366.584 237.892C358.594 237.892 351.693 235.834 345.882 231.718C340.191 227.602 336.378 222.093 334.441 215.192H336.257V236.258H321.91V108.229H336.62V168.521H334.441C336.499 161.741 340.373 156.353 346.063 152.358C351.753 148.363 358.594 146.365 366.584 146.365C374.575 146.365 381.475 148.242 387.287 151.995C393.098 155.627 397.577 160.893 400.725 167.794C403.994 174.574 405.628 182.686 405.628 192.129C405.628 201.451 403.994 209.563 400.725 216.463C397.577 223.243 393.037 228.51 387.105 232.263C381.294 236.016 374.453 237.892 366.584 237.892ZM363.497 226.088C371.851 226.088 378.449 223.183 383.291 217.371C388.255 211.439 390.737 203.025 390.737 192.129C390.737 181.112 388.255 172.697 383.291 166.886C378.449 161.075 371.851 158.169 363.497 158.169C355.264 158.169 348.666 161.075 343.702 166.886C338.739 172.697 336.257 181.112 336.257 192.129C336.257 203.025 338.739 211.439 343.702 217.371C348.666 223.183 355.264 226.088 363.497 226.088Z" fill="#7D7D7D"/>
<path d="M182.559 70.8036C197.681 67.5893 209.94 77.5163 209.94 92.9762V231.539C209.94 246.999 197.681 262.137 182.559 265.351L137.381 274.954C122.259 278.169 110 268.242 110 252.782V114.219C110 98.7591 122.259 83.6208 137.381 80.4065L182.559 70.8036ZM185.297 112.21C185.297 102.935 177.942 96.9782 168.869 98.9068L151.071 102.69C141.998 104.618 134.643 113.701 134.643 122.977V233.548C134.643 242.824 141.998 248.78 151.071 246.851L168.869 243.068C177.942 241.14 185.297 232.057 185.297 222.781V112.21Z" fill="#7D7D7D"/>
</svg>
