<svg width="940" height="295" viewBox="0 0 940 295" fill="none" xmlns="http://www.w3.org/2000/svg">
<path d="M803.576 195.969C800.126 195.969 796.766 195.606 793.498 194.879C790.319 194.244 787.323 193.336 784.508 192.155C781.784 190.884 779.423 189.386 777.426 187.661L780.967 179.897C783.146 181.623 785.507 183.075 788.049 184.256C790.592 185.345 793.18 186.163 795.813 186.707C798.446 187.252 801.125 187.525 803.849 187.525C809.024 187.525 812.929 186.571 815.562 184.664C818.195 182.758 819.512 180.17 819.512 176.901C819.512 174.358 818.649 172.361 816.924 170.908C815.199 169.364 812.475 168.184 808.752 167.367L796.358 164.643C790.637 163.462 786.37 161.419 783.555 158.514C780.831 155.608 779.469 151.84 779.469 147.209C779.469 143.123 780.513 139.627 782.601 136.722C784.781 133.725 787.822 131.41 791.727 129.775C795.631 128.141 800.171 127.324 805.347 127.324C808.434 127.324 811.385 127.642 814.2 128.277C817.015 128.913 819.648 129.866 822.1 131.137C824.642 132.318 826.821 133.816 828.637 135.632L824.96 143.395C823.235 141.761 821.283 140.399 819.103 139.309C816.924 138.129 814.654 137.266 812.293 136.722C810.023 136.086 807.708 135.768 805.347 135.768C800.262 135.768 796.403 136.767 793.77 138.765C791.137 140.762 789.82 143.395 789.82 146.664C789.82 149.207 790.637 151.295 792.272 152.93C793.906 154.564 796.449 155.744 799.899 156.471L812.293 159.059C818.195 160.33 822.599 162.373 825.505 165.188C828.501 167.912 829.999 171.634 829.999 176.356C829.999 180.351 828.91 183.847 826.731 186.844C824.551 189.749 821.464 192.019 817.469 193.654C813.564 195.197 808.934 195.969 803.576 195.969Z" fill="#7D7D7D"/>
<path d="M735.814 194.743V128.549H746.574V144.213H745.212C746.756 138.855 749.435 134.815 753.248 132.091C757.062 129.276 762.101 127.641 768.367 127.187L772.316 126.779L773.134 136.313L766.187 137.13C760.013 137.675 755.246 139.673 751.886 143.123C748.617 146.483 746.983 151.113 746.983 157.015V194.743H735.814Z" fill="#7D7D7D"/>
<path d="M690.37 195.969C683.923 195.969 678.339 194.562 673.617 191.747C668.896 188.932 665.218 184.982 662.585 179.897C660.043 174.722 658.771 168.638 658.771 161.646C658.771 154.655 660.043 148.616 662.585 143.532C665.218 138.356 668.896 134.361 673.617 131.546C678.339 128.731 683.923 127.324 690.37 127.324C696.817 127.324 702.401 128.731 707.123 131.546C711.844 134.361 715.477 138.356 718.019 143.532C720.652 148.616 721.969 154.655 721.969 161.646C721.969 168.638 720.652 174.722 718.019 179.897C715.477 184.982 711.844 188.932 707.123 191.747C702.401 194.562 696.817 195.969 690.37 195.969ZM690.37 187.116C696.635 187.116 701.584 184.937 705.216 180.578C708.939 176.129 710.8 169.773 710.8 161.51C710.8 153.338 708.939 147.073 705.216 142.714C701.584 138.356 696.635 136.177 690.37 136.177C684.196 136.177 679.247 138.356 675.524 142.714C671.801 147.073 669.94 153.338 669.94 161.51C669.94 169.773 671.801 176.129 675.524 180.578C679.247 184.937 684.196 187.116 690.37 187.116Z" fill="#7D7D7D"/>
<path d="M617.411 195.969C610.964 195.969 605.38 194.562 600.658 191.747C595.937 188.932 592.259 184.982 589.626 179.897C587.084 174.722 585.812 168.638 585.812 161.646C585.812 154.655 587.084 148.616 589.626 143.532C592.259 138.356 595.937 134.361 600.658 131.546C605.38 128.731 610.964 127.324 617.411 127.324C623.858 127.324 629.442 128.731 634.164 131.546C638.885 134.361 642.518 138.356 645.06 143.532C647.693 148.616 649.01 154.655 649.01 161.646C649.01 168.638 647.693 174.722 645.06 179.897C642.518 184.982 638.885 188.932 634.164 191.747C629.442 194.562 623.858 195.969 617.411 195.969ZM617.411 187.116C623.676 187.116 628.625 184.937 632.257 180.578C635.98 176.129 637.841 169.773 637.841 161.51C637.841 153.338 635.98 147.073 632.257 142.714C628.625 138.356 623.676 136.177 617.411 136.177C611.237 136.177 606.288 138.356 602.565 142.714C598.842 147.073 596.981 153.338 596.981 161.51C596.981 169.773 598.842 176.129 602.565 180.578C606.288 184.937 611.237 187.116 617.411 187.116Z" fill="#7D7D7D"/>
<path d="M538.414 195.969C532.512 195.969 527.336 194.561 522.887 191.746C518.529 188.932 515.124 184.982 512.672 179.897C510.311 174.721 509.131 168.638 509.131 161.646C509.131 154.564 510.311 148.48 512.672 143.395C515.124 138.219 518.529 134.27 522.887 131.546C527.336 128.731 532.512 127.323 538.414 127.323C544.407 127.323 549.537 128.822 553.805 131.818C558.072 134.814 560.933 138.855 562.385 143.94H560.887V98.7212H571.92V194.743H561.16V178.944H562.522C561.069 184.119 558.163 188.251 553.805 191.338C549.537 194.425 544.407 195.969 538.414 195.969ZM540.729 187.116C546.995 187.116 551.943 184.936 555.575 180.578C559.298 176.129 561.16 169.818 561.16 161.646C561.16 153.383 559.298 147.073 555.575 142.714C551.943 138.356 546.995 136.176 540.729 136.176C534.555 136.176 529.606 138.356 525.884 142.714C522.161 147.073 520.299 153.383 520.299 161.646C520.299 169.818 522.161 176.129 525.884 180.578C529.606 184.936 534.555 187.116 540.729 187.116Z" fill="#7D7D7D"/>
<path d="M417.776 194.743V187.388L457.683 134.27V137.13H417.776V128.549H467.898V135.904L427.583 189.295V186.162H469.397V194.743H417.776Z" fill="#7D7D7D"/>
<path d="M390.343 112.069V99.6748H403.963V112.069H390.343ZM391.705 194.743V128.549H402.737V194.743H391.705Z" fill="#7D7D7D"/>
<path d="M345.614 194.743V128.549H356.374V144.213H355.012C356.556 138.855 359.234 134.815 363.048 132.091C366.862 129.276 371.901 127.641 378.166 127.187L382.116 126.779L382.933 136.313L375.987 137.13C369.813 137.675 365.046 139.673 361.686 143.123C358.417 146.483 356.783 151.113 356.783 157.015V194.743H345.614Z" fill="#7D7D7D"/>
<path d="M302.438 195.969C296.445 195.969 291.27 194.425 286.911 191.338C282.644 188.251 279.783 184.119 278.33 178.944H279.693V194.743H268.933V98.7212H279.965V143.94H278.33C279.874 138.855 282.78 134.814 287.047 131.818C291.315 128.822 296.445 127.323 302.438 127.323C308.431 127.323 313.607 128.731 317.965 131.546C322.323 134.27 325.683 138.219 328.044 143.395C330.495 148.48 331.721 154.564 331.721 161.646C331.721 168.638 330.495 174.721 328.044 179.897C325.683 184.982 322.278 188.932 317.829 191.746C313.47 194.561 308.34 195.969 302.438 195.969ZM300.123 187.116C306.388 187.116 311.337 184.936 314.969 180.578C318.691 176.129 320.553 169.818 320.553 161.646C320.553 153.383 318.691 147.073 314.969 142.714C311.337 138.356 306.388 136.176 300.123 136.176C293.948 136.176 289 138.356 285.277 142.714C281.554 147.073 279.693 153.383 279.693 161.646C279.693 169.818 281.554 176.129 285.277 180.578C289 184.936 293.948 187.116 300.123 187.116Z" fill="#7D7D7D"/>
<path d="M164.419 70.6525C175.761 68.2418 184.955 75.687 184.955 87.2819V191.204C184.955 202.799 175.761 214.153 164.419 216.563L130.536 223.766C119.194 226.176 110 218.731 110 207.136V103.214C110 91.6191 119.194 80.2654 130.536 77.8547L164.419 70.6525ZM166.473 101.708C166.473 94.7507 160.956 90.2835 154.151 91.7299L140.803 94.5672C133.999 96.0136 128.482 102.826 128.482 109.783V192.711C128.482 199.667 133.999 204.135 140.803 202.688L154.151 199.851C160.956 198.405 166.473 191.592 166.473 184.635V101.708Z" fill="#7D7D7D"/>
</svg>
