<svg width="940" height="295" viewBox="0 0 940 295" fill="none" xmlns="http://www.w3.org/2000/svg">
<path d="M803.576 194.052C800.126 194.052 796.766 193.688 793.498 192.962C790.319 192.326 787.323 191.418 784.508 190.238C781.784 188.967 779.423 187.469 777.426 185.743L780.967 177.98C783.146 179.705 785.507 181.158 788.049 182.338C790.592 183.428 793.18 184.245 795.813 184.79C798.446 185.335 801.125 185.607 803.849 185.607C809.024 185.607 812.929 184.654 815.562 182.747C818.195 180.84 819.512 178.252 819.512 174.983C819.512 172.441 818.649 170.443 816.924 168.991C815.199 167.447 812.475 166.267 808.752 165.449L796.358 162.725C790.637 161.545 786.37 159.502 783.555 156.596C780.831 153.691 779.469 149.922 779.469 145.292C779.469 141.206 780.513 137.71 782.601 134.804C784.781 131.808 787.822 129.492 791.727 127.858C795.631 126.223 800.171 125.406 805.347 125.406C808.434 125.406 811.385 125.724 814.2 126.36C817.015 126.995 819.648 127.949 822.1 129.22C824.642 130.4 826.821 131.899 828.637 133.715L824.96 141.478C823.235 139.844 821.283 138.482 819.103 137.392C816.924 136.212 814.654 135.349 812.293 134.804C810.023 134.169 807.708 133.851 805.347 133.851C800.262 133.851 796.403 134.85 793.77 136.847C791.137 138.845 789.82 141.478 789.82 144.747C789.82 147.289 790.637 149.378 792.272 151.012C793.906 152.646 796.449 153.827 799.899 154.553L812.293 157.141C818.195 158.412 822.599 160.455 825.505 163.27C828.501 165.994 829.999 169.717 829.999 174.439C829.999 178.434 828.91 181.93 826.731 184.926C824.551 187.832 821.464 190.102 817.469 191.736C813.564 193.28 808.934 194.052 803.576 194.052Z" fill="#F9F9F9"/>
<path d="M735.814 192.826V126.632H746.574V142.296H745.212C746.756 136.938 749.435 132.898 753.248 130.174C757.062 127.359 762.101 125.724 768.367 125.27L772.316 124.862L773.134 134.396L766.187 135.213C760.013 135.758 755.246 137.756 751.886 141.206C748.617 144.566 746.983 149.196 746.983 155.098V192.826H735.814Z" fill="#F9F9F9"/>
<path d="M690.37 194.052C683.923 194.052 678.339 192.644 673.617 189.829C668.896 187.015 665.218 183.065 662.585 177.98C660.043 172.804 658.771 166.721 658.771 159.729C658.771 152.737 660.043 146.699 662.585 141.614C665.218 136.439 668.896 132.443 673.617 129.628C678.339 126.814 683.923 125.406 690.37 125.406C696.817 125.406 702.401 126.814 707.123 129.628C711.844 132.443 715.477 136.439 718.019 141.614C720.652 146.699 721.969 152.737 721.969 159.729C721.969 166.721 720.652 172.804 718.019 177.98C715.477 183.065 711.844 187.015 707.123 189.829C702.401 192.644 696.817 194.052 690.37 194.052ZM690.37 185.199C696.635 185.199 701.584 183.019 705.216 178.661C708.939 174.212 710.8 167.856 710.8 159.593C710.8 151.421 708.939 145.155 705.216 140.797C701.584 136.439 696.635 134.259 690.37 134.259C684.196 134.259 679.247 136.439 675.524 140.797C671.801 145.155 669.94 151.421 669.94 159.593C669.94 167.856 671.801 174.212 675.524 178.661C679.247 183.019 684.196 185.199 690.37 185.199Z" fill="#F9F9F9"/>
<path d="M617.411 194.052C610.964 194.052 605.38 192.644 600.658 189.829C595.937 187.015 592.259 183.065 589.626 177.98C587.084 172.804 585.812 166.721 585.812 159.729C585.812 152.737 587.084 146.699 589.626 141.614C592.259 136.439 595.937 132.443 600.658 129.628C605.38 126.814 610.964 125.406 617.411 125.406C623.858 125.406 629.442 126.814 634.164 129.628C638.885 132.443 642.518 136.439 645.06 141.614C647.693 146.699 649.01 152.737 649.01 159.729C649.01 166.721 647.693 172.804 645.06 177.98C642.518 183.065 638.885 187.015 634.164 189.829C629.442 192.644 623.858 194.052 617.411 194.052ZM617.411 185.199C623.676 185.199 628.625 183.019 632.257 178.661C635.98 174.212 637.841 167.856 637.841 159.593C637.841 151.421 635.98 145.155 632.257 140.797C628.625 136.439 623.676 134.259 617.411 134.259C611.237 134.259 606.288 136.439 602.565 140.797C598.842 145.155 596.981 151.421 596.981 159.593C596.981 167.856 598.842 174.212 602.565 178.661C606.288 183.019 611.237 185.199 617.411 185.199Z" fill="#F9F9F9"/>
<path d="M538.414 194.052C532.512 194.052 527.336 192.644 522.887 189.83C518.529 187.015 515.124 183.065 512.672 177.98C510.311 172.804 509.131 166.721 509.131 159.729C509.131 152.647 510.311 146.563 512.672 141.478C515.124 136.302 518.529 132.353 522.887 129.629C527.336 126.814 532.512 125.406 538.414 125.406C544.407 125.406 549.537 126.905 553.805 129.901C558.072 132.897 560.933 136.938 562.385 142.023H560.887V96.8042H571.92V192.826H561.16V177.027H562.522C561.069 182.202 558.163 186.334 553.805 189.421C549.537 192.508 544.407 194.052 538.414 194.052ZM540.729 185.199C546.995 185.199 551.943 183.019 555.575 178.661C559.298 174.212 561.16 167.901 561.16 159.729C561.16 151.466 559.298 145.156 555.575 140.797C551.943 136.439 546.995 134.259 540.729 134.259C534.555 134.259 529.606 136.439 525.884 140.797C522.161 145.156 520.299 151.466 520.299 159.729C520.299 167.901 522.161 174.212 525.884 178.661C529.606 183.019 534.555 185.199 540.729 185.199Z" fill="#F9F9F9"/>
<path d="M417.776 192.826V185.471L457.683 132.353V135.213H417.776V126.632H467.898V133.987L427.583 187.378V184.245H469.397V192.826H417.776Z" fill="#F9F9F9"/>
<path d="M390.343 110.152V97.7578H403.963V110.152H390.343ZM391.705 192.826V126.632H402.737V192.826H391.705Z" fill="#F9F9F9"/>
<path d="M345.614 192.826V126.632H356.374V142.296H355.012C356.556 136.938 359.234 132.898 363.048 130.174C366.862 127.359 371.901 125.724 378.166 125.27L382.116 124.862L382.933 134.396L375.987 135.213C369.813 135.758 365.046 137.756 361.686 141.206C358.417 144.566 356.783 149.196 356.783 155.098V192.826H345.614Z" fill="#F9F9F9"/>
<path d="M302.438 194.052C296.445 194.052 291.27 192.508 286.911 189.421C282.644 186.334 279.783 182.202 278.33 177.027H279.693V192.826H268.933V96.8042H279.965V142.023H278.33C279.874 136.938 282.78 132.897 287.047 129.901C291.315 126.905 296.445 125.406 302.438 125.406C308.431 125.406 313.607 126.814 317.965 129.629C322.323 132.353 325.683 136.302 328.044 141.478C330.495 146.563 331.721 152.647 331.721 159.729C331.721 166.721 330.495 172.804 328.044 177.98C325.683 183.065 322.278 187.015 317.829 189.83C313.47 192.644 308.34 194.052 302.438 194.052ZM300.123 185.199C306.388 185.199 311.337 183.019 314.969 178.661C318.691 174.212 320.553 167.901 320.553 159.729C320.553 151.466 318.691 145.156 314.969 140.797C311.337 136.439 306.388 134.259 300.123 134.259C293.948 134.259 289 136.439 285.277 140.797C281.554 145.156 279.693 151.466 279.693 159.729C279.693 167.901 281.554 174.212 285.277 178.661C289 183.019 293.948 185.199 300.123 185.199Z" fill="#F9F9F9"/>
<path d="M164.419 71.3717C175.761 68.961 184.955 76.4063 184.955 88.0012V191.923C184.955 203.518 175.761 214.872 164.419 217.283L130.536 224.485C119.194 226.896 110 219.45 110 207.855V103.933C110 92.3384 119.194 80.9846 130.536 78.5739L164.419 71.3717ZM168.526 99.7546C168.526 92.7977 163.01 88.3305 156.205 89.7769L138.75 93.4873C131.945 94.9337 126.429 101.746 126.429 108.703V195.83C126.429 202.786 131.945 207.254 138.75 205.807L156.205 202.097C163.01 200.65 168.526 193.838 168.526 186.881V99.7546Z" fill="#F9F9F9"/>
</svg>
