<svg width="1820" height="484" viewBox="0 0 1820 484" fill="none" xmlns="http://www.w3.org/2000/svg">
<path d="M1651.28 344.548C1643.61 344.548 1636.15 343.741 1628.88 342.127C1621.82 340.714 1615.16 338.697 1608.91 336.073C1602.86 333.249 1597.61 329.919 1593.17 326.085L1601.04 308.833C1605.88 312.667 1611.13 315.895 1616.78 318.519C1622.43 320.94 1628.18 322.756 1634.03 323.967C1639.88 325.177 1645.83 325.783 1651.89 325.783C1663.39 325.783 1672.07 323.664 1677.92 319.427C1683.77 315.189 1686.69 309.439 1686.69 302.174C1686.69 296.525 1684.78 292.086 1680.94 288.857C1677.11 285.427 1671.06 282.804 1662.78 280.988L1635.24 274.934C1622.53 272.311 1613.05 267.771 1606.79 261.314C1600.74 254.857 1597.71 246.483 1597.71 236.193C1597.71 227.113 1600.03 219.344 1604.67 212.887C1609.51 206.228 1616.27 201.083 1624.95 197.451C1633.63 193.819 1643.72 192.003 1655.22 192.003C1662.08 192.003 1668.64 192.709 1674.89 194.122C1681.15 195.534 1687 197.653 1692.45 200.478C1698.1 203.101 1702.94 206.43 1706.97 210.466L1698.8 227.718C1694.97 224.086 1690.63 221.059 1685.79 218.638C1680.94 216.015 1675.9 214.098 1670.65 212.887C1665.61 211.475 1660.46 210.768 1655.22 210.768C1643.92 210.768 1635.34 212.988 1629.49 217.427C1623.64 221.866 1620.71 227.718 1620.71 234.982C1620.71 240.632 1622.53 245.273 1626.16 248.905C1629.79 252.537 1635.44 255.16 1643.11 256.774L1670.65 262.525C1683.77 265.35 1693.56 269.89 1700.01 276.145C1706.67 282.198 1710 290.471 1710 300.964C1710 309.842 1707.58 317.611 1702.74 324.269C1697.89 330.726 1691.03 335.771 1682.15 339.403C1673.48 342.833 1663.19 344.548 1651.28 344.548Z" fill="#F9F9F9"/>
<path d="M1500.7 341.824V194.727H1524.61V229.534H1521.58C1525.01 217.629 1530.97 208.65 1539.44 202.597C1547.92 196.341 1559.11 192.709 1573.04 191.7L1581.81 190.792L1583.63 211.979L1568.19 213.795C1554.47 215.006 1543.88 219.445 1536.41 227.113C1529.15 234.579 1525.52 244.869 1525.52 257.985V341.824H1500.7Z" fill="#F9F9F9"/>
<path d="M1399.71 344.548C1385.38 344.548 1372.97 341.421 1362.48 335.165C1351.99 328.91 1343.82 320.133 1337.97 308.833C1332.32 297.332 1329.49 283.813 1329.49 268.276C1329.49 252.739 1332.32 239.32 1337.97 228.021C1343.82 216.519 1351.99 207.641 1362.48 201.386C1372.97 195.131 1385.38 192.003 1399.71 192.003C1414.04 192.003 1426.45 195.131 1436.94 201.386C1447.43 207.641 1455.5 216.519 1461.15 228.021C1467 239.32 1469.93 252.739 1469.93 268.276C1469.93 283.813 1467 297.332 1461.15 308.833C1455.5 320.133 1447.43 328.91 1436.94 335.165C1426.45 341.421 1414.04 344.548 1399.71 344.548ZM1399.71 324.875C1413.63 324.875 1424.63 320.032 1432.7 310.347C1440.97 300.459 1445.11 286.335 1445.11 267.973C1445.11 249.813 1440.97 235.89 1432.7 226.205C1424.63 216.519 1413.63 211.676 1399.71 211.676C1385.99 211.676 1374.99 216.519 1366.72 226.205C1358.45 235.89 1354.31 249.813 1354.31 267.973C1354.31 286.335 1358.45 300.459 1366.72 310.347C1374.99 320.032 1385.99 324.875 1399.71 324.875Z" fill="#F9F9F9"/>
<path d="M1237.58 344.548C1223.26 344.548 1210.85 341.421 1200.35 335.165C1189.86 328.91 1181.69 320.133 1175.84 308.833C1170.19 297.332 1167.36 283.813 1167.36 268.276C1167.36 252.739 1170.19 239.32 1175.84 228.021C1181.69 216.519 1189.86 207.641 1200.35 201.386C1210.85 195.131 1223.26 192.003 1237.58 192.003C1251.91 192.003 1264.32 195.131 1274.81 201.386C1285.3 207.641 1293.37 216.519 1299.02 228.021C1304.87 239.32 1307.8 252.739 1307.8 268.276C1307.8 283.813 1304.87 297.332 1299.02 308.833C1293.37 320.133 1285.3 328.91 1274.81 335.165C1264.32 341.421 1251.91 344.548 1237.58 344.548ZM1237.58 324.875C1251.5 324.875 1262.5 320.032 1270.57 310.347C1278.85 300.459 1282.98 286.335 1282.98 267.973C1282.98 249.813 1278.85 235.89 1270.57 226.205C1262.5 216.519 1251.5 211.676 1237.58 211.676C1223.86 211.676 1212.86 216.519 1204.59 226.205C1196.32 235.89 1192.18 249.813 1192.18 267.973C1192.18 286.335 1196.32 300.459 1204.59 310.347C1212.86 320.032 1223.86 324.875 1237.58 324.875Z" fill="#F9F9F9"/>
<path d="M1062.03 344.548C1048.92 344.548 1037.41 341.421 1027.53 335.165C1017.84 328.91 1010.27 320.133 1004.83 308.833C999.58 297.332 996.957 283.812 996.957 268.275C996.957 252.537 999.58 239.017 1004.83 227.718C1010.27 216.216 1017.84 207.439 1027.53 201.386C1037.41 195.13 1048.92 192.003 1062.03 192.003C1075.35 192.003 1086.75 195.332 1096.23 201.991C1105.72 208.65 1112.07 217.629 1115.3 228.928H1111.97V128.442H1136.49V341.824H1112.58V306.714H1115.6C1112.37 318.216 1105.92 327.397 1096.23 334.257C1086.75 341.118 1075.35 344.548 1062.03 344.548ZM1067.18 324.875C1081.1 324.875 1092.1 320.032 1100.17 310.346C1108.44 300.459 1112.58 286.436 1112.58 268.275C1112.58 249.914 1108.44 235.89 1100.17 226.204C1092.1 216.519 1081.1 211.676 1067.18 211.676C1053.46 211.676 1042.46 216.519 1034.19 226.204C1025.91 235.89 1021.78 249.914 1021.78 268.275C1021.78 286.436 1025.91 300.459 1034.19 310.346C1042.46 320.032 1053.46 324.875 1067.18 324.875Z" fill="#F9F9F9"/>
<path d="M793.948 341.824V325.48L882.63 207.439V213.795H793.948V194.727H905.33V211.071L815.74 329.717V322.756H908.66V341.824H793.948Z" fill="#F9F9F9"/>
<path d="M732.984 158.104V130.562H763.251V158.104H732.984ZM736.011 341.825V194.727H760.527V341.825H736.011Z" fill="#F9F9F9"/>
<path d="M633.589 341.824V194.727H657.5V229.534H654.473C657.903 217.629 663.856 208.65 672.331 202.597C680.805 196.341 692.004 192.709 705.927 191.7L714.704 190.792L716.52 211.979L701.084 213.795C687.363 215.006 676.77 219.445 669.304 227.113C662.04 234.579 658.408 244.869 658.408 257.985V341.824H633.589Z" fill="#F9F9F9"/>
<path d="M537.64 344.548C524.323 344.548 512.821 341.118 503.136 334.257C493.652 327.397 487.296 318.216 484.068 306.714H487.094V341.824H463.184V128.442H487.7V228.928H484.068C487.498 217.629 493.955 208.65 503.439 201.991C512.922 195.332 524.323 192.003 537.64 192.003C550.958 192.003 562.459 195.13 572.144 201.386C581.83 207.439 589.296 216.216 594.542 227.718C599.99 239.017 602.714 252.537 602.714 268.275C602.714 283.812 599.99 297.332 594.542 308.833C589.296 320.133 581.729 328.91 571.842 335.165C562.156 341.421 550.756 344.548 537.64 344.548ZM532.495 324.875C546.418 324.875 557.415 320.032 565.486 310.346C573.759 300.459 577.895 286.436 577.895 268.275C577.895 249.914 573.759 235.89 565.486 226.204C557.415 216.519 546.418 211.676 532.495 211.676C518.774 211.676 507.777 216.519 499.504 226.204C491.231 235.89 487.094 249.914 487.094 268.275C487.094 286.436 491.231 300.459 499.504 310.346C507.777 320.032 518.774 324.875 532.495 324.875Z" fill="#F9F9F9"/>
<path d="M230.932 71.9257C256.135 66.5686 276.567 83.1136 276.567 108.88V339.818C276.566 365.585 256.135 390.815 230.932 396.172L155.635 412.177C130.431 417.534 110 400.989 110 375.223V144.285C110 118.518 130.431 93.2878 155.635 87.9306L230.932 71.9257ZM240.059 134.999C240.059 119.539 227.8 109.612 212.678 112.826L173.889 121.072C158.767 124.286 146.508 139.424 146.508 154.884V348.499C146.508 363.959 158.767 373.886 173.889 370.671L212.678 362.426C227.8 359.212 240.059 344.074 240.059 328.614V134.999Z" fill="#F9F9F9"/>
</svg>
