<svg width="1180" height="205" viewBox="0 0 1180 205" fill="none" xmlns="http://www.w3.org/2000/svg">
<path d="M1024.79 185.875C1018.89 185.875 1013.14 185.253 1007.54 184.01C1002.11 182.923 996.979 181.369 992.163 179.35C987.502 177.174 983.463 174.611 980.045 171.659L986.104 158.376C989.833 161.327 993.872 163.813 998.222 165.833C1002.57 167.697 1007 169.096 1011.51 170.028C1016.01 170.96 1020.59 171.426 1025.26 171.426C1034.11 171.426 1040.79 169.795 1045.3 166.532C1049.8 163.27 1052.06 158.842 1052.06 153.249C1052.06 148.899 1050.58 145.481 1047.63 142.995C1044.68 140.354 1040.01 138.334 1033.64 136.936L1012.44 132.275C1002.65 130.255 995.348 126.759 990.532 121.788C985.871 116.816 983.541 110.369 983.541 102.445C983.541 95.4539 985.327 89.4725 988.901 84.5009C992.629 79.3739 997.834 75.4122 1004.51 72.6157C1011.2 69.8192 1018.96 68.4209 1027.82 68.4209C1033.1 68.4209 1038.15 68.9647 1042.97 70.0522C1047.78 71.1397 1052.29 72.771 1056.48 74.9461C1060.83 76.9658 1064.56 79.5293 1067.67 82.6365L1061.38 95.92C1058.43 93.1235 1055.08 90.7931 1051.36 88.9287C1047.63 86.909 1043.74 85.4331 1039.7 84.5009C1035.82 83.4134 1031.86 82.8696 1027.82 82.8696C1019.12 82.8696 1012.52 84.5786 1008.01 87.9965C1003.5 91.4145 1001.25 95.92 1001.25 101.513C1001.25 105.863 1002.65 109.437 1005.45 112.233C1008.24 115.03 1012.59 117.049 1018.5 118.292L1039.7 122.72C1049.8 124.895 1057.34 128.391 1062.31 133.207C1067.44 137.868 1070 144.238 1070 152.316C1070 159.152 1068.14 165.134 1064.41 170.261C1060.68 175.232 1055.4 179.116 1048.56 181.913C1041.88 184.554 1033.96 185.875 1024.79 185.875Z" fill="#1D1D1F"/>
<path d="M908.847 183.777V70.5183H927.257V97.3183H924.927C927.568 88.1519 932.151 81.2383 938.676 76.5775C945.201 71.7612 953.824 68.9647 964.544 68.1879L971.302 67.4888L972.701 83.8018L960.815 85.2001C950.251 86.1322 942.094 89.5502 936.346 95.454C930.753 101.202 927.956 109.126 927.956 119.224V183.777H908.847Z" fill="#1D1D1F"/>
<path d="M831.089 185.875C820.059 185.875 810.504 183.467 802.425 178.65C794.346 173.834 788.054 167.076 783.549 158.376C779.199 149.52 777.023 139.111 777.023 127.148C777.023 115.185 779.199 104.853 783.549 96.1531C788.054 87.2974 794.346 80.4615 802.425 75.6452C810.504 70.829 820.059 68.4209 831.089 68.4209C842.12 68.4209 851.675 70.829 859.754 75.6452C867.833 80.4615 874.047 87.2974 878.397 96.1531C882.903 104.853 885.156 115.185 885.156 127.148C885.156 139.111 882.903 149.52 878.397 158.376C874.047 167.076 867.833 173.834 859.754 178.65C851.675 183.467 842.12 185.875 831.089 185.875ZM831.089 170.727C841.809 170.727 850.277 166.998 856.491 159.541C862.861 151.928 866.046 141.053 866.046 126.915C866.046 112.932 862.861 102.212 856.491 94.7548C850.277 87.2974 841.809 83.5687 831.089 83.5687C820.525 83.5687 812.058 87.2974 805.688 94.7548C799.318 102.212 796.133 112.932 796.133 126.915C796.133 141.053 799.318 151.928 805.688 159.541C812.058 166.998 820.525 170.727 831.089 170.727Z" fill="#1D1D1F"/>
<path d="M706.256 185.875C695.226 185.875 685.671 183.467 677.592 178.65C669.513 173.834 663.221 167.076 658.716 158.376C654.365 149.52 652.19 139.111 652.19 127.148C652.19 115.185 654.365 104.853 658.716 96.1531C663.221 87.2974 669.513 80.4615 677.592 75.6452C685.671 70.829 695.226 68.4209 706.256 68.4209C717.287 68.4209 726.842 70.829 734.921 75.6452C743 80.4615 749.214 87.2974 753.564 96.1531C758.07 104.853 760.323 115.185 760.323 127.148C760.323 139.111 758.07 149.52 753.564 158.376C749.214 167.076 743 173.834 734.921 178.65C726.842 183.467 717.287 185.875 706.256 185.875ZM706.256 170.727C716.976 170.727 725.444 166.998 731.658 159.541C738.028 151.928 741.213 141.053 741.213 126.915C741.213 112.932 738.028 102.212 731.658 94.7548C725.444 87.2974 716.976 83.5687 706.256 83.5687C695.692 83.5687 687.225 87.2974 680.855 94.7548C674.485 102.212 671.3 112.932 671.3 126.915C671.3 141.053 674.485 151.928 680.855 159.541C687.225 166.998 695.692 170.727 706.256 170.727Z" fill="#1D1D1F"/>
<path d="M571.089 185.875C560.99 185.875 552.134 183.467 544.522 178.651C537.064 173.834 531.238 167.076 527.043 158.376C523.004 149.52 520.984 139.111 520.984 127.148C520.984 115.03 523.004 104.62 527.043 95.9201C531.238 87.0645 537.064 80.3062 544.522 75.6454C552.134 70.8291 560.99 68.421 571.089 68.421C581.343 68.421 590.121 70.9845 597.423 76.1115C604.725 81.2384 609.618 88.152 612.104 96.8523H609.541V19.4819H628.417V183.777H610.007V156.744H612.337C609.852 165.6 604.88 172.669 597.423 177.951C590.121 183.234 581.343 185.875 571.089 185.875ZM575.05 170.727C585.77 170.727 594.238 166.998 600.452 159.541C606.822 151.928 610.007 141.131 610.007 127.148C610.007 113.01 606.822 102.212 600.452 94.7549C594.238 87.2975 585.77 83.5689 575.05 83.5689C564.486 83.5689 556.019 87.2975 549.649 94.7549C543.279 102.212 540.094 113.01 540.094 127.148C540.094 141.131 543.279 151.928 549.649 159.541C556.019 166.998 564.486 170.727 575.05 170.727Z" fill="#1D1D1F"/>
<path d="M364.676 183.777V171.193L432.957 80.3059V85.1998H364.676V70.5181H450.436V83.1024L381.455 174.455V169.095H452.999V183.777H364.676Z" fill="#1D1D1F"/>
<path d="M317.736 42.3202V21.1133H341.041V42.3202H317.736ZM320.067 183.778V70.5185H338.943V183.778H320.067Z" fill="#1D1D1F"/>
<path d="M241.205 183.777V70.5183H259.616V97.3183H257.285C259.926 88.1519 264.509 81.2383 271.035 76.5775C277.56 71.7612 286.182 68.9647 296.902 68.1879L303.661 67.4888L305.059 83.8018L293.174 85.2001C282.609 86.1322 274.453 89.5502 268.704 95.454C263.111 101.202 260.315 109.126 260.315 119.224V183.777H241.205Z" fill="#1D1D1F"/>
<path d="M167.329 185.875C157.075 185.875 148.219 183.234 140.762 177.951C133.46 172.669 128.566 165.6 126.08 156.744H128.41V183.777H110V19.4819H128.877V96.8523H126.08C128.721 88.152 133.693 81.2384 140.995 76.1115C148.297 70.9845 157.075 68.421 167.329 68.421C177.583 68.421 186.438 70.8291 193.896 75.6454C201.353 80.3062 207.101 87.0645 211.141 95.9201C215.336 104.62 217.433 115.03 217.433 127.148C217.433 139.111 215.336 149.52 211.141 158.376C207.101 167.076 201.275 173.834 193.663 178.651C186.205 183.467 177.427 185.875 167.329 185.875ZM163.367 170.727C174.087 170.727 182.554 166.998 188.769 159.541C195.138 151.928 198.323 141.131 198.323 127.148C198.323 113.01 195.138 102.212 188.769 94.7549C182.554 87.2975 174.087 83.5689 163.367 83.5689C152.802 83.5689 144.335 87.2975 137.965 94.7549C131.595 102.212 128.41 113.01 128.41 127.148C128.41 141.131 131.595 151.928 137.965 159.541C144.335 166.998 152.802 170.727 163.367 170.727Z" fill="#1D1D1F"/>
</svg>
