<svg width="1820" height="316" viewBox="0 0 1820 316" fill="none" xmlns="http://www.w3.org/2000/svg">
<path d="M1634.65 296.803C1624.81 296.803 1615.23 295.768 1605.91 293.696C1596.84 291.883 1588.3 289.294 1580.27 285.928C1572.5 282.303 1565.77 278.03 1560.08 273.111L1570.17 250.971C1576.39 255.891 1583.12 260.034 1590.37 263.4C1597.62 266.508 1605 268.838 1612.51 270.392C1620.02 271.945 1627.66 272.722 1635.43 272.722C1650.19 272.722 1661.32 270.003 1668.83 264.566C1676.34 259.128 1680.09 251.748 1680.09 242.426C1680.09 235.176 1677.63 229.48 1672.71 225.337C1667.79 220.935 1660.02 217.569 1649.41 215.238L1614.06 207.47C1597.75 204.104 1585.58 198.278 1577.55 189.992C1569.79 181.706 1565.9 170.96 1565.9 157.754C1565.9 146.102 1568.88 136.133 1574.83 127.847C1581.05 119.302 1589.72 112.699 1600.86 108.038C1611.99 103.377 1624.94 101.047 1639.7 101.047C1648.5 101.047 1656.92 101.953 1664.94 103.766C1672.97 105.578 1680.48 108.297 1687.47 111.922C1694.72 115.288 1700.94 119.561 1706.12 124.74L1695.63 146.879C1690.71 142.218 1685.14 138.334 1678.93 135.227C1672.71 131.86 1666.24 129.4 1659.51 127.847C1653.03 126.034 1646.43 125.128 1639.7 125.128C1625.2 125.128 1614.19 127.976 1606.68 133.673C1599.17 139.37 1595.42 146.879 1595.42 156.2C1595.42 163.451 1597.75 169.406 1602.41 174.067C1607.07 178.728 1614.32 182.094 1624.16 184.166L1659.51 191.545C1676.34 195.17 1688.9 200.997 1697.18 209.024C1705.73 216.792 1710 227.408 1710 240.873C1710 252.266 1706.89 262.235 1700.68 270.78C1694.46 279.066 1685.66 285.54 1674.27 290.2C1663.13 294.602 1649.93 296.803 1634.65 296.803Z" fill="#1D1D1F"/>
<path d="M1441.41 293.308V104.543H1472.1V149.21H1468.21C1472.61 133.932 1480.25 122.41 1491.13 114.641C1502 106.614 1516.37 101.954 1534.24 100.659L1545.5 99.4937L1547.84 126.682L1528.03 129.012C1510.42 130.566 1496.82 136.263 1487.24 146.102C1477.92 155.683 1473.26 168.889 1473.26 185.72V293.308H1441.41Z" fill="#1D1D1F"/>
<path d="M1311.82 296.803C1293.43 296.803 1277.51 292.79 1264.04 284.763C1250.58 276.736 1240.09 265.472 1232.58 250.971C1225.33 236.212 1221.71 218.863 1221.71 198.925C1221.71 178.987 1225.33 161.768 1232.58 147.267C1240.09 132.508 1250.58 121.114 1264.04 113.087C1277.51 105.06 1293.43 101.047 1311.82 101.047C1330.2 101.047 1346.12 105.06 1359.59 113.087C1373.05 121.114 1383.41 132.508 1390.66 147.267C1398.17 161.768 1401.93 178.987 1401.93 198.925C1401.93 218.863 1398.17 236.212 1390.66 250.971C1383.41 265.472 1373.05 276.736 1359.59 284.763C1346.12 292.79 1330.2 296.803 1311.82 296.803ZM1311.82 271.557C1329.68 271.557 1343.79 265.342 1354.15 252.913C1364.77 240.226 1370.08 222.1 1370.08 198.537C1370.08 175.232 1364.77 157.366 1354.15 144.937C1343.79 132.508 1329.68 126.293 1311.82 126.293C1294.21 126.293 1280.1 132.508 1269.48 144.937C1258.86 157.366 1253.55 175.232 1253.55 198.537C1253.55 222.1 1258.86 240.226 1269.48 252.913C1280.1 265.342 1294.21 271.557 1311.82 271.557Z" fill="#1D1D1F"/>
<path d="M1103.76 296.803C1085.38 296.803 1069.45 292.79 1055.99 284.763C1042.52 276.736 1032.03 265.472 1024.53 250.971C1017.28 236.212 1013.65 218.863 1013.65 198.925C1013.65 178.987 1017.28 161.768 1024.53 147.267C1032.03 132.508 1042.52 121.114 1055.99 113.087C1069.45 105.06 1085.38 101.047 1103.76 101.047C1122.14 101.047 1138.07 105.06 1151.53 113.087C1165 121.114 1175.36 132.508 1182.61 147.267C1190.12 161.768 1193.87 178.987 1193.87 198.925C1193.87 218.863 1190.12 236.212 1182.61 250.971C1175.36 265.472 1165 276.736 1151.53 284.763C1138.07 292.79 1122.14 296.803 1103.76 296.803ZM1103.76 271.557C1121.63 271.557 1135.74 265.342 1146.1 252.913C1156.71 240.226 1162.02 222.1 1162.02 198.537C1162.02 175.232 1156.71 157.366 1146.1 144.937C1135.74 132.508 1121.63 126.293 1103.76 126.293C1086.15 126.293 1072.04 132.508 1061.42 144.937C1050.81 157.366 1045.5 175.232 1045.5 198.537C1045.5 222.1 1050.81 240.226 1061.42 252.913C1072.04 265.342 1086.15 271.557 1103.76 271.557Z" fill="#1D1D1F"/>
<path d="M878.482 296.803C861.651 296.803 846.891 292.79 834.204 284.763C821.775 276.736 812.064 265.472 805.073 250.972C798.341 236.212 794.975 218.863 794.975 198.925C794.975 178.728 798.341 161.379 805.073 146.879C812.064 132.12 821.775 120.856 834.204 113.088C846.891 105.061 861.651 101.047 878.482 101.047C895.572 101.047 910.202 105.32 922.372 113.864C934.542 122.409 942.698 133.932 946.841 148.433H942.569V19.4819H974.03V293.308H943.345V248.253H947.23C943.087 263.012 934.801 274.794 922.372 283.598C910.202 292.402 895.572 296.803 878.482 296.803ZM885.085 271.557C902.951 271.557 917.063 265.343 927.421 252.914C938.037 240.226 943.345 222.23 943.345 198.925C943.345 175.362 938.037 157.366 927.421 144.937C917.063 132.508 902.951 126.293 885.085 126.293C867.477 126.293 853.365 132.508 842.749 144.937C832.132 157.366 826.824 175.362 826.824 198.925C826.824 222.23 832.132 240.226 842.749 252.914C853.365 265.343 867.477 271.557 885.085 271.557Z" fill="#1D1D1F"/>
<path d="M534.46 293.308V272.334L648.263 120.856V129.012H534.46V104.542H677.393V125.516L562.425 277.771V268.838H681.666V293.308H534.46Z" fill="#1D1D1F"/>
<path d="M456.227 57.5461V22.2012H495.067V57.5461H456.227ZM460.111 293.308V104.543H491.571V293.308H460.111Z" fill="#1D1D1F"/>
<path d="M328.676 293.308V104.543H359.36V149.21H355.476C359.878 133.932 367.516 122.41 378.392 114.641C389.267 106.614 403.638 101.954 421.505 100.659L432.768 99.4937L435.099 126.682L415.29 129.012C397.682 130.566 384.088 136.263 374.508 146.102C365.186 155.683 360.525 168.889 360.525 185.72V293.308H328.676Z" fill="#1D1D1F"/>
<path d="M205.548 296.803C188.458 296.803 173.699 292.402 161.27 283.598C149.099 274.794 140.943 263.012 136.8 248.253H140.684V293.308H110V19.4819H141.461V148.433H136.8C141.202 133.932 149.488 122.409 161.658 113.864C173.828 105.32 188.458 101.047 205.548 101.047C222.638 101.047 237.397 105.061 249.826 113.088C262.255 120.856 271.836 132.12 278.568 146.879C285.559 161.379 289.055 178.728 289.055 198.925C289.055 218.863 285.559 236.212 278.568 250.972C271.836 265.472 262.126 276.736 249.438 284.763C237.009 292.79 222.379 296.803 205.548 296.803ZM198.945 271.557C216.812 271.557 230.924 265.343 241.281 252.914C251.897 240.226 257.206 222.23 257.206 198.925C257.206 175.362 251.897 157.366 241.281 144.937C230.924 132.508 216.812 126.293 198.945 126.293C181.337 126.293 167.225 132.508 156.609 144.937C145.992 157.366 140.684 175.362 140.684 198.925C140.684 222.23 145.992 240.226 156.609 252.914C167.225 265.343 181.337 271.557 198.945 271.557Z" fill="#1D1D1F"/>
</svg>
