<svg width="1500" height="261" viewBox="0 0 1500 261" fill="none" xmlns="http://www.w3.org/2000/svg">
<path d="M1329.72 241.339C1321.85 241.339 1314.18 240.51 1306.73 238.853C1299.48 237.403 1292.64 235.332 1286.22 232.639C1280 229.739 1274.62 226.321 1270.06 222.385L1278.14 204.674C1283.11 208.609 1288.5 211.924 1294.3 214.617C1300.1 217.102 1306 218.967 1312.01 220.21C1318.02 221.453 1324.13 222.074 1330.34 222.074C1342.15 222.074 1351.06 219.899 1357.06 215.549C1363.07 211.199 1366.07 205.295 1366.07 197.838C1366.07 192.037 1364.11 187.48 1360.17 184.166C1356.23 180.644 1350.02 177.951 1341.53 176.087L1313.25 169.872C1300.2 167.179 1290.46 162.519 1284.04 155.89C1277.83 149.261 1274.72 140.664 1274.72 130.1C1274.72 120.778 1277.1 112.803 1281.87 106.174C1286.84 99.3379 1293.78 94.0556 1302.69 90.3269C1311.59 86.5982 1321.95 84.7339 1333.76 84.7339C1340.8 84.7339 1347.53 85.4589 1353.96 86.909C1360.38 88.359 1366.39 90.5341 1371.98 93.4342C1377.78 96.1271 1382.75 99.5451 1386.89 103.688L1378.5 121.399C1374.57 117.671 1370.11 114.563 1365.14 112.078C1360.17 109.385 1354.99 107.417 1349.61 106.174C1344.43 104.724 1339.15 103.999 1333.76 103.999C1322.16 103.999 1313.35 106.277 1307.35 110.835C1301.34 115.392 1298.34 121.399 1298.34 128.857C1298.34 134.657 1300.2 139.421 1303.93 143.15C1307.66 146.879 1313.46 149.572 1321.33 151.229L1349.61 157.133C1363.07 160.033 1373.12 164.694 1379.75 171.115C1386.58 177.33 1390 185.823 1390 196.595C1390 205.709 1387.51 213.685 1382.54 220.52C1377.57 227.149 1370.53 232.328 1361.41 236.057C1352.51 239.578 1341.94 241.339 1329.72 241.339Z" fill="#1D1D1F"/>
<path d="M1175.13 238.543V87.5306H1199.68V123.264H1196.57C1200.09 111.042 1206.2 101.824 1214.9 95.6095C1223.6 89.1878 1235.1 85.4591 1249.39 84.4234L1258.4 83.4912L1260.27 105.242L1244.42 107.106C1230.33 108.349 1219.46 112.906 1211.79 120.778C1204.34 128.443 1200.61 139.007 1200.61 152.472V238.543H1175.13Z" fill="#1D1D1F"/>
<path d="M1071.45 241.339C1056.74 241.339 1044 238.128 1033.23 231.707C1022.46 225.285 1014.07 216.274 1008.06 204.674C1002.26 192.866 999.364 178.987 999.364 163.036C999.364 147.086 1002.26 133.31 1008.06 121.71C1014.07 109.903 1022.46 100.788 1033.23 94.3663C1044 87.9447 1056.74 84.7339 1071.45 84.7339C1086.16 84.7339 1098.9 87.9447 1109.67 94.3663C1120.44 100.788 1128.73 109.903 1134.53 121.71C1140.54 133.31 1143.54 147.086 1143.54 163.036C1143.54 178.987 1140.54 192.866 1134.53 204.674C1128.73 216.274 1120.44 225.285 1109.67 231.707C1098.9 238.128 1086.16 241.339 1071.45 241.339ZM1071.45 221.142C1085.75 221.142 1097.04 216.17 1105.32 206.227C1113.81 196.077 1118.06 181.576 1118.06 162.726C1118.06 144.082 1113.81 129.789 1105.32 119.846C1097.04 109.903 1085.75 104.931 1071.45 104.931C1057.37 104.931 1046.08 109.903 1037.58 119.846C1029.09 129.789 1024.84 144.082 1024.84 162.726C1024.84 181.576 1029.09 196.077 1037.58 206.227C1046.08 216.17 1057.37 221.142 1071.45 221.142Z" fill="#1D1D1F"/>
<path d="M905.008 241.339C890.3 241.339 877.561 238.128 866.789 231.707C856.017 225.285 847.628 216.274 841.62 204.674C835.82 192.866 832.92 178.987 832.92 163.036C832.92 147.086 835.82 133.31 841.62 121.71C847.628 109.903 856.017 100.788 866.789 94.3663C877.561 87.9447 890.3 84.7339 905.008 84.7339C919.716 84.7339 932.455 87.9447 943.227 94.3663C953.999 100.788 962.285 109.903 968.085 121.71C974.092 133.31 977.096 147.086 977.096 163.036C977.096 178.987 974.092 192.866 968.085 204.674C962.285 216.274 953.999 225.285 943.227 231.707C932.455 238.128 919.716 241.339 905.008 241.339ZM905.008 221.142C919.301 221.142 930.591 216.17 938.877 206.227C947.37 196.077 951.617 181.576 951.617 162.726C951.617 144.082 947.37 129.789 938.877 119.846C930.591 109.903 919.301 104.931 905.008 104.931C890.922 104.931 879.632 109.903 871.139 119.846C862.646 129.789 858.399 144.082 858.399 162.726C858.399 181.576 862.646 196.077 871.139 206.227C879.632 216.17 890.922 221.142 905.008 221.142Z" fill="#1D1D1F"/>
<path d="M724.785 241.339C711.32 241.339 699.513 238.128 689.363 231.707C679.419 225.285 671.651 216.274 666.058 204.674C660.672 192.866 657.979 178.987 657.979 163.037C657.979 146.879 660.672 133 666.058 121.4C671.651 109.592 679.419 100.581 689.363 94.3665C699.513 87.9449 711.32 84.7341 724.785 84.7341C738.457 84.7341 750.161 88.152 759.897 94.988C769.633 101.824 776.158 111.042 779.473 122.642H776.055V19.4819H801.223V238.543H776.676V202.499H779.783C776.469 214.306 769.84 223.731 759.897 230.775C750.161 237.818 738.457 241.339 724.785 241.339ZM730.068 221.142C744.361 221.142 755.651 216.17 763.937 206.227C772.43 196.077 776.676 181.68 776.676 163.037C776.676 144.186 772.43 129.789 763.937 119.846C755.651 109.903 744.361 104.931 730.068 104.931C715.981 104.931 704.692 109.903 696.199 119.846C687.705 129.789 683.459 144.186 683.459 163.037C683.459 181.68 687.705 196.077 696.199 206.227C704.692 216.17 715.981 221.142 730.068 221.142Z" fill="#1D1D1F"/>
<path d="M449.568 238.542V221.763L540.611 100.581V107.106H449.568V87.5303H563.915V104.309L471.941 226.113V218.967H567.333V238.542H449.568Z" fill="#1D1D1F"/>
<path d="M386.981 49.9331V21.6572H418.054V49.9331H386.981ZM390.089 238.543V87.5308H415.257V238.543H390.089Z" fill="#1D1D1F"/>
<path d="M284.94 238.543V87.5306H309.488V123.264H306.38C309.902 111.042 316.013 101.824 324.713 95.6095C333.413 89.1878 344.91 85.4591 359.204 84.4234L368.215 83.4912L370.079 105.242L354.232 107.106C340.146 108.349 329.27 112.906 321.606 120.778C314.149 128.443 310.42 139.007 310.42 152.472V238.543H284.94Z" fill="#1D1D1F"/>
<path d="M186.438 241.339C172.766 241.339 160.959 237.818 151.016 230.775C141.28 223.731 134.754 214.306 131.44 202.499H134.547V238.543H110V19.4819H135.169V122.642H131.44C134.962 111.042 141.59 101.824 151.326 94.988C161.062 88.152 172.766 84.7341 186.438 84.7341C200.11 84.7341 211.918 87.9449 221.861 94.3665C231.804 100.581 239.469 109.592 244.854 121.4C250.447 133 253.244 146.879 253.244 163.037C253.244 178.987 250.447 192.866 244.854 204.674C239.469 216.274 231.7 225.285 221.55 231.707C211.607 238.128 199.903 241.339 186.438 241.339ZM181.156 221.142C195.449 221.142 206.739 216.17 215.025 206.227C223.518 196.077 227.765 181.68 227.765 163.037C227.765 144.186 223.518 129.789 215.025 119.846C206.739 109.903 195.449 104.931 181.156 104.931C167.07 104.931 155.78 109.903 147.287 119.846C138.794 129.789 134.547 144.186 134.547 163.037C134.547 181.68 138.794 196.077 147.287 206.227C155.78 216.17 167.07 221.142 181.156 221.142Z" fill="#1D1D1F"/>
</svg>
