<svg width="940" height="164" viewBox="0 0 940 164" fill="none" xmlns="http://www.w3.org/2000/svg">
<path d="M796.092 144.276C791.665 144.276 787.353 143.81 783.159 142.878C779.08 142.062 775.235 140.897 771.623 139.383C768.127 137.751 765.098 135.829 762.534 133.615L767.079 123.652C769.875 125.866 772.905 127.73 776.167 129.245C779.43 130.643 782.751 131.692 786.13 132.391C789.509 133.09 792.946 133.44 796.442 133.44C803.084 133.44 808.094 132.216 811.473 129.769C814.852 127.323 816.542 124.002 816.542 119.807C816.542 116.544 815.435 113.981 813.221 112.116C811.007 110.136 807.512 108.621 802.734 107.572L786.829 104.076C779.488 102.562 774.012 99.9399 770.399 96.2112C766.904 92.4825 765.156 87.6469 765.156 81.7043C765.156 76.4608 766.496 71.9747 769.176 68.246C771.972 64.4008 775.876 61.4295 780.886 59.3321C785.897 57.2347 791.723 56.186 798.365 56.186C802.326 56.186 806.113 56.5939 809.725 57.4095C813.338 58.2252 816.717 59.4486 819.863 61.0799C823.125 62.5947 825.922 64.5173 828.252 66.8478L823.533 76.8104C821.319 74.713 818.814 72.9652 816.018 71.5669C813.221 70.0521 810.308 68.9452 807.279 68.246C804.365 67.4304 801.394 67.0225 798.365 67.0225C791.839 67.0225 786.887 68.3043 783.508 70.8678C780.129 73.4312 778.439 76.8104 778.439 81.0052C778.439 84.2678 779.488 86.9478 781.585 89.0451C783.683 91.1425 786.945 92.6573 791.373 93.5895L807.279 96.9103C814.852 98.5417 820.504 101.163 824.232 104.776C828.078 108.271 830 113.049 830 119.108C830 124.235 828.602 128.721 825.805 132.566C823.009 136.295 819.047 139.208 813.92 141.305C808.91 143.286 802.967 144.276 796.092 144.276Z" fill="#1D1D1F"/>
<path d="M709.135 142.704V57.7595H722.943V77.8595H721.195C723.176 70.9847 726.613 65.7995 731.507 62.3038C736.401 58.6916 742.868 56.5943 750.908 56.0116L755.976 55.4873L757.025 67.7221L748.111 68.7708C740.188 69.4699 734.07 72.0334 729.759 76.4612C725.564 80.7725 723.467 86.7151 723.467 94.289V142.704H709.135Z" fill="#1D1D1F"/>
<path d="M650.816 144.276C642.543 144.276 635.377 142.47 629.318 138.858C623.259 135.246 618.54 130.177 615.161 123.652C611.898 117.01 610.267 109.203 610.267 100.231C610.267 91.2591 611.898 83.5104 615.161 76.9852C618.54 70.3434 623.259 65.2165 629.318 61.6043C635.377 57.9921 642.543 56.186 650.816 56.186C659.089 56.186 666.255 57.9921 672.314 61.6043C678.373 65.2165 683.034 70.3434 686.297 76.9852C689.676 83.5104 691.366 91.2591 691.366 100.231C691.366 109.203 689.676 117.01 686.297 123.652C683.034 130.177 678.373 135.246 672.314 138.858C666.255 142.47 659.089 144.276 650.816 144.276ZM650.816 132.916C658.856 132.916 665.207 130.119 669.867 124.526C674.645 118.816 677.033 110.66 677.033 100.056C677.033 89.5695 674.645 81.5295 669.867 75.9365C665.207 70.3434 658.856 67.5469 650.816 67.5469C642.893 67.5469 636.542 70.3434 631.765 75.9365C626.987 81.5295 624.599 89.5695 624.599 100.056C624.599 110.66 626.987 118.816 631.765 124.526C636.542 130.119 642.893 132.916 650.816 132.916Z" fill="#1D1D1F"/>
<path d="M557.192 144.276C548.919 144.276 541.753 142.47 535.694 138.858C529.635 135.246 524.916 130.177 521.536 123.652C518.274 117.01 516.643 109.203 516.643 100.231C516.643 91.2591 518.274 83.5104 521.536 76.9852C524.916 70.3434 529.635 65.2165 535.694 61.6043C541.753 57.9921 548.919 56.186 557.192 56.186C565.465 56.186 572.631 57.9921 578.69 61.6043C584.749 65.2165 589.41 70.3434 592.673 76.9852C596.052 83.5104 597.742 91.2591 597.742 100.231C597.742 109.203 596.052 117.01 592.673 123.652C589.41 130.177 584.749 135.246 578.69 138.858C572.631 142.47 565.465 144.276 557.192 144.276ZM557.192 132.916C565.232 132.916 571.583 130.119 576.243 124.526C581.021 118.816 583.409 110.66 583.409 100.056C583.409 89.5695 581.021 81.5295 576.243 75.9365C571.583 70.3434 565.232 67.5469 557.192 67.5469C549.269 67.5469 542.918 70.3434 538.141 75.9365C533.363 81.5295 530.975 89.5695 530.975 100.056C530.975 110.66 533.363 118.816 538.141 124.526C542.918 130.119 549.269 132.916 557.192 132.916Z" fill="#1D1D1F"/>
<path d="M455.816 144.277C448.243 144.277 441.601 142.471 435.891 138.858C430.298 135.246 425.929 130.178 422.783 123.652C419.753 117.011 418.238 109.204 418.238 100.231C418.238 91.1428 419.753 83.3358 422.783 76.8106C425.929 70.1689 430.298 65.1002 435.891 61.6045C441.601 57.9923 448.243 56.1863 455.816 56.1863C463.507 56.1863 470.09 58.1089 475.567 61.9541C481.043 65.7993 484.714 70.9845 486.578 77.5097H484.656V19.4819H498.813V142.704H485.005V122.429H486.753C484.889 129.071 481.16 134.372 475.567 138.334C470.09 142.296 463.507 144.277 455.816 144.277ZM458.788 132.916C466.828 132.916 473.178 130.119 477.839 124.526C482.616 118.817 485.005 110.718 485.005 100.231C485.005 89.628 482.616 81.5297 477.839 75.9367C473.178 70.3436 466.828 67.5471 458.788 67.5471C450.864 67.5471 444.514 70.3436 439.737 75.9367C434.959 81.5297 432.57 89.628 432.57 100.231C432.57 110.718 434.959 118.817 439.737 124.526C444.514 130.119 450.864 132.916 458.788 132.916Z" fill="#1D1D1F"/>
<path d="M301.007 142.704V133.265L352.218 65.1001V68.7706H301.007V57.7593H365.327V67.1975L313.591 135.712V131.692H367.249V142.704H301.007Z" fill="#1D1D1F"/>
<path d="M265.802 36.6108V20.7056H283.28V36.6108H265.802ZM267.55 142.704V57.7595H281.707V142.704H267.55Z" fill="#1D1D1F"/>
<path d="M208.404 142.704V57.7595H222.212V77.8595H220.464C222.445 70.9847 225.883 65.7995 230.776 62.3038C235.67 58.6916 242.137 56.5943 250.177 56.0116L255.246 55.4873L256.295 67.7221L247.381 68.7708C239.457 69.4699 233.34 72.0334 229.029 76.4612C224.834 80.7725 222.736 86.7151 222.736 94.289V142.704H208.404Z" fill="#1D1D1F"/>
<path d="M152.996 144.277C145.306 144.277 138.664 142.296 133.071 138.334C127.595 134.372 123.924 129.071 122.06 122.429H123.808V142.704H110V19.4819H124.157V77.5097H122.06C124.041 70.9845 127.77 65.7993 133.246 61.9541C138.723 58.1089 145.306 56.1863 152.996 56.1863C160.687 56.1863 167.329 57.9923 172.922 61.6045C178.515 65.1002 182.826 70.1689 185.856 76.8106C189.002 83.3358 190.575 91.1428 190.575 100.231C190.575 109.204 189.002 117.011 185.856 123.652C182.826 130.178 178.456 135.246 172.747 138.858C167.154 142.471 160.57 144.277 152.996 144.277ZM150.025 132.916C158.065 132.916 164.416 130.119 169.076 124.526C173.854 118.817 176.243 110.718 176.243 100.231C176.243 89.628 173.854 81.5297 169.076 75.9367C164.416 70.3436 158.065 67.5471 150.025 67.5471C142.102 67.5471 135.751 70.3436 130.974 75.9367C126.197 81.5297 123.808 89.628 123.808 100.231C123.808 110.718 126.197 118.817 130.974 124.526C135.751 130.119 142.102 132.916 150.025 132.916Z" fill="#1D1D1F"/>
</svg>
