<svg width="1217" height="2189" viewBox="0 0 1217 2189" fill="none" xmlns="http://www.w3.org/2000/svg">
<path d="M833.614 76.1423C984.422 44.0871 1106.68 143.087 1106.68 297.264V1679.12C1106.68 1833.29 984.421 1984.27 833.614 2016.32L383.062 2112.09C232.255 2144.14 110 2045.14 110 1890.97V509.113C110 354.936 232.254 203.965 383.062 171.91L833.614 76.1423ZM888.226 453.55C888.226 361.044 814.873 301.643 724.389 320.876L492.287 370.214C401.803 389.447 328.45 480.028 328.45 572.535V1731.06C328.45 1823.56 401.803 1882.96 492.287 1863.73L724.389 1814.39C814.874 1795.16 888.226 1704.58 888.226 1612.07V453.55Z" fill="#F9F9F9"/>
</svg>
