<svg width="719" height="1165" viewBox="0 0 719 1165" fill="none" xmlns="http://www.w3.org/2000/svg">
<path d="M471.807 73.1288C547.211 57.1012 608.338 106.601 608.338 183.69V874.616C608.338 951.705 547.211 1027.19 471.807 1043.22L246.531 1091.1C171.127 1107.13 110 1057.63 110 980.541V289.614C110 212.526 171.127 137.04 246.531 121.013L471.807 73.1288ZM499.113 261.833C499.113 215.579 462.437 185.879 417.194 195.496L301.144 220.164C255.901 229.781 219.225 275.072 219.225 321.325V900.587C219.225 946.84 255.901 976.54 301.144 966.923L417.194 942.255C462.437 932.638 499.113 887.347 499.113 841.094V261.833Z" fill="#F9F9F9"/>
</svg>
