<svg width="267" height="237" viewBox="0 0 267 237" fill="none" xmlns="http://www.w3.org/2000/svg">
<path d="M143.919 70.3978C150.989 68.8952 156.719 73.5358 156.719 80.7628V145.537C156.719 152.764 150.988 159.841 143.919 161.344L122.8 165.833C115.731 167.335 110 162.695 110 155.468V90.6933C110 83.4662 115.731 76.3895 122.8 74.8869L143.919 70.3978ZM146.479 88.0887C146.479 83.7525 143.041 80.9681 138.799 81.8697L127.92 84.1823C123.678 85.0839 120.24 89.3299 120.24 93.6661V147.972C120.24 152.308 123.678 155.093 127.92 154.191L138.799 151.878C143.041 150.977 146.479 146.731 146.479 142.395V88.0887Z" fill="#F9F9F9"/>
</svg>
