<svg width="283" height="269" viewBox="0 0 283 269" fill="none" xmlns="http://www.w3.org/2000/svg">
<path d="M155.226 70.4919C164.651 68.4885 172.292 74.676 172.292 84.312V170.678C172.292 180.314 164.651 189.75 155.226 191.753L127.066 197.739C117.641 199.742 110 193.554 110 183.918V97.5526C110 87.9165 117.641 78.4809 127.066 76.4774L155.226 70.4919ZM158.639 94.0799C158.639 88.2983 154.055 84.5857 148.399 85.7878L133.893 88.8714C128.238 90.0734 123.653 95.7348 123.653 101.516V173.924C123.653 179.706 128.238 183.418 133.893 182.216L148.399 179.133C154.055 177.931 158.639 172.269 158.639 166.488V94.0799Z" fill="#F9F9F9"/>
</svg>
