<svg width="9210" height="3061" viewBox="0 0 9210 3061" fill="none" xmlns="http://www.w3.org/2000/svg">
<path d="M1616.03 509.594C1767.34 477.432 1890 576.762 1890 731.453V2117.91C1890 2272.61 1767.34 2424.08 1616.03 2456.24L1163.97 2552.33C1012.66 2584.49 890 2485.16 890 2330.47V944.009C890 789.318 1012.66 637.843 1163.97 605.681L1616.03 509.594ZM1643.42 923.908C1643.42 831.094 1569.83 771.498 1479.04 790.795L1300.96 828.648C1210.17 847.945 1136.58 938.829 1136.58 1031.64V2138.01C1136.58 2230.83 1210.17 2290.43 1300.96 2271.13L1479.04 2233.28C1569.83 2213.98 1643.42 2123.09 1643.42 2030.28V923.908Z" fill="#1D1D1F"/>
<path d="M3258.35 930.961V754.711H3375.6V780.211H3289.1V828.711H3370.1V854.211H3289.1V905.461H3375.6V930.961H3258.35ZM3459.3 933.461C3442.97 933.461 3430.8 929.378 3422.8 921.211C3414.8 913.044 3410.8 901.128 3410.8 885.461V832.211H3387.3V808.711H3410.8V772.211H3442.05V808.711H3479.05V832.211H3442.05V883.711C3442.05 891.711 3443.8 897.711 3447.3 901.711C3450.8 905.711 3456.47 907.711 3464.3 907.711C3466.63 907.711 3469.05 907.461 3471.55 906.961C3474.05 906.294 3476.63 905.628 3479.3 904.961L3484.05 927.961C3481.05 929.628 3477.22 930.961 3472.55 931.961C3468.05 932.961 3463.63 933.461 3459.3 933.461ZM3499.25 930.961V754.711H3530.5V833.211H3527C3530.66 824.378 3536.33 817.711 3544 813.211C3551.83 808.544 3560.66 806.211 3570.5 806.211C3580.33 806.211 3588.41 808.044 3594.75 811.711C3601.08 815.378 3605.83 820.961 3609 828.461C3612.16 835.794 3613.75 845.128 3613.75 856.461V930.961H3582.5V857.961C3582.5 851.628 3581.66 846.461 3580 842.461C3578.5 838.461 3576.08 835.544 3572.75 833.711C3569.58 831.711 3565.5 830.711 3560.5 830.711C3554.5 830.711 3549.25 832.044 3544.75 834.711C3540.25 837.211 3536.75 840.878 3534.25 845.711C3531.75 850.378 3530.5 855.878 3530.5 862.211V930.961H3499.25ZM3685.74 933.461C3676.9 933.461 3668.99 931.794 3661.99 928.461C3655.15 924.961 3649.74 920.294 3645.74 914.461C3641.9 908.628 3639.99 902.044 3639.99 894.711C3639.99 885.711 3642.32 878.628 3646.99 873.461C3651.65 868.128 3659.24 864.294 3669.74 861.961C3680.24 859.628 3694.32 858.461 3711.99 858.461H3724.49V876.461H3712.24C3704.4 876.461 3697.82 876.794 3692.49 877.461C3687.15 877.961 3682.82 878.878 3679.49 880.211C3676.32 881.378 3673.99 883.044 3672.49 885.211C3671.15 887.378 3670.49 890.044 3670.49 893.211C3670.49 898.711 3672.4 903.211 3676.24 906.711C3680.07 910.211 3685.4 911.961 3692.24 911.961C3697.74 911.961 3702.57 910.711 3706.74 908.211C3711.07 905.544 3714.49 901.961 3716.99 897.461C3719.49 892.961 3720.74 887.794 3720.74 881.961V853.211C3720.74 844.878 3718.9 838.878 3715.24 835.211C3711.57 831.544 3705.4 829.711 3696.74 829.711C3689.9 829.711 3682.9 830.794 3675.74 832.961C3668.57 834.961 3661.32 838.128 3653.99 842.461L3644.99 821.211C3649.32 818.211 3654.4 815.628 3660.24 813.461C3666.24 811.128 3672.49 809.378 3678.99 808.211C3685.65 806.878 3691.9 806.211 3697.74 806.211C3709.74 806.211 3719.57 808.044 3727.24 811.711C3735.07 815.378 3740.9 820.961 3744.74 828.461C3748.57 835.794 3750.49 845.294 3750.49 856.961V930.961H3721.24V904.961H3723.24C3722.07 910.794 3719.74 915.878 3716.24 920.211C3712.9 924.378 3708.65 927.628 3703.49 929.961C3698.32 932.294 3692.4 933.461 3685.74 933.461ZM3782.21 930.961V808.711H3812.71V833.211H3809.96C3813.62 824.378 3819.29 817.711 3826.96 813.211C3834.79 808.544 3843.62 806.211 3853.46 806.211C3863.29 806.211 3871.37 808.044 3877.71 811.711C3884.04 815.378 3888.79 820.961 3891.96 828.461C3895.12 835.794 3896.71 845.128 3896.71 856.461V930.961H3865.46V857.961C3865.46 851.628 3864.62 846.461 3862.96 842.461C3861.46 838.461 3859.04 835.544 3855.71 833.711C3852.54 831.711 3848.46 830.711 3843.46 830.711C3837.46 830.711 3832.21 832.044 3827.71 834.711C3823.21 837.211 3819.71 840.878 3817.21 845.711C3814.71 850.378 3813.46 855.878 3813.46 862.211V930.961H3782.21ZM3998.83 930.961V754.711H4030.83V828.211H4121.58V754.711H4153.58V930.961H4121.58V854.961H4030.83V930.961H3998.83ZM4229.44 933.461C4220.61 933.461 4212.69 931.794 4205.69 928.461C4198.86 924.961 4193.44 920.294 4189.44 914.461C4185.61 908.628 4183.69 902.044 4183.69 894.711C4183.69 885.711 4186.02 878.628 4190.69 873.461C4195.36 868.128 4202.94 864.294 4213.44 861.961C4223.94 859.628 4238.02 858.461 4255.69 858.461H4268.19V876.461H4255.94C4248.11 876.461 4241.52 876.794 4236.19 877.461C4230.86 877.961 4226.52 878.878 4223.19 880.211C4220.02 881.378 4217.69 883.044 4216.19 885.211C4214.86 887.378 4214.19 890.044 4214.19 893.211C4214.19 898.711 4216.11 903.211 4219.94 906.711C4223.77 910.211 4229.11 911.961 4235.94 911.961C4241.44 911.961 4246.27 910.711 4250.44 908.211C4254.77 905.544 4258.19 901.961 4260.69 897.461C4263.19 892.961 4264.44 887.794 4264.44 881.961V853.211C4264.44 844.878 4262.61 838.878 4258.94 835.211C4255.27 831.544 4249.11 829.711 4240.44 829.711C4233.61 829.711 4226.61 830.794 4219.44 832.961C4212.27 834.961 4205.02 838.128 4197.69 842.461L4188.69 821.211C4193.02 818.211 4198.11 815.628 4203.94 813.461C4209.94 811.128 4216.19 809.378 4222.69 808.211C4229.36 806.878 4235.61 806.211 4241.44 806.211C4253.44 806.211 4263.27 808.044 4270.94 811.711C4278.77 815.378 4284.61 820.961 4288.44 828.461C4292.27 835.794 4294.19 845.294 4294.19 856.961V930.961H4264.94V904.961H4266.94C4265.77 910.794 4263.44 915.878 4259.94 920.211C4256.61 924.378 4252.36 927.628 4247.19 929.961C4242.02 932.294 4236.11 933.461 4229.44 933.461ZM4325.91 930.961V808.711H4356.41V838.211H4353.91C4356.24 828.211 4360.82 820.628 4367.66 815.461C4374.49 810.128 4383.57 807.044 4394.91 806.211L4404.41 805.461L4406.41 831.961L4388.41 833.711C4378.24 834.711 4370.57 837.878 4365.41 843.211C4360.24 848.378 4357.66 855.711 4357.66 865.211V930.961H4325.91ZM4423.81 930.961V808.711H4454.31V833.211H4451.56C4455.23 824.378 4460.89 817.711 4468.56 813.211C4476.39 808.544 4485.23 806.211 4495.06 806.211C4504.89 806.211 4512.98 808.044 4519.31 811.711C4525.64 815.378 4530.39 820.961 4533.56 828.461C4536.73 835.794 4538.31 845.128 4538.31 856.461V930.961H4507.06V857.961C4507.06 851.628 4506.23 846.461 4504.56 842.461C4503.06 838.461 4500.64 835.544 4497.31 833.711C4494.14 831.711 4490.06 830.711 4485.06 830.711C4479.06 830.711 4473.81 832.044 4469.31 834.711C4464.81 837.211 4461.31 840.878 4458.81 845.711C4456.31 850.378 4455.06 855.878 4455.06 862.211V930.961H4423.81ZM4630.3 933.461C4616.47 933.461 4604.55 930.878 4594.55 925.711C4584.55 920.544 4576.8 913.211 4571.3 903.711C4565.97 894.211 4563.3 882.961 4563.3 869.961C4563.3 857.294 4565.88 846.211 4571.05 836.711C4576.38 827.211 4583.63 819.794 4592.8 814.461C4602.13 808.961 4612.72 806.211 4624.55 806.211C4636.22 806.211 4646.22 808.711 4654.55 813.711C4662.88 818.711 4669.3 825.794 4673.8 834.961C4678.47 844.128 4680.8 855.044 4680.8 867.711V876.961H4588.55V858.961H4658.8L4654.8 862.711C4654.8 851.378 4652.3 842.711 4647.3 836.711C4642.3 830.544 4635.13 827.461 4625.8 827.461C4618.8 827.461 4612.8 829.128 4607.8 832.461C4602.97 835.628 4599.22 840.211 4596.55 846.211C4594.05 852.044 4592.8 859.044 4592.8 867.211V868.961C4592.8 878.128 4594.22 885.711 4597.05 891.711C4599.88 897.711 4604.13 902.211 4609.8 905.211C4615.47 908.211 4622.47 909.711 4630.8 909.711C4637.63 909.711 4644.47 908.711 4651.3 906.711C4658.13 904.544 4664.38 901.211 4670.05 896.711L4678.8 917.711C4672.97 922.544 4665.63 926.378 4656.8 929.211C4647.97 932.044 4639.13 933.461 4630.3 933.461ZM4714.59 975.961L4740.09 919.711V932.711L4686.34 808.711H4719.59L4757.59 903.461H4750.09L4788.84 808.711H4820.34L4746.84 975.961H4714.59ZM3334.85 1274.21C3322.68 1274.21 3311.6 1272.13 3301.6 1267.96C3291.6 1263.63 3283.1 1257.54 3276.1 1249.71C3269.1 1241.88 3263.68 1232.38 3259.85 1221.21C3256.18 1210.04 3254.35 1197.54 3254.35 1183.71C3254.35 1169.71 3256.18 1157.21 3259.85 1146.21C3263.68 1135.04 3269.1 1125.63 3276.1 1117.96C3283.1 1110.13 3291.52 1104.13 3301.35 1099.96C3311.35 1095.63 3322.52 1093.46 3334.85 1093.46C3347.35 1093.46 3358.52 1095.54 3368.35 1099.71C3378.35 1103.88 3386.85 1109.88 3393.85 1117.71C3401.02 1125.54 3406.43 1135.04 3410.1 1146.21C3413.93 1157.21 3415.85 1169.63 3415.85 1183.46C3415.85 1197.46 3413.93 1210.04 3410.1 1221.21C3406.27 1232.38 3400.85 1241.88 3393.85 1249.71C3386.85 1257.54 3378.35 1263.63 3368.35 1267.96C3358.52 1272.13 3347.35 1274.21 3334.85 1274.21ZM3334.85 1255.96C3347.52 1255.96 3358.18 1253.13 3366.85 1247.46C3375.68 1241.79 3382.43 1233.54 3387.1 1222.71C3391.77 1211.88 3394.1 1198.88 3394.1 1183.71C3394.1 1168.38 3391.77 1155.38 3387.1 1144.71C3382.43 1134.04 3375.68 1125.88 3366.85 1120.21C3358.18 1114.54 3347.52 1111.71 3334.85 1111.71C3322.52 1111.71 3311.93 1114.54 3303.1 1120.21C3294.43 1125.88 3287.77 1134.13 3283.1 1144.96C3278.43 1155.63 3276.1 1168.54 3276.1 1183.71C3276.1 1198.88 3278.43 1211.88 3283.1 1222.71C3287.77 1233.38 3294.43 1241.63 3303.1 1247.46C3311.93 1253.13 3322.52 1255.96 3334.85 1255.96ZM3449.75 1316.96V1150.46H3469.5V1179.21H3467C3469.67 1169.71 3474.92 1162.21 3482.75 1156.71C3490.75 1151.04 3500.25 1148.21 3511.25 1148.21C3522.09 1148.21 3531.5 1150.79 3539.5 1155.96C3547.67 1160.96 3553.92 1168.21 3558.25 1177.71C3562.75 1187.04 3565 1198.21 3565 1211.21C3565 1224.04 3562.75 1235.21 3558.25 1244.71C3553.92 1254.04 3547.75 1261.29 3539.75 1266.46C3531.75 1271.63 3522.25 1274.21 3511.25 1274.21C3500.25 1274.21 3490.84 1271.46 3483 1265.96C3475.17 1260.29 3469.84 1252.79 3467 1243.46H3470V1316.96H3449.75ZM3507 1257.96C3518.5 1257.96 3527.59 1253.96 3534.25 1245.96C3541.09 1237.79 3544.5 1226.21 3544.5 1211.21C3544.5 1196.04 3541.09 1184.46 3534.25 1176.46C3527.59 1168.46 3518.5 1164.46 3507 1164.46C3495.67 1164.46 3486.59 1168.46 3479.75 1176.46C3472.92 1184.46 3469.5 1196.04 3469.5 1211.21C3469.5 1226.21 3472.92 1237.79 3479.75 1245.96C3486.59 1253.96 3495.67 1257.96 3507 1257.96ZM3650.25 1274.21C3637.42 1274.21 3626.34 1271.71 3617 1266.71C3607.84 1261.54 3600.67 1254.29 3595.5 1244.96C3590.5 1235.63 3588 1224.46 3588 1211.46C3588 1198.79 3590.5 1187.79 3595.5 1178.46C3600.5 1168.96 3607.34 1161.54 3616 1156.21C3624.84 1150.88 3635 1148.21 3646.5 1148.21C3657.5 1148.21 3666.92 1150.63 3674.75 1155.46C3682.59 1160.29 3688.59 1167.13 3692.75 1175.96C3697.09 1184.79 3699.25 1195.38 3699.25 1207.71V1215.46H3603.5V1202.21H3685.75L3681.75 1205.46C3681.75 1192.13 3678.75 1181.79 3672.75 1174.46C3666.92 1166.96 3658.34 1163.21 3647 1163.21C3638.5 1163.21 3631.25 1165.21 3625.25 1169.21C3619.42 1173.04 3615 1178.46 3612 1185.46C3609 1192.29 3607.5 1200.29 3607.5 1209.46V1210.96C3607.5 1221.13 3609.09 1229.71 3612.25 1236.71C3615.59 1243.71 3620.5 1249.04 3627 1252.71C3633.5 1256.21 3641.25 1257.96 3650.25 1257.96C3657.42 1257.96 3664.34 1256.88 3671 1254.71C3677.84 1252.38 3684.25 1248.63 3690.25 1243.46L3697.25 1257.71C3691.75 1262.71 3684.75 1266.71 3676.25 1269.71C3667.75 1272.71 3659.09 1274.21 3650.25 1274.21ZM3728.56 1271.96V1150.46H3748.31V1179.21H3745.81C3748.64 1169.38 3753.56 1161.96 3760.56 1156.96C3767.56 1151.79 3776.81 1148.79 3788.31 1147.96L3795.56 1147.21L3797.06 1164.71L3784.31 1166.21C3772.98 1167.21 3764.23 1170.88 3758.06 1177.21C3752.06 1183.38 3749.06 1191.88 3749.06 1202.71V1271.96H3728.56ZM3855.19 1274.21C3846.86 1274.21 3839.36 1272.63 3832.69 1269.46C3826.19 1266.13 3821.02 1261.63 3817.19 1255.96C3813.36 1250.29 3811.44 1243.96 3811.44 1236.96C3811.44 1227.96 3813.69 1220.88 3818.19 1215.71C3822.86 1210.54 3830.44 1206.88 3840.94 1204.71C3851.61 1202.54 3866.11 1201.46 3884.44 1201.46H3895.69V1214.71H3884.69C3874.52 1214.71 3866.02 1215.04 3859.19 1215.71C3852.36 1216.38 3846.94 1217.54 3842.94 1219.21C3838.94 1220.88 3836.11 1223.04 3834.44 1225.71C3832.77 1228.38 3831.94 1231.71 3831.94 1235.71C3831.94 1242.54 3834.27 1248.13 3838.94 1252.46C3843.77 1256.79 3850.27 1258.96 3858.44 1258.96C3865.11 1258.96 3870.94 1257.38 3875.94 1254.21C3881.11 1251.04 3885.11 1246.71 3887.94 1241.21C3890.94 1235.71 3892.44 1229.38 3892.44 1222.21V1193.71C3892.44 1183.38 3890.36 1175.96 3886.19 1171.46C3882.02 1166.79 3875.19 1164.46 3865.69 1164.46C3858.36 1164.46 3851.27 1165.54 3844.44 1167.71C3837.61 1169.71 3830.61 1173.04 3823.44 1177.71L3816.44 1162.96C3820.77 1159.96 3825.69 1157.38 3831.19 1155.21C3836.69 1152.88 3842.44 1151.13 3848.44 1149.96C3854.44 1148.79 3860.19 1148.21 3865.69 1148.21C3876.19 1148.21 3884.86 1149.96 3891.69 1153.46C3898.52 1156.79 3903.61 1161.96 3906.94 1168.96C3910.27 1175.79 3911.94 1184.63 3911.94 1195.46V1271.96H3892.94V1243.71H3895.19C3893.86 1250.04 3891.27 1255.46 3887.44 1259.96C3883.77 1264.46 3879.19 1267.96 3873.69 1270.46C3868.19 1272.96 3862.02 1274.21 3855.19 1274.21ZM3998.26 1274.21C3983.92 1274.21 3973.17 1270.38 3966.01 1262.71C3958.84 1255.04 3955.26 1244.13 3955.26 1229.96V1166.21H3931.51V1150.46H3955.26V1113.21H3975.51V1150.46H4014.01V1166.21H3975.51V1227.96C3975.51 1237.46 3977.51 1244.71 3981.51 1249.71C3985.51 1254.54 3992.01 1256.96 4001.01 1256.96C4003.67 1256.96 4006.34 1256.63 4009.01 1255.96C4011.67 1255.29 4014.09 1254.63 4016.26 1253.96L4019.76 1269.46C4017.59 1270.63 4014.42 1271.71 4010.26 1272.71C4006.09 1273.71 4002.09 1274.21 3998.26 1274.21ZM4034.41 1120.21V1097.46H4059.41V1120.21H4034.41ZM4036.91 1271.96V1150.46H4057.16V1271.96H4036.91ZM4145.52 1274.21C4133.68 1274.21 4123.43 1271.63 4114.77 1266.46C4106.1 1261.29 4099.35 1254.04 4094.52 1244.71C4089.85 1235.21 4087.52 1224.04 4087.52 1211.21C4087.52 1198.38 4089.85 1187.29 4094.52 1177.96C4099.35 1168.46 4106.1 1161.13 4114.77 1155.96C4123.43 1150.79 4133.68 1148.21 4145.52 1148.21C4157.35 1148.21 4167.6 1150.79 4176.27 1155.96C4184.93 1161.13 4191.6 1168.46 4196.27 1177.96C4201.1 1187.29 4203.52 1198.38 4203.52 1211.21C4203.52 1224.04 4201.1 1235.21 4196.27 1244.71C4191.6 1254.04 4184.93 1261.29 4176.27 1266.46C4167.6 1271.63 4157.35 1274.21 4145.52 1274.21ZM4145.52 1257.96C4157.02 1257.96 4166.1 1253.96 4172.77 1245.96C4179.6 1237.79 4183.02 1226.13 4183.02 1210.96C4183.02 1195.96 4179.6 1184.46 4172.77 1176.46C4166.1 1168.46 4157.02 1164.46 4145.52 1164.46C4134.18 1164.46 4125.1 1168.46 4118.27 1176.46C4111.43 1184.46 4108.02 1195.96 4108.02 1210.96C4108.02 1226.13 4111.43 1237.79 4118.27 1245.96C4125.1 1253.96 4134.18 1257.96 4145.52 1257.96ZM4233.93 1271.96V1150.46H4253.68V1177.46H4250.93C4254.43 1167.79 4260.1 1160.54 4267.93 1155.71C4275.93 1150.71 4285.1 1148.21 4295.43 1148.21C4305.1 1148.21 4313.1 1149.96 4319.43 1153.46C4325.93 1156.79 4330.76 1162.04 4333.93 1169.21C4337.1 1176.38 4338.68 1185.38 4338.68 1196.21V1271.96H4318.43V1197.46C4318.43 1189.96 4317.43 1183.79 4315.43 1178.96C4313.6 1174.13 4310.6 1170.54 4306.43 1168.21C4302.43 1165.88 4297.18 1164.71 4290.68 1164.71C4283.35 1164.71 4276.93 1166.29 4271.43 1169.46C4265.93 1172.63 4261.68 1177.04 4258.68 1182.71C4255.68 1188.38 4254.18 1195.04 4254.18 1202.71V1271.96H4233.93ZM4417.02 1274.21C4410.69 1274.21 4404.52 1273.54 4398.52 1272.21C4392.69 1271.04 4387.19 1269.38 4382.02 1267.21C4377.02 1264.88 4372.69 1262.13 4369.02 1258.96L4375.52 1244.71C4379.52 1247.88 4383.85 1250.54 4388.52 1252.71C4393.19 1254.71 4397.94 1256.21 4402.77 1257.21C4407.6 1258.21 4412.52 1258.71 4417.52 1258.71C4427.02 1258.71 4434.19 1256.96 4439.02 1253.46C4443.85 1249.96 4446.27 1245.21 4446.27 1239.21C4446.27 1234.54 4444.69 1230.88 4441.52 1228.21C4438.35 1225.38 4433.35 1223.21 4426.52 1221.71L4403.77 1216.71C4393.27 1214.54 4385.44 1210.79 4380.27 1205.46C4375.27 1200.13 4372.77 1193.21 4372.77 1184.71C4372.77 1177.21 4374.69 1170.79 4378.52 1165.46C4382.52 1159.96 4388.1 1155.71 4395.27 1152.71C4402.44 1149.71 4410.77 1148.21 4420.27 1148.21C4425.94 1148.21 4431.35 1148.79 4436.52 1149.96C4441.69 1151.13 4446.52 1152.88 4451.02 1155.21C4455.69 1157.38 4459.69 1160.13 4463.02 1163.46L4456.27 1177.71C4453.1 1174.71 4449.52 1172.21 4445.52 1170.21C4441.52 1168.04 4437.35 1166.46 4433.02 1165.46C4428.85 1164.29 4424.6 1163.71 4420.27 1163.71C4410.94 1163.71 4403.85 1165.54 4399.02 1169.21C4394.19 1172.88 4391.77 1177.71 4391.77 1183.71C4391.77 1188.38 4393.27 1192.21 4396.27 1195.21C4399.27 1198.21 4403.94 1200.38 4410.27 1201.71L4433.02 1206.46C4443.85 1208.79 4451.94 1212.54 4457.27 1217.71C4462.77 1222.71 4465.52 1229.54 4465.52 1238.21C4465.52 1245.54 4463.52 1251.96 4459.52 1257.46C4455.52 1262.79 4449.85 1266.96 4442.52 1269.96C4435.35 1272.79 4426.85 1274.21 4417.02 1274.21ZM4613.34 1274.21C4601.68 1274.21 4591.59 1272.38 4583.09 1268.71C4574.59 1264.88 4568.09 1259.63 4563.59 1252.96C4559.26 1246.29 4557.09 1238.54 4557.09 1229.71C4557.09 1222.21 4558.43 1215.46 4561.09 1209.46C4563.93 1203.29 4568.09 1197.54 4573.59 1192.21C4579.09 1186.71 4585.93 1181.29 4594.09 1175.96L4602.09 1170.71L4599.34 1174.96C4591.34 1166.29 4585.68 1158.79 4582.34 1152.46C4579.18 1145.96 4577.59 1139.29 4577.59 1132.46C4577.59 1124.79 4579.34 1118.04 4582.84 1112.21C4586.34 1106.21 4591.34 1101.63 4597.84 1098.46C4604.51 1095.13 4612.18 1093.46 4620.84 1093.46C4628.68 1093.46 4635.51 1094.96 4641.34 1097.96C4647.18 1100.79 4651.76 1104.88 4655.09 1110.21C4658.59 1115.54 4660.34 1121.88 4660.34 1129.21C4660.34 1135.21 4659.18 1140.88 4656.84 1146.21C4654.51 1151.38 4650.59 1156.63 4645.09 1161.96C4639.59 1167.13 4631.93 1172.63 4622.09 1178.46L4622.59 1173.21L4669.34 1225.71H4664.84C4668.84 1218.88 4672.01 1210.46 4674.34 1200.46C4676.84 1190.29 4678.26 1179.71 4678.59 1168.71H4696.09C4695.76 1182.54 4693.84 1195.46 4690.34 1207.46C4687.01 1219.29 4682.43 1229.79 4676.59 1238.96L4676.34 1232.96L4712.59 1271.96H4687.84L4665.34 1246.71H4670.59C4663.59 1255.38 4655.18 1262.13 4645.34 1266.96C4635.51 1271.79 4624.84 1274.21 4613.34 1274.21ZM4614.34 1257.46C4623.84 1257.46 4632.26 1255.46 4639.59 1251.46C4647.09 1247.46 4653.59 1241.63 4659.09 1233.96L4658.84 1240.21L4605.84 1182.21L4613.84 1182.96L4606.09 1187.96C4598.93 1192.63 4593.18 1197.04 4588.84 1201.21C4584.68 1205.21 4581.68 1209.38 4579.84 1213.71C4578.01 1218.04 4577.09 1222.88 4577.09 1228.21C4577.09 1237.38 4580.26 1244.54 4586.59 1249.71C4592.93 1254.88 4602.18 1257.46 4614.34 1257.46ZM4620.84 1109.21C4613.68 1109.21 4607.84 1111.29 4603.34 1115.46C4598.84 1119.63 4596.59 1125.13 4596.59 1131.96C4596.59 1135.63 4597.09 1139.04 4598.09 1142.21C4599.26 1145.21 4601.26 1148.63 4604.09 1152.46C4606.93 1156.13 4610.84 1160.88 4615.84 1166.71L4610.59 1166.96C4618.59 1161.79 4624.93 1157.29 4629.59 1153.46C4634.26 1149.46 4637.59 1145.63 4639.59 1141.96C4641.59 1138.29 4642.59 1134.38 4642.59 1130.21C4642.59 1123.71 4640.59 1118.63 4636.59 1114.96C4632.59 1111.13 4627.34 1109.21 4620.84 1109.21ZM4800.89 1271.96V1095.71H4870.64C4883.31 1095.71 4893.97 1097.79 4902.64 1101.96C4911.47 1105.96 4918.14 1111.96 4922.64 1119.96C4927.14 1127.79 4929.39 1137.38 4929.39 1148.71C4929.39 1159.71 4927.14 1169.21 4922.64 1177.21C4918.14 1185.21 4911.47 1191.29 4902.64 1195.46C4893.97 1199.63 4883.31 1201.71 4870.64 1201.71H4821.39V1271.96H4800.89ZM4821.39 1184.46H4868.14C4881.64 1184.46 4891.81 1181.46 4898.64 1175.46C4905.64 1169.29 4909.14 1160.38 4909.14 1148.71C4909.14 1136.88 4905.64 1127.96 4898.64 1121.96C4891.81 1115.79 4881.64 1112.71 4868.14 1112.71H4821.39V1184.46ZM4953.9 1271.96V1150.46H4973.65V1179.21H4971.15C4973.99 1169.38 4978.9 1161.96 4985.9 1156.96C4992.9 1151.79 5002.15 1148.79 5013.65 1147.96L5020.9 1147.21L5022.4 1164.71L5009.65 1166.21C4998.32 1167.21 4989.57 1170.88 4983.4 1177.21C4977.4 1183.38 4974.4 1191.88 4974.4 1202.71V1271.96H4953.9ZM5092.54 1274.21C5080.7 1274.21 5070.45 1271.63 5061.79 1266.46C5053.12 1261.29 5046.37 1254.04 5041.54 1244.71C5036.87 1235.21 5034.54 1224.04 5034.54 1211.21C5034.54 1198.38 5036.87 1187.29 5041.54 1177.96C5046.37 1168.46 5053.12 1161.13 5061.79 1155.96C5070.45 1150.79 5080.7 1148.21 5092.54 1148.21C5104.37 1148.21 5114.62 1150.79 5123.29 1155.96C5131.95 1161.13 5138.62 1168.46 5143.29 1177.96C5148.12 1187.29 5150.54 1198.38 5150.54 1211.21C5150.54 1224.04 5148.12 1235.21 5143.29 1244.71C5138.62 1254.04 5131.95 1261.29 5123.29 1266.46C5114.62 1271.63 5104.37 1274.21 5092.54 1274.21ZM5092.54 1257.96C5104.04 1257.96 5113.12 1253.96 5119.79 1245.96C5126.62 1237.79 5130.04 1226.13 5130.04 1210.96C5130.04 1195.96 5126.62 1184.46 5119.79 1176.46C5113.12 1168.46 5104.04 1164.46 5092.54 1164.46C5081.2 1164.46 5072.12 1168.46 5065.29 1176.46C5058.45 1184.46 5055.04 1195.96 5055.04 1210.96C5055.04 1226.13 5058.45 1237.79 5065.29 1245.96C5072.12 1253.96 5081.2 1257.96 5092.54 1257.96ZM5227.2 1274.21C5216.37 1274.21 5206.87 1271.63 5198.7 1266.46C5190.7 1261.29 5184.45 1254.04 5179.95 1244.71C5175.62 1235.21 5173.45 1224.04 5173.45 1211.21C5173.45 1198.21 5175.62 1187.04 5179.95 1177.71C5184.45 1168.21 5190.7 1160.96 5198.7 1155.96C5206.87 1150.79 5216.37 1148.21 5227.2 1148.21C5238.2 1148.21 5247.62 1150.96 5255.45 1156.46C5263.29 1161.96 5268.54 1169.38 5271.2 1178.71H5268.45V1095.71H5288.7V1271.96H5268.95V1242.96H5271.45C5268.79 1252.46 5263.45 1260.04 5255.45 1265.71C5247.62 1271.38 5238.2 1274.21 5227.2 1274.21ZM5231.45 1257.96C5242.95 1257.96 5252.04 1253.96 5258.7 1245.96C5265.54 1237.79 5268.95 1226.21 5268.95 1211.21C5268.95 1196.04 5265.54 1184.46 5258.7 1176.46C5252.04 1168.46 5242.95 1164.46 5231.45 1164.46C5220.12 1164.46 5211.04 1168.46 5204.2 1176.46C5197.37 1184.46 5193.95 1196.04 5193.95 1211.21C5193.95 1226.21 5197.37 1237.79 5204.2 1245.96C5211.04 1253.96 5220.12 1257.96 5231.45 1257.96ZM5369.71 1274.21C5359.87 1274.21 5351.71 1272.46 5345.21 1268.96C5338.87 1265.29 5334.04 1259.88 5330.71 1252.71C5327.54 1245.54 5325.96 1236.63 5325.96 1225.96V1150.46H5346.21V1225.71C5346.21 1232.88 5347.12 1238.88 5348.96 1243.71C5350.96 1248.38 5354.04 1251.88 5358.21 1254.21C5362.37 1256.38 5367.54 1257.46 5373.71 1257.46C5380.71 1257.46 5386.79 1255.88 5391.96 1252.71C5397.12 1249.54 5401.21 1245.13 5404.21 1239.46C5407.21 1233.79 5408.71 1227.13 5408.71 1219.46V1150.46H5428.96V1271.96H5409.21V1243.96H5412.46C5409.12 1253.79 5403.62 1261.29 5395.96 1266.46C5388.46 1271.63 5379.71 1274.21 5369.71 1274.21ZM5518.34 1274.21C5506.18 1274.21 5495.68 1271.54 5486.84 1266.21C5478.01 1260.88 5471.18 1253.46 5466.34 1243.96C5461.68 1234.29 5459.34 1223.13 5459.34 1210.46C5459.34 1197.63 5461.68 1186.54 5466.34 1177.21C5471.18 1167.88 5478.01 1160.71 5486.84 1155.71C5495.68 1150.71 5506.18 1148.21 5518.34 1148.21C5525.84 1148.21 5533.26 1149.54 5540.59 1152.21C5547.93 1154.88 5554.01 1158.63 5558.84 1163.46L5551.84 1178.21C5547.01 1173.54 5541.68 1170.13 5535.84 1167.96C5530.18 1165.79 5524.76 1164.71 5519.59 1164.71C5506.93 1164.71 5497.18 1168.71 5490.34 1176.71C5483.51 1184.54 5480.09 1195.88 5480.09 1210.71C5480.09 1225.21 5483.51 1236.71 5490.34 1245.21C5497.18 1253.54 5506.93 1257.71 5519.59 1257.71C5524.76 1257.71 5530.18 1256.63 5535.84 1254.46C5541.68 1252.29 5547.01 1248.79 5551.84 1243.96L5558.84 1258.71C5554.01 1263.54 5547.84 1267.38 5540.34 1270.21C5533.01 1272.88 5525.68 1274.21 5518.34 1274.21ZM5631.31 1274.21C5616.98 1274.21 5606.23 1270.38 5599.06 1262.71C5591.9 1255.04 5588.31 1244.13 5588.31 1229.96V1166.21H5564.56V1150.46H5588.31V1113.21H5608.56V1150.46H5647.06V1166.21H5608.56V1227.96C5608.56 1237.46 5610.56 1244.71 5614.56 1249.71C5618.56 1254.54 5625.06 1256.96 5634.06 1256.96C5636.73 1256.96 5639.4 1256.63 5642.06 1255.96C5644.73 1255.29 5647.15 1254.63 5649.31 1253.96L5652.81 1269.46C5650.65 1270.63 5647.48 1271.71 5643.31 1272.71C5639.15 1273.71 5635.15 1274.21 5631.31 1274.21ZM5667.47 1120.21V1097.46H5692.47V1120.21H5667.47ZM5669.97 1271.96V1150.46H5690.22V1271.96H5669.97ZM5778.57 1274.21C5766.74 1274.21 5756.49 1271.63 5747.82 1266.46C5739.16 1261.29 5732.41 1254.04 5727.57 1244.71C5722.91 1235.21 5720.57 1224.04 5720.57 1211.21C5720.57 1198.38 5722.91 1187.29 5727.57 1177.96C5732.41 1168.46 5739.16 1161.13 5747.82 1155.96C5756.49 1150.79 5766.74 1148.21 5778.57 1148.21C5790.41 1148.21 5800.66 1150.79 5809.32 1155.96C5817.99 1161.13 5824.66 1168.46 5829.32 1177.96C5834.16 1187.29 5836.57 1198.38 5836.57 1211.21C5836.57 1224.04 5834.16 1235.21 5829.32 1244.71C5824.66 1254.04 5817.99 1261.29 5809.32 1266.46C5800.66 1271.63 5790.41 1274.21 5778.57 1274.21ZM5778.57 1257.96C5790.07 1257.96 5799.16 1253.96 5805.82 1245.96C5812.66 1237.79 5816.07 1226.13 5816.07 1210.96C5816.07 1195.96 5812.66 1184.46 5805.82 1176.46C5799.16 1168.46 5790.07 1164.46 5778.57 1164.46C5767.24 1164.46 5758.16 1168.46 5751.32 1176.46C5744.49 1184.46 5741.07 1195.96 5741.07 1210.96C5741.07 1226.13 5744.49 1237.79 5751.32 1245.96C5758.16 1253.96 5767.24 1257.96 5778.57 1257.96ZM5866.99 1271.96V1150.46H5886.74V1177.46H5883.99C5887.49 1167.79 5893.15 1160.54 5900.99 1155.71C5908.99 1150.71 5918.15 1148.21 5928.49 1148.21C5938.15 1148.21 5946.15 1149.96 5952.49 1153.46C5958.99 1156.79 5963.82 1162.04 5966.99 1169.21C5970.15 1176.38 5971.74 1185.38 5971.74 1196.21V1271.96H5951.49V1197.46C5951.49 1189.96 5950.49 1183.79 5948.49 1178.96C5946.65 1174.13 5943.65 1170.54 5939.49 1168.21C5935.49 1165.88 5930.24 1164.71 5923.74 1164.71C5916.4 1164.71 5909.99 1166.29 5904.49 1169.46C5898.99 1172.63 5894.74 1177.04 5891.74 1182.71C5888.74 1188.38 5887.24 1195.04 5887.24 1202.71V1271.96H5866.99ZM6076.04 1271.96V1095.71H6135.54C6154.7 1095.71 6170.87 1099.13 6184.04 1105.96C6197.37 1112.63 6207.45 1122.54 6214.29 1135.71C6221.29 1148.71 6224.79 1164.71 6224.79 1183.71C6224.79 1202.71 6221.29 1218.79 6214.29 1231.96C6207.45 1245.13 6197.37 1255.13 6184.04 1261.96C6170.87 1268.63 6154.7 1271.96 6135.54 1271.96H6076.04ZM6096.54 1254.46H6134.04C6157.2 1254.46 6174.45 1248.54 6185.79 1236.71C6197.29 1224.88 6203.04 1207.21 6203.04 1183.71C6203.04 1160.21 6197.29 1142.63 6185.79 1130.96C6174.29 1119.13 6157.04 1113.21 6134.04 1113.21H6096.54V1254.46ZM6256.33 1120.21V1097.46H6281.33V1120.21H6256.33ZM6258.83 1271.96V1150.46H6279.08V1271.96H6258.83ZM6316.94 1271.96V1150.46H6336.69V1179.21H6334.19C6337.02 1169.38 6341.94 1161.96 6348.94 1156.96C6355.94 1151.79 6365.19 1148.79 6376.69 1147.96L6383.94 1147.21L6385.44 1164.71L6372.69 1166.21C6361.36 1167.21 6352.61 1170.88 6346.44 1177.21C6340.44 1183.38 6337.44 1191.88 6337.44 1202.71V1271.96H6316.94ZM6459.82 1274.21C6446.99 1274.21 6435.91 1271.71 6426.57 1266.71C6417.41 1261.54 6410.24 1254.29 6405.07 1244.96C6400.07 1235.63 6397.57 1224.46 6397.57 1211.46C6397.57 1198.79 6400.07 1187.79 6405.07 1178.46C6410.07 1168.96 6416.91 1161.54 6425.57 1156.21C6434.41 1150.88 6444.57 1148.21 6456.07 1148.21C6467.07 1148.21 6476.49 1150.63 6484.32 1155.46C6492.16 1160.29 6498.16 1167.13 6502.32 1175.96C6506.66 1184.79 6508.82 1195.38 6508.82 1207.71V1215.46H6413.07V1202.21H6495.32L6491.32 1205.46C6491.32 1192.13 6488.32 1181.79 6482.32 1174.46C6476.49 1166.96 6467.91 1163.21 6456.57 1163.21C6448.07 1163.21 6440.82 1165.21 6434.82 1169.21C6428.99 1173.04 6424.57 1178.46 6421.57 1185.46C6418.57 1192.29 6417.07 1200.29 6417.07 1209.46V1210.96C6417.07 1221.13 6418.66 1229.71 6421.82 1236.71C6425.16 1243.71 6430.07 1249.04 6436.57 1252.71C6443.07 1256.21 6450.82 1257.96 6459.82 1257.96C6466.99 1257.96 6473.91 1256.88 6480.57 1254.71C6487.41 1252.38 6493.82 1248.63 6499.82 1243.46L6506.82 1257.71C6501.32 1262.71 6494.32 1266.71 6485.82 1269.71C6477.32 1272.71 6468.66 1274.21 6459.82 1274.21ZM6589.63 1274.21C6577.46 1274.21 6566.96 1271.54 6558.13 1266.21C6549.3 1260.88 6542.46 1253.46 6537.63 1243.96C6532.96 1234.29 6530.63 1223.13 6530.63 1210.46C6530.63 1197.63 6532.96 1186.54 6537.63 1177.21C6542.46 1167.88 6549.3 1160.71 6558.13 1155.71C6566.96 1150.71 6577.46 1148.21 6589.63 1148.21C6597.13 1148.21 6604.55 1149.54 6611.88 1152.21C6619.21 1154.88 6625.3 1158.63 6630.13 1163.46L6623.13 1178.21C6618.3 1173.54 6612.96 1170.13 6607.13 1167.96C6601.46 1165.79 6596.05 1164.71 6590.88 1164.71C6578.21 1164.71 6568.46 1168.71 6561.63 1176.71C6554.8 1184.54 6551.38 1195.88 6551.38 1210.71C6551.38 1225.21 6554.8 1236.71 6561.63 1245.21C6568.46 1253.54 6578.21 1257.71 6590.88 1257.71C6596.05 1257.71 6601.46 1256.63 6607.13 1254.46C6612.96 1252.29 6618.3 1248.79 6623.13 1243.96L6630.13 1258.71C6625.3 1263.54 6619.13 1267.38 6611.63 1270.21C6604.3 1272.88 6596.96 1274.21 6589.63 1274.21ZM6702.6 1274.21C6688.27 1274.21 6677.52 1270.38 6670.35 1262.71C6663.19 1255.04 6659.6 1244.13 6659.6 1229.96V1166.21H6635.85V1150.46H6659.6V1113.21H6679.85V1150.46H6718.35V1166.21H6679.85V1227.96C6679.85 1237.46 6681.85 1244.71 6685.85 1249.71C6689.85 1254.54 6696.35 1256.96 6705.35 1256.96C6708.02 1256.96 6710.69 1256.63 6713.35 1255.96C6716.02 1255.29 6718.44 1254.63 6720.6 1253.96L6724.1 1269.46C6721.94 1270.63 6718.77 1271.71 6714.6 1272.71C6710.44 1273.71 6706.44 1274.21 6702.6 1274.21ZM6790.54 1274.21C6778.7 1274.21 6768.45 1271.63 6759.79 1266.46C6751.12 1261.29 6744.37 1254.04 6739.54 1244.71C6734.87 1235.21 6732.54 1224.04 6732.54 1211.21C6732.54 1198.38 6734.87 1187.29 6739.54 1177.96C6744.37 1168.46 6751.12 1161.13 6759.79 1155.96C6768.45 1150.79 6778.7 1148.21 6790.54 1148.21C6802.37 1148.21 6812.62 1150.79 6821.29 1155.96C6829.95 1161.13 6836.62 1168.46 6841.29 1177.96C6846.12 1187.29 6848.54 1198.38 6848.54 1211.21C6848.54 1224.04 6846.12 1235.21 6841.29 1244.71C6836.62 1254.04 6829.95 1261.29 6821.29 1266.46C6812.62 1271.63 6802.37 1274.21 6790.54 1274.21ZM6790.54 1257.96C6802.04 1257.96 6811.12 1253.96 6817.79 1245.96C6824.62 1237.79 6828.04 1226.13 6828.04 1210.96C6828.04 1195.96 6824.62 1184.46 6817.79 1176.46C6811.12 1168.46 6802.04 1164.46 6790.54 1164.46C6779.2 1164.46 6770.12 1168.46 6763.29 1176.46C6756.45 1184.46 6753.04 1195.96 6753.04 1210.96C6753.04 1226.13 6756.45 1237.79 6763.29 1245.96C6770.12 1253.96 6779.2 1257.96 6790.54 1257.96ZM6878.95 1271.96V1150.46H6898.7V1179.21H6896.2C6899.03 1169.38 6903.95 1161.96 6910.95 1156.96C6917.95 1151.79 6927.2 1148.79 6938.7 1147.96L6945.95 1147.21L6947.45 1164.71L6934.7 1166.21C6923.37 1167.21 6914.62 1170.88 6908.45 1177.21C6902.45 1183.38 6899.45 1191.88 6899.45 1202.71V1271.96H6878.95ZM3312.85 1956.21C3300.02 1956.21 3288.93 1953.71 3279.6 1948.71C3270.43 1943.54 3263.27 1936.29 3258.1 1926.96C3253.1 1917.63 3250.6 1906.46 3250.6 1893.46C3250.6 1880.79 3253.1 1869.79 3258.1 1860.46C3263.1 1850.96 3269.93 1843.54 3278.6 1838.21C3287.43 1832.88 3297.6 1830.21 3309.1 1830.21C3320.1 1830.21 3329.52 1832.63 3337.35 1837.46C3345.18 1842.29 3351.18 1849.13 3355.35 1857.96C3359.68 1866.79 3361.85 1877.38 3361.85 1889.71V1897.46H3266.1V1884.21H3348.35L3344.35 1887.46C3344.35 1874.13 3341.35 1863.79 3335.35 1856.46C3329.52 1848.96 3320.93 1845.21 3309.6 1845.21C3301.1 1845.21 3293.85 1847.21 3287.85 1851.21C3282.02 1855.04 3277.6 1860.46 3274.6 1867.46C3271.6 1874.29 3270.1 1882.29 3270.1 1891.46V1892.96C3270.1 1903.13 3271.68 1911.71 3274.85 1918.71C3278.18 1925.71 3283.1 1931.04 3289.6 1934.71C3296.1 1938.21 3303.85 1939.96 3312.85 1939.96C3320.02 1939.96 3326.93 1938.88 3333.6 1936.71C3340.43 1934.38 3346.85 1930.63 3352.85 1925.46L3359.85 1939.71C3354.35 1944.71 3347.35 1948.71 3338.85 1951.71C3330.35 1954.71 3321.68 1956.21 3312.85 1956.21ZM3439.91 1956.21C3425.57 1956.21 3414.82 1952.38 3407.66 1944.71C3400.49 1937.04 3396.91 1926.13 3396.91 1911.96V1848.21H3373.16V1832.46H3396.91V1795.21H3417.16V1832.46H3455.66V1848.21H3417.16V1909.96C3417.16 1919.46 3419.16 1926.71 3423.16 1931.71C3427.16 1936.54 3433.66 1938.96 3442.66 1938.96C3445.32 1938.96 3447.99 1938.63 3450.66 1937.96C3453.32 1937.29 3455.74 1936.63 3457.91 1935.96L3461.41 1951.46C3459.24 1952.63 3456.07 1953.71 3451.91 1954.71C3447.74 1955.71 3443.74 1956.21 3439.91 1956.21ZM3478.56 1953.96V1777.71H3498.81V1859.46H3495.56C3499.06 1849.79 3504.73 1842.54 3512.56 1837.71C3520.56 1832.71 3529.73 1830.21 3540.06 1830.21C3549.73 1830.21 3557.73 1831.96 3564.06 1835.46C3570.56 1838.96 3575.39 1844.29 3578.56 1851.46C3581.73 1858.46 3583.31 1867.38 3583.31 1878.21V1953.96H3563.06V1879.46C3563.06 1871.96 3562.06 1865.79 3560.06 1860.96C3558.23 1856.13 3555.23 1852.54 3551.06 1850.21C3547.06 1847.88 3541.81 1846.71 3535.31 1846.71C3527.98 1846.71 3521.56 1848.29 3516.06 1851.46C3510.56 1854.63 3506.31 1859.04 3503.31 1864.71C3500.31 1870.38 3498.81 1877.04 3498.81 1884.71V1953.96H3478.56ZM3658.9 1956.21C3650.57 1956.21 3643.07 1954.63 3636.4 1951.46C3629.9 1948.13 3624.73 1943.63 3620.9 1937.96C3617.07 1932.29 3615.15 1925.96 3615.15 1918.96C3615.15 1909.96 3617.4 1902.88 3621.9 1897.71C3626.57 1892.54 3634.15 1888.88 3644.65 1886.71C3655.32 1884.54 3669.82 1883.46 3688.15 1883.46H3699.4V1896.71H3688.4C3678.23 1896.71 3669.73 1897.04 3662.9 1897.71C3656.07 1898.38 3650.65 1899.54 3646.65 1901.21C3642.65 1902.88 3639.82 1905.04 3638.15 1907.71C3636.48 1910.38 3635.65 1913.71 3635.65 1917.71C3635.65 1924.54 3637.98 1930.13 3642.65 1934.46C3647.48 1938.79 3653.98 1940.96 3662.15 1940.96C3668.82 1940.96 3674.65 1939.38 3679.65 1936.21C3684.82 1933.04 3688.82 1928.71 3691.65 1923.21C3694.65 1917.71 3696.15 1911.38 3696.15 1904.21V1875.71C3696.15 1865.38 3694.07 1857.96 3689.9 1853.46C3685.73 1848.79 3678.9 1846.46 3669.4 1846.46C3662.07 1846.46 3654.98 1847.54 3648.15 1849.71C3641.32 1851.71 3634.32 1855.04 3627.15 1859.71L3620.15 1844.96C3624.48 1841.96 3629.4 1839.38 3634.9 1837.21C3640.4 1834.88 3646.15 1833.13 3652.15 1831.96C3658.15 1830.79 3663.9 1830.21 3669.4 1830.21C3679.9 1830.21 3688.57 1831.96 3695.4 1835.46C3702.23 1838.79 3707.32 1843.96 3710.65 1850.96C3713.98 1857.79 3715.65 1866.63 3715.65 1877.46V1953.96H3696.65V1925.71H3698.9C3697.57 1932.04 3694.98 1937.46 3691.15 1941.96C3687.48 1946.46 3682.9 1949.96 3677.4 1952.46C3671.9 1954.96 3665.73 1956.21 3658.9 1956.21ZM3753.22 1953.96V1832.46H3772.97V1859.46H3770.22C3773.72 1849.79 3779.39 1842.54 3787.22 1837.71C3795.22 1832.71 3804.39 1830.21 3814.72 1830.21C3824.39 1830.21 3832.39 1831.96 3838.72 1835.46C3845.22 1838.79 3850.05 1844.04 3853.22 1851.21C3856.39 1858.38 3857.97 1867.38 3857.97 1878.21V1953.96H3837.72V1879.46C3837.72 1871.96 3836.72 1865.79 3834.72 1860.96C3832.89 1856.13 3829.89 1852.54 3825.72 1850.21C3821.72 1847.88 3816.47 1846.71 3809.97 1846.71C3802.64 1846.71 3796.22 1848.29 3790.72 1851.46C3785.22 1854.63 3780.97 1859.04 3777.97 1864.71C3774.97 1870.38 3773.47 1877.04 3773.47 1884.71V1953.96H3753.22ZM3997.56 1994.71C3981.56 1994.71 3967.06 1992.13 3954.06 1986.96C3941.06 1981.96 3929.89 1974.71 3920.56 1965.21C3911.23 1955.71 3904.06 1944.29 3899.06 1930.96C3894.06 1917.46 3891.56 1902.38 3891.56 1885.71C3891.56 1869.38 3894.14 1854.46 3899.31 1840.96C3904.64 1827.46 3912.14 1815.88 3921.81 1806.21C3931.64 1796.38 3943.23 1788.79 3956.56 1783.46C3969.89 1778.13 3984.64 1775.46 4000.81 1775.46C4020.14 1775.46 4037.06 1779.38 4051.56 1787.21C4066.06 1794.88 4077.31 1805.63 4085.31 1819.46C4093.48 1833.29 4097.56 1849.46 4097.56 1867.96C4097.56 1882.46 4095.56 1895.04 4091.56 1905.71C4087.56 1916.38 4081.98 1924.63 4074.81 1930.46C4067.81 1936.29 4059.56 1939.21 4050.06 1939.21C4040.06 1939.21 4032.48 1936.38 4027.31 1930.71C4022.31 1924.88 4020.14 1917.04 4020.81 1907.21L4025.56 1908.46C4021.39 1918.46 4015.48 1926.13 4007.81 1931.46C4000.14 1936.63 3992.06 1939.21 3983.56 1939.21C3970.73 1939.21 3960.73 1935.21 3953.56 1927.21C3946.56 1919.04 3943.06 1907.88 3943.06 1893.71C3943.06 1881.54 3945.39 1870.71 3950.06 1861.21C3954.73 1851.54 3961.14 1843.96 3969.31 1838.46C3977.48 1832.96 3986.73 1830.21 3997.06 1830.21C4006.06 1830.21 4013.48 1832.46 4019.31 1836.96C4025.14 1841.46 4028.89 1847.79 4030.56 1855.96H4027.81L4031.81 1832.46H4048.31L4037.06 1897.21C4036.73 1899.38 4036.48 1901.46 4036.31 1903.46C4036.14 1905.46 4036.06 1907.29 4036.06 1908.96C4036.06 1914.46 4037.31 1918.63 4039.81 1921.46C4042.31 1924.29 4046.06 1925.71 4051.06 1925.71C4057.56 1925.71 4063.14 1923.29 4067.81 1918.46C4072.64 1913.63 4076.39 1906.88 4079.06 1898.21C4081.89 1889.54 4083.31 1879.46 4083.31 1867.96C4083.31 1852.13 4079.81 1838.38 4072.81 1826.71C4065.98 1815.04 4056.39 1805.96 4044.06 1799.46C4031.73 1792.96 4017.23 1789.71 4000.56 1789.71C3982.06 1789.71 3965.81 1793.71 3951.81 1801.71C3937.81 1809.71 3926.89 1820.96 3919.06 1835.46C3911.23 1849.79 3907.31 1866.54 3907.31 1885.71C3907.31 1905.54 3910.98 1922.54 3918.31 1936.71C3925.81 1950.88 3936.31 1961.71 3949.81 1969.21C3963.31 1976.88 3979.23 1980.71 3997.56 1980.71C4011.06 1980.71 4023.23 1978.54 4034.06 1974.21C4045.06 1970.04 4054.14 1964.13 4061.31 1956.46L4069.56 1968.46C4064.23 1974.13 4057.81 1978.88 4050.31 1982.71C4042.98 1986.71 4034.81 1989.71 4025.81 1991.71C4016.98 1993.71 4007.56 1994.71 3997.56 1994.71ZM3985.81 1924.71C3993.31 1924.71 3999.89 1922.46 4005.56 1917.96C4011.39 1913.46 4015.98 1907.29 4019.31 1899.46C4022.64 1891.63 4024.31 1882.71 4024.31 1872.71C4024.31 1863.38 4022.23 1856.38 4018.06 1851.71C4013.89 1847.04 4007.48 1844.71 3998.81 1844.71C3991.48 1844.71 3984.89 1846.79 3979.06 1850.96C3973.23 1855.13 3968.56 1860.88 3965.06 1868.21C3961.73 1875.54 3960.06 1884.04 3960.06 1893.71C3960.06 1903.71 3962.31 1911.38 3966.81 1916.71C3971.31 1922.04 3977.64 1924.71 3985.81 1924.71ZM4193.38 1956.21C4182.38 1956.21 4172.88 1953.38 4164.88 1947.71C4157.05 1942.04 4151.8 1934.46 4149.13 1924.96H4151.63V1953.96H4131.88V1777.71H4152.13V1860.71H4149.13C4151.96 1851.38 4157.3 1843.96 4165.13 1838.46C4172.96 1832.96 4182.38 1830.21 4193.38 1830.21C4204.38 1830.21 4213.88 1832.79 4221.88 1837.96C4229.88 1842.96 4236.05 1850.21 4240.38 1859.71C4244.88 1869.04 4247.13 1880.21 4247.13 1893.21C4247.13 1906.04 4244.88 1917.21 4240.38 1926.71C4236.05 1936.04 4229.8 1943.29 4221.63 1948.46C4213.63 1953.63 4204.21 1956.21 4193.38 1956.21ZM4189.13 1939.96C4200.63 1939.96 4209.71 1935.96 4216.38 1927.96C4223.21 1919.79 4226.63 1908.21 4226.63 1893.21C4226.63 1878.04 4223.21 1866.46 4216.38 1858.46C4209.71 1850.46 4200.63 1846.46 4189.13 1846.46C4177.8 1846.46 4168.71 1850.46 4161.88 1858.46C4155.05 1866.46 4151.63 1878.04 4151.63 1893.21C4151.63 1908.21 4155.05 1919.79 4161.88 1927.96C4168.71 1935.96 4177.8 1939.96 4189.13 1939.96ZM4277.63 1953.96V1832.46H4297.38V1861.21H4294.88C4297.72 1851.38 4302.63 1843.96 4309.63 1838.96C4316.63 1833.79 4325.88 1830.79 4337.38 1829.96L4344.63 1829.21L4346.13 1846.71L4333.38 1848.21C4322.05 1849.21 4313.3 1852.88 4307.13 1859.21C4301.13 1865.38 4298.13 1873.88 4298.13 1884.71V1953.96H4277.63ZM4364.73 1802.21V1779.46H4389.73V1802.21H4364.73ZM4367.23 1953.96V1832.46H4387.48V1953.96H4367.23ZM4420.09 1953.96V1940.46L4493.34 1842.96V1848.21H4420.09V1832.46H4512.09V1845.96L4438.09 1943.96V1938.21H4514.84V1953.96H4420.09ZM4584.87 1956.21C4574.04 1956.21 4564.54 1953.63 4556.37 1948.46C4548.37 1943.29 4542.12 1936.04 4537.62 1926.71C4533.29 1917.21 4531.12 1906.04 4531.12 1893.21C4531.12 1880.21 4533.29 1869.04 4537.62 1859.71C4542.12 1850.21 4548.37 1842.96 4556.37 1837.96C4564.54 1832.79 4574.04 1830.21 4584.87 1830.21C4595.87 1830.21 4605.29 1832.96 4613.12 1838.46C4620.95 1843.96 4626.2 1851.38 4628.87 1860.71H4626.12V1777.71H4646.37V1953.96H4626.62V1924.96H4629.12C4626.45 1934.46 4621.12 1942.04 4613.12 1947.71C4605.29 1953.38 4595.87 1956.21 4584.87 1956.21ZM4589.12 1939.96C4600.62 1939.96 4609.7 1935.96 4616.37 1927.96C4623.2 1919.79 4626.62 1908.21 4626.62 1893.21C4626.62 1878.04 4623.2 1866.46 4616.37 1858.46C4609.7 1850.46 4600.62 1846.46 4589.12 1846.46C4577.79 1846.46 4568.7 1850.46 4561.87 1858.46C4555.04 1866.46 4551.62 1878.04 4551.62 1893.21C4551.62 1908.21 4555.04 1919.79 4561.87 1927.96C4568.7 1935.96 4577.79 1939.96 4589.12 1939.96ZM4734.87 1956.21C4723.04 1956.21 4712.79 1953.63 4704.12 1948.46C4695.45 1943.29 4688.7 1936.04 4683.87 1926.71C4679.2 1917.21 4676.87 1906.04 4676.87 1893.21C4676.87 1880.38 4679.2 1869.29 4683.87 1859.96C4688.7 1850.46 4695.45 1843.13 4704.12 1837.96C4712.79 1832.79 4723.04 1830.21 4734.87 1830.21C4746.7 1830.21 4756.95 1832.79 4765.62 1837.96C4774.29 1843.13 4780.95 1850.46 4785.62 1859.96C4790.45 1869.29 4792.87 1880.38 4792.87 1893.21C4792.87 1906.04 4790.45 1917.21 4785.62 1926.71C4780.95 1936.04 4774.29 1943.29 4765.62 1948.46C4756.95 1953.63 4746.7 1956.21 4734.87 1956.21ZM4734.87 1939.96C4746.37 1939.96 4755.45 1935.96 4762.12 1927.96C4768.95 1919.79 4772.37 1908.13 4772.37 1892.96C4772.37 1877.96 4768.95 1866.46 4762.12 1858.46C4755.45 1850.46 4746.37 1846.46 4734.87 1846.46C4723.54 1846.46 4714.45 1850.46 4707.62 1858.46C4700.79 1866.46 4697.37 1877.96 4697.37 1892.96C4697.37 1908.13 4700.79 1919.79 4707.62 1927.96C4714.45 1935.96 4723.54 1939.96 4734.87 1939.96ZM4873.79 1956.21C4861.95 1956.21 4851.7 1953.63 4843.04 1948.46C4834.37 1943.29 4827.62 1936.04 4822.79 1926.71C4818.12 1917.21 4815.79 1906.04 4815.79 1893.21C4815.79 1880.38 4818.12 1869.29 4822.79 1859.96C4827.62 1850.46 4834.37 1843.13 4843.04 1837.96C4851.7 1832.79 4861.95 1830.21 4873.79 1830.21C4885.62 1830.21 4895.87 1832.79 4904.54 1837.96C4913.2 1843.13 4919.87 1850.46 4924.54 1859.96C4929.37 1869.29 4931.79 1880.38 4931.79 1893.21C4931.79 1906.04 4929.37 1917.21 4924.54 1926.71C4919.87 1936.04 4913.2 1943.29 4904.54 1948.46C4895.87 1953.63 4885.62 1956.21 4873.79 1956.21ZM4873.79 1939.96C4885.29 1939.96 4894.37 1935.96 4901.04 1927.96C4907.87 1919.79 4911.29 1908.13 4911.29 1892.96C4911.29 1877.96 4907.87 1866.46 4901.04 1858.46C4894.37 1850.46 4885.29 1846.46 4873.79 1846.46C4862.45 1846.46 4853.37 1850.46 4846.54 1858.46C4839.7 1866.46 4836.29 1877.96 4836.29 1892.96C4836.29 1908.13 4839.7 1919.79 4846.54 1927.96C4853.37 1935.96 4862.45 1939.96 4873.79 1939.96ZM4962.2 1953.96V1832.46H4981.95V1861.21H4979.45C4982.29 1851.38 4987.2 1843.96 4994.2 1838.96C5001.2 1833.79 5010.45 1830.79 5021.95 1829.96L5029.2 1829.21L5030.7 1846.71L5017.95 1848.21C5006.62 1849.21 4997.87 1852.88 4991.7 1859.21C4985.7 1865.38 4982.7 1873.88 4982.7 1884.71V1953.96H4962.2ZM5091.58 1956.21C5085.25 1956.21 5079.08 1955.54 5073.08 1954.21C5067.25 1953.04 5061.75 1951.38 5056.58 1949.21C5051.58 1946.88 5047.25 1944.13 5043.58 1940.96L5050.08 1926.71C5054.08 1929.88 5058.42 1932.54 5063.08 1934.71C5067.75 1936.71 5072.5 1938.21 5077.33 1939.21C5082.17 1940.21 5087.08 1940.71 5092.08 1940.71C5101.58 1940.71 5108.75 1938.96 5113.58 1935.46C5118.42 1931.96 5120.83 1927.21 5120.83 1921.21C5120.83 1916.54 5119.25 1912.88 5116.08 1910.21C5112.92 1907.38 5107.92 1905.21 5101.08 1903.71L5078.33 1898.71C5067.83 1896.54 5060 1892.79 5054.83 1887.46C5049.83 1882.13 5047.33 1875.21 5047.33 1866.71C5047.33 1859.21 5049.25 1852.79 5053.08 1847.46C5057.08 1841.96 5062.67 1837.71 5069.83 1834.71C5077 1831.71 5085.33 1830.21 5094.83 1830.21C5100.5 1830.21 5105.92 1830.79 5111.08 1831.96C5116.25 1833.13 5121.08 1834.88 5125.58 1837.21C5130.25 1839.38 5134.25 1842.13 5137.58 1845.46L5130.83 1859.71C5127.67 1856.71 5124.08 1854.21 5120.08 1852.21C5116.08 1850.04 5111.92 1848.46 5107.58 1847.46C5103.42 1846.29 5099.17 1845.71 5094.83 1845.71C5085.5 1845.71 5078.42 1847.54 5073.58 1851.21C5068.75 1854.88 5066.33 1859.71 5066.33 1865.71C5066.33 1870.38 5067.83 1874.21 5070.83 1877.21C5073.83 1880.21 5078.5 1882.38 5084.83 1883.71L5107.58 1888.46C5118.42 1890.79 5126.5 1894.54 5131.83 1899.71C5137.33 1904.71 5140.08 1911.54 5140.08 1920.21C5140.08 1927.54 5138.08 1933.96 5134.08 1939.46C5130.08 1944.79 5124.42 1948.96 5117.08 1951.96C5109.92 1954.79 5101.42 1956.21 5091.58 1956.21ZM5166.47 1953.96V1928.46H5191.97V1953.96H5166.47ZM5272.49 1956.21C5260.33 1956.21 5249.83 1953.54 5240.99 1948.21C5232.16 1942.88 5225.33 1935.46 5220.49 1925.96C5215.83 1916.29 5213.49 1905.13 5213.49 1892.46C5213.49 1879.63 5215.83 1868.54 5220.49 1859.21C5225.33 1849.88 5232.16 1842.71 5240.99 1837.71C5249.83 1832.71 5260.33 1830.21 5272.49 1830.21C5279.99 1830.21 5287.41 1831.54 5294.74 1834.21C5302.08 1836.88 5308.16 1840.63 5312.99 1845.46L5305.99 1860.21C5301.16 1855.54 5295.83 1852.13 5289.99 1849.96C5284.33 1847.79 5278.91 1846.71 5273.74 1846.71C5261.08 1846.71 5251.33 1850.71 5244.49 1858.71C5237.66 1866.54 5234.24 1877.88 5234.24 1892.71C5234.24 1907.21 5237.66 1918.71 5244.49 1927.21C5251.33 1935.54 5261.08 1939.71 5273.74 1939.71C5278.91 1939.71 5284.33 1938.63 5289.99 1936.46C5295.83 1934.29 5301.16 1930.79 5305.99 1925.96L5312.99 1940.71C5308.16 1945.54 5301.99 1949.38 5294.49 1952.21C5287.16 1954.88 5279.83 1956.21 5272.49 1956.21ZM5384.77 1956.21C5372.94 1956.21 5362.69 1953.63 5354.02 1948.46C5345.36 1943.29 5338.61 1936.04 5333.77 1926.71C5329.11 1917.21 5326.77 1906.04 5326.77 1893.21C5326.77 1880.38 5329.11 1869.29 5333.77 1859.96C5338.61 1850.46 5345.36 1843.13 5354.02 1837.96C5362.69 1832.79 5372.94 1830.21 5384.77 1830.21C5396.61 1830.21 5406.86 1832.79 5415.52 1837.96C5424.19 1843.13 5430.86 1850.46 5435.52 1859.96C5440.36 1869.29 5442.77 1880.38 5442.77 1893.21C5442.77 1906.04 5440.36 1917.21 5435.52 1926.71C5430.86 1936.04 5424.19 1943.29 5415.52 1948.46C5406.86 1953.63 5396.61 1956.21 5384.77 1956.21ZM5384.77 1939.96C5396.27 1939.96 5405.36 1935.96 5412.02 1927.96C5418.86 1919.79 5422.27 1908.13 5422.27 1892.96C5422.27 1877.96 5418.86 1866.46 5412.02 1858.46C5405.36 1850.46 5396.27 1846.46 5384.77 1846.46C5373.44 1846.46 5364.36 1850.46 5357.52 1858.46C5350.69 1866.46 5347.27 1877.96 5347.27 1892.96C5347.27 1908.13 5350.69 1919.79 5357.52 1927.96C5364.36 1935.96 5373.44 1939.96 5384.77 1939.96ZM5473.69 1953.96V1832.46H5493.44V1859.46H5490.69C5492.69 1853.29 5495.61 1848.04 5499.44 1843.71C5503.44 1839.21 5508.11 1835.88 5513.44 1833.71C5518.94 1831.38 5524.94 1830.21 5531.44 1830.21C5541.77 1830.21 5550.11 1832.71 5556.44 1837.71C5562.94 1842.54 5567.27 1850.13 5569.44 1860.46H5565.69C5568.69 1851.13 5574.02 1843.79 5581.69 1838.46C5589.52 1832.96 5598.61 1830.21 5608.94 1830.21C5618.11 1830.21 5625.61 1831.96 5631.44 1835.46C5637.44 1838.96 5641.94 1844.29 5644.94 1851.46C5647.94 1858.46 5649.44 1867.38 5649.44 1878.21V1953.96H5629.19V1879.21C5629.19 1868.04 5627.27 1859.88 5623.44 1854.71C5619.61 1849.38 5613.11 1846.71 5603.94 1846.71C5597.44 1846.71 5591.69 1848.29 5586.69 1851.46C5581.86 1854.63 5578.11 1859.13 5575.44 1864.96C5572.94 1870.63 5571.69 1877.38 5571.69 1885.21V1953.96H5551.44V1879.21C5551.44 1868.04 5549.44 1859.88 5545.44 1854.71C5541.61 1849.38 5535.19 1846.71 5526.19 1846.71C5519.52 1846.71 5513.77 1848.29 5508.94 1851.46C5504.11 1854.63 5500.36 1859.13 5497.69 1864.96C5495.19 1870.63 5493.94 1877.38 5493.94 1885.21V1953.96H5473.69ZM5684.05 1953.96V1928.46H5709.55V1953.96H5684.05ZM5781.46 1956.21C5773.13 1956.21 5765.63 1954.63 5758.96 1951.46C5752.46 1948.13 5747.29 1943.63 5743.46 1937.96C5739.63 1932.29 5737.71 1925.96 5737.71 1918.96C5737.71 1909.96 5739.96 1902.88 5744.46 1897.71C5749.13 1892.54 5756.71 1888.88 5767.21 1886.71C5777.88 1884.54 5792.38 1883.46 5810.71 1883.46H5821.96V1896.71H5810.96C5800.79 1896.71 5792.29 1897.04 5785.46 1897.71C5778.63 1898.38 5773.21 1899.54 5769.21 1901.21C5765.21 1902.88 5762.38 1905.04 5760.71 1907.71C5759.04 1910.38 5758.21 1913.71 5758.21 1917.71C5758.21 1924.54 5760.54 1930.13 5765.21 1934.46C5770.04 1938.79 5776.54 1940.96 5784.71 1940.96C5791.38 1940.96 5797.21 1939.38 5802.21 1936.21C5807.38 1933.04 5811.38 1928.71 5814.21 1923.21C5817.21 1917.71 5818.71 1911.38 5818.71 1904.21V1875.71C5818.71 1865.38 5816.63 1857.96 5812.46 1853.46C5808.29 1848.79 5801.46 1846.46 5791.96 1846.46C5784.63 1846.46 5777.54 1847.54 5770.71 1849.71C5763.88 1851.71 5756.88 1855.04 5749.71 1859.71L5742.71 1844.96C5747.04 1841.96 5751.96 1839.38 5757.46 1837.21C5762.96 1834.88 5768.71 1833.13 5774.71 1831.96C5780.71 1830.79 5786.46 1830.21 5791.96 1830.21C5802.46 1830.21 5811.13 1831.96 5817.96 1835.46C5824.79 1838.79 5829.88 1843.96 5833.21 1850.96C5836.54 1857.79 5838.21 1866.63 5838.21 1877.46V1953.96H5819.21V1925.71H5821.46C5820.13 1932.04 5817.54 1937.46 5813.71 1941.96C5810.04 1946.46 5805.46 1949.96 5799.96 1952.46C5794.46 1954.96 5788.29 1956.21 5781.46 1956.21ZM5918.78 1956.21C5908.94 1956.21 5900.78 1954.46 5894.28 1950.96C5887.94 1947.29 5883.11 1941.88 5879.78 1934.71C5876.61 1927.54 5875.03 1918.63 5875.03 1907.96V1832.46H5895.28V1907.71C5895.28 1914.88 5896.19 1920.88 5898.03 1925.71C5900.03 1930.38 5903.11 1933.88 5907.28 1936.21C5911.44 1938.38 5916.61 1939.46 5922.78 1939.46C5929.78 1939.46 5935.86 1937.88 5941.03 1934.71C5946.19 1931.54 5950.28 1927.13 5953.28 1921.46C5956.28 1915.79 5957.78 1909.13 5957.78 1901.46V1832.46H5978.03V1953.96H5958.28V1925.96H5961.53C5958.19 1935.79 5952.69 1943.29 5945.03 1948.46C5937.53 1953.63 5928.78 1956.21 5918.78 1956.21ZM3319.6 2297.21C3308.6 2297.21 3299.1 2294.38 3291.1 2288.71C3283.27 2283.04 3278.02 2275.46 3275.35 2265.96H3277.85V2294.96H3258.1V2118.71H3278.35V2201.71H3275.35C3278.18 2192.38 3283.52 2184.96 3291.35 2179.46C3299.18 2173.96 3308.6 2171.21 3319.6 2171.21C3330.6 2171.21 3340.1 2173.79 3348.1 2178.96C3356.1 2183.96 3362.27 2191.21 3366.6 2200.71C3371.1 2210.04 3373.35 2221.21 3373.35 2234.21C3373.35 2247.04 3371.1 2258.21 3366.6 2267.71C3362.27 2277.04 3356.02 2284.29 3347.85 2289.46C3339.85 2294.63 3330.43 2297.21 3319.6 2297.21ZM3315.35 2280.96C3326.85 2280.96 3335.93 2276.96 3342.6 2268.96C3349.43 2260.79 3352.85 2249.21 3352.85 2234.21C3352.85 2219.04 3349.43 2207.46 3342.6 2199.46C3335.93 2191.46 3326.85 2187.46 3315.35 2187.46C3304.02 2187.46 3294.93 2191.46 3288.1 2199.46C3281.27 2207.46 3277.85 2219.04 3277.85 2234.21C3277.85 2249.21 3281.27 2260.79 3288.1 2268.96C3294.93 2276.96 3304.02 2280.96 3315.35 2280.96ZM3403.85 2294.96V2173.46H3423.6V2202.21H3421.1C3423.94 2192.38 3428.85 2184.96 3435.85 2179.96C3442.85 2174.79 3452.1 2171.79 3463.6 2170.96L3470.85 2170.21L3472.35 2187.71L3459.6 2189.21C3448.27 2190.21 3439.52 2193.88 3433.35 2200.21C3427.35 2206.38 3424.35 2214.88 3424.35 2225.71V2294.96H3403.85ZM3490.95 2143.21V2120.46H3515.95V2143.21H3490.95ZM3493.45 2294.96V2173.46H3513.7V2294.96H3493.45ZM3546.31 2294.96V2281.46L3619.56 2183.96V2189.21H3546.31V2173.46H3638.31V2186.96L3564.31 2284.96V2279.21H3641.06V2294.96H3546.31ZM3711.09 2297.21C3700.26 2297.21 3690.76 2294.63 3682.59 2289.46C3674.59 2284.29 3668.34 2277.04 3663.84 2267.71C3659.51 2258.21 3657.34 2247.04 3657.34 2234.21C3657.34 2221.21 3659.51 2210.04 3663.84 2200.71C3668.34 2191.21 3674.59 2183.96 3682.59 2178.96C3690.76 2173.79 3700.26 2171.21 3711.09 2171.21C3722.09 2171.21 3731.51 2173.96 3739.34 2179.46C3747.17 2184.96 3752.42 2192.38 3755.09 2201.71H3752.34V2118.71H3772.59V2294.96H3752.84V2265.96H3755.34C3752.67 2275.46 3747.34 2283.04 3739.34 2288.71C3731.51 2294.38 3722.09 2297.21 3711.09 2297.21ZM3715.34 2280.96C3726.84 2280.96 3735.92 2276.96 3742.59 2268.96C3749.42 2260.79 3752.84 2249.21 3752.84 2234.21C3752.84 2219.04 3749.42 2207.46 3742.59 2199.46C3735.92 2191.46 3726.84 2187.46 3715.34 2187.46C3704.01 2187.46 3694.92 2191.46 3688.09 2199.46C3681.26 2207.46 3677.84 2219.04 3677.84 2234.21C3677.84 2249.21 3681.26 2260.79 3688.09 2268.96C3694.92 2276.96 3704.01 2280.96 3715.34 2280.96ZM3861.09 2297.21C3849.26 2297.21 3839.01 2294.63 3830.34 2289.46C3821.68 2284.29 3814.93 2277.04 3810.09 2267.71C3805.43 2258.21 3803.09 2247.04 3803.09 2234.21C3803.09 2221.38 3805.43 2210.29 3810.09 2200.96C3814.93 2191.46 3821.68 2184.13 3830.34 2178.96C3839.01 2173.79 3849.26 2171.21 3861.09 2171.21C3872.93 2171.21 3883.18 2173.79 3891.84 2178.96C3900.51 2184.13 3907.18 2191.46 3911.84 2200.96C3916.68 2210.29 3919.09 2221.38 3919.09 2234.21C3919.09 2247.04 3916.68 2258.21 3911.84 2267.71C3907.18 2277.04 3900.51 2284.29 3891.84 2289.46C3883.18 2294.63 3872.93 2297.21 3861.09 2297.21ZM3861.09 2280.96C3872.59 2280.96 3881.68 2276.96 3888.34 2268.96C3895.18 2260.79 3898.59 2249.13 3898.59 2233.96C3898.59 2218.96 3895.18 2207.46 3888.34 2199.46C3881.68 2191.46 3872.59 2187.46 3861.09 2187.46C3849.76 2187.46 3840.68 2191.46 3833.84 2199.46C3827.01 2207.46 3823.59 2218.96 3823.59 2233.96C3823.59 2249.13 3827.01 2260.79 3833.84 2268.96C3840.68 2276.96 3849.76 2280.96 3861.09 2280.96ZM4000.01 2297.21C3988.17 2297.21 3977.92 2294.63 3969.26 2289.46C3960.59 2284.29 3953.84 2277.04 3949.01 2267.71C3944.34 2258.21 3942.01 2247.04 3942.01 2234.21C3942.01 2221.38 3944.34 2210.29 3949.01 2200.96C3953.84 2191.46 3960.59 2184.13 3969.26 2178.96C3977.92 2173.79 3988.17 2171.21 4000.01 2171.21C4011.84 2171.21 4022.09 2173.79 4030.76 2178.96C4039.42 2184.13 4046.09 2191.46 4050.76 2200.96C4055.59 2210.29 4058.01 2221.38 4058.01 2234.21C4058.01 2247.04 4055.59 2258.21 4050.76 2267.71C4046.09 2277.04 4039.42 2284.29 4030.76 2289.46C4022.09 2294.63 4011.84 2297.21 4000.01 2297.21ZM4000.01 2280.96C4011.51 2280.96 4020.59 2276.96 4027.26 2268.96C4034.09 2260.79 4037.51 2249.13 4037.51 2233.96C4037.51 2218.96 4034.09 2207.46 4027.26 2199.46C4020.59 2191.46 4011.51 2187.46 4000.01 2187.46C3988.67 2187.46 3979.59 2191.46 3972.76 2199.46C3965.92 2207.46 3962.51 2218.96 3962.51 2233.96C3962.51 2249.13 3965.92 2260.79 3972.76 2268.96C3979.59 2276.96 3988.67 2280.96 4000.01 2280.96ZM4088.42 2294.96V2173.46H4108.17V2202.21H4105.67C4108.51 2192.38 4113.42 2184.96 4120.42 2179.96C4127.42 2174.79 4136.67 2171.79 4148.17 2170.96L4155.42 2170.21L4156.92 2187.71L4144.17 2189.21C4132.84 2190.21 4124.09 2193.88 4117.92 2200.21C4111.92 2206.38 4108.92 2214.88 4108.92 2225.71V2294.96H4088.42ZM4217.8 2297.21C4211.47 2297.21 4205.3 2296.54 4199.3 2295.21C4193.47 2294.04 4187.97 2292.38 4182.8 2290.21C4177.8 2287.88 4173.47 2285.13 4169.8 2281.96L4176.3 2267.71C4180.3 2270.88 4184.64 2273.54 4189.3 2275.71C4193.97 2277.71 4198.72 2279.21 4203.55 2280.21C4208.39 2281.21 4213.3 2281.71 4218.3 2281.71C4227.8 2281.71 4234.97 2279.96 4239.8 2276.46C4244.64 2272.96 4247.05 2268.21 4247.05 2262.21C4247.05 2257.54 4245.47 2253.88 4242.3 2251.21C4239.14 2248.38 4234.14 2246.21 4227.3 2244.71L4204.55 2239.71C4194.05 2237.54 4186.22 2233.79 4181.05 2228.46C4176.05 2223.13 4173.55 2216.21 4173.55 2207.71C4173.55 2200.21 4175.47 2193.79 4179.3 2188.46C4183.3 2182.96 4188.89 2178.71 4196.05 2175.71C4203.22 2172.71 4211.55 2171.21 4221.05 2171.21C4226.72 2171.21 4232.14 2171.79 4237.3 2172.96C4242.47 2174.13 4247.3 2175.88 4251.8 2178.21C4256.47 2180.38 4260.47 2183.13 4263.8 2186.46L4257.05 2200.71C4253.89 2197.71 4250.3 2195.21 4246.3 2193.21C4242.3 2191.04 4238.14 2189.46 4233.8 2188.46C4229.64 2187.29 4225.39 2186.71 4221.05 2186.71C4211.72 2186.71 4204.64 2188.54 4199.8 2192.21C4194.97 2195.88 4192.55 2200.71 4192.55 2206.71C4192.55 2211.38 4194.05 2215.21 4197.05 2218.21C4200.05 2221.21 4204.72 2223.38 4211.05 2224.71L4233.8 2229.46C4244.64 2231.79 4252.72 2235.54 4258.05 2240.71C4263.55 2245.71 4266.3 2252.54 4266.3 2261.21C4266.3 2268.54 4264.3 2274.96 4260.3 2280.46C4256.3 2285.79 4250.64 2289.96 4243.3 2292.96C4236.14 2295.79 4227.64 2297.21 4217.8 2297.21ZM4292.69 2294.96V2269.46H4318.19V2294.96H4292.69ZM4398.71 2297.21C4386.55 2297.21 4376.05 2294.54 4367.21 2289.21C4358.38 2283.88 4351.55 2276.46 4346.71 2266.96C4342.05 2257.29 4339.71 2246.13 4339.71 2233.46C4339.71 2220.63 4342.05 2209.54 4346.71 2200.21C4351.55 2190.88 4358.38 2183.71 4367.21 2178.71C4376.05 2173.71 4386.55 2171.21 4398.71 2171.21C4406.21 2171.21 4413.63 2172.54 4420.96 2175.21C4428.3 2177.88 4434.38 2181.63 4439.21 2186.46L4432.21 2201.21C4427.38 2196.54 4422.05 2193.13 4416.21 2190.96C4410.55 2188.79 4405.13 2187.71 4399.96 2187.71C4387.3 2187.71 4377.55 2191.71 4370.71 2199.71C4363.88 2207.54 4360.46 2218.88 4360.46 2233.71C4360.46 2248.21 4363.88 2259.71 4370.71 2268.21C4377.55 2276.54 4387.3 2280.71 4399.96 2280.71C4405.13 2280.71 4410.55 2279.63 4416.21 2277.46C4422.05 2275.29 4427.38 2271.79 4432.21 2266.96L4439.21 2281.71C4434.38 2286.54 4428.21 2290.38 4420.71 2293.21C4413.38 2295.88 4406.05 2297.21 4398.71 2297.21ZM4510.99 2297.21C4499.16 2297.21 4488.91 2294.63 4480.24 2289.46C4471.58 2284.29 4464.83 2277.04 4459.99 2267.71C4455.33 2258.21 4452.99 2247.04 4452.99 2234.21C4452.99 2221.38 4455.33 2210.29 4459.99 2200.96C4464.83 2191.46 4471.58 2184.13 4480.24 2178.96C4488.91 2173.79 4499.16 2171.21 4510.99 2171.21C4522.83 2171.21 4533.08 2173.79 4541.74 2178.96C4550.41 2184.13 4557.08 2191.46 4561.74 2200.96C4566.58 2210.29 4568.99 2221.38 4568.99 2234.21C4568.99 2247.04 4566.58 2258.21 4561.74 2267.71C4557.08 2277.04 4550.41 2284.29 4541.74 2289.46C4533.08 2294.63 4522.83 2297.21 4510.99 2297.21ZM4510.99 2280.96C4522.49 2280.96 4531.58 2276.96 4538.24 2268.96C4545.08 2260.79 4548.49 2249.13 4548.49 2233.96C4548.49 2218.96 4545.08 2207.46 4538.24 2199.46C4531.58 2191.46 4522.49 2187.46 4510.99 2187.46C4499.66 2187.46 4490.58 2191.46 4483.74 2199.46C4476.91 2207.46 4473.49 2218.96 4473.49 2233.96C4473.49 2249.13 4476.91 2260.79 4483.74 2268.96C4490.58 2276.96 4499.66 2280.96 4510.99 2280.96ZM4599.91 2294.96V2173.46H4619.66V2200.46H4616.91C4618.91 2194.29 4621.83 2189.04 4625.66 2184.71C4629.66 2180.21 4634.33 2176.88 4639.66 2174.71C4645.16 2172.38 4651.16 2171.21 4657.66 2171.21C4667.99 2171.21 4676.33 2173.71 4682.66 2178.71C4689.16 2183.54 4693.49 2191.13 4695.66 2201.46H4691.91C4694.91 2192.13 4700.24 2184.79 4707.91 2179.46C4715.74 2173.96 4724.83 2171.21 4735.16 2171.21C4744.33 2171.21 4751.83 2172.96 4757.66 2176.46C4763.66 2179.96 4768.16 2185.29 4771.16 2192.46C4774.16 2199.46 4775.66 2208.38 4775.66 2219.21V2294.96H4755.41V2220.21C4755.41 2209.04 4753.49 2200.88 4749.66 2195.71C4745.83 2190.38 4739.33 2187.71 4730.16 2187.71C4723.66 2187.71 4717.91 2189.29 4712.91 2192.46C4708.08 2195.63 4704.33 2200.13 4701.66 2205.96C4699.16 2211.63 4697.91 2218.38 4697.91 2226.21V2294.96H4677.66V2220.21C4677.66 2209.04 4675.66 2200.88 4671.66 2195.71C4667.83 2190.38 4661.41 2187.71 4652.41 2187.71C4645.74 2187.71 4639.99 2189.29 4635.16 2192.46C4630.33 2195.63 4626.58 2200.13 4623.91 2205.96C4621.41 2211.63 4620.16 2218.38 4620.16 2226.21V2294.96H4599.91ZM4810.27 2294.96V2269.46H4835.77V2294.96H4810.27ZM4907.68 2297.21C4899.35 2297.21 4891.85 2295.63 4885.18 2292.46C4878.68 2289.13 4873.51 2284.63 4869.68 2278.96C4865.85 2273.29 4863.93 2266.96 4863.93 2259.96C4863.93 2250.96 4866.18 2243.88 4870.68 2238.71C4875.35 2233.54 4882.93 2229.88 4893.43 2227.71C4904.1 2225.54 4918.6 2224.46 4936.93 2224.46H4948.18V2237.71H4937.18C4927.01 2237.71 4918.51 2238.04 4911.68 2238.71C4904.85 2239.38 4899.43 2240.54 4895.43 2242.21C4891.43 2243.88 4888.6 2246.04 4886.93 2248.71C4885.26 2251.38 4884.43 2254.71 4884.43 2258.71C4884.43 2265.54 4886.76 2271.13 4891.43 2275.46C4896.26 2279.79 4902.76 2281.96 4910.93 2281.96C4917.6 2281.96 4923.43 2280.38 4928.43 2277.21C4933.6 2274.04 4937.6 2269.71 4940.43 2264.21C4943.43 2258.71 4944.93 2252.38 4944.93 2245.21V2216.71C4944.93 2206.38 4942.85 2198.96 4938.68 2194.46C4934.51 2189.79 4927.68 2187.46 4918.18 2187.46C4910.85 2187.46 4903.76 2188.54 4896.93 2190.71C4890.1 2192.71 4883.1 2196.04 4875.93 2200.71L4868.93 2185.96C4873.26 2182.96 4878.18 2180.38 4883.68 2178.21C4889.18 2175.88 4894.93 2174.13 4900.93 2172.96C4906.93 2171.79 4912.68 2171.21 4918.18 2171.21C4928.68 2171.21 4937.35 2172.96 4944.18 2176.46C4951.01 2179.79 4956.1 2184.96 4959.43 2191.96C4962.76 2198.79 4964.43 2207.63 4964.43 2218.46V2294.96H4945.43V2266.71H4947.68C4946.35 2273.04 4943.76 2278.46 4939.93 2282.96C4936.26 2287.46 4931.68 2290.96 4926.18 2293.46C4920.68 2295.96 4914.51 2297.21 4907.68 2297.21ZM5045 2297.21C5035.16 2297.21 5027 2295.46 5020.5 2291.96C5014.16 2288.29 5009.33 2282.88 5006 2275.71C5002.83 2268.54 5001.25 2259.63 5001.25 2248.96V2173.46H5021.5V2248.71C5021.5 2255.88 5022.41 2261.88 5024.25 2266.71C5026.25 2271.38 5029.33 2274.88 5033.5 2277.21C5037.66 2279.38 5042.83 2280.46 5049 2280.46C5056 2280.46 5062.08 2278.88 5067.25 2275.71C5072.41 2272.54 5076.5 2268.13 5079.5 2262.46C5082.5 2256.79 5084 2250.13 5084 2242.46V2173.46H5104.25V2294.96H5084.5V2266.96H5087.75C5084.41 2276.79 5078.91 2284.29 5071.25 2289.46C5063.75 2294.63 5055 2297.21 5045 2297.21Z" fill="black"/>
<line x1="2570.86" y1="2558.38" x2="2570.86" y2="503.53" stroke="black" stroke-width="10"/>
</svg>
