<svg width="1821" height="483" viewBox="0 0 1821 483" fill="none" xmlns="http://www.w3.org/2000/svg">
<path d="M1651.67 349.821C1644 349.821 1636.53 349.014 1629.27 347.399C1622.21 345.987 1615.55 343.969 1609.29 341.346C1603.24 338.521 1597.99 335.192 1593.55 331.358L1601.42 314.106C1606.26 317.94 1611.51 321.168 1617.16 323.791C1622.81 326.213 1628.56 328.029 1634.41 329.239C1640.26 330.45 1646.22 331.055 1652.27 331.055C1663.77 331.055 1672.45 328.937 1678.3 324.699C1684.15 320.462 1687.08 314.711 1687.08 307.447C1687.08 301.797 1685.16 297.358 1681.33 294.13C1677.49 290.699 1671.44 288.076 1663.17 286.26L1635.62 280.207C1622.91 277.584 1613.43 273.044 1607.17 266.587C1601.12 260.13 1598.09 251.756 1598.09 241.465C1598.09 232.385 1600.41 224.617 1605.05 218.16C1609.9 211.501 1616.66 206.356 1625.33 202.724C1634.01 199.092 1644.1 197.276 1655.6 197.276C1662.46 197.276 1669.02 197.982 1675.27 199.394C1681.53 200.807 1687.38 202.925 1692.83 205.75C1698.48 208.374 1703.32 211.703 1707.36 215.738L1699.18 232.991C1695.35 229.359 1691.01 226.332 1686.17 223.911C1681.33 221.287 1676.28 219.37 1671.04 218.16C1665.99 216.747 1660.85 216.041 1655.6 216.041C1644.3 216.041 1635.72 218.261 1629.87 222.7C1624.02 227.139 1621.1 232.991 1621.1 240.255C1621.1 245.904 1622.91 250.545 1626.54 254.177C1630.18 257.809 1635.83 260.433 1643.49 262.047L1671.04 267.798C1684.15 270.622 1693.94 275.162 1700.39 281.418C1707.05 287.471 1710.38 295.744 1710.38 306.237C1710.38 315.115 1707.96 322.883 1703.12 329.542C1698.28 335.999 1691.42 341.043 1682.54 344.675C1673.86 348.106 1663.57 349.821 1651.67 349.821Z" fill="#1D1D1F"/>
<path d="M1501.08 347.097V200H1524.99V234.807H1521.97C1525.4 222.902 1531.35 213.922 1539.82 207.869C1548.3 201.614 1559.5 197.982 1573.42 196.973L1582.2 196.065L1584.01 217.252L1568.58 219.068C1554.86 220.278 1544.26 224.718 1536.8 232.385C1529.53 239.851 1525.9 250.142 1525.9 263.257V347.097H1501.08Z" fill="#1D1D1F"/>
<path d="M1400.09 349.821C1385.77 349.821 1373.36 346.693 1362.86 340.438C1352.37 334.183 1344.2 325.406 1338.35 314.106C1332.7 302.604 1329.87 289.085 1329.87 273.548C1329.87 258.011 1332.7 244.593 1338.35 233.293C1344.2 221.792 1352.37 212.914 1362.86 206.658C1373.36 200.403 1385.77 197.276 1400.09 197.276C1414.42 197.276 1426.83 200.403 1437.32 206.658C1447.81 212.914 1455.89 221.792 1461.54 233.293C1467.39 244.593 1470.31 258.011 1470.31 273.548C1470.31 289.085 1467.39 302.604 1461.54 314.106C1455.89 325.406 1447.81 334.183 1437.32 340.438C1426.83 346.693 1414.42 349.821 1400.09 349.821ZM1400.09 330.147C1414.02 330.147 1425.01 325.305 1433.08 315.619C1441.36 305.732 1445.49 291.607 1445.49 273.246C1445.49 255.085 1441.36 241.163 1433.08 231.477C1425.01 221.792 1414.02 216.949 1400.09 216.949C1386.37 216.949 1375.38 221.792 1367.1 231.477C1358.83 241.163 1354.69 255.085 1354.69 273.246C1354.69 291.607 1358.83 305.732 1367.1 315.619C1375.38 325.305 1386.37 330.147 1400.09 330.147Z" fill="#1D1D1F"/>
<path d="M1237.96 349.821C1223.64 349.821 1211.23 346.693 1200.74 340.438C1190.24 334.183 1182.07 325.406 1176.22 314.106C1170.57 302.604 1167.75 289.085 1167.75 273.548C1167.75 258.011 1170.57 244.593 1176.22 233.293C1182.07 221.792 1190.24 212.914 1200.74 206.658C1211.23 200.403 1223.64 197.276 1237.96 197.276C1252.29 197.276 1264.7 200.403 1275.19 206.658C1285.69 212.914 1293.76 221.792 1299.41 233.293C1305.26 244.593 1308.18 258.011 1308.18 273.548C1308.18 289.085 1305.26 302.604 1299.41 314.106C1293.76 325.406 1285.69 334.183 1275.19 340.438C1264.7 346.693 1252.29 349.821 1237.96 349.821ZM1237.96 330.147C1251.89 330.147 1262.88 325.305 1270.96 315.619C1279.23 305.732 1283.36 291.607 1283.36 273.246C1283.36 255.085 1279.23 241.163 1270.96 231.477C1262.88 221.792 1251.89 216.949 1237.96 216.949C1224.24 216.949 1213.25 221.792 1204.97 231.477C1196.7 241.163 1192.56 255.085 1192.56 273.246C1192.56 291.607 1196.7 305.732 1204.97 315.619C1213.25 325.305 1224.24 330.147 1237.96 330.147Z" fill="#1D1D1F"/>
<path d="M1062.41 349.821C1049.3 349.821 1037.8 346.693 1027.91 340.438C1018.22 334.183 1010.66 325.405 1005.21 314.106C999.963 302.604 997.34 289.085 997.34 273.548C997.34 257.809 999.963 244.29 1005.21 232.991C1010.66 221.489 1018.22 212.712 1027.91 206.658C1037.8 200.403 1049.3 197.276 1062.41 197.276C1075.73 197.276 1087.13 200.605 1096.62 207.264C1106.1 213.922 1112.45 222.902 1115.68 234.201H1112.35V133.715H1136.87V347.097H1112.96V311.987H1115.99C1112.76 323.489 1106.3 332.67 1096.62 339.53C1087.13 346.391 1075.73 349.821 1062.41 349.821ZM1067.56 330.147C1081.48 330.147 1092.48 325.305 1100.55 315.619C1108.82 305.732 1112.96 291.708 1112.96 273.548C1112.96 255.186 1108.82 241.163 1100.55 231.477C1092.48 221.792 1081.48 216.949 1067.56 216.949C1053.84 216.949 1042.84 221.792 1034.57 231.477C1026.3 241.163 1022.16 255.186 1022.16 273.548C1022.16 291.708 1026.3 305.732 1034.57 315.619C1042.84 325.305 1053.84 330.147 1067.56 330.147Z" fill="#1D1D1F"/>
<path d="M794.331 347.097V330.753L883.013 212.712V219.068H794.331V200H905.713V216.344L816.123 334.99V328.029H909.043V347.097H794.331Z" fill="#1D1D1F"/>
<path d="M733.367 163.377V135.834H763.634V163.377H733.367ZM736.394 347.097V200H760.91V347.097H736.394Z" fill="#1D1D1F"/>
<path d="M633.972 347.097V200H657.883V234.807H654.856C658.286 222.902 664.239 213.922 672.713 207.869C681.188 201.614 692.387 197.982 706.31 196.973L715.087 196.065L716.903 217.252L701.467 219.068C687.746 220.278 677.152 224.718 669.687 232.385C662.423 239.851 658.791 250.142 658.791 263.257V347.097H633.972Z" fill="#1D1D1F"/>
<path d="M538.023 349.821C524.706 349.821 513.204 346.391 503.519 339.53C494.035 332.67 487.679 323.489 484.451 311.987H487.477V347.097H463.566V133.715H488.083V234.201H484.451C487.881 222.902 494.338 213.923 503.821 207.264C513.305 200.605 524.706 197.276 538.023 197.276C551.34 197.276 562.842 200.403 572.527 206.659C582.213 212.712 589.679 221.489 594.925 232.991C600.373 244.29 603.097 257.81 603.097 273.548C603.097 289.085 600.373 302.605 594.925 314.106C589.679 325.406 582.112 334.183 572.225 340.438C562.539 346.693 551.139 349.821 538.023 349.821ZM532.878 330.148C546.8 330.148 557.797 325.305 565.869 315.619C574.142 305.732 578.278 291.709 578.278 273.548C578.278 255.187 574.142 241.163 565.869 231.477C557.797 221.792 546.8 216.949 532.878 216.949C519.157 216.949 508.16 221.792 499.887 231.477C491.614 241.163 487.477 255.187 487.477 273.548C487.477 291.709 491.614 305.732 499.887 315.619C508.16 325.305 519.157 330.148 532.878 330.148Z" fill="#1D1D1F"/>
<path d="M230.932 71.6425C256.135 66.2854 276.567 82.8304 276.567 108.597V339.535C276.566 365.301 256.135 390.532 230.932 395.889L155.635 411.894C130.431 417.251 110 400.706 110 374.94V144.002C110 118.235 130.431 93.0046 155.635 87.6474L230.932 71.6425ZM235.495 140.654C235.495 125.194 223.236 115.267 208.114 118.481L178.452 124.786C163.33 128.001 151.071 143.139 151.071 158.599V342.883C151.071 358.342 163.33 368.27 178.452 365.055L208.114 358.75C223.236 355.536 235.495 340.398 235.495 324.938V140.654Z" fill="#1D1D1F"/>
</svg>
