<svg width="1180" height="346" viewBox="0 0 1180 346" fill="none" xmlns="http://www.w3.org/2000/svg">
<path d="M1034.77 238.328C1030.17 238.328 1025.69 237.844 1021.33 236.875C1017.09 236.028 1013.1 234.817 1009.35 233.243C1005.71 231.548 1002.57 229.55 999.902 227.25L1004.62 216.899C1007.53 219.199 1010.68 221.136 1014.07 222.71C1017.46 224.163 1020.91 225.253 1024.42 225.979C1027.93 226.705 1031.5 227.069 1035.13 227.069C1042.03 227.069 1047.24 225.797 1050.75 223.255C1054.26 220.713 1056.02 217.262 1056.02 212.904C1056.02 209.514 1054.87 206.85 1052.57 204.913C1050.27 202.855 1046.63 201.281 1041.67 200.192L1025.14 196.56C1017.52 194.986 1011.83 192.262 1008.07 188.387C1004.44 184.513 1002.63 179.489 1002.63 173.315C1002.63 167.867 1004.02 163.205 1006.8 159.331C1009.71 155.336 1013.76 152.249 1018.97 150.07C1024.18 147.89 1030.23 146.801 1037.13 146.801C1041.25 146.801 1045.18 147.225 1048.93 148.072C1052.69 148.919 1056.2 150.191 1059.47 151.886C1062.86 153.46 1065.76 155.457 1068.18 157.878L1063.28 168.23C1060.98 166.051 1058.38 164.235 1055.47 162.782C1052.57 161.208 1049.54 160.058 1046.39 159.331C1043.37 158.484 1040.28 158.06 1037.13 158.06C1030.35 158.06 1025.21 159.392 1021.69 162.055C1018.18 164.719 1016.43 168.23 1016.43 172.588C1016.43 175.978 1017.52 178.763 1019.7 180.942C1021.88 183.121 1025.27 184.695 1029.87 185.663L1046.39 189.114C1054.26 190.809 1060.13 193.533 1064.01 197.286C1068 200.918 1070 205.882 1070 212.177C1070 217.504 1068.55 222.165 1065.64 226.161C1062.74 230.035 1058.62 233.061 1053.29 235.241C1048.09 237.299 1041.91 238.328 1034.77 238.328Z" fill="#1D1D1F"/>
<path d="M944.42 236.694V148.435H958.766V169.319H956.95C959.009 162.176 962.58 156.789 967.665 153.157C972.75 149.404 979.469 147.225 987.823 146.619L993.089 146.074L994.179 158.787L984.917 159.876C976.684 160.603 970.328 163.266 965.849 167.867C961.49 172.346 959.311 178.521 959.311 186.39V236.694H944.42Z" fill="#1D1D1F"/>
<path d="M883.826 238.328C875.23 238.328 867.784 236.451 861.489 232.698C855.193 228.945 850.29 223.679 846.779 216.899C843.389 209.998 841.694 201.887 841.694 192.564C841.694 183.242 843.389 175.191 846.779 168.411C850.29 161.51 855.193 156.184 861.489 152.43C867.784 148.677 875.23 146.801 883.826 146.801C892.422 146.801 899.867 148.677 906.163 152.43C912.458 156.184 917.301 161.51 920.691 168.411C924.202 175.191 925.957 183.242 925.957 192.564C925.957 201.887 924.202 209.998 920.691 216.899C917.301 223.679 912.458 228.945 906.163 232.698C899.867 236.451 892.422 238.328 883.826 238.328ZM883.826 226.524C892.179 226.524 898.778 223.618 903.62 217.807C908.584 211.875 911.066 203.4 911.066 192.383C911.066 181.487 908.584 173.133 903.62 167.322C898.778 161.51 892.179 158.605 883.826 158.605C875.593 158.605 868.995 161.51 864.031 167.322C859.068 173.133 856.586 181.487 856.586 192.383C856.586 203.4 859.068 211.875 864.031 217.807C868.995 223.618 875.593 226.524 883.826 226.524Z" fill="#1D1D1F"/>
<path d="M786.548 238.328C777.953 238.328 770.507 236.451 764.212 232.698C757.916 228.945 753.013 223.679 749.502 216.899C746.112 209.998 744.417 201.887 744.417 192.564C744.417 183.242 746.112 175.191 749.502 168.411C753.013 161.51 757.916 156.184 764.212 152.43C770.507 148.677 777.953 146.801 786.548 146.801C795.144 146.801 802.59 148.677 808.885 152.43C815.181 156.184 820.024 161.51 823.414 168.411C826.925 175.191 828.68 183.242 828.68 192.564C828.68 201.887 826.925 209.998 823.414 216.899C820.024 223.679 815.181 228.945 808.885 232.698C802.59 236.451 795.144 238.328 786.548 238.328ZM786.548 226.524C794.902 226.524 801.5 223.618 806.343 217.807C811.307 211.875 813.789 203.4 813.789 192.383C813.789 181.487 811.307 173.133 806.343 167.322C801.5 161.51 794.902 158.605 786.548 158.605C778.316 158.605 771.718 161.51 766.754 167.322C761.79 173.133 759.308 181.487 759.308 192.383C759.308 203.4 761.79 211.875 766.754 217.807C771.718 223.618 778.316 226.524 786.548 226.524Z" fill="#1D1D1F"/>
<path d="M681.218 238.328C673.349 238.328 666.448 236.451 660.516 232.698C654.704 228.945 650.164 223.679 646.895 216.899C643.748 209.998 642.174 201.887 642.174 192.564C642.174 183.121 643.748 175.01 646.895 168.23C650.164 161.329 654.704 156.063 660.516 152.43C666.448 148.677 673.349 146.801 681.218 146.801C689.209 146.801 696.049 148.798 701.739 152.794C707.429 156.789 711.243 162.176 713.18 168.956H711.182V108.665H725.892V236.694H711.546V215.628H713.362C711.424 222.529 707.55 228.037 701.739 232.153C696.049 236.27 689.209 238.328 681.218 238.328ZM684.305 226.524C692.659 226.524 699.257 223.618 704.1 217.807C709.064 211.875 711.546 203.46 711.546 192.564C711.546 181.547 709.064 173.133 704.1 167.322C699.257 161.511 692.659 158.605 684.305 158.605C676.073 158.605 669.475 161.511 664.511 167.322C659.547 173.133 657.065 181.547 657.065 192.564C657.065 203.46 659.547 211.875 664.511 217.807C669.475 223.618 676.073 226.524 684.305 226.524Z" fill="#1D1D1F"/>
<path d="M520.369 236.693V226.887L573.578 156.062V159.876H520.369V148.435H587.198V158.242L533.444 229.429V225.252H589.196V236.693H520.369Z" fill="#1D1D1F"/>
<path d="M483.79 126.462V109.936H501.95V126.462H483.79ZM485.606 236.694V148.435H500.316V236.694H485.606Z" fill="#1D1D1F"/>
<path d="M424.153 236.694V148.435H438.5V169.319H436.684C438.742 162.176 442.313 156.789 447.398 153.157C452.483 149.404 459.202 147.225 467.556 146.619L472.822 146.074L473.912 158.787L464.65 159.876C456.418 160.603 450.062 163.266 445.582 167.867C441.224 172.346 439.045 178.521 439.045 186.39V236.694H424.153Z" fill="#1D1D1F"/>
<path d="M366.584 238.328C358.594 238.328 351.693 236.27 345.882 232.154C340.191 228.037 336.378 222.529 334.441 215.628H336.257V236.694H321.91V108.665H336.62V168.956H334.441C336.499 162.177 340.373 156.789 346.063 152.794C351.753 148.799 358.594 146.801 366.584 146.801C374.575 146.801 381.475 148.678 387.287 152.431C393.098 156.063 397.577 161.329 400.725 168.23C403.994 175.01 405.628 183.121 405.628 192.565C405.628 201.887 403.994 209.998 400.725 216.899C397.577 223.679 393.037 228.945 387.105 232.699C381.294 236.452 374.453 238.328 366.584 238.328ZM363.497 226.524C371.851 226.524 378.449 223.618 383.291 217.807C388.255 211.875 390.737 203.461 390.737 192.565C390.737 181.547 388.255 173.133 383.291 167.322C378.449 161.511 371.851 158.605 363.497 158.605C355.264 158.605 348.666 161.511 343.702 167.322C338.739 173.133 336.257 181.547 336.257 192.565C336.257 203.461 338.739 211.875 343.702 217.807C348.666 223.618 355.264 226.524 363.497 226.524Z" fill="#1D1D1F"/>
<path d="M182.559 71.2396C197.681 68.0253 209.94 77.9524 209.94 93.4122V231.975C209.94 247.435 197.681 262.573 182.559 265.788L137.381 275.39C122.259 278.605 110 268.678 110 253.218V114.655C110 99.1952 122.259 84.0568 137.381 80.8426L182.559 71.2396ZM185.297 112.646C185.297 103.371 177.942 97.4143 168.869 99.3428L151.071 103.126C141.998 105.054 134.643 114.137 134.643 123.413V233.984C134.643 243.26 141.998 249.216 151.071 247.287L168.869 243.504C177.942 241.576 185.297 232.493 185.297 223.217V112.646Z" fill="#1D1D1F"/>
</svg>
