<svg width="320" height="133" viewBox="0 0 320 133" fill="none" xmlns="http://www.w3.org/2000/svg">
<g clip-path="url(#clip0_2020_79)">
<path d="M308.255 88.3062C306.722 88.3062 305.229 88.1447 303.776 87.8219C302.363 87.5394 301.032 87.1358 299.781 86.6112C298.57 86.0462 297.521 85.3804 296.633 84.6136L298.207 81.1632C299.175 81.9299 300.224 82.5756 301.354 83.1003C302.484 83.5845 303.635 83.9477 304.805 84.1899C305.975 84.432 307.166 84.5531 308.376 84.5531C310.677 84.5531 312.412 84.1293 313.582 83.2819C314.753 82.4344 315.338 81.2842 315.338 79.8314C315.338 78.7015 314.954 77.8136 314.188 77.1679C313.421 76.4819 312.21 75.9573 310.556 75.5941L305.047 74.3834C302.505 73.8588 300.608 72.9507 299.357 71.6594C298.146 70.368 297.541 68.6932 297.541 66.6351C297.541 64.819 298.005 63.2653 298.933 61.974C299.902 60.6422 301.254 59.6131 302.989 58.8867C304.724 58.1603 306.742 57.7971 309.042 57.7971C310.414 57.7971 311.726 57.9384 312.977 58.2209C314.228 58.5033 315.398 58.9271 316.488 59.4921C317.618 60.0167 318.586 60.6826 319.394 61.4897L317.759 64.9401C316.992 64.2137 316.125 63.6084 315.156 63.1241C314.188 62.5995 313.179 62.2161 312.129 61.974C311.121 61.6915 310.092 61.5502 309.042 61.5502C306.782 61.5502 305.067 61.9941 303.897 62.882C302.727 63.7698 302.141 64.9401 302.141 66.3929C302.141 67.5229 302.505 68.4511 303.231 69.1775C303.957 69.9039 305.087 70.4285 306.621 70.7514L312.129 71.9015C314.753 72.4665 316.71 73.3745 318.001 74.6255C319.333 75.8362 319.999 77.4908 319.999 79.5893C319.999 81.3649 319.515 82.9187 318.546 84.2504C317.578 85.5418 316.205 86.5507 314.43 87.2771C312.694 87.9631 310.636 88.3062 308.255 88.3062Z" fill="#1D1D1F"/>
<path d="M278.139 87.7613V58.3419H282.921V65.3033H282.316C283.002 62.9223 284.192 61.1264 285.887 59.9157C287.582 58.6647 289.822 57.9383 292.606 57.7365L294.362 57.5549L294.725 61.7923L291.638 62.1555C288.894 62.3976 286.775 63.2855 285.282 64.819C283.829 66.3122 283.102 68.3703 283.102 70.9934V87.7613H278.139Z" fill="#1D1D1F"/>
<path d="M257.94 88.3062C255.075 88.3062 252.593 87.6806 250.495 86.4296C248.396 85.1786 246.762 83.4231 245.591 81.1632C244.461 78.8629 243.896 76.159 243.896 73.0516C243.896 69.9442 244.461 67.2606 245.591 65.0006C246.762 62.7004 248.396 60.9247 250.495 59.6737C252.593 58.4226 255.075 57.7971 257.94 57.7971C260.806 57.7971 263.287 58.4226 265.386 59.6737C267.484 60.9247 269.099 62.7004 270.229 65.0006C271.399 67.2606 271.984 69.9442 271.984 73.0516C271.984 76.159 271.399 78.8629 270.229 81.1632C269.099 83.4231 267.484 85.1786 265.386 86.4296C263.287 87.6806 260.806 88.3062 257.94 88.3062ZM257.94 84.3715C260.725 84.3715 262.924 83.4029 264.539 81.4658C266.193 79.4884 267.02 76.6635 267.02 72.9911C267.02 69.3591 266.193 66.5745 264.539 64.6374C262.924 62.7004 260.725 61.7318 257.94 61.7318C255.196 61.7318 252.997 62.7004 251.342 64.6374C249.688 66.5745 248.86 69.3591 248.86 72.9911C248.86 76.6635 249.688 79.4884 251.342 81.4658C252.997 83.4029 255.196 84.3715 257.94 84.3715Z" fill="#1D1D1F"/>
<path d="M225.515 88.3062C222.649 88.3062 220.167 87.6806 218.069 86.4296C215.97 85.1786 214.336 83.4231 213.166 81.1632C212.036 78.8629 211.471 76.159 211.471 73.0516C211.471 69.9442 212.036 67.2606 213.166 65.0006C214.336 62.7004 215.97 60.9247 218.069 59.6737C220.167 58.4226 222.649 57.7971 225.515 57.7971C228.38 57.7971 230.862 58.4226 232.96 59.6737C235.059 60.9247 236.673 62.7004 237.803 65.0006C238.973 67.2606 239.558 69.9442 239.558 73.0516C239.558 76.159 238.973 78.8629 237.803 81.1632C236.673 83.4231 235.059 85.1786 232.96 86.4296C230.862 87.6806 228.38 88.3062 225.515 88.3062ZM225.515 84.3715C228.299 84.3715 230.498 83.4029 232.113 81.4658C233.767 79.4884 234.595 76.6635 234.595 72.9911C234.595 69.3591 233.767 66.5745 232.113 64.6374C230.498 62.7004 228.299 61.7318 225.515 61.7318C222.77 61.7318 220.571 62.7004 218.916 64.6374C217.262 66.5745 216.434 69.3591 216.434 72.9911C216.434 76.6635 217.262 79.4884 218.916 81.4658C220.571 83.4029 222.77 84.3715 225.515 84.3715Z" fill="#1D1D1F"/>
<path d="M190.403 88.3061C187.78 88.3061 185.48 87.6806 183.503 86.4296C181.565 85.1785 180.052 83.423 178.963 81.1631C177.913 78.8628 177.389 76.159 177.389 73.0516C177.389 69.9038 177.913 67.2 178.963 64.9401C180.052 62.6398 181.565 60.8843 183.503 59.6736C185.48 58.4226 187.78 57.7971 190.403 57.7971C193.067 57.7971 195.347 58.4629 197.244 59.7947C199.14 61.1264 200.412 62.9223 201.057 65.1822H200.392V45.085H205.295V87.7613H200.513V80.7394H201.118C200.472 83.0397 199.181 84.8759 197.244 86.248C195.347 87.6201 193.067 88.3061 190.403 88.3061ZM191.433 84.3714C194.217 84.3714 196.416 83.4029 198.031 81.4658C199.685 79.4883 200.513 76.6836 200.513 73.0516C200.513 69.3792 199.685 66.5745 198.031 64.6374C196.416 62.7003 194.217 61.7318 191.433 61.7318C188.688 61.7318 186.489 62.7003 184.834 64.6374C183.18 66.5745 182.352 69.3792 182.352 73.0516C182.352 76.6836 183.18 79.4883 184.834 81.4658C186.489 83.4029 188.688 84.3714 191.433 84.3714Z" fill="#1D1D1F"/>
<path d="M136.787 87.7612V84.4924L154.524 60.8842V62.1554H136.787V58.3418H159.064V61.6106L141.146 85.3399V83.9476H159.729V87.7612H136.787Z" fill="#1D1D1F"/>
<path d="M124.596 51.0174V45.5088H130.649V51.0174H124.596ZM125.201 87.7614V58.342H130.104V87.7614H125.201Z" fill="#1D1D1F"/>
<path d="M104.715 87.7613V58.3419H109.497V65.3033H108.892C109.578 62.9223 110.768 61.1264 112.463 59.9157C114.158 58.6647 116.398 57.9383 119.182 57.7365L120.938 57.5549L121.301 61.7923L118.214 62.1555C115.47 62.3976 113.351 63.2855 111.858 64.819C110.405 66.3122 109.679 68.3703 109.679 70.9934V87.7613H104.715Z" fill="#1D1D1F"/>
<path d="M85.5261 88.3063C82.8626 88.3063 80.5623 87.6203 78.6252 86.2482C76.7285 84.8761 75.4573 83.0399 74.8116 80.7396H75.4169V87.7615H70.6348V45.0852H75.538V65.1824H74.8116C75.4976 62.9225 76.789 61.1267 78.6858 59.7949C80.5825 58.4632 82.8626 57.7973 85.5261 57.7973C88.1896 57.7973 90.4898 58.4228 92.4269 59.6739C94.364 60.8845 95.8572 62.64 96.9064 64.9403C97.996 67.2002 98.5408 69.9041 98.5408 73.0518C98.5408 76.1592 97.996 78.8631 96.9064 81.1634C95.8572 83.4233 94.3438 85.1788 92.3664 86.4298C90.4293 87.6808 88.1492 88.3063 85.5261 88.3063ZM84.497 84.3716C87.2816 84.3716 89.481 83.4031 91.0952 81.466C92.7498 79.4886 93.5771 76.6839 93.5771 73.0518C93.5771 69.3794 92.7498 66.5747 91.0952 64.6376C89.481 62.7005 87.2816 61.732 84.497 61.732C81.7528 61.732 79.5534 62.7005 77.8988 64.6376C76.2442 66.5747 75.4169 69.3794 75.4169 73.0518C75.4169 76.6839 76.2442 79.4886 77.8988 81.466C79.5534 83.4031 81.7528 84.3716 84.497 84.3716Z" fill="#1D1D1F"/>
<path d="M24.1844 32.6101C29.2251 31.5387 33.3114 34.8477 33.3114 40.001V86.1887C33.3113 91.3419 29.2251 96.388 24.1844 97.4595L9.125 100.66C4.08433 101.732 -0.00194707 98.4229 -0.00195312 93.2696V47.0819C-0.00195312 41.9287 4.08433 36.8826 9.125 35.8111L24.1844 32.6101ZM25.0971 46.4124C25.0971 43.3205 22.6453 41.335 19.6209 41.9779L13.6885 43.2389C10.6641 43.8817 8.21231 46.9094 8.2123 50.0014V86.8582C8.2123 89.9501 10.6641 91.9356 13.6885 91.2927L19.6209 90.0317C22.6453 89.3889 25.0971 86.3612 25.0971 83.2692V46.4124Z" fill="#1D1D1F"/>
</g>
<defs>
<clipPath id="clip0_2020_79">
<rect width="320" height="132" fill="white" transform="translate(0 0.635254)"/>
</clipPath>
</defs>
</svg>
