<svg width="228" height="157" viewBox="0 0 228 157" fill="none" xmlns="http://www.w3.org/2000/svg">
<path d="M115.653 70.7815C116.831 70.531 117.787 71.3045 117.787 72.509V83.3047C117.787 84.5092 116.831 85.6887 115.653 85.9391L112.133 86.6873C110.955 86.9377 110 86.1643 110 84.9598V74.164C110 72.9595 110.955 71.7801 112.133 71.5296L115.653 70.7815ZM115.867 74.0075C115.867 73.2848 115.293 72.8208 114.587 72.971L113.2 73.2658C112.493 73.416 111.92 74.1237 111.92 74.8464V83.4612C111.92 84.1839 112.493 84.648 113.2 84.4977L114.587 84.203C115.293 84.0527 115.867 83.345 115.867 82.6223V74.0075Z" fill="#1D1D1F"/>
</svg>
