<svg width="1217" height="2189" viewBox="0 0 1217 2189" fill="none" xmlns="http://www.w3.org/2000/svg">
<path d="M833.614 76.7615C984.422 44.7063 1106.68 143.706 1106.68 297.883V1679.74C1106.68 1833.91 984.421 1984.88 833.614 2016.94L383.062 2112.71C232.255 2144.76 110 2045.76 110 1891.59V509.732C110 355.555 232.254 204.584 383.062 172.529L833.614 76.7615ZM860.92 489.698C860.919 397.193 787.567 337.795 697.083 357.028L519.594 394.755C429.109 413.988 355.756 504.57 355.756 597.076V1699.77C355.756 1792.27 429.109 1851.67 519.594 1832.44L697.083 1794.71C787.567 1775.48 860.92 1684.9 860.92 1592.39V489.698Z" fill="#1D1D1F"/>
</svg>
