<svg width="252" height="205" viewBox="0 0 252 205" fill="none" xmlns="http://www.w3.org/2000/svg">
<path d="M132.613 70.9227C137.326 69.921 141.146 73.0147 141.146 77.8328V121.016C141.146 125.834 137.326 130.552 132.613 131.553L118.533 134.546C113.82 135.548 110 132.454 110 127.636V84.4531C110 79.635 113.82 74.9172 118.533 73.9155L132.613 70.9227ZM133.466 83.827C133.466 80.9362 131.174 79.08 128.346 79.681L122.8 80.86C119.972 81.4611 117.68 84.2917 117.68 87.1826V121.642C117.68 124.532 119.972 126.389 122.8 125.788L128.346 124.609C131.174 124.008 133.466 121.177 133.466 118.286V83.827Z" fill="#1D1D1F"/>
</svg>
