<svg width="236" height="173" viewBox="0 0 236 173" fill="none" xmlns="http://www.w3.org/2000/svg">
<path d="M121.306 70.8285C123.663 70.3277 125.573 71.8746 125.573 74.2836V95.875C125.573 98.284 123.663 100.643 121.306 101.144L114.267 102.64C111.91 103.141 110 101.594 110 99.1852V77.5937C110 75.1847 111.91 72.8258 114.267 72.3249L121.306 70.8285ZM121.733 77.2807C121.733 75.8353 120.587 74.9072 119.173 75.2077L116.4 75.7972C114.986 76.0977 113.84 77.5131 113.84 78.9585V96.188C113.84 97.6334 114.986 98.5616 116.4 98.261L119.173 97.6716C120.587 97.371 121.733 95.9556 121.733 94.5102V77.2807Z" fill="#1D1D1F"/>
</svg>
