<svg width="321" height="133" viewBox="0 0 321 133" fill="none" xmlns="http://www.w3.org/2000/svg">
<g clip-path="url(#clip0_52_963)">
<path d="M174.71 1.12479C184.43 -0.941265 192.31 5.43958 192.31 15.3768V104.442C192.31 114.379 184.43 124.109 174.71 126.175L145.671 132.348C135.951 134.414 128.071 128.033 128.071 118.096V29.0311C128.071 19.0939 135.951 9.36339 145.671 7.29733L174.71 1.12479ZM176.47 27.7399C176.47 21.7776 171.743 17.9492 165.911 19.1888L154.471 21.6205C148.639 22.8601 143.911 28.6984 143.911 34.6607V105.733C143.911 111.695 148.639 115.523 154.471 114.284L165.911 111.852C171.743 110.613 176.47 104.774 176.47 98.8117V27.7399Z" fill="#1D1D1F"/>
</g>
<defs>
<clipPath id="clip0_52_963">
<rect width="320" height="132" fill="white" transform="translate(0.19043 0.736328)"/>
</clipPath>
</defs>
</svg>
