<svg width="719" height="1165" viewBox="0 0 719 1165" fill="none" xmlns="http://www.w3.org/2000/svg">
<path d="M471.807 73.7479C547.211 57.7203 608.338 107.22 608.338 184.309V875.235C608.338 952.324 547.211 1027.81 471.807 1043.84L246.531 1091.72C171.127 1107.75 110 1058.25 110 981.16V290.233C110 213.145 171.127 137.659 246.531 121.632L471.807 73.7479ZM485.46 280.216C485.46 233.964 448.783 204.265 403.541 213.881L314.797 232.745C269.554 242.361 232.878 287.652 232.878 333.905V885.251C232.878 931.504 269.555 961.204 314.797 951.588L403.541 932.724C448.784 923.107 485.46 877.815 485.46 831.562V280.216Z" fill="#1D1D1F"/>
</svg>
