<svg width="283" height="269" viewBox="0 0 283 269" fill="none" xmlns="http://www.w3.org/2000/svg">
<path d="M155.226 71.1111C164.651 69.1076 172.292 75.2951 172.292 84.9312V171.297C172.292 180.933 164.651 190.369 155.226 192.372L127.066 198.358C117.641 200.361 110 194.174 110 184.538V98.1717C110 88.5357 117.641 79.1 127.066 77.0966L155.226 71.1111ZM156.932 96.9196C156.932 91.138 152.348 87.4257 146.693 88.6277L135.6 90.9857C129.944 92.1877 125.36 97.8491 125.36 103.631V172.549C125.36 178.331 129.944 182.043 135.6 180.841L146.693 178.483C152.348 177.281 156.932 171.619 156.932 165.838V96.9196Z" fill="#1D1D1F"/>
</svg>
