<svg width="470" height="653" viewBox="0 0 470 653" fill="none" xmlns="http://www.w3.org/2000/svg">
<path d="M290.903 72.2412C328.605 64.2273 359.169 88.9773 359.169 127.522V472.985C359.169 511.529 328.605 549.272 290.903 557.286L178.266 581.228C140.564 589.241 110 564.491 110 525.947V180.484C110 141.94 140.564 104.197 178.266 96.1831L290.903 72.2412ZM297.73 175.475C297.73 152.349 279.392 137.499 256.771 142.308L212.398 151.74C189.777 156.548 171.439 179.193 171.439 202.32V477.993C171.439 501.119 189.777 515.969 212.398 511.161L256.771 501.729C279.392 496.921 297.73 474.275 297.73 451.148V175.475Z" fill="#1D1D1F"/>
</svg>
