<svg width="1500" height="415" viewBox="0 0 1500 415" fill="none" xmlns="http://www.w3.org/2000/svg">
<path d="M1343.03 294.226C1336.89 294.226 1330.92 293.58 1325.11 292.289C1319.46 291.159 1314.13 289.545 1309.13 287.446C1304.28 285.186 1300.09 282.523 1296.54 279.456L1302.83 265.654C1306.71 268.721 1310.9 271.304 1315.42 273.402C1319.94 275.339 1324.54 276.792 1329.22 277.761C1333.91 278.729 1338.67 279.213 1343.51 279.213C1352.71 279.213 1359.65 277.519 1364.33 274.129C1369.02 270.739 1371.36 266.138 1371.36 260.327C1371.36 255.807 1369.82 252.256 1366.76 249.673C1363.69 246.929 1358.85 244.83 1352.23 243.377L1330.19 238.535C1320.02 236.436 1312.44 232.804 1307.43 227.639C1302.59 222.473 1300.17 215.774 1300.17 207.541C1300.17 200.277 1302.02 194.063 1305.74 188.897C1309.61 183.57 1315.02 179.454 1321.96 176.548C1328.9 173.643 1336.97 172.19 1346.17 172.19C1351.66 172.19 1356.91 172.755 1361.91 173.885C1366.92 175.015 1371.6 176.71 1375.96 178.969C1380.48 181.068 1384.35 183.731 1387.58 186.96L1381.04 200.762C1377.97 197.856 1374.5 195.435 1370.63 193.498C1366.76 191.399 1362.72 189.866 1358.52 188.897C1354.49 187.767 1350.37 187.202 1346.17 187.202C1337.13 187.202 1330.27 188.978 1325.59 192.529C1320.91 196.08 1318.57 200.762 1318.57 206.573C1318.57 211.093 1320.02 214.805 1322.93 217.711C1325.83 220.617 1330.35 222.715 1336.49 224.007L1358.52 228.607C1369.02 230.867 1376.84 234.499 1382.01 239.503C1387.34 244.346 1390 250.964 1390 259.358C1390 266.461 1388.06 272.676 1384.19 278.003C1380.31 283.168 1374.83 287.204 1367.72 290.11C1360.78 292.854 1352.55 294.226 1343.03 294.226Z" fill="#1D1D1F"/>
<path d="M1222.56 292.047V174.369H1241.69V202.214H1239.27C1242.01 192.691 1246.77 185.507 1253.55 180.664C1260.33 175.66 1269.29 172.755 1280.43 171.948L1287.45 171.221L1288.9 188.171L1276.56 189.623C1265.58 190.592 1257.1 194.143 1251.13 200.277C1245.32 206.25 1242.41 214.483 1242.41 224.975V292.047H1222.56Z" fill="#1D1D1F"/>
<path d="M1141.77 294.226C1130.31 294.226 1120.38 291.724 1111.99 286.72C1103.59 281.716 1097.05 274.694 1092.37 265.654C1087.85 256.453 1085.59 245.637 1085.59 233.208C1085.59 220.778 1087.85 210.044 1092.37 201.004C1097.05 191.803 1103.59 184.7 1111.99 179.696C1120.38 174.692 1130.31 172.19 1141.77 172.19C1153.23 172.19 1163.16 174.692 1171.55 179.696C1179.94 184.7 1186.4 191.803 1190.92 201.004C1195.6 210.044 1197.94 220.778 1197.94 233.208C1197.94 245.637 1195.6 256.453 1190.92 265.654C1186.4 274.694 1179.94 281.716 1171.55 286.72C1163.16 291.724 1153.23 294.226 1141.77 294.226ZM1141.77 278.487C1152.91 278.487 1161.7 274.613 1168.16 266.865C1174.78 258.955 1178.09 247.655 1178.09 232.966C1178.09 218.438 1174.78 207.299 1168.16 199.551C1161.7 191.803 1152.91 187.928 1141.77 187.928C1130.79 187.928 1121.99 191.803 1115.38 199.551C1108.76 207.299 1105.45 218.438 1105.45 232.966C1105.45 247.655 1108.76 258.955 1115.38 266.865C1121.99 274.613 1130.79 278.487 1141.77 278.487Z" fill="#1D1D1F"/>
<path d="M1012.07 294.226C1000.6 294.226 990.676 291.724 982.282 286.72C973.888 281.716 967.351 274.694 962.669 265.654C958.15 256.453 955.89 245.637 955.89 233.208C955.89 220.778 958.15 210.044 962.669 201.004C967.351 191.803 973.888 184.7 982.282 179.696C990.676 174.692 1000.6 172.19 1012.07 172.19C1023.53 172.19 1033.45 174.692 1041.85 179.696C1050.24 184.7 1056.7 191.803 1061.22 201.004C1065.9 210.044 1068.24 220.778 1068.24 233.208C1068.24 245.637 1065.9 256.453 1061.22 265.654C1056.7 274.694 1050.24 281.716 1041.85 286.72C1033.45 291.724 1023.53 294.226 1012.07 294.226ZM1012.07 278.487C1023.2 278.487 1032 274.613 1038.46 266.865C1045.08 258.955 1048.39 247.655 1048.39 232.966C1048.39 218.438 1045.08 207.299 1038.46 199.551C1032 191.803 1023.2 187.928 1012.07 187.928C1001.09 187.928 992.291 191.803 985.672 199.551C979.054 207.299 975.745 218.438 975.745 232.966C975.745 247.655 979.054 258.955 985.672 266.865C992.291 274.613 1001.09 278.487 1012.07 278.487Z" fill="#1D1D1F"/>
<path d="M871.624 294.226C861.132 294.226 851.931 291.724 844.021 286.72C836.273 281.716 830.219 274.694 825.861 265.654C821.664 256.453 819.565 245.637 819.565 233.208C819.565 220.617 821.664 209.801 825.861 200.762C830.219 191.561 836.273 184.539 844.021 179.696C851.931 174.692 861.132 172.19 871.624 172.19C882.278 172.19 891.399 174.853 898.986 180.18C906.573 185.507 911.658 192.69 914.24 201.73H911.577V121.341H931.19V292.047H912.061V263.959H914.482C911.9 273.16 906.734 280.505 898.986 285.993C891.399 291.482 882.278 294.226 871.624 294.226ZM875.741 278.487C886.879 278.487 895.677 274.613 902.134 266.865C908.752 258.955 912.061 247.736 912.061 233.208C912.061 218.518 908.752 207.299 902.134 199.551C895.677 191.803 886.879 187.929 875.741 187.929C864.764 187.929 855.966 191.803 849.348 199.551C842.73 207.299 839.421 218.518 839.421 233.208C839.421 247.736 842.73 258.955 849.348 266.865C855.966 274.613 864.764 278.487 875.741 278.487Z" fill="#1D1D1F"/>
<path d="M657.159 292.047V278.971L728.105 184.539V189.623H657.159V174.369H746.265V187.444L674.593 282.361V276.792H748.928V292.047H657.159Z" fill="#1D1D1F"/>
<path d="M608.388 145.071V123.036H632.601V145.071H608.388ZM610.809 292.047V174.369H630.422V292.047H610.809Z" fill="#1D1D1F"/>
<path d="M528.871 292.047V174.369H548V202.214H545.578C548.323 192.691 553.085 185.507 559.864 180.664C566.644 175.66 575.603 172.755 586.741 171.948L593.763 171.221L595.216 188.171L582.867 189.623C571.89 190.592 563.416 194.143 557.443 200.277C551.632 206.25 548.726 214.483 548.726 224.975V292.047H528.871Z" fill="#1D1D1F"/>
<path d="M452.112 294.226C441.458 294.226 432.257 291.482 424.509 285.993C416.922 280.505 411.837 273.16 409.254 263.959H411.676V292.047H392.547V121.341H412.16V201.73H409.254C411.998 192.69 417.164 185.507 424.751 180.18C432.338 174.853 441.458 172.19 452.112 172.19C462.766 172.19 471.967 174.692 479.716 179.696C487.464 184.539 493.437 191.561 497.634 200.762C501.992 209.801 504.171 220.617 504.171 233.208C504.171 245.637 501.992 256.453 497.634 265.654C493.437 274.694 487.383 281.716 479.473 286.72C471.725 291.724 462.605 294.226 452.112 294.226ZM447.996 278.487C459.134 278.487 467.932 274.613 474.389 266.865C481.007 258.955 484.316 247.736 484.316 233.208C484.316 218.518 481.007 207.299 474.389 199.551C467.932 191.803 459.134 187.929 447.996 187.929C437.019 187.929 428.221 191.803 421.603 199.551C414.985 207.299 411.676 218.518 411.676 233.208C411.676 247.736 414.985 258.955 421.603 266.865C428.221 274.613 437.019 278.487 447.996 278.487Z" fill="#1D1D1F"/>
<path d="M206.745 71.4411C226.908 67.1554 243.253 80.3914 243.253 101.005V285.755C243.253 306.368 226.908 326.553 206.745 330.838L146.508 343.642C126.345 347.928 110 334.692 110 314.079V129.328C110 108.715 126.345 88.5307 146.508 84.245L206.745 71.4411ZM210.396 126.65C210.396 114.282 200.589 106.341 188.492 108.912L164.762 113.956C152.664 116.527 142.857 128.638 142.857 141.006V288.433C142.857 300.801 152.664 308.743 164.762 306.171L188.492 301.127C200.589 298.556 210.396 286.445 210.396 274.077V126.65Z" fill="#1D1D1F"/>
</svg>
