<svg width="940" height="295" viewBox="0 0 940 295" fill="none" xmlns="http://www.w3.org/2000/svg">
<path d="M803.576 196.405C800.126 196.405 796.766 196.042 793.498 195.315C790.319 194.68 787.323 193.772 784.508 192.591C781.784 191.32 779.423 189.822 777.426 188.097L780.967 180.333C783.146 182.059 785.507 183.511 788.049 184.692C790.592 185.781 793.18 186.599 795.813 187.143C798.446 187.688 801.125 187.961 803.849 187.961C809.024 187.961 812.929 187.007 815.562 185.1C818.195 183.194 819.512 180.606 819.512 177.337C819.512 174.795 818.649 172.797 816.924 171.344C815.199 169.8 812.475 168.62 808.752 167.803L796.358 165.079C790.637 163.898 786.37 161.855 783.555 158.95C780.831 156.044 779.469 152.276 779.469 147.645C779.469 143.559 780.513 140.063 782.601 137.158C784.781 134.161 787.822 131.846 791.727 130.211C795.631 128.577 800.171 127.76 805.347 127.76C808.434 127.76 811.385 128.078 814.2 128.713C817.015 129.349 819.648 130.302 822.1 131.573C824.642 132.754 826.821 134.252 828.637 136.068L824.96 143.831C823.235 142.197 821.283 140.835 819.103 139.745C816.924 138.565 814.654 137.702 812.293 137.158C810.023 136.522 807.708 136.204 805.347 136.204C800.262 136.204 796.403 137.203 793.77 139.201C791.137 141.198 789.82 143.831 789.82 147.1C789.82 149.643 790.637 151.731 792.272 153.366C793.906 155 796.449 156.18 799.899 156.907L812.293 159.495C818.195 160.766 822.599 162.809 825.505 165.624C828.501 168.348 829.999 172.071 829.999 176.792C829.999 180.787 828.91 184.283 826.731 187.28C824.551 190.185 821.464 192.455 817.469 194.09C813.564 195.633 808.934 196.405 803.576 196.405Z" fill="#1D1D1F"/>
<path d="M735.814 195.179V128.986H746.574V144.649H745.212C746.756 139.292 749.435 135.251 753.248 132.527C757.062 129.712 762.101 128.078 768.367 127.624L772.316 127.215L773.134 136.749L766.187 137.566C760.013 138.111 755.246 140.109 751.886 143.559C748.617 146.919 746.983 151.55 746.983 157.452V195.179H735.814Z" fill="#1D1D1F"/>
<path d="M690.37 196.405C683.923 196.405 678.339 194.998 673.617 192.183C668.896 189.368 665.218 185.418 662.585 180.333C660.043 175.158 658.771 169.074 658.771 162.082C658.771 155.091 660.043 149.053 662.585 143.968C665.218 138.792 668.896 134.797 673.617 131.982C678.339 129.167 683.923 127.76 690.37 127.76C696.817 127.76 702.401 129.167 707.123 131.982C711.844 134.797 715.477 138.792 718.019 143.968C720.652 149.053 721.969 155.091 721.969 162.082C721.969 169.074 720.652 175.158 718.019 180.333C715.477 185.418 711.844 189.368 707.123 192.183C702.401 194.998 696.817 196.405 690.37 196.405ZM690.37 187.552C696.635 187.552 701.584 185.373 705.216 181.014C708.939 176.565 710.8 170.209 710.8 161.946C710.8 153.774 708.939 147.509 705.216 143.15C701.584 138.792 696.635 136.613 690.37 136.613C684.196 136.613 679.247 138.792 675.524 143.15C671.801 147.509 669.94 153.774 669.94 161.946C669.94 170.209 671.801 176.565 675.524 181.014C679.247 185.373 684.196 187.552 690.37 187.552Z" fill="#1D1D1F"/>
<path d="M617.411 196.405C610.964 196.405 605.38 194.998 600.658 192.183C595.937 189.368 592.259 185.418 589.626 180.333C587.084 175.158 585.812 169.074 585.812 162.082C585.812 155.091 587.084 149.053 589.626 143.968C592.259 138.792 595.937 134.797 600.658 131.982C605.38 129.167 610.964 127.76 617.411 127.76C623.858 127.76 629.442 129.167 634.164 131.982C638.885 134.797 642.518 138.792 645.06 143.968C647.693 149.053 649.01 155.091 649.01 162.082C649.01 169.074 647.693 175.158 645.06 180.333C642.518 185.418 638.885 189.368 634.164 192.183C629.442 194.998 623.858 196.405 617.411 196.405ZM617.411 187.552C623.676 187.552 628.625 185.373 632.257 181.014C635.98 176.565 637.841 170.209 637.841 161.946C637.841 153.774 635.98 147.509 632.257 143.15C628.625 138.792 623.676 136.613 617.411 136.613C611.237 136.613 606.288 138.792 602.565 143.15C598.842 147.509 596.981 153.774 596.981 161.946C596.981 170.209 598.842 176.565 602.565 181.014C606.288 185.373 611.237 187.552 617.411 187.552Z" fill="#1D1D1F"/>
<path d="M538.414 196.405C532.512 196.405 527.336 194.998 522.887 192.183C518.529 189.368 515.124 185.418 512.672 180.334C510.311 175.158 509.131 169.074 509.131 162.083C509.131 155 510.311 148.916 512.672 143.832C515.124 138.656 518.529 134.706 522.887 131.982C527.336 129.167 532.512 127.76 538.414 127.76C544.407 127.76 549.537 129.258 553.805 132.255C558.072 135.251 560.933 139.292 562.385 144.376H560.887V99.1577H571.92V195.179H561.16V179.38H562.522C561.069 184.556 558.163 188.687 553.805 191.774C549.537 194.862 544.407 196.405 538.414 196.405ZM540.729 187.552C546.995 187.552 551.943 185.373 555.575 181.015C559.298 176.565 561.16 170.255 561.16 162.083C561.16 153.82 559.298 147.509 555.575 143.151C551.943 138.792 546.995 136.613 540.729 136.613C534.555 136.613 529.606 138.792 525.884 143.151C522.161 147.509 520.299 153.82 520.299 162.083C520.299 170.255 522.161 176.565 525.884 181.015C529.606 185.373 534.555 187.552 540.729 187.552Z" fill="#1D1D1F"/>
<path d="M417.776 195.179V187.824L457.683 134.706V137.566H417.776V128.986H467.898V136.34L427.583 189.731V186.599H469.397V195.179H417.776Z" fill="#1D1D1F"/>
<path d="M390.343 112.505V100.111H403.963V112.505H390.343ZM391.705 195.179V128.986H402.737V195.179H391.705Z" fill="#1D1D1F"/>
<path d="M345.614 195.179V128.986H356.374V144.649H355.012C356.556 139.292 359.234 135.251 363.048 132.527C366.862 129.712 371.901 128.078 378.166 127.624L382.116 127.215L382.933 136.749L375.987 137.566C369.813 138.111 365.046 140.109 361.686 143.559C358.417 146.919 356.783 151.55 356.783 157.452V195.179H345.614Z" fill="#1D1D1F"/>
<path d="M302.438 196.405C296.445 196.405 291.27 194.861 286.911 191.774C282.644 188.687 279.783 184.556 278.33 179.38H279.692V195.179H268.933V99.1575H279.965V144.376H278.33C279.874 139.291 282.78 135.251 287.047 132.254C291.315 129.258 296.445 127.76 302.438 127.76C308.431 127.76 313.607 129.167 317.965 131.982C322.323 134.706 325.683 138.656 328.044 143.831C330.495 148.916 331.721 155 331.721 162.082C331.721 169.074 330.495 175.158 328.044 180.333C325.683 185.418 322.278 189.368 317.829 192.183C313.47 194.998 308.34 196.405 302.438 196.405ZM300.123 187.552C306.388 187.552 311.337 185.373 314.969 181.014C318.691 176.565 320.553 170.254 320.553 162.082C320.553 153.819 318.691 147.509 314.969 143.15C311.337 138.792 306.388 136.613 300.123 136.613C293.948 136.613 289 138.792 285.277 143.15C281.554 147.509 279.692 153.819 279.692 162.082C279.692 170.254 281.554 176.565 285.277 181.014C289 185.373 293.948 187.552 300.123 187.552Z" fill="#1D1D1F"/>
<path d="M164.419 71.0885C175.761 68.6778 184.955 76.1231 184.955 87.718V191.64C184.955 203.235 175.761 214.589 164.419 216.999L130.536 224.202C119.194 226.612 110 219.167 110 207.572V103.65C110 92.0552 119.194 80.7014 130.536 78.2907L164.419 71.0885ZM166.473 102.144C166.473 95.1867 160.956 90.7195 154.151 92.1659L140.803 95.0032C133.999 96.4496 128.482 103.262 128.482 110.219V193.147C128.482 200.103 133.999 204.571 140.803 203.124L154.151 200.287C160.956 198.841 166.473 192.028 166.473 185.071V102.144Z" fill="#1D1D1F"/>
</svg>
