<svg width="236" height="173" viewBox="0 0 236 173" fill="none" xmlns="http://www.w3.org/2000/svg">
<path d="M121.306 70.2094C123.663 69.7085 125.573 71.2554 125.573 73.6644V95.2559C125.573 97.6649 123.663 100.024 121.306 100.525L114.267 102.021C111.91 102.522 110 100.975 110 98.566V76.9746C110 74.5656 111.91 72.2066 114.267 71.7058L121.306 70.2094ZM122.16 76.1064C122.16 74.661 121.014 73.7329 119.6 74.0334L115.973 74.8043C114.559 75.1048 113.413 76.5201 113.413 77.9655V96.0675C113.413 97.5129 114.559 98.441 115.973 98.1405L119.6 97.3696C121.014 97.0691 122.16 95.6537 122.16 94.2083V76.1064Z" fill="#F9F9F9"/>
</svg>
