<svg width="470" height="653" viewBox="0 0 470 653" fill="none" xmlns="http://www.w3.org/2000/svg">
<path d="M290.903 71.622C328.605 63.6082 359.169 88.3581 359.169 126.902V472.366C359.169 510.91 328.605 548.653 290.903 556.666L178.266 580.608C140.564 588.622 110 563.872 110 525.328V179.865C110 141.32 140.564 103.578 178.266 95.564L290.903 71.622ZM304.557 165.974C304.557 142.847 286.218 127.997 263.597 132.805L205.572 145.14C182.951 149.948 164.612 172.594 164.612 195.72V485.351C164.613 508.477 182.951 523.328 205.572 518.519L263.597 506.185C286.218 501.377 304.557 478.731 304.557 455.605V165.974Z" fill="#F9F9F9"/>
</svg>
