<svg width="228" height="157" viewBox="0 0 228 157" fill="none" xmlns="http://www.w3.org/2000/svg">
<path d="M115.653 70.1623C116.831 69.9119 117.787 70.6853 117.787 71.8898V82.6856C117.787 83.8901 116.831 85.0695 115.653 85.32L112.133 86.0681C110.955 86.3186 110 85.5451 110 84.3406V73.5449C110 72.3404 110.955 71.1609 112.133 70.9105L115.653 70.1623ZM116.08 73.1108C116.08 72.3881 115.507 71.924 114.8 72.0743L112.987 72.4598C112.28 72.61 111.707 73.3177 111.707 74.0404V83.0914C111.707 83.8141 112.28 84.2781 112.987 84.1279L114.8 83.7424C115.507 83.5922 116.08 82.8845 116.08 82.1618V73.1108Z" fill="#F9F9F9"/>
</svg>
