<svg width="252" height="205" viewBox="0 0 252 205" fill="none" xmlns="http://www.w3.org/2000/svg">
<path d="M132.613 70.3036C137.326 69.3019 141.146 72.3956 141.146 77.2136V120.397C141.146 125.215 137.326 129.932 132.613 130.934L118.533 133.927C113.82 134.929 110 131.835 110 127.017V83.8339C110 79.0159 113.82 74.2981 118.533 73.2963L132.613 70.3036ZM134.32 82.0976C134.32 79.2067 132.027 77.3505 129.2 77.9515L121.946 79.4933C119.119 80.0943 116.827 82.925 116.827 85.8158V122.02C116.827 124.911 119.119 126.767 121.946 126.166L129.2 124.624C132.027 124.023 134.32 121.192 134.32 118.301V82.0976Z" fill="#F9F9F9"/>
</svg>
