<svg width="1180" height="205" viewBox="0 0 1180 205" fill="none" xmlns="http://www.w3.org/2000/svg">
<path d="M1024.79 185.96C1018.89 185.96 1013.14 185.339 1007.54 184.096C1002.11 183.008 996.979 181.455 992.163 179.435C987.502 177.26 983.463 174.696 980.045 171.745L986.104 158.461C989.833 161.413 993.872 163.899 998.222 165.918C1002.57 167.783 1007 169.181 1011.51 170.113C1016.01 171.045 1020.59 171.512 1025.26 171.512C1034.11 171.512 1040.79 169.88 1045.3 166.618C1049.8 163.355 1052.06 158.927 1052.06 153.334C1052.06 148.984 1050.58 145.566 1047.63 143.08C1044.68 140.439 1040.01 138.419 1033.64 137.021L1012.44 132.36C1002.65 130.341 995.348 126.845 990.532 121.873C985.871 116.902 983.541 110.454 983.541 102.531C983.541 95.5394 985.327 89.5579 988.901 84.5863C992.629 79.4594 997.834 75.4976 1004.51 72.7011C1011.2 69.9046 1018.96 68.5063 1027.82 68.5063C1033.1 68.5063 1038.15 69.0501 1042.97 70.1376C1047.78 71.2252 1052.29 72.8565 1056.48 75.0316C1060.83 77.0513 1064.56 79.6147 1067.67 82.722L1061.38 96.0055C1058.43 93.2089 1055.08 90.8785 1051.36 89.0142C1047.63 86.9945 1043.74 85.5185 1039.7 84.5863C1035.82 83.4988 1031.86 82.955 1027.82 82.955C1019.12 82.955 1012.52 84.664 1008.01 88.082C1003.5 91.5 1001.25 96.0055 1001.25 101.599C1001.25 105.949 1002.65 109.522 1005.45 112.318C1008.24 115.115 1012.59 117.135 1018.5 118.378L1039.7 122.805C1049.8 124.981 1057.34 128.476 1062.31 133.292C1067.44 137.953 1070 144.323 1070 152.402C1070 159.238 1068.14 165.219 1064.41 170.346C1060.68 175.318 1055.4 179.202 1048.56 181.998C1041.88 184.64 1033.96 185.96 1024.79 185.96Z" fill="#F9F9F9"/>
<path d="M908.847 183.863V70.6038H927.257V97.4038H924.927C927.568 88.2374 932.151 81.3238 938.676 76.6629C945.201 71.8467 953.824 69.0502 964.544 68.2733L971.302 67.5742L972.701 83.8872L960.815 85.2855C950.251 86.2177 942.094 89.6356 936.346 95.5394C930.753 101.288 927.956 109.211 927.956 119.31V183.863H908.847Z" fill="#F9F9F9"/>
<path d="M831.089 185.96C820.059 185.96 810.504 183.552 802.425 178.736C794.346 173.92 788.054 167.161 783.549 158.461C779.199 149.605 777.023 139.196 777.023 127.233C777.023 115.27 779.199 104.939 783.549 96.2385C788.054 87.3829 794.346 80.5469 802.425 75.7307C810.504 70.9145 820.059 68.5063 831.089 68.5063C842.12 68.5063 851.675 70.9145 859.754 75.7307C867.833 80.5469 874.047 87.3829 878.397 96.2385C882.903 104.939 885.156 115.27 885.156 127.233C885.156 139.196 882.903 149.605 878.397 158.461C874.047 167.161 867.833 173.92 859.754 178.736C851.675 183.552 842.12 185.96 831.089 185.96ZM831.089 170.812C841.809 170.812 850.277 167.084 856.491 159.626C862.861 152.014 866.046 141.138 866.046 127C866.046 113.018 862.861 102.298 856.491 94.8402C850.277 87.3829 841.809 83.6542 831.089 83.6542C820.525 83.6542 812.058 87.3829 805.688 94.8402C799.318 102.298 796.133 113.018 796.133 127C796.133 141.138 799.318 152.014 805.688 159.626C812.058 167.084 820.525 170.812 831.089 170.812Z" fill="#F9F9F9"/>
<path d="M706.256 185.96C695.226 185.96 685.671 183.552 677.592 178.736C669.513 173.92 663.221 167.161 658.716 158.461C654.365 149.605 652.19 139.196 652.19 127.233C652.19 115.27 654.365 104.939 658.716 96.2385C663.221 87.3829 669.513 80.5469 677.592 75.7307C685.671 70.9145 695.226 68.5063 706.256 68.5063C717.287 68.5063 726.842 70.9145 734.921 75.7307C743 80.5469 749.214 87.3829 753.564 96.2385C758.07 104.939 760.323 115.27 760.323 127.233C760.323 139.196 758.07 149.605 753.564 158.461C749.214 167.161 743 173.92 734.921 178.736C726.842 183.552 717.287 185.96 706.256 185.96ZM706.256 170.812C716.976 170.812 725.444 167.084 731.658 159.626C738.028 152.014 741.213 141.138 741.213 127C741.213 113.018 738.028 102.298 731.658 94.8402C725.444 87.3829 716.976 83.6542 706.256 83.6542C695.692 83.6542 687.225 87.3829 680.855 94.8402C674.485 102.298 671.3 113.018 671.3 127C671.3 141.138 674.485 152.014 680.855 159.626C687.225 167.084 695.692 170.812 706.256 170.812Z" fill="#F9F9F9"/>
<path d="M571.089 185.96C560.99 185.96 552.134 183.552 544.522 178.736C537.064 173.92 531.238 167.161 527.043 158.461C523.004 149.606 520.984 139.196 520.984 127.233C520.984 115.115 523.004 104.706 527.043 96.0056C531.238 87.1499 537.064 80.3917 544.522 75.7308C552.134 70.9146 560.99 68.5065 571.089 68.5065C581.343 68.5065 590.121 71.07 597.423 76.1969C604.725 81.3239 609.618 88.2375 612.104 96.9378H609.541V19.5674H628.417V183.863H610.007V156.83H612.337C609.852 165.686 604.88 172.755 597.423 178.037C590.121 183.319 581.343 185.96 571.089 185.96ZM575.05 170.812C585.77 170.812 594.238 167.084 600.452 159.626C606.822 152.014 610.007 141.216 610.007 127.233C610.007 113.095 606.822 102.298 600.452 94.8404C594.238 87.383 585.77 83.6543 575.05 83.6543C564.486 83.6543 556.019 87.383 549.649 94.8404C543.279 102.298 540.094 113.095 540.094 127.233C540.094 141.216 543.279 152.014 549.649 159.626C556.019 167.084 564.486 170.812 575.05 170.812Z" fill="#F9F9F9"/>
<path d="M364.676 183.863V171.278L432.957 80.3913V85.2852H364.676V70.6035H450.436V83.1879L381.455 174.541V169.181H452.999V183.863H364.676Z" fill="#F9F9F9"/>
<path d="M317.736 42.4057V21.1987H341.041V42.4057H317.736ZM320.067 183.863V70.6039H338.943V183.863H320.067Z" fill="#F9F9F9"/>
<path d="M241.205 183.863V70.6038H259.616V97.4038H257.285C259.926 88.2374 264.509 81.3238 271.035 76.6629C277.56 71.8467 286.182 69.0502 296.902 68.2733L303.661 67.5742L305.059 83.8872L293.174 85.2855C282.609 86.2177 274.453 89.6356 268.704 95.5394C263.111 101.288 260.315 109.211 260.315 119.31V183.863H241.205Z" fill="#F9F9F9"/>
<path d="M167.329 185.96C157.075 185.96 148.219 183.319 140.762 178.037C133.46 172.755 128.566 165.686 126.08 156.83H128.41V183.863H110V19.5674H128.877V96.9378H126.08C128.721 88.2375 133.693 81.3239 140.995 76.1969C148.297 71.07 157.075 68.5065 167.329 68.5065C177.583 68.5065 186.438 70.9146 193.896 75.7308C201.353 80.3917 207.101 87.1499 211.141 96.0056C215.336 104.706 217.433 115.115 217.433 127.233C217.433 139.196 215.336 149.606 211.141 158.461C207.101 167.161 201.275 173.92 193.663 178.736C186.205 183.552 177.427 185.96 167.329 185.96ZM163.367 170.812C174.087 170.812 182.554 167.084 188.769 159.626C195.138 152.014 198.323 141.216 198.323 127.233C198.323 113.095 195.138 102.298 188.769 94.8404C182.554 87.383 174.087 83.6543 163.367 83.6543C152.802 83.6543 144.335 87.383 137.965 94.8404C131.595 102.298 128.41 113.095 128.41 127.233C128.41 141.216 131.595 152.014 137.965 159.626C144.335 167.084 152.802 170.812 163.367 170.812Z" fill="#F9F9F9"/>
</svg>
